%
M48
M72
T01C0.0118
T02C0.0394
T03C0.0400
T04C0.0630
T05C0.0709
T06C0.1181
%
T01
X9306Y3275
X13243Y8039
X14582Y8039
X15054Y9574
X15369Y9850
X14857Y10834
X14582Y11188
X14227Y11897
X13755Y11897
X12928Y12330
X12613Y12330
X12298Y12330
X12298Y12645
X12298Y12960
X12613Y12960
X12613Y12645
X12928Y12645
X12928Y12960
X11826Y11779
X12180Y9771
X12180Y9299
X15369Y11385
X17219Y11700
X18361Y12842
X19149Y14102
X17940Y15086
X20694Y15116
X21550Y15204
X22180Y15204
X21826Y13669
X20802Y12645
X19778Y11621
X18755Y10637
X17377Y9850
X20290Y8905
X22337Y8905
X24345Y8905
X26432Y8905
X24463Y4771
X27141Y4220
X29936Y2291
X20290Y4771
X17810Y4338
X15960Y5834
X14857Y4929
X12613Y14968
X11314Y16346
X11708Y16740
X12062Y17055
X12416Y17370
X12416Y18551
X11314Y19653
X10881Y19220
X10448Y18787
X10015Y18354
X10015Y17173
X10448Y16976
X10881Y16740
X13873Y20322
X14306Y20322
X13676Y20716
X13755Y21818
X14227Y21818
X12928Y22251
X12613Y22251
X12298Y22251
X12298Y22566
X12613Y22566
X12928Y22566
X12928Y22881
X12613Y22881
X12298Y22881
X11826Y21700
X14306Y23984
X13755Y25204
X12613Y24889
X11314Y24732
X10881Y24732
X10448Y24732
X10015Y24732
X10408Y26700
X12692Y27566
X15172Y28354
X17219Y26976
X17219Y26425
X16078Y26110
X15802Y25204
X16274Y24102
X16944Y24102
X17771Y24141
X19070Y22645
X19897Y24141
X20684Y25007
X21983Y24141
X22771Y25007
X23952Y24141
X24778Y25007
X26078Y24141
X26865Y25007
X28086Y24141
X28873Y25007
X29306Y27842
X22023Y21031
X23912Y20007
X23204Y19181
X24778Y19614
X25448Y18590
X27456Y18590
X27456Y19141
X26432Y15086
X24034Y15086
X19660Y19535
X17672Y18767
X16944Y19535
X16944Y20007
X17692Y21385
X15015Y20007
X14700Y19535
X14621Y18354
X14621Y17803
X15290Y16700
T02
X6680Y6035
X6680Y7125
X7680Y6585
X7680Y7665
X7680Y8755
X6680Y8215
X6680Y9295
X6680Y10385
X6680Y11475
X7680Y12015
X7680Y10925
X7680Y9845
X6680Y12555
X6680Y13645
X6680Y14735
X7680Y15275
X7680Y14185
X7680Y13105
X9306Y12645
X9306Y15637
X7680Y16365
X6680Y16905
X6680Y15815
X7680Y17445
X7680Y18535
X6680Y17995
X14542Y15637
X7680Y5495
X10806Y2055
X11806Y2055
X12806Y2055
X13806Y2055
X14806Y2055
X15806Y2055
X16806Y2055
X17806Y2055
X18798Y2055
X19798Y2055
X20798Y2055
X21798Y2055
X22798Y2055
X23798Y2055
X24798Y2055
X25798Y2055
T03
X31404Y8397
X31404Y9397
X31404Y10397
X31404Y11397
X31404Y12397
X31404Y13397
X31404Y14397
X31404Y15397
X31404Y16397
X32404Y16397
X32404Y15397
X32404Y14397
X32404Y13397
X32404Y12397
X32404Y11397
X32404Y10397
X32404Y9397
X32404Y8397
X32404Y17397
X31404Y17397
X31404Y18397
X31404Y19397
X31404Y20397
X31404Y21397
X31404Y22397
X31404Y23397
X31404Y24397
X31404Y25397
X32404Y25397
X32404Y24397
X32404Y23397
X32404Y22397
X32404Y21397
X32404Y20397
X32404Y19397
X32404Y18397
T04
X4700Y28708
T05
X6471Y28708
T06
X7180Y21275
X7180Y2755
M30
