G75*
%MOIN*%
%OFA0B0*%
%FSLAX24Y24*%
%IPPOS*%
%LPD*%
%AMOC8*
5,1,8,0,0,1.08239X$1,22.5*
%
%ADD10C,0.0090*%
%ADD11C,0.0039*%
D10*
X026561Y004163D02*
X026561Y004396D01*
X026794Y004628D01*
X027044Y004279D02*
X027044Y004047D01*
X027161Y003930D01*
X027510Y003930D01*
X027769Y003930D02*
X028002Y004163D01*
X028002Y004396D01*
X027769Y004628D01*
X027510Y004396D02*
X027161Y004396D01*
X027044Y004279D01*
X026794Y003930D02*
X026561Y004163D01*
X026794Y005112D02*
X027026Y005344D01*
X027026Y005810D01*
X027286Y005693D02*
X027286Y005228D01*
X027751Y005693D01*
X027751Y005228D01*
X027635Y005112D01*
X027402Y005112D01*
X027286Y005228D01*
X027286Y005693D02*
X027402Y005810D01*
X027635Y005810D01*
X027751Y005693D01*
X028011Y005228D02*
X028127Y005228D01*
X028127Y005112D01*
X028011Y005112D01*
X028011Y005228D01*
X028374Y005228D02*
X028490Y005112D01*
X028723Y005112D01*
X028839Y005228D01*
X028839Y005693D01*
X028723Y005810D01*
X028490Y005810D01*
X028374Y005693D01*
X028374Y005577D01*
X028490Y005461D01*
X028839Y005461D01*
X029099Y005461D02*
X029331Y005577D01*
X029448Y005577D01*
X029564Y005461D01*
X029564Y005228D01*
X029448Y005112D01*
X029215Y005112D01*
X029099Y005228D01*
X029099Y005461D02*
X029099Y005810D01*
X029564Y005810D01*
X029577Y006293D02*
X029461Y006409D01*
X029461Y006642D01*
X029577Y006758D01*
X029926Y006758D01*
X029926Y006991D02*
X029926Y006293D01*
X029577Y006293D01*
X029201Y006293D02*
X029201Y006642D01*
X029085Y006758D01*
X028736Y006758D01*
X028736Y006293D01*
X028476Y006293D02*
X028476Y006758D01*
X028011Y006758D02*
X028011Y006409D01*
X028127Y006293D01*
X028476Y006293D01*
X027751Y006409D02*
X027751Y006642D01*
X027635Y006758D01*
X027402Y006758D01*
X027286Y006642D01*
X027286Y006409D01*
X027402Y006293D01*
X027635Y006293D01*
X027751Y006409D01*
X027026Y006409D02*
X026910Y006293D01*
X026677Y006293D01*
X026561Y006409D01*
X026677Y006642D02*
X026910Y006642D01*
X027026Y006525D01*
X027026Y006409D01*
X026677Y006642D02*
X026561Y006758D01*
X026561Y006874D01*
X026677Y006991D01*
X026910Y006991D01*
X027026Y006874D01*
X026561Y005810D02*
X026561Y005344D01*
X026794Y005112D01*
X028978Y004512D02*
X029094Y004628D01*
X029327Y004628D01*
X029443Y004512D01*
X029443Y004396D01*
X028978Y003930D01*
X029443Y003930D01*
X029703Y004047D02*
X030168Y004512D01*
X030168Y004047D01*
X030052Y003930D01*
X029819Y003930D01*
X029703Y004047D01*
X029703Y004512D01*
X029819Y004628D01*
X030052Y004628D01*
X030168Y004512D01*
X030428Y004396D02*
X030660Y004628D01*
X030660Y003930D01*
X030428Y003930D02*
X030893Y003930D01*
X031153Y004047D02*
X031269Y003930D01*
X031502Y003930D01*
X031618Y004047D01*
X031618Y004279D01*
X031502Y004396D01*
X031386Y004396D01*
X031153Y004279D01*
X031153Y004628D01*
X031618Y004628D01*
X031999Y005112D02*
X031999Y005810D01*
X032348Y005810D01*
X032464Y005693D01*
X032464Y005461D01*
X032348Y005344D01*
X031999Y005344D01*
X032231Y005344D02*
X032464Y005112D01*
X032724Y005228D02*
X033189Y005693D01*
X033189Y005228D01*
X033073Y005112D01*
X032840Y005112D01*
X032724Y005228D01*
X032724Y005693D01*
X032840Y005810D01*
X033073Y005810D01*
X033189Y005693D01*
X033449Y005693D02*
X033565Y005810D01*
X033798Y005810D01*
X033914Y005693D01*
X033449Y005228D01*
X033565Y005112D01*
X033798Y005112D01*
X033914Y005228D01*
X033914Y005693D01*
X034174Y005461D02*
X034523Y005461D01*
X034639Y005344D01*
X034639Y005228D01*
X034523Y005112D01*
X034290Y005112D01*
X034174Y005228D01*
X034174Y005461D01*
X034406Y005693D01*
X034639Y005810D01*
X034295Y006060D02*
X034295Y006758D01*
X034644Y006758D01*
X034760Y006642D01*
X034760Y006409D01*
X034644Y006293D01*
X034295Y006293D01*
X035020Y006293D02*
X035252Y006293D01*
X035136Y006293D02*
X035136Y006758D01*
X035020Y006758D01*
X035136Y006991D02*
X035136Y007107D01*
X035503Y006642D02*
X035619Y006758D01*
X035852Y006758D01*
X035968Y006642D01*
X035968Y006525D01*
X035503Y006525D01*
X035503Y006409D02*
X035503Y006642D01*
X035503Y006409D02*
X035619Y006293D01*
X035852Y006293D01*
X036228Y006293D02*
X036693Y006758D01*
X036228Y006758D01*
X036228Y006293D02*
X036693Y006293D01*
X036953Y006409D02*
X037069Y006293D01*
X037302Y006293D01*
X037418Y006409D01*
X037418Y006642D01*
X037302Y006758D01*
X037069Y006758D01*
X036953Y006642D01*
X036953Y006409D01*
X037678Y006642D02*
X038143Y006642D01*
X038403Y006991D02*
X038519Y006991D01*
X038519Y006293D01*
X038403Y006293D02*
X038636Y006293D01*
X038886Y006409D02*
X039003Y006525D01*
X039352Y006525D01*
X039352Y006642D02*
X039352Y006293D01*
X039003Y006293D01*
X038886Y006409D01*
X039003Y006758D02*
X039235Y006758D01*
X039352Y006642D01*
X039612Y006758D02*
X039612Y006409D01*
X039728Y006293D01*
X040077Y006293D01*
X040077Y006176D02*
X039961Y006060D01*
X039844Y006060D01*
X040077Y006176D02*
X040077Y006758D01*
X040337Y006642D02*
X040453Y006758D01*
X040686Y006758D01*
X040802Y006642D01*
X040802Y006525D01*
X040337Y006525D01*
X040337Y006409D02*
X040337Y006642D01*
X040337Y006409D02*
X040453Y006293D01*
X040686Y006293D01*
X041062Y006293D02*
X041062Y006758D01*
X041294Y006758D02*
X041062Y006525D01*
X041294Y006758D02*
X041411Y006758D01*
X035002Y004628D02*
X034536Y004628D01*
X034769Y004628D02*
X034769Y003930D01*
X034277Y004047D02*
X034160Y003930D01*
X033928Y003930D01*
X033811Y004047D01*
X033552Y004047D02*
X033435Y003930D01*
X033203Y003930D01*
X033086Y004047D01*
X033086Y004512D01*
X033203Y004628D01*
X033435Y004628D01*
X033552Y004512D01*
X033811Y004512D02*
X033811Y004396D01*
X033928Y004279D01*
X034160Y004279D01*
X034277Y004163D01*
X034277Y004047D01*
X034277Y004512D02*
X034160Y004628D01*
X033928Y004628D01*
X033811Y004512D01*
X033449Y005228D02*
X033449Y005693D01*
X033194Y006293D02*
X032961Y006293D01*
X032845Y006409D01*
X032845Y006642D01*
X032961Y006758D01*
X033194Y006758D01*
X033310Y006642D01*
X033310Y006525D01*
X032845Y006525D01*
X032585Y006642D02*
X032585Y006293D01*
X032585Y006642D02*
X032469Y006758D01*
X032120Y006758D01*
X032120Y006293D01*
X031860Y006293D02*
X031511Y006293D01*
X031395Y006409D01*
X031511Y006525D01*
X031860Y006525D01*
X031860Y006642D02*
X031860Y006293D01*
X031860Y006642D02*
X031744Y006758D01*
X031511Y006758D01*
X031028Y006991D02*
X031028Y006293D01*
X031144Y006293D02*
X030911Y006293D01*
X030651Y006409D02*
X030535Y006293D01*
X030186Y006293D01*
X030186Y006060D02*
X030186Y006758D01*
X030535Y006758D01*
X030651Y006642D01*
X030651Y006409D01*
X030911Y006991D02*
X031028Y006991D01*
X031014Y005461D02*
X030549Y005461D01*
X032603Y004628D02*
X032836Y004628D01*
X032719Y004628D02*
X032719Y003930D01*
X032603Y003930D02*
X032836Y003930D01*
D11*
X005071Y010767D02*
X005071Y010775D01*
X005071Y015870D01*
X005071Y015878D01*
X005071Y010774D02*
X005152Y010682D01*
X005237Y010591D01*
X005324Y010504D01*
X005414Y010419D01*
X005507Y010337D01*
X005602Y010258D01*
X005700Y010182D01*
X005800Y010109D01*
X005902Y010040D01*
X006006Y009973D01*
X006113Y009910D01*
X006221Y009850D01*
X006331Y009794D01*
X006443Y009741D01*
X006556Y009692D01*
X006671Y009647D01*
X006788Y009605D01*
X006905Y009566D01*
X007024Y009532D01*
X007144Y009501D01*
X007265Y009474D01*
X007386Y009451D01*
X007508Y009431D01*
X007631Y009416D01*
X007754Y009404D01*
X007878Y009396D01*
X008001Y009392D01*
X008125Y009392D01*
X008248Y009396D01*
X008372Y009404D01*
X008495Y009416D01*
X008618Y009431D01*
X008740Y009451D01*
X008861Y009474D01*
X008982Y009501D01*
X009102Y009532D01*
X009221Y009566D01*
X009338Y009605D01*
X009455Y009647D01*
X009570Y009692D01*
X009683Y009741D01*
X009795Y009794D01*
X009905Y009850D01*
X010013Y009910D01*
X010120Y009973D01*
X010224Y010040D01*
X010326Y010109D01*
X010426Y010182D01*
X010524Y010258D01*
X010619Y010337D01*
X010712Y010419D01*
X010802Y010504D01*
X010889Y010591D01*
X010974Y010682D01*
X011055Y010774D01*
X011055Y010775D02*
X011055Y015870D01*
X011055Y015878D01*
X012272Y015878D02*
X012272Y015870D01*
X012272Y010775D01*
X012272Y010767D01*
X011055Y010767D02*
X011055Y010775D01*
X011055Y015870D02*
X010974Y015962D01*
X010889Y016053D01*
X010802Y016140D01*
X010712Y016225D01*
X010619Y016307D01*
X010524Y016386D01*
X010426Y016462D01*
X010326Y016535D01*
X010224Y016604D01*
X010120Y016671D01*
X010013Y016734D01*
X009905Y016794D01*
X009795Y016850D01*
X009683Y016903D01*
X009570Y016952D01*
X009455Y016997D01*
X009338Y017039D01*
X009221Y017078D01*
X009102Y017112D01*
X008982Y017143D01*
X008861Y017170D01*
X008740Y017193D01*
X008618Y017213D01*
X008495Y017228D01*
X008372Y017240D01*
X008248Y017248D01*
X008125Y017252D01*
X008001Y017252D01*
X007878Y017248D01*
X007754Y017240D01*
X007631Y017228D01*
X007508Y017213D01*
X007386Y017193D01*
X007265Y017170D01*
X007144Y017143D01*
X007024Y017112D01*
X006905Y017078D01*
X006788Y017039D01*
X006671Y016997D01*
X006556Y016952D01*
X006443Y016903D01*
X006331Y016850D01*
X006221Y016794D01*
X006113Y016734D01*
X006006Y016671D01*
X005902Y016604D01*
X005800Y016535D01*
X005700Y016462D01*
X005602Y016386D01*
X005507Y016307D01*
X005414Y016225D01*
X005324Y016140D01*
X005237Y016053D01*
X005152Y015962D01*
X005071Y015870D01*
X005071Y021767D02*
X005071Y021775D01*
X005071Y026870D01*
X005071Y026878D01*
X005071Y021774D02*
X005152Y021682D01*
X005237Y021591D01*
X005324Y021504D01*
X005414Y021419D01*
X005507Y021337D01*
X005602Y021258D01*
X005700Y021182D01*
X005800Y021109D01*
X005902Y021040D01*
X006006Y020973D01*
X006113Y020910D01*
X006221Y020850D01*
X006331Y020794D01*
X006443Y020741D01*
X006556Y020692D01*
X006671Y020647D01*
X006788Y020605D01*
X006905Y020566D01*
X007024Y020532D01*
X007144Y020501D01*
X007265Y020474D01*
X007386Y020451D01*
X007508Y020431D01*
X007631Y020416D01*
X007754Y020404D01*
X007878Y020396D01*
X008001Y020392D01*
X008125Y020392D01*
X008248Y020396D01*
X008372Y020404D01*
X008495Y020416D01*
X008618Y020431D01*
X008740Y020451D01*
X008861Y020474D01*
X008982Y020501D01*
X009102Y020532D01*
X009221Y020566D01*
X009338Y020605D01*
X009455Y020647D01*
X009570Y020692D01*
X009683Y020741D01*
X009795Y020794D01*
X009905Y020850D01*
X010013Y020910D01*
X010120Y020973D01*
X010224Y021040D01*
X010326Y021109D01*
X010426Y021182D01*
X010524Y021258D01*
X010619Y021337D01*
X010712Y021419D01*
X010802Y021504D01*
X010889Y021591D01*
X010974Y021682D01*
X011055Y021774D01*
X011055Y021775D02*
X011055Y026870D01*
X011055Y026878D01*
X012272Y026878D02*
X012272Y026870D01*
X012272Y021775D01*
X012272Y021767D01*
X011055Y021767D02*
X011055Y021775D01*
X011055Y026870D02*
X010974Y026962D01*
X010889Y027053D01*
X010802Y027140D01*
X010712Y027225D01*
X010619Y027307D01*
X010524Y027386D01*
X010426Y027462D01*
X010326Y027535D01*
X010224Y027604D01*
X010120Y027671D01*
X010013Y027734D01*
X009905Y027794D01*
X009795Y027850D01*
X009683Y027903D01*
X009570Y027952D01*
X009455Y027997D01*
X009338Y028039D01*
X009221Y028078D01*
X009102Y028112D01*
X008982Y028143D01*
X008861Y028170D01*
X008740Y028193D01*
X008618Y028213D01*
X008495Y028228D01*
X008372Y028240D01*
X008248Y028248D01*
X008125Y028252D01*
X008001Y028252D01*
X007878Y028248D01*
X007754Y028240D01*
X007631Y028228D01*
X007508Y028213D01*
X007386Y028193D01*
X007265Y028170D01*
X007144Y028143D01*
X007024Y028112D01*
X006905Y028078D01*
X006788Y028039D01*
X006671Y027997D01*
X006556Y027952D01*
X006443Y027903D01*
X006331Y027850D01*
X006221Y027794D01*
X006113Y027734D01*
X006006Y027671D01*
X005902Y027604D01*
X005800Y027535D01*
X005700Y027462D01*
X005602Y027386D01*
X005507Y027307D01*
X005414Y027225D01*
X005324Y027140D01*
X005237Y027053D01*
X005152Y026962D01*
X005071Y026870D01*
X005071Y032767D02*
X005071Y032775D01*
X005071Y037870D01*
X005071Y037878D01*
X005071Y032774D02*
X005152Y032682D01*
X005237Y032591D01*
X005324Y032504D01*
X005414Y032419D01*
X005507Y032337D01*
X005602Y032258D01*
X005700Y032182D01*
X005800Y032109D01*
X005902Y032040D01*
X006006Y031973D01*
X006113Y031910D01*
X006221Y031850D01*
X006331Y031794D01*
X006443Y031741D01*
X006556Y031692D01*
X006671Y031647D01*
X006788Y031605D01*
X006905Y031566D01*
X007024Y031532D01*
X007144Y031501D01*
X007265Y031474D01*
X007386Y031451D01*
X007508Y031431D01*
X007631Y031416D01*
X007754Y031404D01*
X007878Y031396D01*
X008001Y031392D01*
X008125Y031392D01*
X008248Y031396D01*
X008372Y031404D01*
X008495Y031416D01*
X008618Y031431D01*
X008740Y031451D01*
X008861Y031474D01*
X008982Y031501D01*
X009102Y031532D01*
X009221Y031566D01*
X009338Y031605D01*
X009455Y031647D01*
X009570Y031692D01*
X009683Y031741D01*
X009795Y031794D01*
X009905Y031850D01*
X010013Y031910D01*
X010120Y031973D01*
X010224Y032040D01*
X010326Y032109D01*
X010426Y032182D01*
X010524Y032258D01*
X010619Y032337D01*
X010712Y032419D01*
X010802Y032504D01*
X010889Y032591D01*
X010974Y032682D01*
X011055Y032774D01*
X011055Y032775D02*
X011055Y037870D01*
X011055Y037878D01*
X012272Y037878D02*
X012272Y037870D01*
X012272Y032775D01*
X012272Y032767D01*
X011055Y032767D02*
X011055Y032775D01*
X011055Y037870D02*
X010974Y037962D01*
X010889Y038053D01*
X010802Y038140D01*
X010712Y038225D01*
X010619Y038307D01*
X010524Y038386D01*
X010426Y038462D01*
X010326Y038535D01*
X010224Y038604D01*
X010120Y038671D01*
X010013Y038734D01*
X009905Y038794D01*
X009795Y038850D01*
X009683Y038903D01*
X009570Y038952D01*
X009455Y038997D01*
X009338Y039039D01*
X009221Y039078D01*
X009102Y039112D01*
X008982Y039143D01*
X008861Y039170D01*
X008740Y039193D01*
X008618Y039213D01*
X008495Y039228D01*
X008372Y039240D01*
X008248Y039248D01*
X008125Y039252D01*
X008001Y039252D01*
X007878Y039248D01*
X007754Y039240D01*
X007631Y039228D01*
X007508Y039213D01*
X007386Y039193D01*
X007265Y039170D01*
X007144Y039143D01*
X007024Y039112D01*
X006905Y039078D01*
X006788Y039039D01*
X006671Y038997D01*
X006556Y038952D01*
X006443Y038903D01*
X006331Y038850D01*
X006221Y038794D01*
X006113Y038734D01*
X006006Y038671D01*
X005902Y038604D01*
X005800Y038535D01*
X005700Y038462D01*
X005602Y038386D01*
X005507Y038307D01*
X005414Y038225D01*
X005324Y038140D01*
X005237Y038053D01*
X005152Y037962D01*
X005071Y037870D01*
X005071Y043767D02*
X005071Y043775D01*
X005071Y048870D01*
X005071Y048878D01*
X005071Y043774D02*
X005152Y043682D01*
X005237Y043591D01*
X005324Y043504D01*
X005414Y043419D01*
X005507Y043337D01*
X005602Y043258D01*
X005700Y043182D01*
X005800Y043109D01*
X005902Y043040D01*
X006006Y042973D01*
X006113Y042910D01*
X006221Y042850D01*
X006331Y042794D01*
X006443Y042741D01*
X006556Y042692D01*
X006671Y042647D01*
X006788Y042605D01*
X006905Y042566D01*
X007024Y042532D01*
X007144Y042501D01*
X007265Y042474D01*
X007386Y042451D01*
X007508Y042431D01*
X007631Y042416D01*
X007754Y042404D01*
X007878Y042396D01*
X008001Y042392D01*
X008125Y042392D01*
X008248Y042396D01*
X008372Y042404D01*
X008495Y042416D01*
X008618Y042431D01*
X008740Y042451D01*
X008861Y042474D01*
X008982Y042501D01*
X009102Y042532D01*
X009221Y042566D01*
X009338Y042605D01*
X009455Y042647D01*
X009570Y042692D01*
X009683Y042741D01*
X009795Y042794D01*
X009905Y042850D01*
X010013Y042910D01*
X010120Y042973D01*
X010224Y043040D01*
X010326Y043109D01*
X010426Y043182D01*
X010524Y043258D01*
X010619Y043337D01*
X010712Y043419D01*
X010802Y043504D01*
X010889Y043591D01*
X010974Y043682D01*
X011055Y043774D01*
X011055Y043775D02*
X011055Y048870D01*
X011055Y048878D01*
X012272Y048878D02*
X012272Y048870D01*
X012272Y043775D01*
X012272Y043767D01*
X011055Y043767D02*
X011055Y043775D01*
X011055Y048870D02*
X010974Y048962D01*
X010889Y049053D01*
X010802Y049140D01*
X010712Y049225D01*
X010619Y049307D01*
X010524Y049386D01*
X010426Y049462D01*
X010326Y049535D01*
X010224Y049604D01*
X010120Y049671D01*
X010013Y049734D01*
X009905Y049794D01*
X009795Y049850D01*
X009683Y049903D01*
X009570Y049952D01*
X009455Y049997D01*
X009338Y050039D01*
X009221Y050078D01*
X009102Y050112D01*
X008982Y050143D01*
X008861Y050170D01*
X008740Y050193D01*
X008618Y050213D01*
X008495Y050228D01*
X008372Y050240D01*
X008248Y050248D01*
X008125Y050252D01*
X008001Y050252D01*
X007878Y050248D01*
X007754Y050240D01*
X007631Y050228D01*
X007508Y050213D01*
X007386Y050193D01*
X007265Y050170D01*
X007144Y050143D01*
X007024Y050112D01*
X006905Y050078D01*
X006788Y050039D01*
X006671Y049997D01*
X006556Y049952D01*
X006443Y049903D01*
X006331Y049850D01*
X006221Y049794D01*
X006113Y049734D01*
X006006Y049671D01*
X005902Y049604D01*
X005800Y049535D01*
X005700Y049462D01*
X005602Y049386D01*
X005507Y049307D01*
X005414Y049225D01*
X005324Y049140D01*
X005237Y049053D01*
X005152Y048962D01*
X005071Y048870D01*
X005071Y054767D02*
X005071Y054775D01*
X005071Y059870D01*
X005071Y059878D01*
X005071Y054774D02*
X005152Y054682D01*
X005237Y054591D01*
X005324Y054504D01*
X005414Y054419D01*
X005507Y054337D01*
X005602Y054258D01*
X005700Y054182D01*
X005800Y054109D01*
X005902Y054040D01*
X006006Y053973D01*
X006113Y053910D01*
X006221Y053850D01*
X006331Y053794D01*
X006443Y053741D01*
X006556Y053692D01*
X006671Y053647D01*
X006788Y053605D01*
X006905Y053566D01*
X007024Y053532D01*
X007144Y053501D01*
X007265Y053474D01*
X007386Y053451D01*
X007508Y053431D01*
X007631Y053416D01*
X007754Y053404D01*
X007878Y053396D01*
X008001Y053392D01*
X008125Y053392D01*
X008248Y053396D01*
X008372Y053404D01*
X008495Y053416D01*
X008618Y053431D01*
X008740Y053451D01*
X008861Y053474D01*
X008982Y053501D01*
X009102Y053532D01*
X009221Y053566D01*
X009338Y053605D01*
X009455Y053647D01*
X009570Y053692D01*
X009683Y053741D01*
X009795Y053794D01*
X009905Y053850D01*
X010013Y053910D01*
X010120Y053973D01*
X010224Y054040D01*
X010326Y054109D01*
X010426Y054182D01*
X010524Y054258D01*
X010619Y054337D01*
X010712Y054419D01*
X010802Y054504D01*
X010889Y054591D01*
X010974Y054682D01*
X011055Y054774D01*
X011055Y054775D02*
X011055Y059870D01*
X011055Y059878D01*
X012272Y059878D02*
X012272Y059870D01*
X012272Y054775D01*
X012272Y054767D01*
X011055Y054767D02*
X011055Y054775D01*
X011055Y059870D02*
X010974Y059962D01*
X010889Y060053D01*
X010802Y060140D01*
X010712Y060225D01*
X010619Y060307D01*
X010524Y060386D01*
X010426Y060462D01*
X010326Y060535D01*
X010224Y060604D01*
X010120Y060671D01*
X010013Y060734D01*
X009905Y060794D01*
X009795Y060850D01*
X009683Y060903D01*
X009570Y060952D01*
X009455Y060997D01*
X009338Y061039D01*
X009221Y061078D01*
X009102Y061112D01*
X008982Y061143D01*
X008861Y061170D01*
X008740Y061193D01*
X008618Y061213D01*
X008495Y061228D01*
X008372Y061240D01*
X008248Y061248D01*
X008125Y061252D01*
X008001Y061252D01*
X007878Y061248D01*
X007754Y061240D01*
X007631Y061228D01*
X007508Y061213D01*
X007386Y061193D01*
X007265Y061170D01*
X007144Y061143D01*
X007024Y061112D01*
X006905Y061078D01*
X006788Y061039D01*
X006671Y060997D01*
X006556Y060952D01*
X006443Y060903D01*
X006331Y060850D01*
X006221Y060794D01*
X006113Y060734D01*
X006006Y060671D01*
X005902Y060604D01*
X005800Y060535D01*
X005700Y060462D01*
X005602Y060386D01*
X005507Y060307D01*
X005414Y060225D01*
X005324Y060140D01*
X005237Y060053D01*
X005152Y059962D01*
X005071Y059870D01*
X006870Y068570D02*
X007540Y068570D01*
X006870Y068570D02*
X006870Y068964D01*
X006870Y070145D02*
X006870Y070303D01*
X006988Y070303D01*
X016752Y070303D01*
X016752Y070421D01*
X016870Y070421D01*
X016870Y070696D01*
X006870Y070696D01*
X006870Y070421D01*
X006988Y070421D01*
X006988Y070303D01*
X015925Y070421D02*
X016083Y070421D01*
X016004Y070578D01*
X015925Y070421D01*
X015939Y070448D02*
X016069Y070448D01*
X016051Y070486D02*
X015958Y070486D01*
X015977Y070524D02*
X016032Y070524D01*
X016013Y070561D02*
X015996Y070561D01*
X016752Y070303D02*
X016870Y070303D01*
X016870Y070145D01*
X016870Y068964D02*
X016870Y068570D01*
X016201Y068570D01*
X021162Y068570D02*
X021831Y068570D01*
X021162Y068570D02*
X021162Y068964D01*
X021162Y070145D02*
X021162Y070303D01*
X021280Y070303D01*
X031044Y070303D01*
X031044Y070421D01*
X031162Y070421D01*
X031162Y070696D01*
X021162Y070696D01*
X021162Y070421D01*
X021280Y070421D01*
X021280Y070303D01*
X030217Y070421D02*
X030374Y070421D01*
X030296Y070578D01*
X030217Y070421D01*
X030230Y070448D02*
X030361Y070448D01*
X030342Y070486D02*
X030249Y070486D01*
X030268Y070524D02*
X030323Y070524D01*
X030304Y070561D02*
X030287Y070561D01*
X031044Y070303D02*
X031162Y070303D01*
X031162Y070145D01*
X031162Y068964D02*
X031162Y068570D01*
X030492Y068570D01*
X035453Y068570D02*
X036122Y068570D01*
X035453Y068570D02*
X035453Y068964D01*
X035453Y070145D02*
X035453Y070303D01*
X035571Y070303D01*
X045335Y070303D01*
X045335Y070421D01*
X045453Y070421D01*
X045453Y070696D01*
X035453Y070696D01*
X035453Y070421D01*
X035571Y070421D01*
X035571Y070303D01*
X044508Y070421D02*
X044666Y070421D01*
X044587Y070578D01*
X044508Y070421D01*
X044522Y070448D02*
X044652Y070448D01*
X044633Y070486D02*
X044541Y070486D01*
X044560Y070524D02*
X044614Y070524D01*
X044595Y070561D02*
X044578Y070561D01*
X045335Y070303D02*
X045453Y070303D01*
X045453Y070145D01*
X045453Y068964D02*
X045453Y068570D01*
X044784Y068570D01*
X049744Y068570D02*
X050414Y068570D01*
X049744Y068570D02*
X049744Y068964D01*
X049744Y070145D02*
X049744Y070303D01*
X049862Y070303D01*
X059626Y070303D01*
X059626Y070421D01*
X059744Y070421D01*
X059744Y070696D01*
X049744Y070696D01*
X049744Y070421D01*
X049862Y070421D01*
X049862Y070303D01*
X058799Y070421D02*
X058957Y070421D01*
X058878Y070578D01*
X058799Y070421D01*
X058813Y070448D02*
X058943Y070448D01*
X058925Y070486D02*
X058832Y070486D01*
X058851Y070524D02*
X058906Y070524D01*
X058887Y070561D02*
X058870Y070561D01*
X059626Y070303D02*
X059744Y070303D01*
X059744Y070145D01*
X059744Y068964D02*
X059744Y068570D01*
X059075Y068570D01*
X061461Y059878D02*
X061461Y059870D01*
X061461Y054775D01*
X061461Y054767D01*
X061461Y059870D02*
X061380Y059962D01*
X061295Y060053D01*
X061208Y060140D01*
X061118Y060225D01*
X061025Y060307D01*
X060930Y060386D01*
X060832Y060462D01*
X060732Y060535D01*
X060630Y060604D01*
X060526Y060671D01*
X060419Y060734D01*
X060311Y060794D01*
X060201Y060850D01*
X060089Y060903D01*
X059976Y060952D01*
X059861Y060997D01*
X059744Y061039D01*
X059627Y061078D01*
X059508Y061112D01*
X059388Y061143D01*
X059267Y061170D01*
X059146Y061193D01*
X059024Y061213D01*
X058901Y061228D01*
X058778Y061240D01*
X058654Y061248D01*
X058531Y061252D01*
X058407Y061252D01*
X058284Y061248D01*
X058160Y061240D01*
X058037Y061228D01*
X057914Y061213D01*
X057792Y061193D01*
X057671Y061170D01*
X057550Y061143D01*
X057430Y061112D01*
X057311Y061078D01*
X057194Y061039D01*
X057077Y060997D01*
X056962Y060952D01*
X056849Y060903D01*
X056737Y060850D01*
X056627Y060794D01*
X056519Y060734D01*
X056412Y060671D01*
X056308Y060604D01*
X056206Y060535D01*
X056106Y060462D01*
X056008Y060386D01*
X055913Y060307D01*
X055820Y060225D01*
X055730Y060140D01*
X055643Y060053D01*
X055558Y059962D01*
X055477Y059870D01*
X055477Y054775D01*
X055477Y054767D01*
X054260Y054767D02*
X054260Y054775D01*
X054260Y059870D01*
X054260Y059878D01*
X055477Y059878D02*
X055477Y059870D01*
X055477Y054774D02*
X055558Y054682D01*
X055643Y054591D01*
X055730Y054504D01*
X055820Y054419D01*
X055913Y054337D01*
X056008Y054258D01*
X056106Y054182D01*
X056206Y054109D01*
X056308Y054040D01*
X056412Y053973D01*
X056519Y053910D01*
X056627Y053850D01*
X056737Y053794D01*
X056849Y053741D01*
X056962Y053692D01*
X057077Y053647D01*
X057194Y053605D01*
X057311Y053566D01*
X057430Y053532D01*
X057550Y053501D01*
X057671Y053474D01*
X057792Y053451D01*
X057914Y053431D01*
X058037Y053416D01*
X058160Y053404D01*
X058284Y053396D01*
X058407Y053392D01*
X058531Y053392D01*
X058654Y053396D01*
X058778Y053404D01*
X058901Y053416D01*
X059024Y053431D01*
X059146Y053451D01*
X059267Y053474D01*
X059388Y053501D01*
X059508Y053532D01*
X059627Y053566D01*
X059744Y053605D01*
X059861Y053647D01*
X059976Y053692D01*
X060089Y053741D01*
X060201Y053794D01*
X060311Y053850D01*
X060419Y053910D01*
X060526Y053973D01*
X060630Y054040D01*
X060732Y054109D01*
X060832Y054182D01*
X060930Y054258D01*
X061025Y054337D01*
X061118Y054419D01*
X061208Y054504D01*
X061295Y054591D01*
X061380Y054682D01*
X061461Y054774D01*
X061461Y048878D02*
X061461Y048870D01*
X061461Y043775D01*
X061461Y043767D01*
X061461Y048870D02*
X061380Y048962D01*
X061295Y049053D01*
X061208Y049140D01*
X061118Y049225D01*
X061025Y049307D01*
X060930Y049386D01*
X060832Y049462D01*
X060732Y049535D01*
X060630Y049604D01*
X060526Y049671D01*
X060419Y049734D01*
X060311Y049794D01*
X060201Y049850D01*
X060089Y049903D01*
X059976Y049952D01*
X059861Y049997D01*
X059744Y050039D01*
X059627Y050078D01*
X059508Y050112D01*
X059388Y050143D01*
X059267Y050170D01*
X059146Y050193D01*
X059024Y050213D01*
X058901Y050228D01*
X058778Y050240D01*
X058654Y050248D01*
X058531Y050252D01*
X058407Y050252D01*
X058284Y050248D01*
X058160Y050240D01*
X058037Y050228D01*
X057914Y050213D01*
X057792Y050193D01*
X057671Y050170D01*
X057550Y050143D01*
X057430Y050112D01*
X057311Y050078D01*
X057194Y050039D01*
X057077Y049997D01*
X056962Y049952D01*
X056849Y049903D01*
X056737Y049850D01*
X056627Y049794D01*
X056519Y049734D01*
X056412Y049671D01*
X056308Y049604D01*
X056206Y049535D01*
X056106Y049462D01*
X056008Y049386D01*
X055913Y049307D01*
X055820Y049225D01*
X055730Y049140D01*
X055643Y049053D01*
X055558Y048962D01*
X055477Y048870D01*
X055477Y043775D01*
X055477Y043767D01*
X054260Y043767D02*
X054260Y043775D01*
X054260Y048870D01*
X054260Y048878D01*
X055477Y048878D02*
X055477Y048870D01*
X055477Y043774D02*
X055558Y043682D01*
X055643Y043591D01*
X055730Y043504D01*
X055820Y043419D01*
X055913Y043337D01*
X056008Y043258D01*
X056106Y043182D01*
X056206Y043109D01*
X056308Y043040D01*
X056412Y042973D01*
X056519Y042910D01*
X056627Y042850D01*
X056737Y042794D01*
X056849Y042741D01*
X056962Y042692D01*
X057077Y042647D01*
X057194Y042605D01*
X057311Y042566D01*
X057430Y042532D01*
X057550Y042501D01*
X057671Y042474D01*
X057792Y042451D01*
X057914Y042431D01*
X058037Y042416D01*
X058160Y042404D01*
X058284Y042396D01*
X058407Y042392D01*
X058531Y042392D01*
X058654Y042396D01*
X058778Y042404D01*
X058901Y042416D01*
X059024Y042431D01*
X059146Y042451D01*
X059267Y042474D01*
X059388Y042501D01*
X059508Y042532D01*
X059627Y042566D01*
X059744Y042605D01*
X059861Y042647D01*
X059976Y042692D01*
X060089Y042741D01*
X060201Y042794D01*
X060311Y042850D01*
X060419Y042910D01*
X060526Y042973D01*
X060630Y043040D01*
X060732Y043109D01*
X060832Y043182D01*
X060930Y043258D01*
X061025Y043337D01*
X061118Y043419D01*
X061208Y043504D01*
X061295Y043591D01*
X061380Y043682D01*
X061461Y043774D01*
X061461Y037878D02*
X061461Y037870D01*
X061461Y032775D01*
X061461Y032767D01*
X061461Y037870D02*
X061380Y037962D01*
X061295Y038053D01*
X061208Y038140D01*
X061118Y038225D01*
X061025Y038307D01*
X060930Y038386D01*
X060832Y038462D01*
X060732Y038535D01*
X060630Y038604D01*
X060526Y038671D01*
X060419Y038734D01*
X060311Y038794D01*
X060201Y038850D01*
X060089Y038903D01*
X059976Y038952D01*
X059861Y038997D01*
X059744Y039039D01*
X059627Y039078D01*
X059508Y039112D01*
X059388Y039143D01*
X059267Y039170D01*
X059146Y039193D01*
X059024Y039213D01*
X058901Y039228D01*
X058778Y039240D01*
X058654Y039248D01*
X058531Y039252D01*
X058407Y039252D01*
X058284Y039248D01*
X058160Y039240D01*
X058037Y039228D01*
X057914Y039213D01*
X057792Y039193D01*
X057671Y039170D01*
X057550Y039143D01*
X057430Y039112D01*
X057311Y039078D01*
X057194Y039039D01*
X057077Y038997D01*
X056962Y038952D01*
X056849Y038903D01*
X056737Y038850D01*
X056627Y038794D01*
X056519Y038734D01*
X056412Y038671D01*
X056308Y038604D01*
X056206Y038535D01*
X056106Y038462D01*
X056008Y038386D01*
X055913Y038307D01*
X055820Y038225D01*
X055730Y038140D01*
X055643Y038053D01*
X055558Y037962D01*
X055477Y037870D01*
X055477Y032775D01*
X055477Y032767D01*
X054260Y032767D02*
X054260Y032775D01*
X054260Y037870D01*
X054260Y037878D01*
X055477Y037878D02*
X055477Y037870D01*
X055477Y032774D02*
X055558Y032682D01*
X055643Y032591D01*
X055730Y032504D01*
X055820Y032419D01*
X055913Y032337D01*
X056008Y032258D01*
X056106Y032182D01*
X056206Y032109D01*
X056308Y032040D01*
X056412Y031973D01*
X056519Y031910D01*
X056627Y031850D01*
X056737Y031794D01*
X056849Y031741D01*
X056962Y031692D01*
X057077Y031647D01*
X057194Y031605D01*
X057311Y031566D01*
X057430Y031532D01*
X057550Y031501D01*
X057671Y031474D01*
X057792Y031451D01*
X057914Y031431D01*
X058037Y031416D01*
X058160Y031404D01*
X058284Y031396D01*
X058407Y031392D01*
X058531Y031392D01*
X058654Y031396D01*
X058778Y031404D01*
X058901Y031416D01*
X059024Y031431D01*
X059146Y031451D01*
X059267Y031474D01*
X059388Y031501D01*
X059508Y031532D01*
X059627Y031566D01*
X059744Y031605D01*
X059861Y031647D01*
X059976Y031692D01*
X060089Y031741D01*
X060201Y031794D01*
X060311Y031850D01*
X060419Y031910D01*
X060526Y031973D01*
X060630Y032040D01*
X060732Y032109D01*
X060832Y032182D01*
X060930Y032258D01*
X061025Y032337D01*
X061118Y032419D01*
X061208Y032504D01*
X061295Y032591D01*
X061380Y032682D01*
X061461Y032774D01*
X061461Y026878D02*
X061461Y026870D01*
X061461Y021775D01*
X061461Y021767D01*
X061461Y026870D02*
X061380Y026962D01*
X061295Y027053D01*
X061208Y027140D01*
X061118Y027225D01*
X061025Y027307D01*
X060930Y027386D01*
X060832Y027462D01*
X060732Y027535D01*
X060630Y027604D01*
X060526Y027671D01*
X060419Y027734D01*
X060311Y027794D01*
X060201Y027850D01*
X060089Y027903D01*
X059976Y027952D01*
X059861Y027997D01*
X059744Y028039D01*
X059627Y028078D01*
X059508Y028112D01*
X059388Y028143D01*
X059267Y028170D01*
X059146Y028193D01*
X059024Y028213D01*
X058901Y028228D01*
X058778Y028240D01*
X058654Y028248D01*
X058531Y028252D01*
X058407Y028252D01*
X058284Y028248D01*
X058160Y028240D01*
X058037Y028228D01*
X057914Y028213D01*
X057792Y028193D01*
X057671Y028170D01*
X057550Y028143D01*
X057430Y028112D01*
X057311Y028078D01*
X057194Y028039D01*
X057077Y027997D01*
X056962Y027952D01*
X056849Y027903D01*
X056737Y027850D01*
X056627Y027794D01*
X056519Y027734D01*
X056412Y027671D01*
X056308Y027604D01*
X056206Y027535D01*
X056106Y027462D01*
X056008Y027386D01*
X055913Y027307D01*
X055820Y027225D01*
X055730Y027140D01*
X055643Y027053D01*
X055558Y026962D01*
X055477Y026870D01*
X055477Y021775D01*
X055477Y021767D01*
X054260Y021767D02*
X054260Y021775D01*
X054260Y026870D01*
X054260Y026878D01*
X055477Y026878D02*
X055477Y026870D01*
X055477Y021774D02*
X055558Y021682D01*
X055643Y021591D01*
X055730Y021504D01*
X055820Y021419D01*
X055913Y021337D01*
X056008Y021258D01*
X056106Y021182D01*
X056206Y021109D01*
X056308Y021040D01*
X056412Y020973D01*
X056519Y020910D01*
X056627Y020850D01*
X056737Y020794D01*
X056849Y020741D01*
X056962Y020692D01*
X057077Y020647D01*
X057194Y020605D01*
X057311Y020566D01*
X057430Y020532D01*
X057550Y020501D01*
X057671Y020474D01*
X057792Y020451D01*
X057914Y020431D01*
X058037Y020416D01*
X058160Y020404D01*
X058284Y020396D01*
X058407Y020392D01*
X058531Y020392D01*
X058654Y020396D01*
X058778Y020404D01*
X058901Y020416D01*
X059024Y020431D01*
X059146Y020451D01*
X059267Y020474D01*
X059388Y020501D01*
X059508Y020532D01*
X059627Y020566D01*
X059744Y020605D01*
X059861Y020647D01*
X059976Y020692D01*
X060089Y020741D01*
X060201Y020794D01*
X060311Y020850D01*
X060419Y020910D01*
X060526Y020973D01*
X060630Y021040D01*
X060732Y021109D01*
X060832Y021182D01*
X060930Y021258D01*
X061025Y021337D01*
X061118Y021419D01*
X061208Y021504D01*
X061295Y021591D01*
X061380Y021682D01*
X061461Y021774D01*
X061461Y015878D02*
X061461Y015870D01*
X061461Y010775D01*
X061461Y010767D01*
X061461Y015870D02*
X061380Y015962D01*
X061295Y016053D01*
X061208Y016140D01*
X061118Y016225D01*
X061025Y016307D01*
X060930Y016386D01*
X060832Y016462D01*
X060732Y016535D01*
X060630Y016604D01*
X060526Y016671D01*
X060419Y016734D01*
X060311Y016794D01*
X060201Y016850D01*
X060089Y016903D01*
X059976Y016952D01*
X059861Y016997D01*
X059744Y017039D01*
X059627Y017078D01*
X059508Y017112D01*
X059388Y017143D01*
X059267Y017170D01*
X059146Y017193D01*
X059024Y017213D01*
X058901Y017228D01*
X058778Y017240D01*
X058654Y017248D01*
X058531Y017252D01*
X058407Y017252D01*
X058284Y017248D01*
X058160Y017240D01*
X058037Y017228D01*
X057914Y017213D01*
X057792Y017193D01*
X057671Y017170D01*
X057550Y017143D01*
X057430Y017112D01*
X057311Y017078D01*
X057194Y017039D01*
X057077Y016997D01*
X056962Y016952D01*
X056849Y016903D01*
X056737Y016850D01*
X056627Y016794D01*
X056519Y016734D01*
X056412Y016671D01*
X056308Y016604D01*
X056206Y016535D01*
X056106Y016462D01*
X056008Y016386D01*
X055913Y016307D01*
X055820Y016225D01*
X055730Y016140D01*
X055643Y016053D01*
X055558Y015962D01*
X055477Y015870D01*
X055477Y010775D01*
X055477Y010767D01*
X054260Y010767D02*
X054260Y010775D01*
X054260Y015870D01*
X054260Y015878D01*
X055477Y015878D02*
X055477Y015870D01*
X055477Y010774D02*
X055558Y010682D01*
X055643Y010591D01*
X055730Y010504D01*
X055820Y010419D01*
X055913Y010337D01*
X056008Y010258D01*
X056106Y010182D01*
X056206Y010109D01*
X056308Y010040D01*
X056412Y009973D01*
X056519Y009910D01*
X056627Y009850D01*
X056737Y009794D01*
X056849Y009741D01*
X056962Y009692D01*
X057077Y009647D01*
X057194Y009605D01*
X057311Y009566D01*
X057430Y009532D01*
X057550Y009501D01*
X057671Y009474D01*
X057792Y009451D01*
X057914Y009431D01*
X058037Y009416D01*
X058160Y009404D01*
X058284Y009396D01*
X058407Y009392D01*
X058531Y009392D01*
X058654Y009396D01*
X058778Y009404D01*
X058901Y009416D01*
X059024Y009431D01*
X059146Y009451D01*
X059267Y009474D01*
X059388Y009501D01*
X059508Y009532D01*
X059627Y009566D01*
X059744Y009605D01*
X059861Y009647D01*
X059976Y009692D01*
X060089Y009741D01*
X060201Y009794D01*
X060311Y009850D01*
X060419Y009910D01*
X060526Y009973D01*
X060630Y010040D01*
X060732Y010109D01*
X060832Y010182D01*
X060930Y010258D01*
X061025Y010337D01*
X061118Y010419D01*
X061208Y010504D01*
X061295Y010591D01*
X061380Y010682D01*
X061461Y010774D01*
X054260Y010774D02*
X054179Y010682D01*
X054094Y010591D01*
X054007Y010504D01*
X053917Y010419D01*
X053824Y010337D01*
X053729Y010258D01*
X053631Y010182D01*
X053531Y010109D01*
X053429Y010040D01*
X053325Y009973D01*
X053218Y009910D01*
X053110Y009850D01*
X053000Y009794D01*
X052888Y009741D01*
X052775Y009692D01*
X052660Y009647D01*
X052543Y009605D01*
X052426Y009566D01*
X052307Y009532D01*
X052187Y009501D01*
X052066Y009474D01*
X051945Y009451D01*
X051823Y009431D01*
X051700Y009416D01*
X051577Y009404D01*
X051453Y009396D01*
X051330Y009392D01*
X051206Y009392D01*
X051083Y009396D01*
X050959Y009404D01*
X050836Y009416D01*
X050713Y009431D01*
X050591Y009451D01*
X050470Y009474D01*
X050349Y009501D01*
X050229Y009532D01*
X050110Y009566D01*
X049993Y009605D01*
X049876Y009647D01*
X049761Y009692D01*
X049648Y009741D01*
X049536Y009794D01*
X049426Y009850D01*
X049318Y009910D01*
X049211Y009973D01*
X049107Y010040D01*
X049005Y010109D01*
X048905Y010182D01*
X048807Y010258D01*
X048712Y010337D01*
X048619Y010419D01*
X048529Y010504D01*
X048442Y010591D01*
X048357Y010682D01*
X048276Y010774D01*
X048276Y010775D02*
X048276Y010767D01*
X048276Y010775D02*
X048276Y015870D01*
X048276Y015878D01*
X047059Y015870D02*
X047059Y015878D01*
X047059Y015870D02*
X047059Y010775D01*
X047059Y010767D01*
X047059Y010774D02*
X046978Y010682D01*
X046893Y010591D01*
X046806Y010504D01*
X046716Y010419D01*
X046623Y010337D01*
X046528Y010258D01*
X046430Y010182D01*
X046330Y010109D01*
X046228Y010040D01*
X046124Y009973D01*
X046017Y009910D01*
X045909Y009850D01*
X045799Y009794D01*
X045687Y009741D01*
X045574Y009692D01*
X045459Y009647D01*
X045342Y009605D01*
X045225Y009566D01*
X045106Y009532D01*
X044986Y009501D01*
X044865Y009474D01*
X044744Y009451D01*
X044622Y009431D01*
X044499Y009416D01*
X044376Y009404D01*
X044252Y009396D01*
X044129Y009392D01*
X044005Y009392D01*
X043882Y009396D01*
X043758Y009404D01*
X043635Y009416D01*
X043512Y009431D01*
X043390Y009451D01*
X043269Y009474D01*
X043148Y009501D01*
X043028Y009532D01*
X042909Y009566D01*
X042792Y009605D01*
X042675Y009647D01*
X042560Y009692D01*
X042447Y009741D01*
X042335Y009794D01*
X042225Y009850D01*
X042117Y009910D01*
X042010Y009973D01*
X041906Y010040D01*
X041804Y010109D01*
X041704Y010182D01*
X041606Y010258D01*
X041511Y010337D01*
X041418Y010419D01*
X041328Y010504D01*
X041241Y010591D01*
X041156Y010682D01*
X041075Y010774D01*
X041075Y010775D02*
X041075Y010767D01*
X041075Y010775D02*
X041075Y015870D01*
X041075Y015878D01*
X039859Y015870D02*
X039859Y015878D01*
X039859Y015870D02*
X039859Y010775D01*
X039859Y010767D01*
X039858Y010774D02*
X039777Y010682D01*
X039692Y010591D01*
X039605Y010504D01*
X039515Y010419D01*
X039422Y010337D01*
X039327Y010258D01*
X039229Y010182D01*
X039129Y010109D01*
X039027Y010040D01*
X038923Y009973D01*
X038816Y009910D01*
X038708Y009850D01*
X038598Y009794D01*
X038486Y009741D01*
X038373Y009692D01*
X038258Y009647D01*
X038141Y009605D01*
X038024Y009566D01*
X037905Y009532D01*
X037785Y009501D01*
X037664Y009474D01*
X037543Y009451D01*
X037421Y009431D01*
X037298Y009416D01*
X037175Y009404D01*
X037051Y009396D01*
X036928Y009392D01*
X036804Y009392D01*
X036681Y009396D01*
X036557Y009404D01*
X036434Y009416D01*
X036311Y009431D01*
X036189Y009451D01*
X036068Y009474D01*
X035947Y009501D01*
X035827Y009532D01*
X035708Y009566D01*
X035591Y009605D01*
X035474Y009647D01*
X035359Y009692D01*
X035246Y009741D01*
X035134Y009794D01*
X035024Y009850D01*
X034916Y009910D01*
X034809Y009973D01*
X034705Y010040D01*
X034603Y010109D01*
X034503Y010182D01*
X034405Y010258D01*
X034310Y010337D01*
X034217Y010419D01*
X034127Y010504D01*
X034040Y010591D01*
X033955Y010682D01*
X033874Y010774D01*
X033874Y010775D02*
X033874Y010767D01*
X033874Y010775D02*
X033874Y015870D01*
X033874Y015878D01*
X032658Y015870D02*
X032658Y015878D01*
X032658Y015870D02*
X032658Y010775D01*
X032658Y010767D01*
X032658Y015870D02*
X032577Y015962D01*
X032492Y016053D01*
X032405Y016140D01*
X032315Y016225D01*
X032222Y016307D01*
X032127Y016386D01*
X032029Y016462D01*
X031929Y016535D01*
X031827Y016604D01*
X031723Y016671D01*
X031616Y016734D01*
X031508Y016794D01*
X031398Y016850D01*
X031286Y016903D01*
X031173Y016952D01*
X031058Y016997D01*
X030941Y017039D01*
X030824Y017078D01*
X030705Y017112D01*
X030585Y017143D01*
X030464Y017170D01*
X030343Y017193D01*
X030221Y017213D01*
X030098Y017228D01*
X029975Y017240D01*
X029851Y017248D01*
X029728Y017252D01*
X029604Y017252D01*
X029481Y017248D01*
X029357Y017240D01*
X029234Y017228D01*
X029111Y017213D01*
X028989Y017193D01*
X028868Y017170D01*
X028747Y017143D01*
X028627Y017112D01*
X028508Y017078D01*
X028391Y017039D01*
X028274Y016997D01*
X028159Y016952D01*
X028046Y016903D01*
X027934Y016850D01*
X027824Y016794D01*
X027716Y016734D01*
X027609Y016671D01*
X027505Y016604D01*
X027403Y016535D01*
X027303Y016462D01*
X027205Y016386D01*
X027110Y016307D01*
X027017Y016225D01*
X026927Y016140D01*
X026840Y016053D01*
X026755Y015962D01*
X026674Y015870D01*
X026673Y015870D02*
X026673Y010775D01*
X026673Y010767D01*
X025457Y010767D02*
X025457Y010775D01*
X025457Y015870D01*
X025457Y015878D01*
X026673Y015878D02*
X026673Y015870D01*
X026674Y010774D02*
X026755Y010682D01*
X026840Y010591D01*
X026927Y010504D01*
X027017Y010419D01*
X027110Y010337D01*
X027205Y010258D01*
X027303Y010182D01*
X027403Y010109D01*
X027505Y010040D01*
X027609Y009973D01*
X027716Y009910D01*
X027824Y009850D01*
X027934Y009794D01*
X028046Y009741D01*
X028159Y009692D01*
X028274Y009647D01*
X028391Y009605D01*
X028508Y009566D01*
X028627Y009532D01*
X028747Y009501D01*
X028868Y009474D01*
X028989Y009451D01*
X029111Y009431D01*
X029234Y009416D01*
X029357Y009404D01*
X029481Y009396D01*
X029604Y009392D01*
X029728Y009392D01*
X029851Y009396D01*
X029975Y009404D01*
X030098Y009416D01*
X030221Y009431D01*
X030343Y009451D01*
X030464Y009474D01*
X030585Y009501D01*
X030705Y009532D01*
X030824Y009566D01*
X030941Y009605D01*
X031058Y009647D01*
X031173Y009692D01*
X031286Y009741D01*
X031398Y009794D01*
X031508Y009850D01*
X031616Y009910D01*
X031723Y009973D01*
X031827Y010040D01*
X031929Y010109D01*
X032029Y010182D01*
X032127Y010258D01*
X032222Y010337D01*
X032315Y010419D01*
X032405Y010504D01*
X032492Y010591D01*
X032577Y010682D01*
X032658Y010774D01*
X033874Y015870D02*
X033955Y015962D01*
X034040Y016053D01*
X034127Y016140D01*
X034217Y016225D01*
X034310Y016307D01*
X034405Y016386D01*
X034503Y016462D01*
X034603Y016535D01*
X034705Y016604D01*
X034809Y016671D01*
X034916Y016734D01*
X035024Y016794D01*
X035134Y016850D01*
X035246Y016903D01*
X035359Y016952D01*
X035474Y016997D01*
X035591Y017039D01*
X035708Y017078D01*
X035827Y017112D01*
X035947Y017143D01*
X036068Y017170D01*
X036189Y017193D01*
X036311Y017213D01*
X036434Y017228D01*
X036557Y017240D01*
X036681Y017248D01*
X036804Y017252D01*
X036928Y017252D01*
X037051Y017248D01*
X037175Y017240D01*
X037298Y017228D01*
X037421Y017213D01*
X037543Y017193D01*
X037664Y017170D01*
X037785Y017143D01*
X037905Y017112D01*
X038024Y017078D01*
X038141Y017039D01*
X038258Y016997D01*
X038373Y016952D01*
X038486Y016903D01*
X038598Y016850D01*
X038708Y016794D01*
X038816Y016734D01*
X038923Y016671D01*
X039027Y016604D01*
X039129Y016535D01*
X039229Y016462D01*
X039327Y016386D01*
X039422Y016307D01*
X039515Y016225D01*
X039605Y016140D01*
X039692Y016053D01*
X039777Y015962D01*
X039858Y015870D01*
X041075Y015870D02*
X041156Y015962D01*
X041241Y016053D01*
X041328Y016140D01*
X041418Y016225D01*
X041511Y016307D01*
X041606Y016386D01*
X041704Y016462D01*
X041804Y016535D01*
X041906Y016604D01*
X042010Y016671D01*
X042117Y016734D01*
X042225Y016794D01*
X042335Y016850D01*
X042447Y016903D01*
X042560Y016952D01*
X042675Y016997D01*
X042792Y017039D01*
X042909Y017078D01*
X043028Y017112D01*
X043148Y017143D01*
X043269Y017170D01*
X043390Y017193D01*
X043512Y017213D01*
X043635Y017228D01*
X043758Y017240D01*
X043882Y017248D01*
X044005Y017252D01*
X044129Y017252D01*
X044252Y017248D01*
X044376Y017240D01*
X044499Y017228D01*
X044622Y017213D01*
X044744Y017193D01*
X044865Y017170D01*
X044986Y017143D01*
X045106Y017112D01*
X045225Y017078D01*
X045342Y017039D01*
X045459Y016997D01*
X045574Y016952D01*
X045687Y016903D01*
X045799Y016850D01*
X045909Y016794D01*
X046017Y016734D01*
X046124Y016671D01*
X046228Y016604D01*
X046330Y016535D01*
X046430Y016462D01*
X046528Y016386D01*
X046623Y016307D01*
X046716Y016225D01*
X046806Y016140D01*
X046893Y016053D01*
X046978Y015962D01*
X047059Y015870D01*
X048276Y015870D02*
X048357Y015962D01*
X048442Y016053D01*
X048529Y016140D01*
X048619Y016225D01*
X048712Y016307D01*
X048807Y016386D01*
X048905Y016462D01*
X049005Y016535D01*
X049107Y016604D01*
X049211Y016671D01*
X049318Y016734D01*
X049426Y016794D01*
X049536Y016850D01*
X049648Y016903D01*
X049761Y016952D01*
X049876Y016997D01*
X049993Y017039D01*
X050110Y017078D01*
X050229Y017112D01*
X050349Y017143D01*
X050470Y017170D01*
X050591Y017193D01*
X050713Y017213D01*
X050836Y017228D01*
X050959Y017240D01*
X051083Y017248D01*
X051206Y017252D01*
X051330Y017252D01*
X051453Y017248D01*
X051577Y017240D01*
X051700Y017228D01*
X051823Y017213D01*
X051945Y017193D01*
X052066Y017170D01*
X052187Y017143D01*
X052307Y017112D01*
X052426Y017078D01*
X052543Y017039D01*
X052660Y016997D01*
X052775Y016952D01*
X052888Y016903D01*
X053000Y016850D01*
X053110Y016794D01*
X053218Y016734D01*
X053325Y016671D01*
X053429Y016604D01*
X053531Y016535D01*
X053631Y016462D01*
X053729Y016386D01*
X053824Y016307D01*
X053917Y016225D01*
X054007Y016140D01*
X054094Y016053D01*
X054179Y015962D01*
X054260Y015870D01*
X048276Y021767D02*
X048276Y021775D01*
X048276Y026870D01*
X048276Y026878D01*
X047059Y026870D02*
X047059Y026878D01*
X047059Y026870D02*
X047059Y021775D01*
X047059Y021767D01*
X047059Y021774D02*
X046978Y021682D01*
X046893Y021591D01*
X046806Y021504D01*
X046716Y021419D01*
X046623Y021337D01*
X046528Y021258D01*
X046430Y021182D01*
X046330Y021109D01*
X046228Y021040D01*
X046124Y020973D01*
X046017Y020910D01*
X045909Y020850D01*
X045799Y020794D01*
X045687Y020741D01*
X045574Y020692D01*
X045459Y020647D01*
X045342Y020605D01*
X045225Y020566D01*
X045106Y020532D01*
X044986Y020501D01*
X044865Y020474D01*
X044744Y020451D01*
X044622Y020431D01*
X044499Y020416D01*
X044376Y020404D01*
X044252Y020396D01*
X044129Y020392D01*
X044005Y020392D01*
X043882Y020396D01*
X043758Y020404D01*
X043635Y020416D01*
X043512Y020431D01*
X043390Y020451D01*
X043269Y020474D01*
X043148Y020501D01*
X043028Y020532D01*
X042909Y020566D01*
X042792Y020605D01*
X042675Y020647D01*
X042560Y020692D01*
X042447Y020741D01*
X042335Y020794D01*
X042225Y020850D01*
X042117Y020910D01*
X042010Y020973D01*
X041906Y021040D01*
X041804Y021109D01*
X041704Y021182D01*
X041606Y021258D01*
X041511Y021337D01*
X041418Y021419D01*
X041328Y021504D01*
X041241Y021591D01*
X041156Y021682D01*
X041075Y021774D01*
X041075Y021775D02*
X041075Y021767D01*
X041075Y021775D02*
X041075Y026870D01*
X041075Y026878D01*
X039859Y026870D02*
X039859Y026878D01*
X039859Y026870D02*
X039859Y021775D01*
X039859Y021767D01*
X039858Y021774D02*
X039777Y021682D01*
X039692Y021591D01*
X039605Y021504D01*
X039515Y021419D01*
X039422Y021337D01*
X039327Y021258D01*
X039229Y021182D01*
X039129Y021109D01*
X039027Y021040D01*
X038923Y020973D01*
X038816Y020910D01*
X038708Y020850D01*
X038598Y020794D01*
X038486Y020741D01*
X038373Y020692D01*
X038258Y020647D01*
X038141Y020605D01*
X038024Y020566D01*
X037905Y020532D01*
X037785Y020501D01*
X037664Y020474D01*
X037543Y020451D01*
X037421Y020431D01*
X037298Y020416D01*
X037175Y020404D01*
X037051Y020396D01*
X036928Y020392D01*
X036804Y020392D01*
X036681Y020396D01*
X036557Y020404D01*
X036434Y020416D01*
X036311Y020431D01*
X036189Y020451D01*
X036068Y020474D01*
X035947Y020501D01*
X035827Y020532D01*
X035708Y020566D01*
X035591Y020605D01*
X035474Y020647D01*
X035359Y020692D01*
X035246Y020741D01*
X035134Y020794D01*
X035024Y020850D01*
X034916Y020910D01*
X034809Y020973D01*
X034705Y021040D01*
X034603Y021109D01*
X034503Y021182D01*
X034405Y021258D01*
X034310Y021337D01*
X034217Y021419D01*
X034127Y021504D01*
X034040Y021591D01*
X033955Y021682D01*
X033874Y021774D01*
X033874Y021775D02*
X033874Y021767D01*
X033874Y021775D02*
X033874Y026870D01*
X033874Y026878D01*
X032658Y026870D02*
X032658Y026878D01*
X032658Y026870D02*
X032658Y021775D01*
X032658Y021767D01*
X032658Y026870D02*
X032577Y026962D01*
X032492Y027053D01*
X032405Y027140D01*
X032315Y027225D01*
X032222Y027307D01*
X032127Y027386D01*
X032029Y027462D01*
X031929Y027535D01*
X031827Y027604D01*
X031723Y027671D01*
X031616Y027734D01*
X031508Y027794D01*
X031398Y027850D01*
X031286Y027903D01*
X031173Y027952D01*
X031058Y027997D01*
X030941Y028039D01*
X030824Y028078D01*
X030705Y028112D01*
X030585Y028143D01*
X030464Y028170D01*
X030343Y028193D01*
X030221Y028213D01*
X030098Y028228D01*
X029975Y028240D01*
X029851Y028248D01*
X029728Y028252D01*
X029604Y028252D01*
X029481Y028248D01*
X029357Y028240D01*
X029234Y028228D01*
X029111Y028213D01*
X028989Y028193D01*
X028868Y028170D01*
X028747Y028143D01*
X028627Y028112D01*
X028508Y028078D01*
X028391Y028039D01*
X028274Y027997D01*
X028159Y027952D01*
X028046Y027903D01*
X027934Y027850D01*
X027824Y027794D01*
X027716Y027734D01*
X027609Y027671D01*
X027505Y027604D01*
X027403Y027535D01*
X027303Y027462D01*
X027205Y027386D01*
X027110Y027307D01*
X027017Y027225D01*
X026927Y027140D01*
X026840Y027053D01*
X026755Y026962D01*
X026674Y026870D01*
X026673Y026870D02*
X026673Y021775D01*
X026673Y021767D01*
X025457Y021767D02*
X025457Y021775D01*
X025457Y026870D01*
X025457Y026878D01*
X026673Y026878D02*
X026673Y026870D01*
X026674Y021774D02*
X026755Y021682D01*
X026840Y021591D01*
X026927Y021504D01*
X027017Y021419D01*
X027110Y021337D01*
X027205Y021258D01*
X027303Y021182D01*
X027403Y021109D01*
X027505Y021040D01*
X027609Y020973D01*
X027716Y020910D01*
X027824Y020850D01*
X027934Y020794D01*
X028046Y020741D01*
X028159Y020692D01*
X028274Y020647D01*
X028391Y020605D01*
X028508Y020566D01*
X028627Y020532D01*
X028747Y020501D01*
X028868Y020474D01*
X028989Y020451D01*
X029111Y020431D01*
X029234Y020416D01*
X029357Y020404D01*
X029481Y020396D01*
X029604Y020392D01*
X029728Y020392D01*
X029851Y020396D01*
X029975Y020404D01*
X030098Y020416D01*
X030221Y020431D01*
X030343Y020451D01*
X030464Y020474D01*
X030585Y020501D01*
X030705Y020532D01*
X030824Y020566D01*
X030941Y020605D01*
X031058Y020647D01*
X031173Y020692D01*
X031286Y020741D01*
X031398Y020794D01*
X031508Y020850D01*
X031616Y020910D01*
X031723Y020973D01*
X031827Y021040D01*
X031929Y021109D01*
X032029Y021182D01*
X032127Y021258D01*
X032222Y021337D01*
X032315Y021419D01*
X032405Y021504D01*
X032492Y021591D01*
X032577Y021682D01*
X032658Y021774D01*
X033874Y026870D02*
X033955Y026962D01*
X034040Y027053D01*
X034127Y027140D01*
X034217Y027225D01*
X034310Y027307D01*
X034405Y027386D01*
X034503Y027462D01*
X034603Y027535D01*
X034705Y027604D01*
X034809Y027671D01*
X034916Y027734D01*
X035024Y027794D01*
X035134Y027850D01*
X035246Y027903D01*
X035359Y027952D01*
X035474Y027997D01*
X035591Y028039D01*
X035708Y028078D01*
X035827Y028112D01*
X035947Y028143D01*
X036068Y028170D01*
X036189Y028193D01*
X036311Y028213D01*
X036434Y028228D01*
X036557Y028240D01*
X036681Y028248D01*
X036804Y028252D01*
X036928Y028252D01*
X037051Y028248D01*
X037175Y028240D01*
X037298Y028228D01*
X037421Y028213D01*
X037543Y028193D01*
X037664Y028170D01*
X037785Y028143D01*
X037905Y028112D01*
X038024Y028078D01*
X038141Y028039D01*
X038258Y027997D01*
X038373Y027952D01*
X038486Y027903D01*
X038598Y027850D01*
X038708Y027794D01*
X038816Y027734D01*
X038923Y027671D01*
X039027Y027604D01*
X039129Y027535D01*
X039229Y027462D01*
X039327Y027386D01*
X039422Y027307D01*
X039515Y027225D01*
X039605Y027140D01*
X039692Y027053D01*
X039777Y026962D01*
X039858Y026870D01*
X041075Y026870D02*
X041156Y026962D01*
X041241Y027053D01*
X041328Y027140D01*
X041418Y027225D01*
X041511Y027307D01*
X041606Y027386D01*
X041704Y027462D01*
X041804Y027535D01*
X041906Y027604D01*
X042010Y027671D01*
X042117Y027734D01*
X042225Y027794D01*
X042335Y027850D01*
X042447Y027903D01*
X042560Y027952D01*
X042675Y027997D01*
X042792Y028039D01*
X042909Y028078D01*
X043028Y028112D01*
X043148Y028143D01*
X043269Y028170D01*
X043390Y028193D01*
X043512Y028213D01*
X043635Y028228D01*
X043758Y028240D01*
X043882Y028248D01*
X044005Y028252D01*
X044129Y028252D01*
X044252Y028248D01*
X044376Y028240D01*
X044499Y028228D01*
X044622Y028213D01*
X044744Y028193D01*
X044865Y028170D01*
X044986Y028143D01*
X045106Y028112D01*
X045225Y028078D01*
X045342Y028039D01*
X045459Y027997D01*
X045574Y027952D01*
X045687Y027903D01*
X045799Y027850D01*
X045909Y027794D01*
X046017Y027734D01*
X046124Y027671D01*
X046228Y027604D01*
X046330Y027535D01*
X046430Y027462D01*
X046528Y027386D01*
X046623Y027307D01*
X046716Y027225D01*
X046806Y027140D01*
X046893Y027053D01*
X046978Y026962D01*
X047059Y026870D01*
X048276Y021774D02*
X048357Y021682D01*
X048442Y021591D01*
X048529Y021504D01*
X048619Y021419D01*
X048712Y021337D01*
X048807Y021258D01*
X048905Y021182D01*
X049005Y021109D01*
X049107Y021040D01*
X049211Y020973D01*
X049318Y020910D01*
X049426Y020850D01*
X049536Y020794D01*
X049648Y020741D01*
X049761Y020692D01*
X049876Y020647D01*
X049993Y020605D01*
X050110Y020566D01*
X050229Y020532D01*
X050349Y020501D01*
X050470Y020474D01*
X050591Y020451D01*
X050713Y020431D01*
X050836Y020416D01*
X050959Y020404D01*
X051083Y020396D01*
X051206Y020392D01*
X051330Y020392D01*
X051453Y020396D01*
X051577Y020404D01*
X051700Y020416D01*
X051823Y020431D01*
X051945Y020451D01*
X052066Y020474D01*
X052187Y020501D01*
X052307Y020532D01*
X052426Y020566D01*
X052543Y020605D01*
X052660Y020647D01*
X052775Y020692D01*
X052888Y020741D01*
X053000Y020794D01*
X053110Y020850D01*
X053218Y020910D01*
X053325Y020973D01*
X053429Y021040D01*
X053531Y021109D01*
X053631Y021182D01*
X053729Y021258D01*
X053824Y021337D01*
X053917Y021419D01*
X054007Y021504D01*
X054094Y021591D01*
X054179Y021682D01*
X054260Y021774D01*
X054260Y026870D02*
X054179Y026962D01*
X054094Y027053D01*
X054007Y027140D01*
X053917Y027225D01*
X053824Y027307D01*
X053729Y027386D01*
X053631Y027462D01*
X053531Y027535D01*
X053429Y027604D01*
X053325Y027671D01*
X053218Y027734D01*
X053110Y027794D01*
X053000Y027850D01*
X052888Y027903D01*
X052775Y027952D01*
X052660Y027997D01*
X052543Y028039D01*
X052426Y028078D01*
X052307Y028112D01*
X052187Y028143D01*
X052066Y028170D01*
X051945Y028193D01*
X051823Y028213D01*
X051700Y028228D01*
X051577Y028240D01*
X051453Y028248D01*
X051330Y028252D01*
X051206Y028252D01*
X051083Y028248D01*
X050959Y028240D01*
X050836Y028228D01*
X050713Y028213D01*
X050591Y028193D01*
X050470Y028170D01*
X050349Y028143D01*
X050229Y028112D01*
X050110Y028078D01*
X049993Y028039D01*
X049876Y027997D01*
X049761Y027952D01*
X049648Y027903D01*
X049536Y027850D01*
X049426Y027794D01*
X049318Y027734D01*
X049211Y027671D01*
X049107Y027604D01*
X049005Y027535D01*
X048905Y027462D01*
X048807Y027386D01*
X048712Y027307D01*
X048619Y027225D01*
X048529Y027140D01*
X048442Y027053D01*
X048357Y026962D01*
X048276Y026870D01*
X048276Y032767D02*
X048276Y032775D01*
X048276Y037870D01*
X048276Y037878D01*
X047059Y037870D02*
X047059Y037878D01*
X047059Y037870D02*
X047059Y032775D01*
X047059Y032767D01*
X047059Y032774D02*
X046978Y032682D01*
X046893Y032591D01*
X046806Y032504D01*
X046716Y032419D01*
X046623Y032337D01*
X046528Y032258D01*
X046430Y032182D01*
X046330Y032109D01*
X046228Y032040D01*
X046124Y031973D01*
X046017Y031910D01*
X045909Y031850D01*
X045799Y031794D01*
X045687Y031741D01*
X045574Y031692D01*
X045459Y031647D01*
X045342Y031605D01*
X045225Y031566D01*
X045106Y031532D01*
X044986Y031501D01*
X044865Y031474D01*
X044744Y031451D01*
X044622Y031431D01*
X044499Y031416D01*
X044376Y031404D01*
X044252Y031396D01*
X044129Y031392D01*
X044005Y031392D01*
X043882Y031396D01*
X043758Y031404D01*
X043635Y031416D01*
X043512Y031431D01*
X043390Y031451D01*
X043269Y031474D01*
X043148Y031501D01*
X043028Y031532D01*
X042909Y031566D01*
X042792Y031605D01*
X042675Y031647D01*
X042560Y031692D01*
X042447Y031741D01*
X042335Y031794D01*
X042225Y031850D01*
X042117Y031910D01*
X042010Y031973D01*
X041906Y032040D01*
X041804Y032109D01*
X041704Y032182D01*
X041606Y032258D01*
X041511Y032337D01*
X041418Y032419D01*
X041328Y032504D01*
X041241Y032591D01*
X041156Y032682D01*
X041075Y032774D01*
X041075Y032775D02*
X041075Y032767D01*
X041075Y032775D02*
X041075Y037870D01*
X041075Y037878D01*
X039859Y037870D02*
X039859Y037878D01*
X039859Y037870D02*
X039859Y032775D01*
X039859Y032767D01*
X039858Y032774D02*
X039777Y032682D01*
X039692Y032591D01*
X039605Y032504D01*
X039515Y032419D01*
X039422Y032337D01*
X039327Y032258D01*
X039229Y032182D01*
X039129Y032109D01*
X039027Y032040D01*
X038923Y031973D01*
X038816Y031910D01*
X038708Y031850D01*
X038598Y031794D01*
X038486Y031741D01*
X038373Y031692D01*
X038258Y031647D01*
X038141Y031605D01*
X038024Y031566D01*
X037905Y031532D01*
X037785Y031501D01*
X037664Y031474D01*
X037543Y031451D01*
X037421Y031431D01*
X037298Y031416D01*
X037175Y031404D01*
X037051Y031396D01*
X036928Y031392D01*
X036804Y031392D01*
X036681Y031396D01*
X036557Y031404D01*
X036434Y031416D01*
X036311Y031431D01*
X036189Y031451D01*
X036068Y031474D01*
X035947Y031501D01*
X035827Y031532D01*
X035708Y031566D01*
X035591Y031605D01*
X035474Y031647D01*
X035359Y031692D01*
X035246Y031741D01*
X035134Y031794D01*
X035024Y031850D01*
X034916Y031910D01*
X034809Y031973D01*
X034705Y032040D01*
X034603Y032109D01*
X034503Y032182D01*
X034405Y032258D01*
X034310Y032337D01*
X034217Y032419D01*
X034127Y032504D01*
X034040Y032591D01*
X033955Y032682D01*
X033874Y032774D01*
X033874Y032775D02*
X033874Y032767D01*
X033874Y032775D02*
X033874Y037870D01*
X033874Y037878D01*
X032658Y037870D02*
X032658Y037878D01*
X032658Y037870D02*
X032658Y032775D01*
X032658Y032767D01*
X032658Y037870D02*
X032577Y037962D01*
X032492Y038053D01*
X032405Y038140D01*
X032315Y038225D01*
X032222Y038307D01*
X032127Y038386D01*
X032029Y038462D01*
X031929Y038535D01*
X031827Y038604D01*
X031723Y038671D01*
X031616Y038734D01*
X031508Y038794D01*
X031398Y038850D01*
X031286Y038903D01*
X031173Y038952D01*
X031058Y038997D01*
X030941Y039039D01*
X030824Y039078D01*
X030705Y039112D01*
X030585Y039143D01*
X030464Y039170D01*
X030343Y039193D01*
X030221Y039213D01*
X030098Y039228D01*
X029975Y039240D01*
X029851Y039248D01*
X029728Y039252D01*
X029604Y039252D01*
X029481Y039248D01*
X029357Y039240D01*
X029234Y039228D01*
X029111Y039213D01*
X028989Y039193D01*
X028868Y039170D01*
X028747Y039143D01*
X028627Y039112D01*
X028508Y039078D01*
X028391Y039039D01*
X028274Y038997D01*
X028159Y038952D01*
X028046Y038903D01*
X027934Y038850D01*
X027824Y038794D01*
X027716Y038734D01*
X027609Y038671D01*
X027505Y038604D01*
X027403Y038535D01*
X027303Y038462D01*
X027205Y038386D01*
X027110Y038307D01*
X027017Y038225D01*
X026927Y038140D01*
X026840Y038053D01*
X026755Y037962D01*
X026674Y037870D01*
X026673Y037870D02*
X026673Y032775D01*
X026673Y032767D01*
X025457Y032767D02*
X025457Y032775D01*
X025457Y037870D01*
X025457Y037878D01*
X026673Y037878D02*
X026673Y037870D01*
X026674Y032774D02*
X026755Y032682D01*
X026840Y032591D01*
X026927Y032504D01*
X027017Y032419D01*
X027110Y032337D01*
X027205Y032258D01*
X027303Y032182D01*
X027403Y032109D01*
X027505Y032040D01*
X027609Y031973D01*
X027716Y031910D01*
X027824Y031850D01*
X027934Y031794D01*
X028046Y031741D01*
X028159Y031692D01*
X028274Y031647D01*
X028391Y031605D01*
X028508Y031566D01*
X028627Y031532D01*
X028747Y031501D01*
X028868Y031474D01*
X028989Y031451D01*
X029111Y031431D01*
X029234Y031416D01*
X029357Y031404D01*
X029481Y031396D01*
X029604Y031392D01*
X029728Y031392D01*
X029851Y031396D01*
X029975Y031404D01*
X030098Y031416D01*
X030221Y031431D01*
X030343Y031451D01*
X030464Y031474D01*
X030585Y031501D01*
X030705Y031532D01*
X030824Y031566D01*
X030941Y031605D01*
X031058Y031647D01*
X031173Y031692D01*
X031286Y031741D01*
X031398Y031794D01*
X031508Y031850D01*
X031616Y031910D01*
X031723Y031973D01*
X031827Y032040D01*
X031929Y032109D01*
X032029Y032182D01*
X032127Y032258D01*
X032222Y032337D01*
X032315Y032419D01*
X032405Y032504D01*
X032492Y032591D01*
X032577Y032682D01*
X032658Y032774D01*
X033874Y037870D02*
X033955Y037962D01*
X034040Y038053D01*
X034127Y038140D01*
X034217Y038225D01*
X034310Y038307D01*
X034405Y038386D01*
X034503Y038462D01*
X034603Y038535D01*
X034705Y038604D01*
X034809Y038671D01*
X034916Y038734D01*
X035024Y038794D01*
X035134Y038850D01*
X035246Y038903D01*
X035359Y038952D01*
X035474Y038997D01*
X035591Y039039D01*
X035708Y039078D01*
X035827Y039112D01*
X035947Y039143D01*
X036068Y039170D01*
X036189Y039193D01*
X036311Y039213D01*
X036434Y039228D01*
X036557Y039240D01*
X036681Y039248D01*
X036804Y039252D01*
X036928Y039252D01*
X037051Y039248D01*
X037175Y039240D01*
X037298Y039228D01*
X037421Y039213D01*
X037543Y039193D01*
X037664Y039170D01*
X037785Y039143D01*
X037905Y039112D01*
X038024Y039078D01*
X038141Y039039D01*
X038258Y038997D01*
X038373Y038952D01*
X038486Y038903D01*
X038598Y038850D01*
X038708Y038794D01*
X038816Y038734D01*
X038923Y038671D01*
X039027Y038604D01*
X039129Y038535D01*
X039229Y038462D01*
X039327Y038386D01*
X039422Y038307D01*
X039515Y038225D01*
X039605Y038140D01*
X039692Y038053D01*
X039777Y037962D01*
X039858Y037870D01*
X041075Y037870D02*
X041156Y037962D01*
X041241Y038053D01*
X041328Y038140D01*
X041418Y038225D01*
X041511Y038307D01*
X041606Y038386D01*
X041704Y038462D01*
X041804Y038535D01*
X041906Y038604D01*
X042010Y038671D01*
X042117Y038734D01*
X042225Y038794D01*
X042335Y038850D01*
X042447Y038903D01*
X042560Y038952D01*
X042675Y038997D01*
X042792Y039039D01*
X042909Y039078D01*
X043028Y039112D01*
X043148Y039143D01*
X043269Y039170D01*
X043390Y039193D01*
X043512Y039213D01*
X043635Y039228D01*
X043758Y039240D01*
X043882Y039248D01*
X044005Y039252D01*
X044129Y039252D01*
X044252Y039248D01*
X044376Y039240D01*
X044499Y039228D01*
X044622Y039213D01*
X044744Y039193D01*
X044865Y039170D01*
X044986Y039143D01*
X045106Y039112D01*
X045225Y039078D01*
X045342Y039039D01*
X045459Y038997D01*
X045574Y038952D01*
X045687Y038903D01*
X045799Y038850D01*
X045909Y038794D01*
X046017Y038734D01*
X046124Y038671D01*
X046228Y038604D01*
X046330Y038535D01*
X046430Y038462D01*
X046528Y038386D01*
X046623Y038307D01*
X046716Y038225D01*
X046806Y038140D01*
X046893Y038053D01*
X046978Y037962D01*
X047059Y037870D01*
X048276Y032774D02*
X048357Y032682D01*
X048442Y032591D01*
X048529Y032504D01*
X048619Y032419D01*
X048712Y032337D01*
X048807Y032258D01*
X048905Y032182D01*
X049005Y032109D01*
X049107Y032040D01*
X049211Y031973D01*
X049318Y031910D01*
X049426Y031850D01*
X049536Y031794D01*
X049648Y031741D01*
X049761Y031692D01*
X049876Y031647D01*
X049993Y031605D01*
X050110Y031566D01*
X050229Y031532D01*
X050349Y031501D01*
X050470Y031474D01*
X050591Y031451D01*
X050713Y031431D01*
X050836Y031416D01*
X050959Y031404D01*
X051083Y031396D01*
X051206Y031392D01*
X051330Y031392D01*
X051453Y031396D01*
X051577Y031404D01*
X051700Y031416D01*
X051823Y031431D01*
X051945Y031451D01*
X052066Y031474D01*
X052187Y031501D01*
X052307Y031532D01*
X052426Y031566D01*
X052543Y031605D01*
X052660Y031647D01*
X052775Y031692D01*
X052888Y031741D01*
X053000Y031794D01*
X053110Y031850D01*
X053218Y031910D01*
X053325Y031973D01*
X053429Y032040D01*
X053531Y032109D01*
X053631Y032182D01*
X053729Y032258D01*
X053824Y032337D01*
X053917Y032419D01*
X054007Y032504D01*
X054094Y032591D01*
X054179Y032682D01*
X054260Y032774D01*
X054260Y037870D02*
X054179Y037962D01*
X054094Y038053D01*
X054007Y038140D01*
X053917Y038225D01*
X053824Y038307D01*
X053729Y038386D01*
X053631Y038462D01*
X053531Y038535D01*
X053429Y038604D01*
X053325Y038671D01*
X053218Y038734D01*
X053110Y038794D01*
X053000Y038850D01*
X052888Y038903D01*
X052775Y038952D01*
X052660Y038997D01*
X052543Y039039D01*
X052426Y039078D01*
X052307Y039112D01*
X052187Y039143D01*
X052066Y039170D01*
X051945Y039193D01*
X051823Y039213D01*
X051700Y039228D01*
X051577Y039240D01*
X051453Y039248D01*
X051330Y039252D01*
X051206Y039252D01*
X051083Y039248D01*
X050959Y039240D01*
X050836Y039228D01*
X050713Y039213D01*
X050591Y039193D01*
X050470Y039170D01*
X050349Y039143D01*
X050229Y039112D01*
X050110Y039078D01*
X049993Y039039D01*
X049876Y038997D01*
X049761Y038952D01*
X049648Y038903D01*
X049536Y038850D01*
X049426Y038794D01*
X049318Y038734D01*
X049211Y038671D01*
X049107Y038604D01*
X049005Y038535D01*
X048905Y038462D01*
X048807Y038386D01*
X048712Y038307D01*
X048619Y038225D01*
X048529Y038140D01*
X048442Y038053D01*
X048357Y037962D01*
X048276Y037870D01*
X048276Y043767D02*
X048276Y043775D01*
X048276Y048870D01*
X048276Y048878D01*
X047059Y048870D02*
X047059Y048878D01*
X047059Y048870D02*
X047059Y043775D01*
X047059Y043767D01*
X047059Y043774D02*
X046978Y043682D01*
X046893Y043591D01*
X046806Y043504D01*
X046716Y043419D01*
X046623Y043337D01*
X046528Y043258D01*
X046430Y043182D01*
X046330Y043109D01*
X046228Y043040D01*
X046124Y042973D01*
X046017Y042910D01*
X045909Y042850D01*
X045799Y042794D01*
X045687Y042741D01*
X045574Y042692D01*
X045459Y042647D01*
X045342Y042605D01*
X045225Y042566D01*
X045106Y042532D01*
X044986Y042501D01*
X044865Y042474D01*
X044744Y042451D01*
X044622Y042431D01*
X044499Y042416D01*
X044376Y042404D01*
X044252Y042396D01*
X044129Y042392D01*
X044005Y042392D01*
X043882Y042396D01*
X043758Y042404D01*
X043635Y042416D01*
X043512Y042431D01*
X043390Y042451D01*
X043269Y042474D01*
X043148Y042501D01*
X043028Y042532D01*
X042909Y042566D01*
X042792Y042605D01*
X042675Y042647D01*
X042560Y042692D01*
X042447Y042741D01*
X042335Y042794D01*
X042225Y042850D01*
X042117Y042910D01*
X042010Y042973D01*
X041906Y043040D01*
X041804Y043109D01*
X041704Y043182D01*
X041606Y043258D01*
X041511Y043337D01*
X041418Y043419D01*
X041328Y043504D01*
X041241Y043591D01*
X041156Y043682D01*
X041075Y043774D01*
X041075Y043775D02*
X041075Y043767D01*
X041075Y043775D02*
X041075Y048870D01*
X041075Y048878D01*
X039859Y048870D02*
X039859Y048878D01*
X039859Y048870D02*
X039859Y043775D01*
X039859Y043767D01*
X039858Y043774D02*
X039777Y043682D01*
X039692Y043591D01*
X039605Y043504D01*
X039515Y043419D01*
X039422Y043337D01*
X039327Y043258D01*
X039229Y043182D01*
X039129Y043109D01*
X039027Y043040D01*
X038923Y042973D01*
X038816Y042910D01*
X038708Y042850D01*
X038598Y042794D01*
X038486Y042741D01*
X038373Y042692D01*
X038258Y042647D01*
X038141Y042605D01*
X038024Y042566D01*
X037905Y042532D01*
X037785Y042501D01*
X037664Y042474D01*
X037543Y042451D01*
X037421Y042431D01*
X037298Y042416D01*
X037175Y042404D01*
X037051Y042396D01*
X036928Y042392D01*
X036804Y042392D01*
X036681Y042396D01*
X036557Y042404D01*
X036434Y042416D01*
X036311Y042431D01*
X036189Y042451D01*
X036068Y042474D01*
X035947Y042501D01*
X035827Y042532D01*
X035708Y042566D01*
X035591Y042605D01*
X035474Y042647D01*
X035359Y042692D01*
X035246Y042741D01*
X035134Y042794D01*
X035024Y042850D01*
X034916Y042910D01*
X034809Y042973D01*
X034705Y043040D01*
X034603Y043109D01*
X034503Y043182D01*
X034405Y043258D01*
X034310Y043337D01*
X034217Y043419D01*
X034127Y043504D01*
X034040Y043591D01*
X033955Y043682D01*
X033874Y043774D01*
X033874Y043775D02*
X033874Y043767D01*
X033874Y043775D02*
X033874Y048870D01*
X033874Y048878D01*
X032658Y048870D02*
X032658Y048878D01*
X032658Y048870D02*
X032658Y043775D01*
X032658Y043767D01*
X032658Y048870D02*
X032577Y048962D01*
X032492Y049053D01*
X032405Y049140D01*
X032315Y049225D01*
X032222Y049307D01*
X032127Y049386D01*
X032029Y049462D01*
X031929Y049535D01*
X031827Y049604D01*
X031723Y049671D01*
X031616Y049734D01*
X031508Y049794D01*
X031398Y049850D01*
X031286Y049903D01*
X031173Y049952D01*
X031058Y049997D01*
X030941Y050039D01*
X030824Y050078D01*
X030705Y050112D01*
X030585Y050143D01*
X030464Y050170D01*
X030343Y050193D01*
X030221Y050213D01*
X030098Y050228D01*
X029975Y050240D01*
X029851Y050248D01*
X029728Y050252D01*
X029604Y050252D01*
X029481Y050248D01*
X029357Y050240D01*
X029234Y050228D01*
X029111Y050213D01*
X028989Y050193D01*
X028868Y050170D01*
X028747Y050143D01*
X028627Y050112D01*
X028508Y050078D01*
X028391Y050039D01*
X028274Y049997D01*
X028159Y049952D01*
X028046Y049903D01*
X027934Y049850D01*
X027824Y049794D01*
X027716Y049734D01*
X027609Y049671D01*
X027505Y049604D01*
X027403Y049535D01*
X027303Y049462D01*
X027205Y049386D01*
X027110Y049307D01*
X027017Y049225D01*
X026927Y049140D01*
X026840Y049053D01*
X026755Y048962D01*
X026674Y048870D01*
X026673Y048870D02*
X026673Y043775D01*
X026673Y043767D01*
X025457Y043767D02*
X025457Y043775D01*
X025457Y048870D01*
X025457Y048878D01*
X026673Y048878D02*
X026673Y048870D01*
X026674Y043774D02*
X026755Y043682D01*
X026840Y043591D01*
X026927Y043504D01*
X027017Y043419D01*
X027110Y043337D01*
X027205Y043258D01*
X027303Y043182D01*
X027403Y043109D01*
X027505Y043040D01*
X027609Y042973D01*
X027716Y042910D01*
X027824Y042850D01*
X027934Y042794D01*
X028046Y042741D01*
X028159Y042692D01*
X028274Y042647D01*
X028391Y042605D01*
X028508Y042566D01*
X028627Y042532D01*
X028747Y042501D01*
X028868Y042474D01*
X028989Y042451D01*
X029111Y042431D01*
X029234Y042416D01*
X029357Y042404D01*
X029481Y042396D01*
X029604Y042392D01*
X029728Y042392D01*
X029851Y042396D01*
X029975Y042404D01*
X030098Y042416D01*
X030221Y042431D01*
X030343Y042451D01*
X030464Y042474D01*
X030585Y042501D01*
X030705Y042532D01*
X030824Y042566D01*
X030941Y042605D01*
X031058Y042647D01*
X031173Y042692D01*
X031286Y042741D01*
X031398Y042794D01*
X031508Y042850D01*
X031616Y042910D01*
X031723Y042973D01*
X031827Y043040D01*
X031929Y043109D01*
X032029Y043182D01*
X032127Y043258D01*
X032222Y043337D01*
X032315Y043419D01*
X032405Y043504D01*
X032492Y043591D01*
X032577Y043682D01*
X032658Y043774D01*
X033874Y048870D02*
X033955Y048962D01*
X034040Y049053D01*
X034127Y049140D01*
X034217Y049225D01*
X034310Y049307D01*
X034405Y049386D01*
X034503Y049462D01*
X034603Y049535D01*
X034705Y049604D01*
X034809Y049671D01*
X034916Y049734D01*
X035024Y049794D01*
X035134Y049850D01*
X035246Y049903D01*
X035359Y049952D01*
X035474Y049997D01*
X035591Y050039D01*
X035708Y050078D01*
X035827Y050112D01*
X035947Y050143D01*
X036068Y050170D01*
X036189Y050193D01*
X036311Y050213D01*
X036434Y050228D01*
X036557Y050240D01*
X036681Y050248D01*
X036804Y050252D01*
X036928Y050252D01*
X037051Y050248D01*
X037175Y050240D01*
X037298Y050228D01*
X037421Y050213D01*
X037543Y050193D01*
X037664Y050170D01*
X037785Y050143D01*
X037905Y050112D01*
X038024Y050078D01*
X038141Y050039D01*
X038258Y049997D01*
X038373Y049952D01*
X038486Y049903D01*
X038598Y049850D01*
X038708Y049794D01*
X038816Y049734D01*
X038923Y049671D01*
X039027Y049604D01*
X039129Y049535D01*
X039229Y049462D01*
X039327Y049386D01*
X039422Y049307D01*
X039515Y049225D01*
X039605Y049140D01*
X039692Y049053D01*
X039777Y048962D01*
X039858Y048870D01*
X041075Y048870D02*
X041156Y048962D01*
X041241Y049053D01*
X041328Y049140D01*
X041418Y049225D01*
X041511Y049307D01*
X041606Y049386D01*
X041704Y049462D01*
X041804Y049535D01*
X041906Y049604D01*
X042010Y049671D01*
X042117Y049734D01*
X042225Y049794D01*
X042335Y049850D01*
X042447Y049903D01*
X042560Y049952D01*
X042675Y049997D01*
X042792Y050039D01*
X042909Y050078D01*
X043028Y050112D01*
X043148Y050143D01*
X043269Y050170D01*
X043390Y050193D01*
X043512Y050213D01*
X043635Y050228D01*
X043758Y050240D01*
X043882Y050248D01*
X044005Y050252D01*
X044129Y050252D01*
X044252Y050248D01*
X044376Y050240D01*
X044499Y050228D01*
X044622Y050213D01*
X044744Y050193D01*
X044865Y050170D01*
X044986Y050143D01*
X045106Y050112D01*
X045225Y050078D01*
X045342Y050039D01*
X045459Y049997D01*
X045574Y049952D01*
X045687Y049903D01*
X045799Y049850D01*
X045909Y049794D01*
X046017Y049734D01*
X046124Y049671D01*
X046228Y049604D01*
X046330Y049535D01*
X046430Y049462D01*
X046528Y049386D01*
X046623Y049307D01*
X046716Y049225D01*
X046806Y049140D01*
X046893Y049053D01*
X046978Y048962D01*
X047059Y048870D01*
X048276Y043774D02*
X048357Y043682D01*
X048442Y043591D01*
X048529Y043504D01*
X048619Y043419D01*
X048712Y043337D01*
X048807Y043258D01*
X048905Y043182D01*
X049005Y043109D01*
X049107Y043040D01*
X049211Y042973D01*
X049318Y042910D01*
X049426Y042850D01*
X049536Y042794D01*
X049648Y042741D01*
X049761Y042692D01*
X049876Y042647D01*
X049993Y042605D01*
X050110Y042566D01*
X050229Y042532D01*
X050349Y042501D01*
X050470Y042474D01*
X050591Y042451D01*
X050713Y042431D01*
X050836Y042416D01*
X050959Y042404D01*
X051083Y042396D01*
X051206Y042392D01*
X051330Y042392D01*
X051453Y042396D01*
X051577Y042404D01*
X051700Y042416D01*
X051823Y042431D01*
X051945Y042451D01*
X052066Y042474D01*
X052187Y042501D01*
X052307Y042532D01*
X052426Y042566D01*
X052543Y042605D01*
X052660Y042647D01*
X052775Y042692D01*
X052888Y042741D01*
X053000Y042794D01*
X053110Y042850D01*
X053218Y042910D01*
X053325Y042973D01*
X053429Y043040D01*
X053531Y043109D01*
X053631Y043182D01*
X053729Y043258D01*
X053824Y043337D01*
X053917Y043419D01*
X054007Y043504D01*
X054094Y043591D01*
X054179Y043682D01*
X054260Y043774D01*
X054260Y048870D02*
X054179Y048962D01*
X054094Y049053D01*
X054007Y049140D01*
X053917Y049225D01*
X053824Y049307D01*
X053729Y049386D01*
X053631Y049462D01*
X053531Y049535D01*
X053429Y049604D01*
X053325Y049671D01*
X053218Y049734D01*
X053110Y049794D01*
X053000Y049850D01*
X052888Y049903D01*
X052775Y049952D01*
X052660Y049997D01*
X052543Y050039D01*
X052426Y050078D01*
X052307Y050112D01*
X052187Y050143D01*
X052066Y050170D01*
X051945Y050193D01*
X051823Y050213D01*
X051700Y050228D01*
X051577Y050240D01*
X051453Y050248D01*
X051330Y050252D01*
X051206Y050252D01*
X051083Y050248D01*
X050959Y050240D01*
X050836Y050228D01*
X050713Y050213D01*
X050591Y050193D01*
X050470Y050170D01*
X050349Y050143D01*
X050229Y050112D01*
X050110Y050078D01*
X049993Y050039D01*
X049876Y049997D01*
X049761Y049952D01*
X049648Y049903D01*
X049536Y049850D01*
X049426Y049794D01*
X049318Y049734D01*
X049211Y049671D01*
X049107Y049604D01*
X049005Y049535D01*
X048905Y049462D01*
X048807Y049386D01*
X048712Y049307D01*
X048619Y049225D01*
X048529Y049140D01*
X048442Y049053D01*
X048357Y048962D01*
X048276Y048870D01*
X048276Y054767D02*
X048276Y054775D01*
X048276Y059870D01*
X048276Y059878D01*
X047059Y059870D02*
X047059Y059878D01*
X047059Y059870D02*
X047059Y054775D01*
X047059Y054767D01*
X047059Y054774D02*
X046978Y054682D01*
X046893Y054591D01*
X046806Y054504D01*
X046716Y054419D01*
X046623Y054337D01*
X046528Y054258D01*
X046430Y054182D01*
X046330Y054109D01*
X046228Y054040D01*
X046124Y053973D01*
X046017Y053910D01*
X045909Y053850D01*
X045799Y053794D01*
X045687Y053741D01*
X045574Y053692D01*
X045459Y053647D01*
X045342Y053605D01*
X045225Y053566D01*
X045106Y053532D01*
X044986Y053501D01*
X044865Y053474D01*
X044744Y053451D01*
X044622Y053431D01*
X044499Y053416D01*
X044376Y053404D01*
X044252Y053396D01*
X044129Y053392D01*
X044005Y053392D01*
X043882Y053396D01*
X043758Y053404D01*
X043635Y053416D01*
X043512Y053431D01*
X043390Y053451D01*
X043269Y053474D01*
X043148Y053501D01*
X043028Y053532D01*
X042909Y053566D01*
X042792Y053605D01*
X042675Y053647D01*
X042560Y053692D01*
X042447Y053741D01*
X042335Y053794D01*
X042225Y053850D01*
X042117Y053910D01*
X042010Y053973D01*
X041906Y054040D01*
X041804Y054109D01*
X041704Y054182D01*
X041606Y054258D01*
X041511Y054337D01*
X041418Y054419D01*
X041328Y054504D01*
X041241Y054591D01*
X041156Y054682D01*
X041075Y054774D01*
X041075Y054775D02*
X041075Y054767D01*
X041075Y054775D02*
X041075Y059870D01*
X041075Y059878D01*
X039859Y059870D02*
X039859Y059878D01*
X039859Y059870D02*
X039859Y054775D01*
X039859Y054767D01*
X039858Y054774D02*
X039777Y054682D01*
X039692Y054591D01*
X039605Y054504D01*
X039515Y054419D01*
X039422Y054337D01*
X039327Y054258D01*
X039229Y054182D01*
X039129Y054109D01*
X039027Y054040D01*
X038923Y053973D01*
X038816Y053910D01*
X038708Y053850D01*
X038598Y053794D01*
X038486Y053741D01*
X038373Y053692D01*
X038258Y053647D01*
X038141Y053605D01*
X038024Y053566D01*
X037905Y053532D01*
X037785Y053501D01*
X037664Y053474D01*
X037543Y053451D01*
X037421Y053431D01*
X037298Y053416D01*
X037175Y053404D01*
X037051Y053396D01*
X036928Y053392D01*
X036804Y053392D01*
X036681Y053396D01*
X036557Y053404D01*
X036434Y053416D01*
X036311Y053431D01*
X036189Y053451D01*
X036068Y053474D01*
X035947Y053501D01*
X035827Y053532D01*
X035708Y053566D01*
X035591Y053605D01*
X035474Y053647D01*
X035359Y053692D01*
X035246Y053741D01*
X035134Y053794D01*
X035024Y053850D01*
X034916Y053910D01*
X034809Y053973D01*
X034705Y054040D01*
X034603Y054109D01*
X034503Y054182D01*
X034405Y054258D01*
X034310Y054337D01*
X034217Y054419D01*
X034127Y054504D01*
X034040Y054591D01*
X033955Y054682D01*
X033874Y054774D01*
X033874Y054775D02*
X033874Y054767D01*
X033874Y054775D02*
X033874Y059870D01*
X033874Y059878D01*
X032658Y059870D02*
X032658Y059878D01*
X032658Y059870D02*
X032658Y054775D01*
X032658Y054767D01*
X032658Y059870D02*
X032577Y059962D01*
X032492Y060053D01*
X032405Y060140D01*
X032315Y060225D01*
X032222Y060307D01*
X032127Y060386D01*
X032029Y060462D01*
X031929Y060535D01*
X031827Y060604D01*
X031723Y060671D01*
X031616Y060734D01*
X031508Y060794D01*
X031398Y060850D01*
X031286Y060903D01*
X031173Y060952D01*
X031058Y060997D01*
X030941Y061039D01*
X030824Y061078D01*
X030705Y061112D01*
X030585Y061143D01*
X030464Y061170D01*
X030343Y061193D01*
X030221Y061213D01*
X030098Y061228D01*
X029975Y061240D01*
X029851Y061248D01*
X029728Y061252D01*
X029604Y061252D01*
X029481Y061248D01*
X029357Y061240D01*
X029234Y061228D01*
X029111Y061213D01*
X028989Y061193D01*
X028868Y061170D01*
X028747Y061143D01*
X028627Y061112D01*
X028508Y061078D01*
X028391Y061039D01*
X028274Y060997D01*
X028159Y060952D01*
X028046Y060903D01*
X027934Y060850D01*
X027824Y060794D01*
X027716Y060734D01*
X027609Y060671D01*
X027505Y060604D01*
X027403Y060535D01*
X027303Y060462D01*
X027205Y060386D01*
X027110Y060307D01*
X027017Y060225D01*
X026927Y060140D01*
X026840Y060053D01*
X026755Y059962D01*
X026674Y059870D01*
X026673Y059870D02*
X026673Y054775D01*
X026673Y054767D01*
X025457Y054767D02*
X025457Y054775D01*
X025457Y059870D01*
X025457Y059878D01*
X026673Y059878D02*
X026673Y059870D01*
X026674Y054774D02*
X026755Y054682D01*
X026840Y054591D01*
X026927Y054504D01*
X027017Y054419D01*
X027110Y054337D01*
X027205Y054258D01*
X027303Y054182D01*
X027403Y054109D01*
X027505Y054040D01*
X027609Y053973D01*
X027716Y053910D01*
X027824Y053850D01*
X027934Y053794D01*
X028046Y053741D01*
X028159Y053692D01*
X028274Y053647D01*
X028391Y053605D01*
X028508Y053566D01*
X028627Y053532D01*
X028747Y053501D01*
X028868Y053474D01*
X028989Y053451D01*
X029111Y053431D01*
X029234Y053416D01*
X029357Y053404D01*
X029481Y053396D01*
X029604Y053392D01*
X029728Y053392D01*
X029851Y053396D01*
X029975Y053404D01*
X030098Y053416D01*
X030221Y053431D01*
X030343Y053451D01*
X030464Y053474D01*
X030585Y053501D01*
X030705Y053532D01*
X030824Y053566D01*
X030941Y053605D01*
X031058Y053647D01*
X031173Y053692D01*
X031286Y053741D01*
X031398Y053794D01*
X031508Y053850D01*
X031616Y053910D01*
X031723Y053973D01*
X031827Y054040D01*
X031929Y054109D01*
X032029Y054182D01*
X032127Y054258D01*
X032222Y054337D01*
X032315Y054419D01*
X032405Y054504D01*
X032492Y054591D01*
X032577Y054682D01*
X032658Y054774D01*
X033874Y059870D02*
X033955Y059962D01*
X034040Y060053D01*
X034127Y060140D01*
X034217Y060225D01*
X034310Y060307D01*
X034405Y060386D01*
X034503Y060462D01*
X034603Y060535D01*
X034705Y060604D01*
X034809Y060671D01*
X034916Y060734D01*
X035024Y060794D01*
X035134Y060850D01*
X035246Y060903D01*
X035359Y060952D01*
X035474Y060997D01*
X035591Y061039D01*
X035708Y061078D01*
X035827Y061112D01*
X035947Y061143D01*
X036068Y061170D01*
X036189Y061193D01*
X036311Y061213D01*
X036434Y061228D01*
X036557Y061240D01*
X036681Y061248D01*
X036804Y061252D01*
X036928Y061252D01*
X037051Y061248D01*
X037175Y061240D01*
X037298Y061228D01*
X037421Y061213D01*
X037543Y061193D01*
X037664Y061170D01*
X037785Y061143D01*
X037905Y061112D01*
X038024Y061078D01*
X038141Y061039D01*
X038258Y060997D01*
X038373Y060952D01*
X038486Y060903D01*
X038598Y060850D01*
X038708Y060794D01*
X038816Y060734D01*
X038923Y060671D01*
X039027Y060604D01*
X039129Y060535D01*
X039229Y060462D01*
X039327Y060386D01*
X039422Y060307D01*
X039515Y060225D01*
X039605Y060140D01*
X039692Y060053D01*
X039777Y059962D01*
X039858Y059870D01*
X041075Y059870D02*
X041156Y059962D01*
X041241Y060053D01*
X041328Y060140D01*
X041418Y060225D01*
X041511Y060307D01*
X041606Y060386D01*
X041704Y060462D01*
X041804Y060535D01*
X041906Y060604D01*
X042010Y060671D01*
X042117Y060734D01*
X042225Y060794D01*
X042335Y060850D01*
X042447Y060903D01*
X042560Y060952D01*
X042675Y060997D01*
X042792Y061039D01*
X042909Y061078D01*
X043028Y061112D01*
X043148Y061143D01*
X043269Y061170D01*
X043390Y061193D01*
X043512Y061213D01*
X043635Y061228D01*
X043758Y061240D01*
X043882Y061248D01*
X044005Y061252D01*
X044129Y061252D01*
X044252Y061248D01*
X044376Y061240D01*
X044499Y061228D01*
X044622Y061213D01*
X044744Y061193D01*
X044865Y061170D01*
X044986Y061143D01*
X045106Y061112D01*
X045225Y061078D01*
X045342Y061039D01*
X045459Y060997D01*
X045574Y060952D01*
X045687Y060903D01*
X045799Y060850D01*
X045909Y060794D01*
X046017Y060734D01*
X046124Y060671D01*
X046228Y060604D01*
X046330Y060535D01*
X046430Y060462D01*
X046528Y060386D01*
X046623Y060307D01*
X046716Y060225D01*
X046806Y060140D01*
X046893Y060053D01*
X046978Y059962D01*
X047059Y059870D01*
X048276Y054774D02*
X048357Y054682D01*
X048442Y054591D01*
X048529Y054504D01*
X048619Y054419D01*
X048712Y054337D01*
X048807Y054258D01*
X048905Y054182D01*
X049005Y054109D01*
X049107Y054040D01*
X049211Y053973D01*
X049318Y053910D01*
X049426Y053850D01*
X049536Y053794D01*
X049648Y053741D01*
X049761Y053692D01*
X049876Y053647D01*
X049993Y053605D01*
X050110Y053566D01*
X050229Y053532D01*
X050349Y053501D01*
X050470Y053474D01*
X050591Y053451D01*
X050713Y053431D01*
X050836Y053416D01*
X050959Y053404D01*
X051083Y053396D01*
X051206Y053392D01*
X051330Y053392D01*
X051453Y053396D01*
X051577Y053404D01*
X051700Y053416D01*
X051823Y053431D01*
X051945Y053451D01*
X052066Y053474D01*
X052187Y053501D01*
X052307Y053532D01*
X052426Y053566D01*
X052543Y053605D01*
X052660Y053647D01*
X052775Y053692D01*
X052888Y053741D01*
X053000Y053794D01*
X053110Y053850D01*
X053218Y053910D01*
X053325Y053973D01*
X053429Y054040D01*
X053531Y054109D01*
X053631Y054182D01*
X053729Y054258D01*
X053824Y054337D01*
X053917Y054419D01*
X054007Y054504D01*
X054094Y054591D01*
X054179Y054682D01*
X054260Y054774D01*
X054260Y059870D02*
X054179Y059962D01*
X054094Y060053D01*
X054007Y060140D01*
X053917Y060225D01*
X053824Y060307D01*
X053729Y060386D01*
X053631Y060462D01*
X053531Y060535D01*
X053429Y060604D01*
X053325Y060671D01*
X053218Y060734D01*
X053110Y060794D01*
X053000Y060850D01*
X052888Y060903D01*
X052775Y060952D01*
X052660Y060997D01*
X052543Y061039D01*
X052426Y061078D01*
X052307Y061112D01*
X052187Y061143D01*
X052066Y061170D01*
X051945Y061193D01*
X051823Y061213D01*
X051700Y061228D01*
X051577Y061240D01*
X051453Y061248D01*
X051330Y061252D01*
X051206Y061252D01*
X051083Y061248D01*
X050959Y061240D01*
X050836Y061228D01*
X050713Y061213D01*
X050591Y061193D01*
X050470Y061170D01*
X050349Y061143D01*
X050229Y061112D01*
X050110Y061078D01*
X049993Y061039D01*
X049876Y060997D01*
X049761Y060952D01*
X049648Y060903D01*
X049536Y060850D01*
X049426Y060794D01*
X049318Y060734D01*
X049211Y060671D01*
X049107Y060604D01*
X049005Y060535D01*
X048905Y060462D01*
X048807Y060386D01*
X048712Y060307D01*
X048619Y060225D01*
X048529Y060140D01*
X048442Y060053D01*
X048357Y059962D01*
X048276Y059870D01*
X025457Y054774D02*
X025376Y054682D01*
X025291Y054591D01*
X025204Y054504D01*
X025114Y054419D01*
X025021Y054337D01*
X024926Y054258D01*
X024828Y054182D01*
X024728Y054109D01*
X024626Y054040D01*
X024522Y053973D01*
X024415Y053910D01*
X024307Y053850D01*
X024197Y053794D01*
X024085Y053741D01*
X023972Y053692D01*
X023857Y053647D01*
X023740Y053605D01*
X023623Y053566D01*
X023504Y053532D01*
X023384Y053501D01*
X023263Y053474D01*
X023142Y053451D01*
X023020Y053431D01*
X022897Y053416D01*
X022774Y053404D01*
X022650Y053396D01*
X022527Y053392D01*
X022403Y053392D01*
X022280Y053396D01*
X022156Y053404D01*
X022033Y053416D01*
X021910Y053431D01*
X021788Y053451D01*
X021667Y053474D01*
X021546Y053501D01*
X021426Y053532D01*
X021307Y053566D01*
X021190Y053605D01*
X021073Y053647D01*
X020958Y053692D01*
X020845Y053741D01*
X020733Y053794D01*
X020623Y053850D01*
X020515Y053910D01*
X020408Y053973D01*
X020304Y054040D01*
X020202Y054109D01*
X020102Y054182D01*
X020004Y054258D01*
X019909Y054337D01*
X019816Y054419D01*
X019726Y054504D01*
X019639Y054591D01*
X019554Y054682D01*
X019473Y054774D01*
X019473Y054775D02*
X019473Y054767D01*
X019473Y054775D02*
X019473Y059870D01*
X019473Y059878D01*
X018256Y059870D02*
X018256Y059878D01*
X018256Y059870D02*
X018256Y054775D01*
X018256Y054767D01*
X018256Y054774D02*
X018175Y054682D01*
X018090Y054591D01*
X018003Y054504D01*
X017913Y054419D01*
X017820Y054337D01*
X017725Y054258D01*
X017627Y054182D01*
X017527Y054109D01*
X017425Y054040D01*
X017321Y053973D01*
X017214Y053910D01*
X017106Y053850D01*
X016996Y053794D01*
X016884Y053741D01*
X016771Y053692D01*
X016656Y053647D01*
X016539Y053605D01*
X016422Y053566D01*
X016303Y053532D01*
X016183Y053501D01*
X016062Y053474D01*
X015941Y053451D01*
X015819Y053431D01*
X015696Y053416D01*
X015573Y053404D01*
X015449Y053396D01*
X015326Y053392D01*
X015202Y053392D01*
X015079Y053396D01*
X014955Y053404D01*
X014832Y053416D01*
X014709Y053431D01*
X014587Y053451D01*
X014466Y053474D01*
X014345Y053501D01*
X014225Y053532D01*
X014106Y053566D01*
X013989Y053605D01*
X013872Y053647D01*
X013757Y053692D01*
X013644Y053741D01*
X013532Y053794D01*
X013422Y053850D01*
X013314Y053910D01*
X013207Y053973D01*
X013103Y054040D01*
X013001Y054109D01*
X012901Y054182D01*
X012803Y054258D01*
X012708Y054337D01*
X012615Y054419D01*
X012525Y054504D01*
X012438Y054591D01*
X012353Y054682D01*
X012272Y054774D01*
X012272Y059870D02*
X012353Y059962D01*
X012438Y060053D01*
X012525Y060140D01*
X012615Y060225D01*
X012708Y060307D01*
X012803Y060386D01*
X012901Y060462D01*
X013001Y060535D01*
X013103Y060604D01*
X013207Y060671D01*
X013314Y060734D01*
X013422Y060794D01*
X013532Y060850D01*
X013644Y060903D01*
X013757Y060952D01*
X013872Y060997D01*
X013989Y061039D01*
X014106Y061078D01*
X014225Y061112D01*
X014345Y061143D01*
X014466Y061170D01*
X014587Y061193D01*
X014709Y061213D01*
X014832Y061228D01*
X014955Y061240D01*
X015079Y061248D01*
X015202Y061252D01*
X015326Y061252D01*
X015449Y061248D01*
X015573Y061240D01*
X015696Y061228D01*
X015819Y061213D01*
X015941Y061193D01*
X016062Y061170D01*
X016183Y061143D01*
X016303Y061112D01*
X016422Y061078D01*
X016539Y061039D01*
X016656Y060997D01*
X016771Y060952D01*
X016884Y060903D01*
X016996Y060850D01*
X017106Y060794D01*
X017214Y060734D01*
X017321Y060671D01*
X017425Y060604D01*
X017527Y060535D01*
X017627Y060462D01*
X017725Y060386D01*
X017820Y060307D01*
X017913Y060225D01*
X018003Y060140D01*
X018090Y060053D01*
X018175Y059962D01*
X018256Y059870D01*
X019473Y059870D02*
X019554Y059962D01*
X019639Y060053D01*
X019726Y060140D01*
X019816Y060225D01*
X019909Y060307D01*
X020004Y060386D01*
X020102Y060462D01*
X020202Y060535D01*
X020304Y060604D01*
X020408Y060671D01*
X020515Y060734D01*
X020623Y060794D01*
X020733Y060850D01*
X020845Y060903D01*
X020958Y060952D01*
X021073Y060997D01*
X021190Y061039D01*
X021307Y061078D01*
X021426Y061112D01*
X021546Y061143D01*
X021667Y061170D01*
X021788Y061193D01*
X021910Y061213D01*
X022033Y061228D01*
X022156Y061240D01*
X022280Y061248D01*
X022403Y061252D01*
X022527Y061252D01*
X022650Y061248D01*
X022774Y061240D01*
X022897Y061228D01*
X023020Y061213D01*
X023142Y061193D01*
X023263Y061170D01*
X023384Y061143D01*
X023504Y061112D01*
X023623Y061078D01*
X023740Y061039D01*
X023857Y060997D01*
X023972Y060952D01*
X024085Y060903D01*
X024197Y060850D01*
X024307Y060794D01*
X024415Y060734D01*
X024522Y060671D01*
X024626Y060604D01*
X024728Y060535D01*
X024828Y060462D01*
X024926Y060386D01*
X025021Y060307D01*
X025114Y060225D01*
X025204Y060140D01*
X025291Y060053D01*
X025376Y059962D01*
X025457Y059870D01*
X019473Y048878D02*
X019473Y048870D01*
X019473Y043775D01*
X019473Y043767D01*
X018256Y043767D02*
X018256Y043775D01*
X018256Y048870D01*
X018256Y048878D01*
X018256Y043774D02*
X018175Y043682D01*
X018090Y043591D01*
X018003Y043504D01*
X017913Y043419D01*
X017820Y043337D01*
X017725Y043258D01*
X017627Y043182D01*
X017527Y043109D01*
X017425Y043040D01*
X017321Y042973D01*
X017214Y042910D01*
X017106Y042850D01*
X016996Y042794D01*
X016884Y042741D01*
X016771Y042692D01*
X016656Y042647D01*
X016539Y042605D01*
X016422Y042566D01*
X016303Y042532D01*
X016183Y042501D01*
X016062Y042474D01*
X015941Y042451D01*
X015819Y042431D01*
X015696Y042416D01*
X015573Y042404D01*
X015449Y042396D01*
X015326Y042392D01*
X015202Y042392D01*
X015079Y042396D01*
X014955Y042404D01*
X014832Y042416D01*
X014709Y042431D01*
X014587Y042451D01*
X014466Y042474D01*
X014345Y042501D01*
X014225Y042532D01*
X014106Y042566D01*
X013989Y042605D01*
X013872Y042647D01*
X013757Y042692D01*
X013644Y042741D01*
X013532Y042794D01*
X013422Y042850D01*
X013314Y042910D01*
X013207Y042973D01*
X013103Y043040D01*
X013001Y043109D01*
X012901Y043182D01*
X012803Y043258D01*
X012708Y043337D01*
X012615Y043419D01*
X012525Y043504D01*
X012438Y043591D01*
X012353Y043682D01*
X012272Y043774D01*
X012272Y048870D02*
X012353Y048962D01*
X012438Y049053D01*
X012525Y049140D01*
X012615Y049225D01*
X012708Y049307D01*
X012803Y049386D01*
X012901Y049462D01*
X013001Y049535D01*
X013103Y049604D01*
X013207Y049671D01*
X013314Y049734D01*
X013422Y049794D01*
X013532Y049850D01*
X013644Y049903D01*
X013757Y049952D01*
X013872Y049997D01*
X013989Y050039D01*
X014106Y050078D01*
X014225Y050112D01*
X014345Y050143D01*
X014466Y050170D01*
X014587Y050193D01*
X014709Y050213D01*
X014832Y050228D01*
X014955Y050240D01*
X015079Y050248D01*
X015202Y050252D01*
X015326Y050252D01*
X015449Y050248D01*
X015573Y050240D01*
X015696Y050228D01*
X015819Y050213D01*
X015941Y050193D01*
X016062Y050170D01*
X016183Y050143D01*
X016303Y050112D01*
X016422Y050078D01*
X016539Y050039D01*
X016656Y049997D01*
X016771Y049952D01*
X016884Y049903D01*
X016996Y049850D01*
X017106Y049794D01*
X017214Y049734D01*
X017321Y049671D01*
X017425Y049604D01*
X017527Y049535D01*
X017627Y049462D01*
X017725Y049386D01*
X017820Y049307D01*
X017913Y049225D01*
X018003Y049140D01*
X018090Y049053D01*
X018175Y048962D01*
X018256Y048870D01*
X019473Y043774D02*
X019554Y043682D01*
X019639Y043591D01*
X019726Y043504D01*
X019816Y043419D01*
X019909Y043337D01*
X020004Y043258D01*
X020102Y043182D01*
X020202Y043109D01*
X020304Y043040D01*
X020408Y042973D01*
X020515Y042910D01*
X020623Y042850D01*
X020733Y042794D01*
X020845Y042741D01*
X020958Y042692D01*
X021073Y042647D01*
X021190Y042605D01*
X021307Y042566D01*
X021426Y042532D01*
X021546Y042501D01*
X021667Y042474D01*
X021788Y042451D01*
X021910Y042431D01*
X022033Y042416D01*
X022156Y042404D01*
X022280Y042396D01*
X022403Y042392D01*
X022527Y042392D01*
X022650Y042396D01*
X022774Y042404D01*
X022897Y042416D01*
X023020Y042431D01*
X023142Y042451D01*
X023263Y042474D01*
X023384Y042501D01*
X023504Y042532D01*
X023623Y042566D01*
X023740Y042605D01*
X023857Y042647D01*
X023972Y042692D01*
X024085Y042741D01*
X024197Y042794D01*
X024307Y042850D01*
X024415Y042910D01*
X024522Y042973D01*
X024626Y043040D01*
X024728Y043109D01*
X024828Y043182D01*
X024926Y043258D01*
X025021Y043337D01*
X025114Y043419D01*
X025204Y043504D01*
X025291Y043591D01*
X025376Y043682D01*
X025457Y043774D01*
X025457Y048870D02*
X025376Y048962D01*
X025291Y049053D01*
X025204Y049140D01*
X025114Y049225D01*
X025021Y049307D01*
X024926Y049386D01*
X024828Y049462D01*
X024728Y049535D01*
X024626Y049604D01*
X024522Y049671D01*
X024415Y049734D01*
X024307Y049794D01*
X024197Y049850D01*
X024085Y049903D01*
X023972Y049952D01*
X023857Y049997D01*
X023740Y050039D01*
X023623Y050078D01*
X023504Y050112D01*
X023384Y050143D01*
X023263Y050170D01*
X023142Y050193D01*
X023020Y050213D01*
X022897Y050228D01*
X022774Y050240D01*
X022650Y050248D01*
X022527Y050252D01*
X022403Y050252D01*
X022280Y050248D01*
X022156Y050240D01*
X022033Y050228D01*
X021910Y050213D01*
X021788Y050193D01*
X021667Y050170D01*
X021546Y050143D01*
X021426Y050112D01*
X021307Y050078D01*
X021190Y050039D01*
X021073Y049997D01*
X020958Y049952D01*
X020845Y049903D01*
X020733Y049850D01*
X020623Y049794D01*
X020515Y049734D01*
X020408Y049671D01*
X020304Y049604D01*
X020202Y049535D01*
X020102Y049462D01*
X020004Y049386D01*
X019909Y049307D01*
X019816Y049225D01*
X019726Y049140D01*
X019639Y049053D01*
X019554Y048962D01*
X019473Y048870D01*
X019473Y037878D02*
X019473Y037870D01*
X019473Y032775D01*
X019473Y032767D01*
X018256Y032767D02*
X018256Y032775D01*
X018256Y037870D01*
X018256Y037878D01*
X018256Y032774D02*
X018175Y032682D01*
X018090Y032591D01*
X018003Y032504D01*
X017913Y032419D01*
X017820Y032337D01*
X017725Y032258D01*
X017627Y032182D01*
X017527Y032109D01*
X017425Y032040D01*
X017321Y031973D01*
X017214Y031910D01*
X017106Y031850D01*
X016996Y031794D01*
X016884Y031741D01*
X016771Y031692D01*
X016656Y031647D01*
X016539Y031605D01*
X016422Y031566D01*
X016303Y031532D01*
X016183Y031501D01*
X016062Y031474D01*
X015941Y031451D01*
X015819Y031431D01*
X015696Y031416D01*
X015573Y031404D01*
X015449Y031396D01*
X015326Y031392D01*
X015202Y031392D01*
X015079Y031396D01*
X014955Y031404D01*
X014832Y031416D01*
X014709Y031431D01*
X014587Y031451D01*
X014466Y031474D01*
X014345Y031501D01*
X014225Y031532D01*
X014106Y031566D01*
X013989Y031605D01*
X013872Y031647D01*
X013757Y031692D01*
X013644Y031741D01*
X013532Y031794D01*
X013422Y031850D01*
X013314Y031910D01*
X013207Y031973D01*
X013103Y032040D01*
X013001Y032109D01*
X012901Y032182D01*
X012803Y032258D01*
X012708Y032337D01*
X012615Y032419D01*
X012525Y032504D01*
X012438Y032591D01*
X012353Y032682D01*
X012272Y032774D01*
X012272Y037870D02*
X012353Y037962D01*
X012438Y038053D01*
X012525Y038140D01*
X012615Y038225D01*
X012708Y038307D01*
X012803Y038386D01*
X012901Y038462D01*
X013001Y038535D01*
X013103Y038604D01*
X013207Y038671D01*
X013314Y038734D01*
X013422Y038794D01*
X013532Y038850D01*
X013644Y038903D01*
X013757Y038952D01*
X013872Y038997D01*
X013989Y039039D01*
X014106Y039078D01*
X014225Y039112D01*
X014345Y039143D01*
X014466Y039170D01*
X014587Y039193D01*
X014709Y039213D01*
X014832Y039228D01*
X014955Y039240D01*
X015079Y039248D01*
X015202Y039252D01*
X015326Y039252D01*
X015449Y039248D01*
X015573Y039240D01*
X015696Y039228D01*
X015819Y039213D01*
X015941Y039193D01*
X016062Y039170D01*
X016183Y039143D01*
X016303Y039112D01*
X016422Y039078D01*
X016539Y039039D01*
X016656Y038997D01*
X016771Y038952D01*
X016884Y038903D01*
X016996Y038850D01*
X017106Y038794D01*
X017214Y038734D01*
X017321Y038671D01*
X017425Y038604D01*
X017527Y038535D01*
X017627Y038462D01*
X017725Y038386D01*
X017820Y038307D01*
X017913Y038225D01*
X018003Y038140D01*
X018090Y038053D01*
X018175Y037962D01*
X018256Y037870D01*
X019473Y032774D02*
X019554Y032682D01*
X019639Y032591D01*
X019726Y032504D01*
X019816Y032419D01*
X019909Y032337D01*
X020004Y032258D01*
X020102Y032182D01*
X020202Y032109D01*
X020304Y032040D01*
X020408Y031973D01*
X020515Y031910D01*
X020623Y031850D01*
X020733Y031794D01*
X020845Y031741D01*
X020958Y031692D01*
X021073Y031647D01*
X021190Y031605D01*
X021307Y031566D01*
X021426Y031532D01*
X021546Y031501D01*
X021667Y031474D01*
X021788Y031451D01*
X021910Y031431D01*
X022033Y031416D01*
X022156Y031404D01*
X022280Y031396D01*
X022403Y031392D01*
X022527Y031392D01*
X022650Y031396D01*
X022774Y031404D01*
X022897Y031416D01*
X023020Y031431D01*
X023142Y031451D01*
X023263Y031474D01*
X023384Y031501D01*
X023504Y031532D01*
X023623Y031566D01*
X023740Y031605D01*
X023857Y031647D01*
X023972Y031692D01*
X024085Y031741D01*
X024197Y031794D01*
X024307Y031850D01*
X024415Y031910D01*
X024522Y031973D01*
X024626Y032040D01*
X024728Y032109D01*
X024828Y032182D01*
X024926Y032258D01*
X025021Y032337D01*
X025114Y032419D01*
X025204Y032504D01*
X025291Y032591D01*
X025376Y032682D01*
X025457Y032774D01*
X025457Y037870D02*
X025376Y037962D01*
X025291Y038053D01*
X025204Y038140D01*
X025114Y038225D01*
X025021Y038307D01*
X024926Y038386D01*
X024828Y038462D01*
X024728Y038535D01*
X024626Y038604D01*
X024522Y038671D01*
X024415Y038734D01*
X024307Y038794D01*
X024197Y038850D01*
X024085Y038903D01*
X023972Y038952D01*
X023857Y038997D01*
X023740Y039039D01*
X023623Y039078D01*
X023504Y039112D01*
X023384Y039143D01*
X023263Y039170D01*
X023142Y039193D01*
X023020Y039213D01*
X022897Y039228D01*
X022774Y039240D01*
X022650Y039248D01*
X022527Y039252D01*
X022403Y039252D01*
X022280Y039248D01*
X022156Y039240D01*
X022033Y039228D01*
X021910Y039213D01*
X021788Y039193D01*
X021667Y039170D01*
X021546Y039143D01*
X021426Y039112D01*
X021307Y039078D01*
X021190Y039039D01*
X021073Y038997D01*
X020958Y038952D01*
X020845Y038903D01*
X020733Y038850D01*
X020623Y038794D01*
X020515Y038734D01*
X020408Y038671D01*
X020304Y038604D01*
X020202Y038535D01*
X020102Y038462D01*
X020004Y038386D01*
X019909Y038307D01*
X019816Y038225D01*
X019726Y038140D01*
X019639Y038053D01*
X019554Y037962D01*
X019473Y037870D01*
X019473Y026878D02*
X019473Y026870D01*
X019473Y021775D01*
X019473Y021767D01*
X018256Y021767D02*
X018256Y021775D01*
X018256Y026870D01*
X018256Y026878D01*
X018256Y021774D02*
X018175Y021682D01*
X018090Y021591D01*
X018003Y021504D01*
X017913Y021419D01*
X017820Y021337D01*
X017725Y021258D01*
X017627Y021182D01*
X017527Y021109D01*
X017425Y021040D01*
X017321Y020973D01*
X017214Y020910D01*
X017106Y020850D01*
X016996Y020794D01*
X016884Y020741D01*
X016771Y020692D01*
X016656Y020647D01*
X016539Y020605D01*
X016422Y020566D01*
X016303Y020532D01*
X016183Y020501D01*
X016062Y020474D01*
X015941Y020451D01*
X015819Y020431D01*
X015696Y020416D01*
X015573Y020404D01*
X015449Y020396D01*
X015326Y020392D01*
X015202Y020392D01*
X015079Y020396D01*
X014955Y020404D01*
X014832Y020416D01*
X014709Y020431D01*
X014587Y020451D01*
X014466Y020474D01*
X014345Y020501D01*
X014225Y020532D01*
X014106Y020566D01*
X013989Y020605D01*
X013872Y020647D01*
X013757Y020692D01*
X013644Y020741D01*
X013532Y020794D01*
X013422Y020850D01*
X013314Y020910D01*
X013207Y020973D01*
X013103Y021040D01*
X013001Y021109D01*
X012901Y021182D01*
X012803Y021258D01*
X012708Y021337D01*
X012615Y021419D01*
X012525Y021504D01*
X012438Y021591D01*
X012353Y021682D01*
X012272Y021774D01*
X012272Y026870D02*
X012353Y026962D01*
X012438Y027053D01*
X012525Y027140D01*
X012615Y027225D01*
X012708Y027307D01*
X012803Y027386D01*
X012901Y027462D01*
X013001Y027535D01*
X013103Y027604D01*
X013207Y027671D01*
X013314Y027734D01*
X013422Y027794D01*
X013532Y027850D01*
X013644Y027903D01*
X013757Y027952D01*
X013872Y027997D01*
X013989Y028039D01*
X014106Y028078D01*
X014225Y028112D01*
X014345Y028143D01*
X014466Y028170D01*
X014587Y028193D01*
X014709Y028213D01*
X014832Y028228D01*
X014955Y028240D01*
X015079Y028248D01*
X015202Y028252D01*
X015326Y028252D01*
X015449Y028248D01*
X015573Y028240D01*
X015696Y028228D01*
X015819Y028213D01*
X015941Y028193D01*
X016062Y028170D01*
X016183Y028143D01*
X016303Y028112D01*
X016422Y028078D01*
X016539Y028039D01*
X016656Y027997D01*
X016771Y027952D01*
X016884Y027903D01*
X016996Y027850D01*
X017106Y027794D01*
X017214Y027734D01*
X017321Y027671D01*
X017425Y027604D01*
X017527Y027535D01*
X017627Y027462D01*
X017725Y027386D01*
X017820Y027307D01*
X017913Y027225D01*
X018003Y027140D01*
X018090Y027053D01*
X018175Y026962D01*
X018256Y026870D01*
X019473Y021774D02*
X019554Y021682D01*
X019639Y021591D01*
X019726Y021504D01*
X019816Y021419D01*
X019909Y021337D01*
X020004Y021258D01*
X020102Y021182D01*
X020202Y021109D01*
X020304Y021040D01*
X020408Y020973D01*
X020515Y020910D01*
X020623Y020850D01*
X020733Y020794D01*
X020845Y020741D01*
X020958Y020692D01*
X021073Y020647D01*
X021190Y020605D01*
X021307Y020566D01*
X021426Y020532D01*
X021546Y020501D01*
X021667Y020474D01*
X021788Y020451D01*
X021910Y020431D01*
X022033Y020416D01*
X022156Y020404D01*
X022280Y020396D01*
X022403Y020392D01*
X022527Y020392D01*
X022650Y020396D01*
X022774Y020404D01*
X022897Y020416D01*
X023020Y020431D01*
X023142Y020451D01*
X023263Y020474D01*
X023384Y020501D01*
X023504Y020532D01*
X023623Y020566D01*
X023740Y020605D01*
X023857Y020647D01*
X023972Y020692D01*
X024085Y020741D01*
X024197Y020794D01*
X024307Y020850D01*
X024415Y020910D01*
X024522Y020973D01*
X024626Y021040D01*
X024728Y021109D01*
X024828Y021182D01*
X024926Y021258D01*
X025021Y021337D01*
X025114Y021419D01*
X025204Y021504D01*
X025291Y021591D01*
X025376Y021682D01*
X025457Y021774D01*
X025457Y026870D02*
X025376Y026962D01*
X025291Y027053D01*
X025204Y027140D01*
X025114Y027225D01*
X025021Y027307D01*
X024926Y027386D01*
X024828Y027462D01*
X024728Y027535D01*
X024626Y027604D01*
X024522Y027671D01*
X024415Y027734D01*
X024307Y027794D01*
X024197Y027850D01*
X024085Y027903D01*
X023972Y027952D01*
X023857Y027997D01*
X023740Y028039D01*
X023623Y028078D01*
X023504Y028112D01*
X023384Y028143D01*
X023263Y028170D01*
X023142Y028193D01*
X023020Y028213D01*
X022897Y028228D01*
X022774Y028240D01*
X022650Y028248D01*
X022527Y028252D01*
X022403Y028252D01*
X022280Y028248D01*
X022156Y028240D01*
X022033Y028228D01*
X021910Y028213D01*
X021788Y028193D01*
X021667Y028170D01*
X021546Y028143D01*
X021426Y028112D01*
X021307Y028078D01*
X021190Y028039D01*
X021073Y027997D01*
X020958Y027952D01*
X020845Y027903D01*
X020733Y027850D01*
X020623Y027794D01*
X020515Y027734D01*
X020408Y027671D01*
X020304Y027604D01*
X020202Y027535D01*
X020102Y027462D01*
X020004Y027386D01*
X019909Y027307D01*
X019816Y027225D01*
X019726Y027140D01*
X019639Y027053D01*
X019554Y026962D01*
X019473Y026870D01*
X019473Y015878D02*
X019473Y015870D01*
X019473Y010775D01*
X019473Y010767D01*
X018256Y010767D02*
X018256Y010775D01*
X018256Y015870D01*
X018256Y015878D01*
X018256Y010774D02*
X018175Y010682D01*
X018090Y010591D01*
X018003Y010504D01*
X017913Y010419D01*
X017820Y010337D01*
X017725Y010258D01*
X017627Y010182D01*
X017527Y010109D01*
X017425Y010040D01*
X017321Y009973D01*
X017214Y009910D01*
X017106Y009850D01*
X016996Y009794D01*
X016884Y009741D01*
X016771Y009692D01*
X016656Y009647D01*
X016539Y009605D01*
X016422Y009566D01*
X016303Y009532D01*
X016183Y009501D01*
X016062Y009474D01*
X015941Y009451D01*
X015819Y009431D01*
X015696Y009416D01*
X015573Y009404D01*
X015449Y009396D01*
X015326Y009392D01*
X015202Y009392D01*
X015079Y009396D01*
X014955Y009404D01*
X014832Y009416D01*
X014709Y009431D01*
X014587Y009451D01*
X014466Y009474D01*
X014345Y009501D01*
X014225Y009532D01*
X014106Y009566D01*
X013989Y009605D01*
X013872Y009647D01*
X013757Y009692D01*
X013644Y009741D01*
X013532Y009794D01*
X013422Y009850D01*
X013314Y009910D01*
X013207Y009973D01*
X013103Y010040D01*
X013001Y010109D01*
X012901Y010182D01*
X012803Y010258D01*
X012708Y010337D01*
X012615Y010419D01*
X012525Y010504D01*
X012438Y010591D01*
X012353Y010682D01*
X012272Y010774D01*
X012272Y015870D02*
X012353Y015962D01*
X012438Y016053D01*
X012525Y016140D01*
X012615Y016225D01*
X012708Y016307D01*
X012803Y016386D01*
X012901Y016462D01*
X013001Y016535D01*
X013103Y016604D01*
X013207Y016671D01*
X013314Y016734D01*
X013422Y016794D01*
X013532Y016850D01*
X013644Y016903D01*
X013757Y016952D01*
X013872Y016997D01*
X013989Y017039D01*
X014106Y017078D01*
X014225Y017112D01*
X014345Y017143D01*
X014466Y017170D01*
X014587Y017193D01*
X014709Y017213D01*
X014832Y017228D01*
X014955Y017240D01*
X015079Y017248D01*
X015202Y017252D01*
X015326Y017252D01*
X015449Y017248D01*
X015573Y017240D01*
X015696Y017228D01*
X015819Y017213D01*
X015941Y017193D01*
X016062Y017170D01*
X016183Y017143D01*
X016303Y017112D01*
X016422Y017078D01*
X016539Y017039D01*
X016656Y016997D01*
X016771Y016952D01*
X016884Y016903D01*
X016996Y016850D01*
X017106Y016794D01*
X017214Y016734D01*
X017321Y016671D01*
X017425Y016604D01*
X017527Y016535D01*
X017627Y016462D01*
X017725Y016386D01*
X017820Y016307D01*
X017913Y016225D01*
X018003Y016140D01*
X018090Y016053D01*
X018175Y015962D01*
X018256Y015870D01*
X019473Y010774D02*
X019554Y010682D01*
X019639Y010591D01*
X019726Y010504D01*
X019816Y010419D01*
X019909Y010337D01*
X020004Y010258D01*
X020102Y010182D01*
X020202Y010109D01*
X020304Y010040D01*
X020408Y009973D01*
X020515Y009910D01*
X020623Y009850D01*
X020733Y009794D01*
X020845Y009741D01*
X020958Y009692D01*
X021073Y009647D01*
X021190Y009605D01*
X021307Y009566D01*
X021426Y009532D01*
X021546Y009501D01*
X021667Y009474D01*
X021788Y009451D01*
X021910Y009431D01*
X022033Y009416D01*
X022156Y009404D01*
X022280Y009396D01*
X022403Y009392D01*
X022527Y009392D01*
X022650Y009396D01*
X022774Y009404D01*
X022897Y009416D01*
X023020Y009431D01*
X023142Y009451D01*
X023263Y009474D01*
X023384Y009501D01*
X023504Y009532D01*
X023623Y009566D01*
X023740Y009605D01*
X023857Y009647D01*
X023972Y009692D01*
X024085Y009741D01*
X024197Y009794D01*
X024307Y009850D01*
X024415Y009910D01*
X024522Y009973D01*
X024626Y010040D01*
X024728Y010109D01*
X024828Y010182D01*
X024926Y010258D01*
X025021Y010337D01*
X025114Y010419D01*
X025204Y010504D01*
X025291Y010591D01*
X025376Y010682D01*
X025457Y010774D01*
X025457Y015870D02*
X025376Y015962D01*
X025291Y016053D01*
X025204Y016140D01*
X025114Y016225D01*
X025021Y016307D01*
X024926Y016386D01*
X024828Y016462D01*
X024728Y016535D01*
X024626Y016604D01*
X024522Y016671D01*
X024415Y016734D01*
X024307Y016794D01*
X024197Y016850D01*
X024085Y016903D01*
X023972Y016952D01*
X023857Y016997D01*
X023740Y017039D01*
X023623Y017078D01*
X023504Y017112D01*
X023384Y017143D01*
X023263Y017170D01*
X023142Y017193D01*
X023020Y017213D01*
X022897Y017228D01*
X022774Y017240D01*
X022650Y017248D01*
X022527Y017252D01*
X022403Y017252D01*
X022280Y017248D01*
X022156Y017240D01*
X022033Y017228D01*
X021910Y017213D01*
X021788Y017193D01*
X021667Y017170D01*
X021546Y017143D01*
X021426Y017112D01*
X021307Y017078D01*
X021190Y017039D01*
X021073Y016997D01*
X020958Y016952D01*
X020845Y016903D01*
X020733Y016850D01*
X020623Y016794D01*
X020515Y016734D01*
X020408Y016671D01*
X020304Y016604D01*
X020202Y016535D01*
X020102Y016462D01*
X020004Y016386D01*
X019909Y016307D01*
X019816Y016225D01*
X019726Y016140D01*
X019639Y016053D01*
X019554Y015962D01*
X019473Y015870D01*
M02*
