G75*
%MOIN*%
%OFA0B0*%
%FSLAX24Y24*%
%IPPOS*%
%LPD*%
%AMOC8*
5,1,8,0,0,1.08239X$1,22.5*
%
%ADD10C,0.1340*%
%ADD11C,0.0118*%
%ADD12C,0.4017*%
%ADD13R,0.0198X0.0592*%
%ADD14R,0.0730X0.0887*%
D10*
X007067Y005578D03*
X007067Y065067D03*
X059567Y065067D03*
X059567Y005578D03*
D11*
X060492Y066602D02*
X060595Y066611D01*
X060694Y066638D01*
X060788Y066681D01*
X060872Y066740D01*
X060945Y066813D01*
X061004Y066897D01*
X061047Y066991D01*
X061074Y067090D01*
X061083Y067193D01*
X061074Y067295D01*
X061047Y067395D01*
X061004Y067488D01*
X060945Y067572D01*
X060872Y067645D01*
X060788Y067704D01*
X060694Y067747D01*
X060595Y067774D01*
X060492Y067783D01*
X060390Y067774D01*
X060290Y067747D01*
X060197Y067704D01*
X060113Y067645D01*
X060040Y067572D01*
X059981Y067488D01*
X059937Y067395D01*
X059911Y067295D01*
X059902Y067193D01*
X059911Y067090D01*
X059937Y066991D01*
X059981Y066897D01*
X060040Y066813D01*
X060113Y066740D01*
X060197Y066681D01*
X060290Y066638D01*
X060390Y066611D01*
X060492Y066602D01*
X060172Y066698D02*
X060812Y066698D01*
X060946Y066815D02*
X060039Y066815D01*
X059965Y066932D02*
X061020Y066932D01*
X061063Y067048D02*
X059922Y067048D01*
X059904Y067165D02*
X061081Y067165D01*
X061075Y067281D02*
X059910Y067281D01*
X059939Y067398D02*
X061046Y067398D01*
X060985Y067515D02*
X060000Y067515D01*
X060099Y067631D02*
X060886Y067631D01*
X060693Y067748D02*
X060292Y067748D01*
X049587Y067193D02*
X049578Y067090D01*
X049551Y066991D01*
X049508Y066897D01*
X049449Y066813D01*
X049376Y066740D01*
X049292Y066681D01*
X049198Y066638D01*
X049099Y066611D01*
X048996Y066602D01*
X048894Y066611D01*
X048794Y066638D01*
X048701Y066681D01*
X048617Y066740D01*
X048544Y066813D01*
X048485Y066897D01*
X048441Y066991D01*
X048415Y067090D01*
X048406Y067193D01*
X048415Y067295D01*
X048441Y067395D01*
X048485Y067488D01*
X048544Y067572D01*
X048617Y067645D01*
X048701Y067704D01*
X048794Y067747D01*
X048894Y067774D01*
X048996Y067783D01*
X049099Y067774D01*
X049198Y067747D01*
X049292Y067704D01*
X049376Y067645D01*
X049449Y067572D01*
X049508Y067488D01*
X049551Y067395D01*
X049578Y067295D01*
X049587Y067193D01*
X049584Y067165D02*
X048408Y067165D01*
X048414Y067281D02*
X049579Y067281D01*
X049550Y067398D02*
X048443Y067398D01*
X048504Y067515D02*
X049489Y067515D01*
X049390Y067631D02*
X048603Y067631D01*
X048796Y067748D02*
X049197Y067748D01*
X049567Y067048D02*
X048426Y067048D01*
X048469Y066932D02*
X049524Y066932D01*
X049450Y066815D02*
X048543Y066815D01*
X048676Y066698D02*
X049316Y066698D01*
X046783Y067090D02*
X046792Y067193D01*
X046783Y067295D01*
X046756Y067395D01*
X046712Y067488D01*
X046653Y067572D01*
X046581Y067645D01*
X046496Y067704D01*
X046403Y067747D01*
X046304Y067774D01*
X046201Y067783D01*
X046099Y067774D01*
X045999Y067747D01*
X045906Y067704D01*
X045821Y067645D01*
X045749Y067572D01*
X045690Y067488D01*
X045646Y067395D01*
X045619Y067295D01*
X045610Y067193D01*
X045619Y067090D01*
X045646Y066991D01*
X045690Y066897D01*
X045749Y066813D01*
X045821Y066740D01*
X045906Y066681D01*
X045999Y066638D01*
X046099Y066611D01*
X046201Y066602D01*
X046304Y066611D01*
X046403Y066638D01*
X046496Y066681D01*
X046581Y066740D01*
X046653Y066813D01*
X046712Y066897D01*
X046756Y066991D01*
X046783Y067090D01*
X046771Y067048D02*
X045631Y067048D01*
X045613Y067165D02*
X046789Y067165D01*
X046784Y067281D02*
X045618Y067281D01*
X045648Y067398D02*
X046754Y067398D01*
X046694Y067515D02*
X045708Y067515D01*
X045808Y067631D02*
X046594Y067631D01*
X046402Y067748D02*
X046000Y067748D01*
X045674Y066932D02*
X046728Y066932D01*
X046655Y066815D02*
X045747Y066815D01*
X045881Y066698D02*
X046521Y066698D01*
X035296Y067193D02*
X035287Y067090D01*
X035260Y066991D01*
X035216Y066897D01*
X035157Y066813D01*
X035085Y066740D01*
X035000Y066681D01*
X034907Y066638D01*
X034808Y066611D01*
X034705Y066602D01*
X034602Y066611D01*
X034503Y066638D01*
X034410Y066681D01*
X034325Y066740D01*
X034253Y066813D01*
X034194Y066897D01*
X034150Y066991D01*
X034123Y067090D01*
X034114Y067193D01*
X034123Y067295D01*
X034150Y067395D01*
X034194Y067488D01*
X034253Y067572D01*
X034325Y067645D01*
X034410Y067704D01*
X034503Y067747D01*
X034602Y067774D01*
X034705Y067783D01*
X034808Y067774D01*
X034907Y067747D01*
X035000Y067704D01*
X035085Y067645D01*
X035157Y067572D01*
X035216Y067488D01*
X035260Y067395D01*
X035287Y067295D01*
X035296Y067193D01*
X035293Y067165D02*
X034117Y067165D01*
X034122Y067281D02*
X035288Y067281D01*
X035258Y067398D02*
X034152Y067398D01*
X034212Y067515D02*
X035198Y067515D01*
X035098Y067631D02*
X034312Y067631D01*
X034504Y067748D02*
X034906Y067748D01*
X035275Y067048D02*
X034135Y067048D01*
X034178Y066932D02*
X035232Y066932D01*
X035159Y066815D02*
X034251Y066815D01*
X034385Y066698D02*
X035025Y066698D01*
X032491Y067090D02*
X032500Y067193D01*
X032491Y067295D01*
X032465Y067395D01*
X032421Y067488D01*
X032362Y067572D01*
X032289Y067645D01*
X032205Y067704D01*
X032112Y067747D01*
X032012Y067774D01*
X031910Y067783D01*
X031807Y067774D01*
X031708Y067747D01*
X031614Y067704D01*
X031530Y067645D01*
X031457Y067572D01*
X031398Y067488D01*
X031355Y067395D01*
X031328Y067295D01*
X031319Y067193D01*
X031328Y067090D01*
X031355Y066991D01*
X031398Y066897D01*
X031457Y066813D01*
X031530Y066740D01*
X031614Y066681D01*
X031708Y066638D01*
X031807Y066611D01*
X031910Y066602D01*
X032012Y066611D01*
X032112Y066638D01*
X032205Y066681D01*
X032289Y066740D01*
X032362Y066813D01*
X032421Y066897D01*
X032465Y066991D01*
X032491Y067090D01*
X032480Y067048D02*
X031339Y067048D01*
X031322Y067165D02*
X032498Y067165D01*
X032492Y067281D02*
X031327Y067281D01*
X031356Y067398D02*
X032463Y067398D01*
X032402Y067515D02*
X031417Y067515D01*
X031516Y067631D02*
X032303Y067631D01*
X032110Y067748D02*
X031709Y067748D01*
X031382Y066932D02*
X032437Y066932D01*
X032364Y066815D02*
X031456Y066815D01*
X031590Y066698D02*
X032230Y066698D01*
X021004Y067193D02*
X020995Y067090D01*
X020969Y066991D01*
X020925Y066897D01*
X020866Y066813D01*
X020793Y066740D01*
X020709Y066681D01*
X020616Y066638D01*
X020516Y066611D01*
X020414Y066602D01*
X020311Y066611D01*
X020212Y066638D01*
X020118Y066681D01*
X020034Y066740D01*
X019961Y066813D01*
X019902Y066897D01*
X019859Y066991D01*
X019832Y067090D01*
X019823Y067193D01*
X019832Y067295D01*
X019859Y067395D01*
X019902Y067488D01*
X019961Y067572D01*
X020034Y067645D01*
X020118Y067704D01*
X020212Y067747D01*
X020311Y067774D01*
X020414Y067783D01*
X020516Y067774D01*
X020616Y067747D01*
X020709Y067704D01*
X020793Y067645D01*
X020866Y067572D01*
X020925Y067488D01*
X020969Y067395D01*
X020995Y067295D01*
X021004Y067193D01*
X021002Y067165D02*
X019826Y067165D01*
X019831Y067281D02*
X020996Y067281D01*
X020967Y067398D02*
X019860Y067398D01*
X019921Y067515D02*
X020906Y067515D01*
X020807Y067631D02*
X020020Y067631D01*
X020213Y067748D02*
X020614Y067748D01*
X020984Y067048D02*
X019843Y067048D01*
X019886Y066932D02*
X020941Y066932D01*
X020867Y066815D02*
X019960Y066815D01*
X020094Y066698D02*
X020734Y066698D01*
X018200Y067090D02*
X018209Y067193D01*
X018200Y067295D01*
X018173Y067395D01*
X018130Y067488D01*
X018071Y067572D01*
X017998Y067645D01*
X017914Y067704D01*
X017820Y067747D01*
X017721Y067774D01*
X017618Y067783D01*
X017516Y067774D01*
X017416Y067747D01*
X017323Y067704D01*
X017239Y067645D01*
X017166Y067572D01*
X017107Y067488D01*
X017063Y067395D01*
X017037Y067295D01*
X017028Y067193D01*
X017037Y067090D01*
X017063Y066991D01*
X017107Y066897D01*
X017166Y066813D01*
X017239Y066740D01*
X017323Y066681D01*
X017416Y066638D01*
X017516Y066611D01*
X017618Y066602D01*
X017721Y066611D01*
X017820Y066638D01*
X017914Y066681D01*
X017998Y066740D01*
X018071Y066813D01*
X018130Y066897D01*
X018173Y066991D01*
X018200Y067090D01*
X018189Y067048D02*
X017048Y067048D01*
X017030Y067165D02*
X018206Y067165D01*
X018201Y067281D02*
X017036Y067281D01*
X017065Y067398D02*
X018172Y067398D01*
X018111Y067515D02*
X017126Y067515D01*
X017225Y067631D02*
X018012Y067631D01*
X017819Y067748D02*
X017418Y067748D01*
X017091Y066932D02*
X018146Y066932D01*
X018072Y066815D02*
X017165Y066815D01*
X017298Y066698D02*
X017938Y066698D01*
X006713Y067193D02*
X006704Y067090D01*
X006677Y066991D01*
X006634Y066897D01*
X006575Y066813D01*
X006502Y066740D01*
X006418Y066681D01*
X006324Y066638D01*
X006225Y066611D01*
X006122Y066602D01*
X006020Y066611D01*
X005920Y066638D01*
X005827Y066681D01*
X005743Y066740D01*
X005670Y066813D01*
X005611Y066897D01*
X005567Y066991D01*
X005541Y067090D01*
X005532Y067193D01*
X005541Y067295D01*
X005567Y067395D01*
X005611Y067488D01*
X005670Y067572D01*
X005743Y067645D01*
X005827Y067704D01*
X005920Y067747D01*
X006020Y067774D01*
X006122Y067783D01*
X006225Y067774D01*
X006324Y067747D01*
X006418Y067704D01*
X006502Y067645D01*
X006575Y067572D01*
X006634Y067488D01*
X006677Y067395D01*
X006704Y067295D01*
X006713Y067193D01*
X006710Y067165D02*
X005534Y067165D01*
X005540Y067281D02*
X006705Y067281D01*
X006676Y067398D02*
X005569Y067398D01*
X005630Y067515D02*
X006615Y067515D01*
X006516Y067631D02*
X005729Y067631D01*
X005922Y067748D02*
X006323Y067748D01*
X006693Y067048D02*
X005552Y067048D01*
X005595Y066932D02*
X006650Y066932D01*
X006576Y066815D02*
X005669Y066815D01*
X005802Y066698D02*
X006442Y066698D01*
D12*
X008063Y057322D03*
X015264Y057322D03*
X022465Y057322D03*
X029666Y057322D03*
X036866Y057322D03*
X044067Y057322D03*
X051268Y057322D03*
X058469Y057322D03*
X058469Y046322D03*
X051268Y046322D03*
X044067Y046322D03*
X036866Y046322D03*
X029666Y046322D03*
X022465Y046322D03*
X015264Y046322D03*
X008063Y046322D03*
X008063Y035322D03*
X015264Y035322D03*
X022465Y035322D03*
X029666Y035322D03*
X036866Y035322D03*
X044067Y035322D03*
X051268Y035322D03*
X058469Y035322D03*
X058469Y024322D03*
X051268Y024322D03*
X044067Y024322D03*
X036866Y024322D03*
X029666Y024322D03*
X022465Y024322D03*
X015264Y024322D03*
X008063Y024322D03*
X008063Y013322D03*
X015264Y013322D03*
X022465Y013322D03*
X029666Y013322D03*
X036866Y013322D03*
X044067Y013322D03*
X051268Y013322D03*
X058469Y013322D03*
D13*
X058485Y068275D03*
X058878Y068275D03*
X058091Y068275D03*
X057697Y068275D03*
X057303Y068275D03*
X056910Y068275D03*
X056516Y068275D03*
X056122Y068275D03*
X055729Y068275D03*
X055335Y068275D03*
X054941Y068275D03*
X054548Y068275D03*
X054154Y068275D03*
X053760Y068275D03*
X053366Y068275D03*
X052973Y068275D03*
X052579Y068275D03*
X052185Y068275D03*
X051792Y068275D03*
X051398Y068275D03*
X051004Y068275D03*
X050610Y068275D03*
X044587Y068275D03*
X044193Y068275D03*
X043799Y068275D03*
X043406Y068275D03*
X043012Y068275D03*
X042618Y068275D03*
X042225Y068275D03*
X041831Y068275D03*
X041437Y068275D03*
X041044Y068275D03*
X040650Y068275D03*
X040256Y068275D03*
X039862Y068275D03*
X039469Y068275D03*
X039075Y068275D03*
X038681Y068275D03*
X038288Y068275D03*
X037894Y068275D03*
X037500Y068275D03*
X037107Y068275D03*
X036713Y068275D03*
X036319Y068275D03*
X030296Y068275D03*
X029902Y068275D03*
X029508Y068275D03*
X029114Y068275D03*
X028721Y068275D03*
X028327Y068275D03*
X027933Y068275D03*
X027540Y068275D03*
X027146Y068275D03*
X026752Y068275D03*
X026359Y068275D03*
X025965Y068275D03*
X025571Y068275D03*
X025177Y068275D03*
X024784Y068275D03*
X024390Y068275D03*
X023996Y068275D03*
X023603Y068275D03*
X023209Y068275D03*
X022815Y068275D03*
X022422Y068275D03*
X022028Y068275D03*
X016004Y068275D03*
X015610Y068275D03*
X015217Y068275D03*
X014823Y068275D03*
X014429Y068275D03*
X014036Y068275D03*
X013642Y068275D03*
X013248Y068275D03*
X012855Y068275D03*
X012461Y068275D03*
X012067Y068275D03*
X011673Y068275D03*
X011280Y068275D03*
X010886Y068275D03*
X010492Y068275D03*
X010099Y068275D03*
X009705Y068275D03*
X009311Y068275D03*
X008918Y068275D03*
X008524Y068275D03*
X008130Y068275D03*
X007736Y068275D03*
D14*
X006792Y069555D03*
X016949Y069555D03*
X021083Y069555D03*
X031240Y069555D03*
X035374Y069555D03*
X045532Y069555D03*
X049666Y069555D03*
X059823Y069555D03*
M02*
