G75*
%MOIN*%
%OFA0B0*%
%FSLAX24Y24*%
%IPPOS*%
%LPD*%
%AMOC8*
5,1,8,0,0,1.08239X$1,22.5*
%
%ADD10C,0.2362*%
%ADD11R,0.0118X0.0512*%
%ADD12R,0.0650X0.0807*%
%ADD13C,0.0118*%
%ADD14C,0.0079*%
D10*
X006420Y004884D02*
X006420Y005672D01*
X007483Y010385D02*
X007483Y011173D01*
X006420Y015908D02*
X006420Y016696D01*
X007483Y021409D02*
X007483Y022197D01*
X006420Y026932D02*
X006420Y027720D01*
X007483Y032432D02*
X007483Y033220D01*
X006420Y037955D02*
X006420Y038743D01*
X007483Y043456D02*
X007483Y044244D01*
X006420Y048979D02*
X006420Y049767D01*
X013664Y049767D02*
X013664Y048979D01*
X014731Y044244D02*
X014731Y043456D01*
X013664Y038743D02*
X013664Y037955D01*
X014727Y033220D02*
X014727Y032432D01*
X013664Y027720D02*
X013664Y026932D01*
X014727Y022197D02*
X014727Y021409D01*
X013664Y016696D02*
X013664Y015908D01*
X014727Y011173D02*
X014727Y010385D01*
X013664Y005672D02*
X013664Y004884D01*
X020908Y004884D02*
X020908Y005672D01*
X021972Y010385D02*
X021972Y011173D01*
X020908Y015908D02*
X020908Y016696D01*
X021972Y021409D02*
X021972Y022197D01*
X020908Y026932D02*
X020908Y027720D01*
X021972Y032432D02*
X021972Y033220D01*
X020908Y037955D02*
X020908Y038743D01*
X021968Y043456D02*
X021968Y044244D01*
X020908Y048979D02*
X020908Y049767D01*
X028153Y049767D02*
X028153Y048979D01*
X029216Y044244D02*
X029216Y043456D01*
X028153Y038743D02*
X028153Y037955D01*
X029216Y033220D02*
X029216Y032432D01*
X028153Y027720D02*
X028153Y026932D01*
X029216Y022197D02*
X029216Y021409D01*
X028153Y016696D02*
X028153Y015908D01*
X029216Y011173D02*
X029216Y010385D01*
X028153Y005672D02*
X028153Y004884D01*
X035397Y004884D02*
X035397Y005672D01*
X036460Y010385D02*
X036460Y011173D01*
X035397Y015908D02*
X035397Y016696D01*
X036460Y021409D02*
X036460Y022197D01*
X035397Y026932D02*
X035397Y027720D01*
X036456Y032432D02*
X036456Y033220D01*
X035397Y037955D02*
X035397Y038743D01*
X036456Y043456D02*
X036456Y044244D01*
X035397Y048979D02*
X035397Y049767D01*
X042641Y049767D02*
X042641Y048979D01*
X043692Y044252D02*
X043692Y043464D01*
X042641Y038743D02*
X042641Y037955D01*
X043700Y033220D02*
X043700Y032432D01*
X042641Y027720D02*
X042641Y026932D01*
X043700Y022197D02*
X043700Y021409D01*
X042641Y016696D02*
X042641Y015908D01*
X043704Y011173D02*
X043704Y010385D01*
X042641Y005672D02*
X042641Y004884D01*
X049885Y004884D02*
X049885Y005672D01*
X050948Y010385D02*
X050948Y011173D01*
X049885Y015908D02*
X049885Y016696D01*
X050948Y021413D02*
X050948Y022201D01*
X049885Y026932D02*
X049885Y027720D01*
X050952Y032432D02*
X050952Y033220D01*
X049885Y037955D02*
X049885Y038743D01*
X050948Y043456D02*
X050948Y044244D01*
X049885Y048979D02*
X049885Y049767D01*
X057129Y049806D02*
X057129Y049018D01*
X058192Y044283D02*
X058192Y043495D01*
X057129Y038783D02*
X057129Y037995D01*
X058192Y033260D02*
X058192Y032472D01*
X057129Y027759D02*
X057129Y026971D01*
X058192Y022236D02*
X058192Y021448D01*
X057129Y016735D02*
X057129Y015947D01*
X058192Y011212D02*
X058192Y010424D01*
X057129Y005712D02*
X057129Y004924D01*
D11*
X057080Y058521D03*
X057474Y058521D03*
X057867Y058521D03*
X058261Y058521D03*
X058655Y058521D03*
X059048Y058521D03*
X059442Y058521D03*
X056686Y058521D03*
X056292Y058521D03*
X055899Y058521D03*
X055505Y058521D03*
X055111Y058521D03*
X054718Y058521D03*
X054324Y058521D03*
X053930Y058521D03*
X053536Y058521D03*
X053143Y058521D03*
X052749Y058521D03*
X052355Y058521D03*
X051962Y058521D03*
X051568Y058521D03*
X051174Y058521D03*
X044245Y058521D03*
X043851Y058521D03*
X043458Y058521D03*
X043064Y058521D03*
X042670Y058521D03*
X042277Y058521D03*
X041883Y058521D03*
X041489Y058521D03*
X041096Y058521D03*
X040702Y058521D03*
X040308Y058521D03*
X039914Y058521D03*
X039521Y058521D03*
X039127Y058521D03*
X038733Y058521D03*
X038340Y058521D03*
X037946Y058521D03*
X037552Y058521D03*
X037159Y058521D03*
X036765Y058521D03*
X036371Y058521D03*
X035977Y058521D03*
X028970Y058521D03*
X028576Y058521D03*
X028182Y058521D03*
X027788Y058521D03*
X027395Y058521D03*
X027001Y058521D03*
X026607Y058521D03*
X026214Y058521D03*
X025820Y058521D03*
X025426Y058521D03*
X025033Y058521D03*
X024639Y058521D03*
X024245Y058521D03*
X023851Y058521D03*
X023458Y058521D03*
X023064Y058521D03*
X022670Y058521D03*
X022277Y058521D03*
X021883Y058521D03*
X021489Y058521D03*
X021096Y058521D03*
X020702Y058521D03*
X013733Y058521D03*
X013340Y058521D03*
X012946Y058521D03*
X012552Y058521D03*
X012159Y058521D03*
X011765Y058521D03*
X011371Y058521D03*
X010977Y058521D03*
X010584Y058521D03*
X010190Y058521D03*
X009796Y058521D03*
X009403Y058521D03*
X009009Y058521D03*
X008615Y058521D03*
X008222Y058521D03*
X007828Y058521D03*
X007434Y058521D03*
X007040Y058521D03*
X006647Y058521D03*
X006253Y058521D03*
X005859Y058521D03*
X005466Y058521D03*
D12*
X004521Y059800D03*
X014678Y059800D03*
X019757Y059800D03*
X029914Y059800D03*
X035033Y059800D03*
X045190Y059800D03*
X050229Y059800D03*
X060387Y059800D03*
D13*
X059442Y058521D02*
X059442Y053895D01*
X057129Y051582D01*
X057129Y049412D01*
X055544Y050627D02*
X055544Y046537D01*
X058192Y043889D01*
X055111Y040406D02*
X057129Y038389D01*
X055111Y040406D02*
X055111Y050745D01*
X058655Y054289D01*
X058655Y058521D01*
X059048Y058521D02*
X059048Y054131D01*
X055544Y050627D01*
X054678Y050942D02*
X054678Y036379D01*
X058192Y032866D01*
X054245Y030249D02*
X057129Y027365D01*
X053812Y026222D02*
X058192Y021842D01*
X053812Y026222D02*
X053812Y051257D01*
X057080Y054525D01*
X057080Y058521D01*
X057474Y058521D02*
X057474Y054328D01*
X054245Y051100D01*
X054245Y030249D01*
X050952Y032826D02*
X047434Y036344D01*
X047434Y051021D01*
X053930Y057517D01*
X053930Y058521D01*
X054324Y058521D02*
X054324Y057320D01*
X047867Y050863D01*
X047867Y040367D01*
X049885Y038349D01*
X050948Y043850D02*
X048300Y046498D01*
X048300Y050706D01*
X054718Y057123D01*
X054718Y058521D01*
X055111Y058521D02*
X055111Y056887D01*
X049885Y051661D01*
X049885Y049373D01*
X052513Y051730D02*
X052513Y009934D01*
X057129Y005318D01*
X058192Y010818D02*
X052946Y016064D01*
X052946Y051572D01*
X056292Y054918D01*
X056292Y058521D01*
X055899Y058521D02*
X055899Y055115D01*
X052513Y051730D01*
X053379Y051415D02*
X053379Y020091D01*
X057129Y016341D01*
X050948Y021807D02*
X046568Y026187D01*
X046568Y051336D01*
X052749Y057517D01*
X052749Y058521D01*
X052355Y058521D02*
X052355Y057714D01*
X046135Y051493D01*
X046135Y020052D01*
X049885Y016302D01*
X045702Y016025D02*
X050948Y010779D01*
X049885Y005278D02*
X045269Y009895D01*
X045269Y051808D01*
X051568Y058107D01*
X051568Y058521D01*
X051962Y058521D02*
X051962Y057911D01*
X045702Y051651D01*
X045702Y016025D01*
X042641Y016302D02*
X038891Y020052D01*
X038891Y051808D01*
X041489Y054407D01*
X041489Y058521D01*
X041096Y058521D02*
X041096Y054682D01*
X038458Y052044D01*
X038458Y016025D01*
X043704Y010779D01*
X042641Y005278D02*
X038025Y009895D01*
X038025Y052320D01*
X040702Y054997D01*
X040702Y058521D01*
X039914Y058521D02*
X039914Y056218D01*
X035387Y051690D01*
X035387Y049383D01*
X035397Y049373D01*
X033812Y050745D02*
X033812Y046494D01*
X036456Y043850D01*
X033379Y040367D02*
X035397Y038349D01*
X033379Y040367D02*
X033379Y050981D01*
X039127Y056730D01*
X039127Y058521D01*
X038733Y058521D02*
X038733Y057044D01*
X032946Y051257D01*
X032946Y036336D01*
X036456Y032826D01*
X039757Y030210D02*
X042641Y027326D01*
X039324Y026179D02*
X043700Y021803D01*
X039324Y026179D02*
X039324Y051533D01*
X041883Y054092D01*
X041883Y058521D01*
X042277Y058521D02*
X042277Y053816D01*
X039757Y051296D01*
X039757Y030210D01*
X043700Y032826D02*
X040190Y036336D01*
X040190Y050981D01*
X043064Y053856D01*
X043064Y058521D01*
X043458Y058521D02*
X043458Y053541D01*
X040623Y050706D01*
X040623Y040367D01*
X042641Y038349D01*
X043692Y043858D02*
X041056Y046494D01*
X041056Y050470D01*
X043851Y053265D01*
X043851Y058521D01*
X044245Y058521D02*
X044245Y052989D01*
X042641Y051385D01*
X042641Y049373D01*
X047001Y051178D02*
X047001Y030210D01*
X049885Y027326D01*
X036460Y021803D02*
X032080Y026183D01*
X032080Y051769D01*
X037552Y057241D01*
X037552Y058521D01*
X037159Y058521D02*
X037159Y057517D01*
X031647Y052005D01*
X031647Y020052D01*
X035397Y016302D01*
X031214Y016025D02*
X036460Y010779D01*
X035397Y005278D02*
X030781Y009895D01*
X030781Y052478D01*
X036371Y058068D01*
X036371Y058521D01*
X036765Y058521D02*
X036765Y057793D01*
X031214Y052241D01*
X031214Y016025D01*
X028153Y016302D02*
X024403Y020052D01*
X024403Y052320D01*
X026214Y054131D01*
X026214Y058521D01*
X026607Y058521D02*
X026607Y053856D01*
X024836Y052084D01*
X024836Y026183D01*
X029216Y021803D01*
X028153Y027326D02*
X025269Y030210D01*
X025269Y051808D01*
X027001Y053541D01*
X027001Y058521D01*
X027788Y058521D02*
X027788Y053580D01*
X025702Y051493D01*
X025702Y036340D01*
X029216Y032826D01*
X032513Y030210D02*
X035397Y027326D01*
X032513Y030210D02*
X032513Y051533D01*
X037946Y056966D01*
X037946Y058521D01*
X039521Y058521D02*
X039521Y056454D01*
X033812Y050745D01*
X028970Y052517D02*
X028143Y051690D01*
X028143Y049383D01*
X028153Y049373D01*
X026568Y050863D02*
X026568Y046498D01*
X029216Y043850D01*
X026135Y040367D02*
X028153Y038349D01*
X026135Y040367D02*
X026135Y051178D01*
X028182Y053226D01*
X028182Y058521D01*
X028576Y058521D02*
X028576Y052871D01*
X026568Y050863D01*
X028970Y052517D02*
X028970Y058521D01*
X025820Y058521D02*
X025820Y054407D01*
X023970Y052556D01*
X023970Y016025D01*
X029216Y010779D01*
X028153Y005278D02*
X023536Y009895D01*
X023536Y052832D01*
X025426Y054722D01*
X025426Y058521D01*
X024639Y058521D02*
X024639Y055430D01*
X020899Y051690D01*
X020899Y049383D01*
X020908Y049373D01*
X019324Y050863D02*
X019324Y046494D01*
X021968Y043850D01*
X018891Y040367D02*
X020908Y038349D01*
X018891Y040367D02*
X018891Y051139D01*
X023851Y056100D01*
X023851Y058521D01*
X023458Y058521D02*
X023458Y056375D01*
X018458Y051375D01*
X018458Y036340D01*
X021972Y032826D01*
X018025Y030210D02*
X020908Y027326D01*
X017592Y026183D02*
X021972Y021803D01*
X017592Y026183D02*
X017592Y051887D01*
X022277Y056572D01*
X022277Y058521D01*
X022670Y058521D02*
X022670Y056257D01*
X018025Y051611D01*
X018025Y030210D01*
X014727Y032826D02*
X011214Y036340D01*
X011214Y051887D01*
X012552Y053226D01*
X012552Y058521D01*
X012946Y058521D02*
X012946Y052832D01*
X011647Y051533D01*
X011647Y040367D01*
X013664Y038349D01*
X014731Y043850D02*
X012080Y046501D01*
X012080Y051100D01*
X013340Y052359D01*
X013340Y058521D01*
X013733Y058521D02*
X013733Y049442D01*
X013664Y049373D01*
X010781Y052202D02*
X010781Y030210D01*
X013664Y027326D01*
X010348Y026183D02*
X014727Y021803D01*
X017159Y020052D02*
X020908Y016302D01*
X017159Y020052D02*
X017159Y052163D01*
X021883Y056887D01*
X021883Y058521D01*
X021489Y058521D02*
X021489Y057241D01*
X016725Y052478D01*
X016725Y016025D01*
X021972Y010779D01*
X020908Y005278D02*
X016292Y009895D01*
X016292Y052832D01*
X021096Y057635D01*
X021096Y058521D01*
X024245Y058521D02*
X024245Y055785D01*
X019324Y050863D01*
X011765Y053186D02*
X010781Y052202D01*
X010348Y052478D02*
X010348Y026183D01*
X006420Y027326D02*
X003536Y030210D01*
X003536Y051651D01*
X007434Y055548D01*
X007434Y058521D01*
X007040Y058521D02*
X007040Y055981D01*
X003103Y052044D01*
X003103Y026183D01*
X007483Y021803D01*
X009914Y020052D02*
X013664Y016302D01*
X009914Y020052D02*
X009914Y052753D01*
X010977Y053816D01*
X010977Y058521D01*
X010584Y058521D02*
X010584Y054170D01*
X009481Y053068D01*
X009481Y016025D01*
X014727Y010779D01*
X013664Y005278D02*
X009048Y009895D01*
X009048Y053383D01*
X010190Y054525D01*
X010190Y058521D01*
X009403Y058521D02*
X009403Y054525D01*
X006420Y051542D01*
X006420Y049373D01*
X004836Y050667D02*
X004836Y046498D01*
X007483Y043850D01*
X004403Y040367D02*
X006420Y038349D01*
X004403Y040367D02*
X004403Y050981D01*
X008615Y055194D01*
X008615Y058521D01*
X008222Y058521D02*
X008222Y055548D01*
X003970Y051296D01*
X003970Y036340D01*
X007483Y032826D01*
X002670Y020052D02*
X006420Y016302D01*
X002237Y016025D02*
X007483Y010779D01*
X006420Y005278D02*
X001804Y009895D01*
X001804Y053029D01*
X005859Y057084D01*
X005859Y058521D01*
X006253Y058521D02*
X006253Y056730D01*
X002237Y052714D01*
X002237Y016025D01*
X002670Y020052D02*
X002670Y052399D01*
X006647Y056375D01*
X006647Y058521D01*
X009009Y058521D02*
X009009Y054840D01*
X004836Y050667D01*
X010348Y052478D02*
X011371Y053501D01*
X011371Y058521D01*
X011765Y058521D02*
X011765Y053186D01*
X047001Y051178D02*
X053143Y057320D01*
X053143Y058521D01*
X056686Y058521D02*
X056686Y054722D01*
X053379Y051415D01*
X054678Y050942D02*
X058261Y054525D01*
X058261Y058521D01*
D14*
X057867Y058521D02*
X057867Y059485D01*
X059481Y059485D01*
X060662Y058304D01*
X060333Y058555D02*
X062095Y058555D01*
X062077Y058580D02*
X062174Y058449D01*
X062252Y058306D01*
X062309Y058154D01*
X062344Y057994D01*
X062355Y057832D01*
X062344Y057669D01*
X062309Y057510D01*
X062252Y057358D01*
X062174Y057215D01*
X062077Y057084D01*
X061961Y056969D01*
X061831Y056871D01*
X061688Y056793D01*
X061535Y056736D01*
X061376Y056702D01*
X061214Y056690D01*
X061051Y056702D01*
X060892Y056736D01*
X060739Y056793D01*
X060596Y056871D01*
X060466Y056969D01*
X060351Y057084D01*
X060253Y057215D01*
X060175Y057358D01*
X060118Y057510D01*
X060084Y057669D01*
X060072Y057832D01*
X060084Y057994D01*
X060118Y058154D01*
X060175Y058306D01*
X060253Y058449D01*
X060351Y058580D01*
X060466Y058695D01*
X060596Y058792D01*
X060739Y058870D01*
X060892Y058927D01*
X061051Y058962D01*
X061214Y058974D01*
X061376Y058962D01*
X061535Y058927D01*
X061688Y058870D01*
X061831Y058792D01*
X061961Y058695D01*
X062077Y058580D01*
X062024Y058632D02*
X060404Y058632D01*
X060486Y058710D02*
X061941Y058710D01*
X061838Y058787D02*
X060589Y058787D01*
X060728Y058864D02*
X061700Y058864D01*
X061471Y058941D02*
X060956Y058941D01*
X060275Y058478D02*
X062153Y058478D01*
X062201Y058401D02*
X060227Y058401D01*
X060185Y058323D02*
X062243Y058323D01*
X062275Y058246D02*
X060153Y058246D01*
X060124Y058169D02*
X062303Y058169D01*
X062323Y058092D02*
X060105Y058092D01*
X060088Y058014D02*
X062339Y058014D01*
X062348Y057937D02*
X060079Y057937D01*
X060074Y057860D02*
X062353Y057860D01*
X062352Y057783D02*
X060075Y057783D01*
X060081Y057706D02*
X062346Y057706D01*
X062335Y057628D02*
X060092Y057628D01*
X060109Y057551D02*
X062318Y057551D01*
X062296Y057474D02*
X060132Y057474D01*
X060161Y057397D02*
X062267Y057397D01*
X062231Y057319D02*
X060196Y057319D01*
X060238Y057242D02*
X062189Y057242D01*
X062137Y057165D02*
X060290Y057165D01*
X060348Y057088D02*
X062079Y057088D01*
X062003Y057010D02*
X060425Y057010D01*
X060514Y056933D02*
X061913Y056933D01*
X061803Y056856D02*
X060625Y056856D01*
X060779Y056779D02*
X061649Y056779D01*
X061371Y056701D02*
X061056Y056701D01*
X057867Y059485D02*
X056135Y059485D01*
X055505Y058856D01*
X055505Y058521D01*
X053536Y058521D02*
X053536Y058856D01*
X052985Y059407D01*
X051174Y059407D01*
X051174Y058521D01*
X051174Y059407D02*
X051056Y059407D01*
X049560Y057911D01*
X050143Y057937D02*
X047875Y057937D01*
X047879Y057994D02*
X047913Y058154D01*
X047970Y058306D01*
X048048Y058449D01*
X048146Y058580D01*
X048261Y058695D01*
X048392Y058792D01*
X048535Y058870D01*
X048687Y058927D01*
X048846Y058962D01*
X049009Y058974D01*
X049171Y058962D01*
X049331Y058927D01*
X049483Y058870D01*
X049626Y058792D01*
X049757Y058695D01*
X049872Y058580D01*
X049969Y058449D01*
X050047Y058306D01*
X050104Y058154D01*
X050139Y057994D01*
X050151Y057832D01*
X050139Y057669D01*
X050104Y057510D01*
X050047Y057358D01*
X049969Y057215D01*
X049872Y057084D01*
X049757Y056969D01*
X049626Y056871D01*
X049483Y056793D01*
X049331Y056736D01*
X049171Y056702D01*
X049009Y056690D01*
X048846Y056702D01*
X048687Y056736D01*
X048535Y056793D01*
X048392Y056871D01*
X048261Y056969D01*
X048146Y057084D01*
X048048Y057215D01*
X047970Y057358D01*
X047913Y057510D01*
X047879Y057669D01*
X047867Y057832D01*
X047879Y057994D01*
X047883Y058014D02*
X050135Y058014D01*
X050118Y058092D02*
X047900Y058092D01*
X047919Y058169D02*
X050099Y058169D01*
X050070Y058246D02*
X047948Y058246D01*
X047980Y058323D02*
X050038Y058323D01*
X049996Y058401D02*
X048022Y058401D01*
X048070Y058478D02*
X049948Y058478D01*
X049890Y058555D02*
X048128Y058555D01*
X048199Y058632D02*
X049819Y058632D01*
X049737Y058710D02*
X048281Y058710D01*
X048384Y058787D02*
X049634Y058787D01*
X049495Y058864D02*
X048523Y058864D01*
X048752Y058941D02*
X049266Y058941D01*
X050149Y057860D02*
X047869Y057860D01*
X047871Y057783D02*
X050147Y057783D01*
X050142Y057706D02*
X047876Y057706D01*
X047888Y057628D02*
X050130Y057628D01*
X050113Y057551D02*
X047905Y057551D01*
X047927Y057474D02*
X050091Y057474D01*
X050062Y057397D02*
X047956Y057397D01*
X047991Y057319D02*
X050027Y057319D01*
X049984Y057242D02*
X048033Y057242D01*
X048086Y057165D02*
X049932Y057165D01*
X049874Y057088D02*
X048144Y057088D01*
X048220Y057010D02*
X049798Y057010D01*
X049709Y056933D02*
X048309Y056933D01*
X048420Y056856D02*
X049598Y056856D01*
X049444Y056779D02*
X048574Y056779D01*
X048852Y056701D02*
X049166Y056701D01*
X047099Y057474D02*
X044935Y057474D01*
X044921Y057510D02*
X044887Y057669D01*
X044875Y057832D01*
X044887Y057994D01*
X044921Y058154D01*
X044978Y058306D01*
X045056Y058449D01*
X045154Y058580D01*
X045269Y058695D01*
X045400Y058792D01*
X045543Y058870D01*
X045695Y058927D01*
X045854Y058962D01*
X046017Y058974D01*
X046179Y058962D01*
X046338Y058927D01*
X046491Y058870D01*
X046634Y058792D01*
X046764Y058695D01*
X046880Y058580D01*
X046977Y058449D01*
X047055Y058306D01*
X047112Y058154D01*
X047147Y057994D01*
X047159Y057832D01*
X047147Y057669D01*
X047112Y057510D01*
X047055Y057358D01*
X046977Y057215D01*
X046880Y057084D01*
X046764Y056969D01*
X046634Y056871D01*
X046491Y056793D01*
X046338Y056736D01*
X046179Y056702D01*
X046017Y056690D01*
X045854Y056702D01*
X045695Y056736D01*
X045543Y056793D01*
X045400Y056871D01*
X045269Y056969D01*
X045154Y057084D01*
X045056Y057215D01*
X044978Y057358D01*
X044921Y057510D01*
X044912Y057551D02*
X047121Y057551D01*
X047138Y057628D02*
X044896Y057628D01*
X044884Y057706D02*
X047150Y057706D01*
X047155Y057783D02*
X044879Y057783D01*
X044877Y057860D02*
X047157Y057860D01*
X047151Y057937D02*
X044883Y057937D01*
X044891Y058014D02*
X047143Y058014D01*
X047126Y058092D02*
X044908Y058092D01*
X044927Y058169D02*
X047107Y058169D01*
X047078Y058246D02*
X044956Y058246D01*
X044988Y058323D02*
X047046Y058323D01*
X047004Y058401D02*
X045030Y058401D01*
X045078Y058478D02*
X046956Y058478D01*
X046898Y058555D02*
X045136Y058555D01*
X045207Y058632D02*
X046827Y058632D01*
X046745Y058710D02*
X045289Y058710D01*
X045392Y058787D02*
X046641Y058787D01*
X046503Y058864D02*
X045531Y058864D01*
X045760Y058941D02*
X046274Y058941D01*
X045899Y057871D02*
X044363Y059407D01*
X042670Y059407D01*
X042670Y058521D01*
X042670Y059407D02*
X040859Y059407D01*
X040308Y058856D01*
X040308Y058521D01*
X038340Y058521D02*
X038340Y058856D01*
X037788Y059407D01*
X035977Y059407D01*
X035977Y058521D01*
X034908Y058154D02*
X034942Y057994D01*
X034954Y057832D01*
X034942Y057669D01*
X034908Y057510D01*
X034851Y057358D01*
X034773Y057215D01*
X034675Y057084D01*
X034560Y056969D01*
X034429Y056871D01*
X034286Y056793D01*
X034134Y056736D01*
X033975Y056702D01*
X033812Y056690D01*
X033650Y056702D01*
X033490Y056736D01*
X033338Y056793D01*
X033195Y056871D01*
X033064Y056969D01*
X032949Y057084D01*
X032852Y057215D01*
X032774Y057358D01*
X032717Y057510D01*
X032682Y057669D01*
X032670Y057832D01*
X032682Y057994D01*
X032717Y058154D01*
X032774Y058306D01*
X032852Y058449D01*
X032949Y058580D01*
X033064Y058695D01*
X033195Y058792D01*
X033338Y058870D01*
X033490Y058927D01*
X033650Y058962D01*
X033812Y058974D01*
X033975Y058962D01*
X034134Y058927D01*
X034286Y058870D01*
X034429Y058792D01*
X034560Y058695D01*
X034675Y058580D01*
X034773Y058449D01*
X034851Y058306D01*
X034908Y058154D01*
X034902Y058169D02*
X032722Y058169D01*
X032703Y058092D02*
X034921Y058092D01*
X034938Y058014D02*
X032686Y058014D01*
X032678Y057937D02*
X034946Y057937D01*
X034952Y057860D02*
X032672Y057860D01*
X032674Y057783D02*
X034950Y057783D01*
X034945Y057706D02*
X032679Y057706D01*
X032691Y057628D02*
X034933Y057628D01*
X034916Y057551D02*
X032708Y057551D01*
X032730Y057474D02*
X034894Y057474D01*
X034865Y057397D02*
X032759Y057397D01*
X032794Y057319D02*
X034830Y057319D01*
X034788Y057242D02*
X032837Y057242D01*
X032889Y057165D02*
X034735Y057165D01*
X034677Y057088D02*
X032947Y057088D01*
X033023Y057010D02*
X034601Y057010D01*
X034512Y056933D02*
X033112Y056933D01*
X033223Y056856D02*
X034401Y056856D01*
X034247Y056779D02*
X033377Y056779D01*
X033655Y056701D02*
X033969Y056701D01*
X034403Y057950D02*
X035859Y059407D01*
X035977Y059407D01*
X034751Y058478D02*
X032873Y058478D01*
X032825Y058401D02*
X034799Y058401D01*
X034841Y058323D02*
X032783Y058323D01*
X032751Y058246D02*
X034873Y058246D01*
X034693Y058555D02*
X032931Y058555D01*
X033002Y058632D02*
X034622Y058632D01*
X034540Y058710D02*
X033084Y058710D01*
X033187Y058787D02*
X034437Y058787D01*
X034298Y058864D02*
X033326Y058864D01*
X033555Y058941D02*
X034069Y058941D01*
X031837Y058154D02*
X031871Y057994D01*
X031883Y057832D01*
X031871Y057669D01*
X031837Y057510D01*
X031780Y057358D01*
X031702Y057215D01*
X031604Y057084D01*
X031489Y056969D01*
X031358Y056871D01*
X031216Y056793D01*
X031063Y056736D01*
X030904Y056702D01*
X030741Y056690D01*
X030579Y056702D01*
X030420Y056736D01*
X030267Y056793D01*
X030124Y056871D01*
X029994Y056969D01*
X029878Y057084D01*
X029781Y057215D01*
X029703Y057358D01*
X029646Y057510D01*
X029611Y057669D01*
X029599Y057832D01*
X029611Y057994D01*
X029646Y058154D01*
X029703Y058306D01*
X029781Y058449D01*
X029878Y058580D01*
X029994Y058695D01*
X030124Y058792D01*
X030267Y058870D01*
X030420Y058927D01*
X030579Y058962D01*
X030741Y058974D01*
X030904Y058962D01*
X031063Y058927D01*
X031216Y058870D01*
X031358Y058792D01*
X031489Y058695D01*
X031604Y058580D01*
X031702Y058449D01*
X031780Y058306D01*
X031837Y058154D01*
X031831Y058169D02*
X029651Y058169D01*
X029632Y058092D02*
X031850Y058092D01*
X031867Y058014D02*
X029615Y058014D01*
X029607Y057937D02*
X031875Y057937D01*
X031881Y057860D02*
X029602Y057860D01*
X029603Y057783D02*
X031879Y057783D01*
X031874Y057706D02*
X029609Y057706D01*
X029620Y057628D02*
X031862Y057628D01*
X031846Y057551D02*
X029637Y057551D01*
X029659Y057474D02*
X031823Y057474D01*
X031794Y057397D02*
X029688Y057397D01*
X029724Y057319D02*
X031759Y057319D01*
X031717Y057242D02*
X029766Y057242D01*
X029818Y057165D02*
X031664Y057165D01*
X031607Y057088D02*
X029876Y057088D01*
X029952Y057010D02*
X031530Y057010D01*
X031441Y056933D02*
X030042Y056933D01*
X030152Y056856D02*
X031330Y056856D01*
X031176Y056779D02*
X030306Y056779D01*
X030584Y056701D02*
X030898Y056701D01*
X030269Y058226D02*
X029088Y059407D01*
X027395Y059407D01*
X027395Y058521D01*
X027395Y059407D02*
X025584Y059407D01*
X025033Y058856D01*
X025033Y058521D01*
X023064Y058521D02*
X023064Y058856D01*
X022513Y059407D01*
X020702Y059407D01*
X020584Y059407D01*
X019088Y057911D01*
X019671Y057937D02*
X017402Y057937D01*
X017406Y057994D02*
X017441Y058154D01*
X017498Y058306D01*
X017576Y058449D01*
X017674Y058580D01*
X017789Y058695D01*
X017919Y058792D01*
X018062Y058870D01*
X018215Y058927D01*
X018374Y058962D01*
X018536Y058974D01*
X018699Y058962D01*
X018858Y058927D01*
X019011Y058870D01*
X019154Y058792D01*
X019284Y058695D01*
X019399Y058580D01*
X019497Y058449D01*
X019575Y058306D01*
X019632Y058154D01*
X019667Y057994D01*
X019678Y057832D01*
X019667Y057669D01*
X019632Y057510D01*
X019575Y057358D01*
X019497Y057215D01*
X019399Y057084D01*
X019284Y056969D01*
X019154Y056871D01*
X019011Y056793D01*
X018858Y056736D01*
X018699Y056702D01*
X018536Y056690D01*
X018374Y056702D01*
X018215Y056736D01*
X018062Y056793D01*
X017919Y056871D01*
X017789Y056969D01*
X017674Y057084D01*
X017576Y057215D01*
X017498Y057358D01*
X017441Y057510D01*
X017406Y057669D01*
X017395Y057832D01*
X017406Y057994D01*
X017411Y058014D02*
X019662Y058014D01*
X019645Y058092D02*
X017428Y058092D01*
X017447Y058169D02*
X019626Y058169D01*
X019597Y058246D02*
X017476Y058246D01*
X017507Y058323D02*
X019566Y058323D01*
X019523Y058401D02*
X017550Y058401D01*
X017598Y058478D02*
X019475Y058478D01*
X019418Y058555D02*
X017655Y058555D01*
X017726Y058632D02*
X019347Y058632D01*
X019264Y058710D02*
X017809Y058710D01*
X017912Y058787D02*
X019161Y058787D01*
X019022Y058864D02*
X018051Y058864D01*
X018279Y058941D02*
X018794Y058941D01*
X019676Y057860D02*
X017397Y057860D01*
X017398Y057783D02*
X019675Y057783D01*
X019669Y057706D02*
X017404Y057706D01*
X017415Y057628D02*
X019658Y057628D01*
X019641Y057551D02*
X017432Y057551D01*
X017455Y057474D02*
X019618Y057474D01*
X019590Y057397D02*
X017483Y057397D01*
X017519Y057319D02*
X019554Y057319D01*
X019512Y057242D02*
X017561Y057242D01*
X017613Y057165D02*
X019460Y057165D01*
X019402Y057088D02*
X017671Y057088D01*
X017747Y057010D02*
X019326Y057010D01*
X019236Y056933D02*
X017837Y056933D01*
X017948Y056856D02*
X019125Y056856D01*
X018971Y056779D02*
X018102Y056779D01*
X018379Y056701D02*
X018694Y056701D01*
X016587Y057474D02*
X014423Y057474D01*
X014410Y057510D02*
X014375Y057669D01*
X014363Y057832D01*
X014375Y057994D01*
X014410Y058154D01*
X014466Y058306D01*
X014545Y058449D01*
X014642Y058580D01*
X014757Y058695D01*
X014888Y058792D01*
X015031Y058870D01*
X015183Y058927D01*
X015343Y058962D01*
X015505Y058974D01*
X015667Y058962D01*
X015827Y058927D01*
X015979Y058870D01*
X016122Y058792D01*
X016253Y058695D01*
X016368Y058580D01*
X016465Y058449D01*
X016544Y058306D01*
X016600Y058154D01*
X016635Y057994D01*
X016647Y057832D01*
X016635Y057669D01*
X016600Y057510D01*
X016544Y057358D01*
X016465Y057215D01*
X016368Y057084D01*
X016253Y056969D01*
X016122Y056871D01*
X015979Y056793D01*
X015827Y056736D01*
X015667Y056702D01*
X015505Y056690D01*
X015343Y056702D01*
X015183Y056736D01*
X015031Y056793D01*
X014888Y056871D01*
X014757Y056969D01*
X014642Y057084D01*
X014545Y057215D01*
X014466Y057358D01*
X014410Y057510D01*
X014401Y057551D02*
X016609Y057551D01*
X016626Y057628D02*
X014384Y057628D01*
X014372Y057706D02*
X016638Y057706D01*
X016643Y057783D02*
X014367Y057783D01*
X014365Y057860D02*
X016645Y057860D01*
X016639Y057937D02*
X014371Y057937D01*
X014379Y058014D02*
X016631Y058014D01*
X016614Y058092D02*
X014396Y058092D01*
X014415Y058169D02*
X016595Y058169D01*
X016566Y058246D02*
X014444Y058246D01*
X014476Y058323D02*
X016534Y058323D01*
X016492Y058401D02*
X014518Y058401D01*
X014566Y058478D02*
X016444Y058478D01*
X016386Y058555D02*
X014624Y058555D01*
X014695Y058632D02*
X016315Y058632D01*
X016233Y058710D02*
X014777Y058710D01*
X014880Y058787D02*
X016130Y058787D01*
X015991Y058864D02*
X015019Y058864D01*
X015248Y058941D02*
X015762Y058941D01*
X014954Y058304D02*
X013851Y059407D01*
X012159Y059407D01*
X012159Y058521D01*
X012159Y059407D02*
X010348Y059407D01*
X009796Y058856D01*
X009796Y058521D01*
X007828Y058521D02*
X007828Y058856D01*
X007277Y059407D01*
X005466Y059407D01*
X005466Y058521D01*
X005466Y059407D02*
X005348Y059407D01*
X003930Y057989D01*
X004409Y058092D02*
X002191Y058092D01*
X002205Y058154D02*
X002262Y058306D01*
X002340Y058449D01*
X002437Y058580D01*
X002553Y058695D01*
X002683Y058792D01*
X002826Y058870D01*
X002979Y058927D01*
X003138Y058962D01*
X003300Y058974D01*
X003463Y058962D01*
X003622Y058927D01*
X003775Y058870D01*
X003918Y058792D01*
X004048Y058695D01*
X004163Y058580D01*
X004261Y058449D01*
X004339Y058306D01*
X004396Y058154D01*
X004430Y057994D01*
X004442Y057832D01*
X004430Y057669D01*
X004396Y057510D01*
X004339Y057358D01*
X004261Y057215D01*
X004163Y057084D01*
X004048Y056969D01*
X003918Y056871D01*
X003775Y056793D01*
X003622Y056736D01*
X003463Y056702D01*
X003300Y056690D01*
X003138Y056702D01*
X002979Y056736D01*
X002826Y056793D01*
X002683Y056871D01*
X002553Y056969D01*
X002437Y057084D01*
X002340Y057215D01*
X002262Y057358D01*
X002205Y057510D01*
X002170Y057669D01*
X002159Y057832D01*
X002170Y057994D01*
X002205Y058154D01*
X002211Y058169D02*
X004390Y058169D01*
X004361Y058246D02*
X002239Y058246D01*
X002271Y058323D02*
X004329Y058323D01*
X004287Y058401D02*
X002313Y058401D01*
X002361Y058478D02*
X004239Y058478D01*
X004181Y058555D02*
X002419Y058555D01*
X002490Y058632D02*
X004110Y058632D01*
X004028Y058710D02*
X002573Y058710D01*
X002676Y058787D02*
X003925Y058787D01*
X003786Y058864D02*
X002814Y058864D01*
X003043Y058941D02*
X003558Y058941D01*
X004426Y058014D02*
X002175Y058014D01*
X002166Y057937D02*
X004434Y057937D01*
X004440Y057860D02*
X002161Y057860D01*
X002162Y057783D02*
X004438Y057783D01*
X004433Y057706D02*
X002168Y057706D01*
X002179Y057628D02*
X004421Y057628D01*
X004405Y057551D02*
X002196Y057551D01*
X002218Y057474D02*
X004382Y057474D01*
X004353Y057397D02*
X002247Y057397D01*
X002283Y057319D02*
X004318Y057319D01*
X004276Y057242D02*
X002325Y057242D01*
X002377Y057165D02*
X004224Y057165D01*
X004166Y057088D02*
X002435Y057088D01*
X002511Y057010D02*
X004089Y057010D01*
X004000Y056933D02*
X002601Y056933D01*
X002711Y056856D02*
X003889Y056856D01*
X003735Y056779D02*
X002865Y056779D01*
X003143Y056701D02*
X003458Y056701D01*
X014452Y057397D02*
X016558Y057397D01*
X016523Y057319D02*
X014487Y057319D01*
X014530Y057242D02*
X016480Y057242D01*
X016428Y057165D02*
X014582Y057165D01*
X014640Y057088D02*
X016370Y057088D01*
X016294Y057010D02*
X014716Y057010D01*
X014805Y056933D02*
X016205Y056933D01*
X016094Y056856D02*
X014916Y056856D01*
X015070Y056779D02*
X015940Y056779D01*
X015662Y056701D02*
X015348Y056701D01*
X020702Y058521D02*
X020702Y059407D01*
X029680Y058246D02*
X031802Y058246D01*
X031770Y058323D02*
X029712Y058323D01*
X029754Y058401D02*
X031728Y058401D01*
X031680Y058478D02*
X029802Y058478D01*
X029860Y058555D02*
X031622Y058555D01*
X031551Y058632D02*
X029931Y058632D01*
X030013Y058710D02*
X031469Y058710D01*
X031366Y058787D02*
X030117Y058787D01*
X030255Y058864D02*
X031227Y058864D01*
X030999Y058941D02*
X030484Y058941D01*
X044964Y057397D02*
X047070Y057397D01*
X047034Y057319D02*
X044999Y057319D01*
X045041Y057242D02*
X046992Y057242D01*
X046940Y057165D02*
X045094Y057165D01*
X045151Y057088D02*
X046882Y057088D01*
X046806Y057010D02*
X045228Y057010D01*
X045317Y056933D02*
X046717Y056933D01*
X046606Y056856D02*
X045428Y056856D01*
X045582Y056779D02*
X046452Y056779D01*
X046174Y056701D02*
X045860Y056701D01*
M02*
