G75*
%MOIN*%
%OFA0B0*%
%FSLAX24Y24*%
%IPPOS*%
%LPD*%
%AMOC8*
5,1,8,0,0,1.08239X$1,22.5*
%
%ADD10C,0.3937*%
%ADD11R,0.0118X0.0512*%
%ADD12R,0.0650X0.0807*%
%ADD13C,0.0118*%
%ADD14C,0.0059*%
D10*
X008063Y013322D03*
X015264Y013322D03*
X022465Y013322D03*
X029666Y013322D03*
X036866Y013322D03*
X044067Y013322D03*
X051268Y013322D03*
X058469Y013322D03*
X058469Y024322D03*
X051268Y024322D03*
X044067Y024322D03*
X036866Y024322D03*
X029666Y024322D03*
X022465Y024322D03*
X015264Y024322D03*
X008063Y024322D03*
X008063Y035322D03*
X015264Y035322D03*
X022465Y035322D03*
X029666Y035322D03*
X036866Y035322D03*
X044067Y035322D03*
X051268Y035322D03*
X058469Y035322D03*
X058469Y046322D03*
X051268Y046322D03*
X044067Y046322D03*
X036866Y046322D03*
X029666Y046322D03*
X022465Y046322D03*
X015264Y046322D03*
X008063Y046322D03*
X008063Y057322D03*
X015264Y057322D03*
X022465Y057322D03*
X029666Y057322D03*
X036866Y057322D03*
X044067Y057322D03*
X051268Y057322D03*
X058469Y057322D03*
D11*
X058485Y068275D03*
X058878Y068275D03*
X058091Y068275D03*
X057697Y068275D03*
X057303Y068275D03*
X056910Y068275D03*
X056516Y068275D03*
X056122Y068275D03*
X055729Y068275D03*
X055335Y068275D03*
X054941Y068275D03*
X054548Y068275D03*
X054154Y068275D03*
X053760Y068275D03*
X053366Y068275D03*
X052973Y068275D03*
X052579Y068275D03*
X052185Y068275D03*
X051792Y068275D03*
X051398Y068275D03*
X051004Y068275D03*
X050610Y068275D03*
X044587Y068275D03*
X044193Y068275D03*
X043799Y068275D03*
X043406Y068275D03*
X043012Y068275D03*
X042618Y068275D03*
X042225Y068275D03*
X041831Y068275D03*
X041437Y068275D03*
X041044Y068275D03*
X040650Y068275D03*
X040256Y068275D03*
X039862Y068275D03*
X039469Y068275D03*
X039075Y068275D03*
X038681Y068275D03*
X038288Y068275D03*
X037894Y068275D03*
X037500Y068275D03*
X037107Y068275D03*
X036713Y068275D03*
X036319Y068275D03*
X030296Y068275D03*
X029902Y068275D03*
X029508Y068275D03*
X029114Y068275D03*
X028721Y068275D03*
X028327Y068275D03*
X027933Y068275D03*
X027540Y068275D03*
X027146Y068275D03*
X026752Y068275D03*
X026359Y068275D03*
X025965Y068275D03*
X025571Y068275D03*
X025177Y068275D03*
X024784Y068275D03*
X024390Y068275D03*
X023996Y068275D03*
X023603Y068275D03*
X023209Y068275D03*
X022815Y068275D03*
X022422Y068275D03*
X022028Y068275D03*
X016004Y068275D03*
X015610Y068275D03*
X015217Y068275D03*
X014823Y068275D03*
X014429Y068275D03*
X014036Y068275D03*
X013642Y068275D03*
X013248Y068275D03*
X012855Y068275D03*
X012461Y068275D03*
X012067Y068275D03*
X011673Y068275D03*
X011280Y068275D03*
X010886Y068275D03*
X010492Y068275D03*
X010099Y068275D03*
X009705Y068275D03*
X009311Y068275D03*
X008918Y068275D03*
X008524Y068275D03*
X008130Y068275D03*
X007736Y068275D03*
D12*
X006792Y069555D03*
X016949Y069555D03*
X021083Y069555D03*
X031240Y069555D03*
X035374Y069555D03*
X045532Y069555D03*
X049666Y069555D03*
X059823Y069555D03*
D13*
X059230Y069006D02*
X060492Y067744D01*
X060492Y067193D01*
X059155Y066522D02*
X059116Y066563D01*
X059079Y066607D01*
X059045Y066653D01*
X059014Y066701D01*
X058986Y066751D01*
X058961Y066802D01*
X058939Y066855D01*
X058921Y066909D01*
X058905Y066964D01*
X058893Y067020D01*
X058885Y067076D01*
X058880Y067133D01*
X058878Y067190D01*
X058878Y068275D01*
X059230Y069007D02*
X059201Y069033D01*
X059170Y069056D01*
X059137Y069075D01*
X059102Y069092D01*
X059065Y069105D01*
X059028Y069114D01*
X058990Y069120D01*
X058951Y069122D01*
X057303Y069122D01*
X057303Y068275D01*
X056910Y068275D02*
X056910Y066678D01*
X056399Y066365D02*
X056360Y066406D01*
X056323Y066450D01*
X056289Y066496D01*
X056258Y066544D01*
X056230Y066594D01*
X056205Y066645D01*
X056183Y066698D01*
X056165Y066752D01*
X056149Y066807D01*
X056137Y066863D01*
X056129Y066919D01*
X056124Y066976D01*
X056122Y067033D01*
X056122Y068275D01*
X055335Y067387D02*
X055337Y067330D01*
X055342Y067273D01*
X055350Y067217D01*
X055362Y067161D01*
X055378Y067106D01*
X055396Y067052D01*
X055418Y066999D01*
X055443Y066948D01*
X055471Y066898D01*
X055502Y066850D01*
X055536Y066804D01*
X055573Y066760D01*
X055612Y066719D01*
X058555Y063775D01*
X058759Y064005D02*
X056399Y066365D01*
X057186Y066010D02*
X058963Y064234D01*
X058556Y063776D02*
X058601Y063733D01*
X058648Y063693D01*
X058697Y063656D01*
X058749Y063622D01*
X058802Y063591D01*
X058857Y063562D01*
X058913Y063537D01*
X058971Y063515D01*
X059030Y063496D01*
X059090Y063481D01*
X059150Y063469D01*
X059212Y063460D01*
X059273Y063455D01*
X059335Y063453D01*
X059335Y063452D02*
X060035Y063452D01*
X060127Y063728D02*
X059427Y063728D01*
X059519Y064004D02*
X060219Y064004D01*
X061278Y064753D02*
X061317Y064712D01*
X061354Y064668D01*
X061388Y064622D01*
X061419Y064574D01*
X061447Y064524D01*
X061472Y064473D01*
X061494Y064420D01*
X061512Y064366D01*
X061528Y064311D01*
X061540Y064255D01*
X061548Y064199D01*
X061553Y064142D01*
X061555Y064085D01*
X061555Y062689D01*
X061280Y062741D02*
X061280Y062943D01*
X061004Y062851D02*
X061004Y062794D01*
X060607Y062464D02*
X059621Y061478D01*
X059785Y061249D02*
X060774Y062237D01*
X061003Y062073D02*
X059949Y061019D01*
X060113Y060790D02*
X061233Y061909D01*
X061831Y061141D02*
X061829Y061079D01*
X061824Y061018D01*
X061815Y060956D01*
X061803Y060896D01*
X061788Y060836D01*
X061769Y060777D01*
X061747Y060719D01*
X061722Y060663D01*
X061693Y060608D01*
X061662Y060555D01*
X061628Y060503D01*
X061591Y060454D01*
X061551Y060407D01*
X061508Y060362D01*
X058469Y057322D01*
X056083Y058323D02*
X056085Y058374D01*
X056090Y058426D01*
X056098Y058477D01*
X056110Y058527D01*
X056125Y058576D01*
X056143Y058624D01*
X056164Y058671D01*
X056188Y058717D01*
X056216Y058760D01*
X056246Y058802D01*
X056278Y058842D01*
X056314Y058879D01*
X056314Y058880D02*
X057624Y060190D01*
X057460Y060420D02*
X056084Y059044D01*
X055855Y059208D02*
X057295Y060649D01*
X057131Y060879D02*
X055625Y059373D01*
X055532Y058429D02*
X055532Y045182D01*
X055807Y045235D02*
X055807Y058376D01*
X056083Y058323D02*
X056083Y049230D01*
X056452Y048339D02*
X058469Y046322D01*
X055808Y045235D02*
X055810Y045184D01*
X055815Y045132D01*
X055823Y045081D01*
X055835Y045031D01*
X055850Y044982D01*
X055868Y044934D01*
X055889Y044887D01*
X055913Y044841D01*
X055941Y044798D01*
X055971Y044756D01*
X056003Y044716D01*
X056039Y044679D01*
X056038Y044678D02*
X057545Y043171D01*
X057381Y042942D02*
X055809Y044514D01*
X055579Y044350D02*
X057217Y042712D01*
X057996Y042389D02*
X059261Y042389D01*
X059353Y042665D02*
X058049Y042665D01*
X058102Y042941D02*
X059445Y042941D01*
X060021Y042388D02*
X060813Y041596D01*
X060583Y041393D02*
X059818Y042159D01*
X060224Y042617D02*
X060179Y042660D01*
X060132Y042700D01*
X060083Y042737D01*
X060031Y042771D01*
X059978Y042802D01*
X059923Y042831D01*
X059867Y042856D01*
X059809Y042878D01*
X059750Y042897D01*
X059690Y042912D01*
X059630Y042924D01*
X059568Y042933D01*
X059507Y042938D01*
X059445Y042940D01*
X060225Y042618D02*
X060996Y041846D01*
X061044Y041040D02*
X061044Y040550D01*
X060768Y040642D02*
X060768Y040947D01*
X061043Y041040D02*
X061041Y041091D01*
X061036Y041143D01*
X061028Y041194D01*
X061016Y041244D01*
X061001Y041293D01*
X060983Y041341D01*
X060962Y041388D01*
X060938Y041434D01*
X060910Y041477D01*
X060880Y041519D01*
X060848Y041559D01*
X060812Y041596D01*
X061319Y041067D02*
X061319Y038629D01*
X060996Y037850D02*
X058469Y035322D01*
X056083Y036551D02*
X056085Y036602D01*
X056090Y036654D01*
X056098Y036705D01*
X056110Y036755D01*
X056125Y036804D01*
X056143Y036852D01*
X056164Y036899D01*
X056188Y036945D01*
X056216Y036988D01*
X056246Y037030D01*
X056278Y037070D01*
X056314Y037107D01*
X056314Y037108D02*
X057939Y038734D01*
X057735Y038963D02*
X056084Y037312D01*
X055807Y036644D02*
X055807Y022570D01*
X056130Y021791D02*
X057177Y020744D01*
X057957Y020421D02*
X059130Y020421D01*
X059910Y020098D02*
X060484Y019523D01*
X060807Y018744D02*
X060807Y016118D01*
X060484Y015338D02*
X058469Y013322D01*
X060484Y015339D02*
X060527Y015384D01*
X060567Y015431D01*
X060604Y015480D01*
X060638Y015532D01*
X060669Y015585D01*
X060698Y015640D01*
X060723Y015696D01*
X060745Y015754D01*
X060764Y015813D01*
X060779Y015873D01*
X060791Y015933D01*
X060800Y015995D01*
X060805Y016056D01*
X060807Y016118D01*
X060807Y018744D02*
X060805Y018806D01*
X060800Y018867D01*
X060791Y018929D01*
X060779Y018989D01*
X060764Y019049D01*
X060745Y019108D01*
X060723Y019166D01*
X060698Y019222D01*
X060669Y019277D01*
X060638Y019330D01*
X060604Y019382D01*
X060567Y019431D01*
X060527Y019478D01*
X060484Y019523D01*
X059909Y020098D02*
X059864Y020141D01*
X059817Y020181D01*
X059768Y020218D01*
X059716Y020252D01*
X059663Y020283D01*
X059608Y020312D01*
X059552Y020337D01*
X059494Y020359D01*
X059435Y020378D01*
X059375Y020393D01*
X059315Y020405D01*
X059253Y020414D01*
X059192Y020419D01*
X059130Y020421D01*
X057957Y020421D02*
X057895Y020423D01*
X057834Y020428D01*
X057772Y020437D01*
X057712Y020449D01*
X057652Y020464D01*
X057593Y020483D01*
X057535Y020505D01*
X057479Y020530D01*
X057424Y020559D01*
X057371Y020590D01*
X057319Y020624D01*
X057270Y020661D01*
X057223Y020701D01*
X057178Y020744D01*
X056131Y021791D02*
X056088Y021836D01*
X056048Y021883D01*
X056011Y021932D01*
X055977Y021984D01*
X055946Y022037D01*
X055917Y022092D01*
X055892Y022148D01*
X055870Y022206D01*
X055851Y022265D01*
X055836Y022325D01*
X055824Y022385D01*
X055815Y022447D01*
X055810Y022508D01*
X055808Y022570D01*
X058469Y024322D02*
X056406Y026385D01*
X056083Y027165D02*
X056083Y036551D01*
X055807Y036644D02*
X055809Y036701D01*
X055814Y036758D01*
X055822Y036814D01*
X055834Y036870D01*
X055850Y036925D01*
X055868Y036979D01*
X055890Y037032D01*
X055915Y037083D01*
X055943Y037133D01*
X055974Y037181D01*
X056008Y037227D01*
X056045Y037271D01*
X056084Y037312D01*
X053838Y037892D02*
X051268Y035322D01*
X048957Y037142D02*
X048959Y037193D01*
X048964Y037245D01*
X048972Y037296D01*
X048984Y037346D01*
X048999Y037395D01*
X049017Y037443D01*
X049038Y037490D01*
X049062Y037536D01*
X049090Y037579D01*
X049120Y037621D01*
X049152Y037661D01*
X049188Y037698D01*
X049188Y037699D02*
X050222Y038734D01*
X050019Y038963D02*
X048958Y037902D01*
X048681Y037234D02*
X048681Y022492D01*
X049004Y021712D02*
X049973Y020744D01*
X050752Y020421D02*
X051768Y020421D01*
X052548Y020098D02*
X053280Y019366D01*
X053603Y018586D02*
X053603Y016114D01*
X053280Y015334D02*
X051268Y013322D01*
X053279Y015335D02*
X053322Y015380D01*
X053362Y015427D01*
X053399Y015476D01*
X053433Y015528D01*
X053464Y015581D01*
X053493Y015636D01*
X053518Y015692D01*
X053540Y015750D01*
X053559Y015809D01*
X053574Y015869D01*
X053586Y015929D01*
X053595Y015991D01*
X053600Y016052D01*
X053602Y016114D01*
X053602Y018586D02*
X053600Y018648D01*
X053595Y018709D01*
X053586Y018771D01*
X053574Y018831D01*
X053559Y018891D01*
X053540Y018950D01*
X053518Y019008D01*
X053493Y019064D01*
X053464Y019119D01*
X053433Y019172D01*
X053399Y019224D01*
X053362Y019273D01*
X053322Y019320D01*
X053279Y019365D01*
X052547Y020098D02*
X052502Y020141D01*
X052455Y020181D01*
X052406Y020218D01*
X052354Y020252D01*
X052301Y020283D01*
X052246Y020312D01*
X052190Y020337D01*
X052132Y020359D01*
X052073Y020378D01*
X052013Y020393D01*
X051953Y020405D01*
X051891Y020414D01*
X051830Y020419D01*
X051768Y020421D01*
X050752Y020421D02*
X050690Y020423D01*
X050629Y020428D01*
X050567Y020437D01*
X050507Y020449D01*
X050447Y020464D01*
X050388Y020483D01*
X050330Y020505D01*
X050274Y020530D01*
X050219Y020559D01*
X050166Y020590D01*
X050114Y020624D01*
X050065Y020661D01*
X050018Y020701D01*
X049973Y020744D01*
X049005Y021713D02*
X048962Y021758D01*
X048922Y021805D01*
X048885Y021854D01*
X048851Y021906D01*
X048820Y021959D01*
X048791Y022014D01*
X048766Y022070D01*
X048744Y022128D01*
X048725Y022187D01*
X048710Y022247D01*
X048698Y022307D01*
X048689Y022369D01*
X048684Y022430D01*
X048682Y022492D01*
X051268Y024322D02*
X049280Y026311D01*
X048957Y027090D02*
X048957Y037142D01*
X048681Y037234D02*
X048683Y037291D01*
X048688Y037348D01*
X048696Y037404D01*
X048708Y037460D01*
X048724Y037515D01*
X048742Y037569D01*
X048764Y037622D01*
X048789Y037673D01*
X048817Y037723D01*
X048848Y037771D01*
X048882Y037817D01*
X048919Y037861D01*
X048958Y037902D01*
X050019Y038963D02*
X050060Y039002D01*
X050104Y039039D01*
X050150Y039073D01*
X050198Y039104D01*
X050248Y039132D01*
X050299Y039157D01*
X050352Y039179D01*
X050406Y039197D01*
X050461Y039213D01*
X050517Y039225D01*
X050573Y039233D01*
X050630Y039238D01*
X050687Y039240D01*
X051985Y039240D01*
X052109Y038964D02*
X050779Y038964D01*
X050728Y038962D01*
X050676Y038957D01*
X050625Y038949D01*
X050575Y038937D01*
X050526Y038922D01*
X050478Y038904D01*
X050431Y038883D01*
X050385Y038859D01*
X050342Y038831D01*
X050300Y038801D01*
X050260Y038769D01*
X050223Y038733D01*
X051985Y039240D02*
X052040Y039242D01*
X052095Y039248D01*
X052149Y039257D01*
X052202Y039271D01*
X052255Y039288D01*
X052306Y039308D01*
X052355Y039332D01*
X052403Y039360D01*
X052448Y039391D01*
X052492Y039425D01*
X052533Y039462D01*
X052532Y039462D02*
X053372Y040275D01*
X053608Y040072D02*
X052777Y039241D01*
X054115Y038560D02*
X054113Y038503D01*
X054108Y038446D01*
X054100Y038390D01*
X054088Y038334D01*
X054072Y038279D01*
X054054Y038225D01*
X054032Y038172D01*
X054007Y038121D01*
X053979Y038071D01*
X053948Y038023D01*
X053914Y037977D01*
X053877Y037933D01*
X053838Y037892D01*
X054114Y038560D02*
X054114Y041053D01*
X053839Y040961D02*
X053839Y040629D01*
X053563Y040727D02*
X053563Y040869D01*
X054115Y041053D02*
X054113Y041110D01*
X054108Y041167D01*
X054100Y041223D01*
X054088Y041279D01*
X054072Y041334D01*
X054054Y041388D01*
X054032Y041441D01*
X054007Y041492D01*
X053979Y041542D01*
X053948Y041590D01*
X053914Y041636D01*
X053877Y041680D01*
X053838Y041721D01*
X052941Y042618D01*
X052738Y042388D02*
X053608Y041518D01*
X053379Y041314D02*
X052534Y042159D01*
X052941Y042617D02*
X052896Y042660D01*
X052849Y042700D01*
X052800Y042737D01*
X052748Y042771D01*
X052695Y042802D01*
X052640Y042831D01*
X052584Y042856D01*
X052526Y042878D01*
X052467Y042897D01*
X052407Y042912D01*
X052347Y042924D01*
X052285Y042933D01*
X052224Y042938D01*
X052162Y042940D01*
X052162Y042941D02*
X050897Y042941D01*
X050805Y042665D02*
X052070Y042665D01*
X051977Y042389D02*
X050752Y042389D01*
X050137Y042942D02*
X048604Y044475D01*
X048374Y044311D02*
X049973Y042712D01*
X050341Y043171D02*
X048833Y044678D01*
X048375Y044311D02*
X048332Y044356D01*
X048292Y044403D01*
X048255Y044452D01*
X048221Y044504D01*
X048190Y044557D01*
X048161Y044612D01*
X048136Y044668D01*
X048114Y044726D01*
X048095Y044785D01*
X048080Y044845D01*
X048068Y044905D01*
X048059Y044967D01*
X048054Y045028D01*
X048052Y045090D01*
X048051Y045090D02*
X048051Y058482D01*
X048327Y058389D02*
X048327Y045143D01*
X048603Y045235D02*
X048603Y058297D01*
X048878Y058205D02*
X048878Y049104D01*
X049155Y048435D02*
X051268Y046322D01*
X048603Y045235D02*
X048605Y045184D01*
X048610Y045132D01*
X048618Y045081D01*
X048630Y045031D01*
X048645Y044982D01*
X048663Y044934D01*
X048684Y044887D01*
X048708Y044841D01*
X048736Y044798D01*
X048766Y044756D01*
X048798Y044716D01*
X048834Y044679D01*
X048604Y044475D02*
X048565Y044516D01*
X048528Y044560D01*
X048494Y044606D01*
X048463Y044654D01*
X048435Y044704D01*
X048410Y044755D01*
X048388Y044808D01*
X048370Y044862D01*
X048354Y044917D01*
X048342Y044973D01*
X048334Y045029D01*
X048329Y045086D01*
X048327Y045143D01*
X050137Y042942D02*
X050178Y042903D01*
X050222Y042866D01*
X050268Y042832D01*
X050316Y042801D01*
X050366Y042773D01*
X050417Y042748D01*
X050470Y042726D01*
X050524Y042708D01*
X050579Y042692D01*
X050635Y042680D01*
X050691Y042672D01*
X050748Y042667D01*
X050805Y042665D01*
X050752Y042390D02*
X050690Y042392D01*
X050629Y042397D01*
X050567Y042406D01*
X050507Y042418D01*
X050447Y042433D01*
X050388Y042452D01*
X050330Y042474D01*
X050274Y042499D01*
X050219Y042528D01*
X050166Y042559D01*
X050114Y042593D01*
X050065Y042630D01*
X050018Y042670D01*
X049973Y042713D01*
X050341Y043172D02*
X050378Y043136D01*
X050418Y043104D01*
X050460Y043074D01*
X050503Y043046D01*
X050549Y043022D01*
X050596Y043001D01*
X050644Y042983D01*
X050693Y042968D01*
X050743Y042956D01*
X050794Y042948D01*
X050846Y042943D01*
X050897Y042941D01*
X052070Y042665D02*
X052127Y042663D01*
X052184Y042658D01*
X052240Y042650D01*
X052296Y042638D01*
X052351Y042622D01*
X052405Y042604D01*
X052458Y042582D01*
X052509Y042557D01*
X052559Y042529D01*
X052607Y042498D01*
X052653Y042464D01*
X052697Y042427D01*
X052738Y042388D01*
X052533Y042158D02*
X052496Y042194D01*
X052456Y042226D01*
X052414Y042256D01*
X052371Y042284D01*
X052325Y042308D01*
X052278Y042329D01*
X052230Y042347D01*
X052181Y042362D01*
X052131Y042374D01*
X052080Y042382D01*
X052028Y042387D01*
X051977Y042389D01*
X053607Y041517D02*
X053643Y041480D01*
X053675Y041440D01*
X053705Y041398D01*
X053733Y041355D01*
X053757Y041309D01*
X053778Y041262D01*
X053796Y041214D01*
X053811Y041165D01*
X053823Y041115D01*
X053831Y041064D01*
X053836Y041012D01*
X053838Y040961D01*
X053838Y040629D02*
X053836Y040578D01*
X053831Y040526D01*
X053823Y040475D01*
X053811Y040425D01*
X053796Y040376D01*
X053778Y040328D01*
X053757Y040281D01*
X053733Y040235D01*
X053705Y040192D01*
X053675Y040150D01*
X053643Y040110D01*
X053607Y040073D01*
X053371Y040275D02*
X053403Y040308D01*
X053432Y040343D01*
X053459Y040380D01*
X053483Y040420D01*
X053504Y040460D01*
X053522Y040503D01*
X053536Y040546D01*
X053548Y040590D01*
X053556Y040636D01*
X053561Y040681D01*
X053563Y040727D01*
X053563Y040869D02*
X053561Y040918D01*
X053555Y040968D01*
X053546Y041016D01*
X053532Y041064D01*
X053515Y041110D01*
X053494Y041155D01*
X053470Y041198D01*
X053443Y041239D01*
X053412Y041278D01*
X053378Y041314D01*
X052777Y039241D02*
X052736Y039202D01*
X052692Y039165D01*
X052646Y039131D01*
X052598Y039100D01*
X052548Y039072D01*
X052497Y039047D01*
X052444Y039025D01*
X052390Y039007D01*
X052335Y038991D01*
X052279Y038979D01*
X052223Y038971D01*
X052166Y038966D01*
X052109Y038964D01*
X046910Y038556D02*
X046910Y041405D01*
X045697Y042618D01*
X045494Y042388D02*
X046634Y041248D01*
X046634Y040303D01*
X045296Y038964D01*
X043130Y038964D01*
X041314Y037148D01*
X040807Y037074D02*
X040807Y022978D01*
X041084Y022309D02*
X042696Y020698D01*
X043364Y020421D02*
X044786Y020421D01*
X045454Y020144D02*
X046121Y019477D01*
X046398Y018809D02*
X046398Y016045D01*
X046121Y015376D02*
X044067Y013322D01*
X046121Y015377D02*
X046160Y015418D01*
X046197Y015462D01*
X046231Y015508D01*
X046262Y015556D01*
X046290Y015606D01*
X046315Y015657D01*
X046337Y015710D01*
X046355Y015764D01*
X046371Y015819D01*
X046383Y015875D01*
X046391Y015931D01*
X046396Y015988D01*
X046398Y016045D01*
X046398Y018809D02*
X046396Y018866D01*
X046391Y018923D01*
X046383Y018979D01*
X046371Y019035D01*
X046355Y019090D01*
X046337Y019144D01*
X046315Y019197D01*
X046290Y019248D01*
X046262Y019298D01*
X046231Y019346D01*
X046197Y019392D01*
X046160Y019436D01*
X046121Y019477D01*
X045454Y020144D02*
X045413Y020183D01*
X045369Y020220D01*
X045323Y020254D01*
X045275Y020285D01*
X045225Y020313D01*
X045174Y020338D01*
X045121Y020360D01*
X045067Y020378D01*
X045012Y020394D01*
X044956Y020406D01*
X044900Y020414D01*
X044843Y020419D01*
X044786Y020421D01*
X043364Y020421D02*
X043307Y020423D01*
X043250Y020428D01*
X043194Y020436D01*
X043138Y020448D01*
X043083Y020464D01*
X043029Y020482D01*
X042976Y020504D01*
X042925Y020529D01*
X042875Y020557D01*
X042827Y020588D01*
X042781Y020622D01*
X042737Y020659D01*
X042696Y020698D01*
X041084Y022310D02*
X041045Y022351D01*
X041008Y022395D01*
X040974Y022441D01*
X040943Y022489D01*
X040915Y022539D01*
X040890Y022590D01*
X040868Y022643D01*
X040850Y022697D01*
X040834Y022752D01*
X040822Y022808D01*
X040814Y022864D01*
X040809Y022921D01*
X040807Y022978D01*
X038131Y020105D02*
X038877Y019359D01*
X039154Y018691D02*
X039154Y016001D01*
X038877Y015333D02*
X036866Y013322D01*
X038877Y015333D02*
X038916Y015374D01*
X038953Y015418D01*
X038987Y015464D01*
X039018Y015512D01*
X039046Y015562D01*
X039071Y015613D01*
X039093Y015666D01*
X039111Y015720D01*
X039127Y015775D01*
X039139Y015831D01*
X039147Y015887D01*
X039152Y015944D01*
X039154Y016001D01*
X039154Y018691D02*
X039152Y018748D01*
X039147Y018805D01*
X039139Y018861D01*
X039127Y018917D01*
X039111Y018972D01*
X039093Y019026D01*
X039071Y019079D01*
X039046Y019130D01*
X039018Y019180D01*
X038987Y019228D01*
X038953Y019274D01*
X038916Y019318D01*
X038877Y019359D01*
X038131Y020105D02*
X038090Y020144D01*
X038046Y020181D01*
X038000Y020215D01*
X037952Y020246D01*
X037902Y020274D01*
X037851Y020299D01*
X037798Y020321D01*
X037744Y020339D01*
X037689Y020355D01*
X037633Y020367D01*
X037577Y020375D01*
X037520Y020380D01*
X037463Y020382D01*
X037463Y020381D02*
X036277Y020381D01*
X035609Y020658D02*
X033879Y022388D01*
X033603Y023056D02*
X033603Y036683D01*
X033878Y036551D02*
X033878Y027702D01*
X034155Y027034D02*
X036866Y024322D01*
X033603Y023056D02*
X033605Y022999D01*
X033610Y022942D01*
X033618Y022886D01*
X033630Y022830D01*
X033646Y022775D01*
X033664Y022721D01*
X033686Y022668D01*
X033711Y022617D01*
X033739Y022567D01*
X033770Y022519D01*
X033804Y022473D01*
X033841Y022429D01*
X033880Y022388D01*
X035609Y020658D02*
X035650Y020619D01*
X035694Y020582D01*
X035740Y020548D01*
X035788Y020517D01*
X035838Y020489D01*
X035889Y020464D01*
X035942Y020442D01*
X035996Y020424D01*
X036051Y020408D01*
X036107Y020396D01*
X036163Y020388D01*
X036220Y020383D01*
X036277Y020381D01*
X031988Y018730D02*
X031988Y016037D01*
X031712Y015369D02*
X029666Y013322D01*
X031712Y015369D02*
X031751Y015410D01*
X031788Y015454D01*
X031822Y015500D01*
X031853Y015548D01*
X031881Y015598D01*
X031906Y015649D01*
X031928Y015702D01*
X031946Y015756D01*
X031962Y015811D01*
X031974Y015867D01*
X031982Y015923D01*
X031987Y015980D01*
X031989Y016037D01*
X031989Y018730D02*
X031987Y018787D01*
X031982Y018844D01*
X031974Y018900D01*
X031962Y018956D01*
X031946Y019011D01*
X031928Y019065D01*
X031906Y019118D01*
X031881Y019169D01*
X031853Y019219D01*
X031822Y019267D01*
X031788Y019313D01*
X031751Y019357D01*
X031712Y019398D01*
X031005Y020105D01*
X030337Y020381D02*
X029033Y020381D01*
X028976Y020383D01*
X028919Y020388D01*
X028863Y020396D01*
X028807Y020408D01*
X028752Y020424D01*
X028698Y020442D01*
X028645Y020464D01*
X028594Y020489D01*
X028544Y020517D01*
X028496Y020548D01*
X028450Y020582D01*
X028406Y020619D01*
X028365Y020658D01*
X026675Y022349D01*
X026398Y023017D02*
X026398Y036722D01*
X026673Y036591D02*
X026673Y027706D01*
X026950Y027038D02*
X029666Y024322D01*
X026398Y023017D02*
X026400Y022960D01*
X026405Y022903D01*
X026413Y022847D01*
X026425Y022791D01*
X026441Y022736D01*
X026459Y022682D01*
X026481Y022629D01*
X026506Y022578D01*
X026534Y022528D01*
X026565Y022480D01*
X026599Y022434D01*
X026636Y022390D01*
X026675Y022349D01*
X023879Y020105D02*
X024507Y019477D01*
X024784Y018809D02*
X024784Y016033D01*
X024507Y015365D02*
X022465Y013322D01*
X024507Y015365D02*
X024546Y015406D01*
X024583Y015450D01*
X024617Y015496D01*
X024648Y015544D01*
X024676Y015594D01*
X024701Y015645D01*
X024723Y015698D01*
X024741Y015752D01*
X024757Y015807D01*
X024769Y015863D01*
X024777Y015919D01*
X024782Y015976D01*
X024784Y016033D01*
X024784Y018809D02*
X024782Y018866D01*
X024777Y018923D01*
X024769Y018979D01*
X024757Y019035D01*
X024741Y019090D01*
X024723Y019144D01*
X024701Y019197D01*
X024676Y019248D01*
X024648Y019298D01*
X024617Y019346D01*
X024583Y019392D01*
X024546Y019436D01*
X024507Y019477D01*
X023879Y020105D02*
X023838Y020144D01*
X023794Y020181D01*
X023748Y020215D01*
X023700Y020246D01*
X023650Y020274D01*
X023599Y020299D01*
X023546Y020321D01*
X023492Y020339D01*
X023437Y020355D01*
X023381Y020367D01*
X023325Y020375D01*
X023268Y020380D01*
X023211Y020382D01*
X023211Y020381D02*
X021789Y020381D01*
X021121Y020658D02*
X019470Y022309D01*
X019193Y022978D02*
X019193Y036722D01*
X019469Y036630D02*
X019469Y027710D01*
X019746Y027042D02*
X022465Y024322D01*
X019193Y022978D02*
X019195Y022921D01*
X019200Y022864D01*
X019208Y022808D01*
X019220Y022752D01*
X019236Y022697D01*
X019254Y022643D01*
X019276Y022590D01*
X019301Y022539D01*
X019329Y022489D01*
X019360Y022441D01*
X019394Y022395D01*
X019431Y022351D01*
X019470Y022310D01*
X021121Y020658D02*
X021162Y020619D01*
X021206Y020582D01*
X021252Y020548D01*
X021300Y020517D01*
X021350Y020489D01*
X021401Y020464D01*
X021454Y020442D01*
X021508Y020424D01*
X021563Y020408D01*
X021619Y020396D01*
X021675Y020388D01*
X021732Y020383D01*
X021789Y020381D01*
X017579Y018770D02*
X017579Y016029D01*
X017302Y015361D02*
X015264Y013322D01*
X017302Y015361D02*
X017341Y015402D01*
X017378Y015446D01*
X017412Y015492D01*
X017443Y015540D01*
X017471Y015590D01*
X017496Y015641D01*
X017518Y015694D01*
X017536Y015748D01*
X017552Y015803D01*
X017564Y015859D01*
X017572Y015915D01*
X017577Y015972D01*
X017579Y016029D01*
X017579Y018770D02*
X017577Y018827D01*
X017572Y018884D01*
X017564Y018940D01*
X017552Y018996D01*
X017536Y019051D01*
X017518Y019105D01*
X017496Y019158D01*
X017471Y019209D01*
X017443Y019259D01*
X017412Y019307D01*
X017378Y019353D01*
X017341Y019397D01*
X017302Y019438D01*
X016635Y020105D01*
X015967Y020381D02*
X014663Y020381D01*
X013995Y020658D02*
X012265Y022388D01*
X011988Y023056D02*
X011988Y036644D01*
X012264Y036551D02*
X012264Y027714D01*
X012541Y027046D02*
X015264Y024322D01*
X011988Y023056D02*
X011990Y022999D01*
X011995Y022942D01*
X012003Y022886D01*
X012015Y022830D01*
X012031Y022775D01*
X012049Y022721D01*
X012071Y022668D01*
X012096Y022617D01*
X012124Y022567D01*
X012155Y022519D01*
X012189Y022473D01*
X012226Y022429D01*
X012265Y022388D01*
X013995Y020658D02*
X014036Y020619D01*
X014080Y020582D01*
X014126Y020548D01*
X014174Y020517D01*
X014224Y020489D01*
X014275Y020464D01*
X014328Y020442D01*
X014382Y020424D01*
X014437Y020408D01*
X014493Y020396D01*
X014549Y020388D01*
X014606Y020383D01*
X014663Y020381D01*
X015967Y020382D02*
X016024Y020380D01*
X016081Y020375D01*
X016137Y020367D01*
X016193Y020355D01*
X016248Y020339D01*
X016302Y020321D01*
X016355Y020299D01*
X016406Y020274D01*
X016456Y020246D01*
X016504Y020215D01*
X016550Y020181D01*
X016594Y020144D01*
X016635Y020105D01*
X010414Y018888D02*
X010414Y016064D01*
X010137Y015396D02*
X008063Y013322D01*
X010137Y015396D02*
X010176Y015437D01*
X010213Y015481D01*
X010247Y015527D01*
X010278Y015575D01*
X010306Y015625D01*
X010331Y015676D01*
X010353Y015729D01*
X010371Y015783D01*
X010387Y015838D01*
X010399Y015894D01*
X010407Y015950D01*
X010412Y016007D01*
X010414Y016064D01*
X010414Y018888D02*
X010412Y018945D01*
X010407Y019002D01*
X010399Y019058D01*
X010387Y019114D01*
X010371Y019169D01*
X010353Y019223D01*
X010331Y019276D01*
X010306Y019327D01*
X010278Y019377D01*
X010247Y019425D01*
X010213Y019471D01*
X010176Y019515D01*
X010137Y019556D01*
X009588Y020105D01*
X008920Y020381D02*
X007537Y020381D01*
X006869Y020658D02*
X005139Y022388D01*
X004862Y023056D02*
X004862Y036801D01*
X005138Y036709D02*
X005138Y027639D01*
X005415Y026971D02*
X008063Y024322D01*
X004862Y023056D02*
X004864Y022999D01*
X004869Y022942D01*
X004877Y022886D01*
X004889Y022830D01*
X004905Y022775D01*
X004923Y022721D01*
X004945Y022668D01*
X004970Y022617D01*
X004998Y022567D01*
X005029Y022519D01*
X005063Y022473D01*
X005100Y022429D01*
X005139Y022388D01*
X006869Y020658D02*
X006910Y020619D01*
X006954Y020582D01*
X007000Y020548D01*
X007048Y020517D01*
X007098Y020489D01*
X007149Y020464D01*
X007202Y020442D01*
X007256Y020424D01*
X007311Y020408D01*
X007367Y020396D01*
X007423Y020388D01*
X007480Y020383D01*
X007537Y020381D01*
X008920Y020382D02*
X008977Y020380D01*
X009034Y020375D01*
X009090Y020367D01*
X009146Y020355D01*
X009201Y020339D01*
X009255Y020321D01*
X009308Y020299D01*
X009359Y020274D01*
X009409Y020246D01*
X009457Y020215D01*
X009503Y020181D01*
X009547Y020144D01*
X009588Y020105D01*
X005415Y026971D02*
X005376Y027012D01*
X005339Y027056D01*
X005305Y027102D01*
X005274Y027150D01*
X005246Y027200D01*
X005221Y027251D01*
X005199Y027304D01*
X005181Y027358D01*
X005165Y027413D01*
X005153Y027469D01*
X005145Y027525D01*
X005140Y027582D01*
X005138Y027639D01*
X008063Y035322D02*
X010649Y037908D01*
X010925Y038576D02*
X010925Y041171D01*
X010650Y041079D02*
X010650Y040471D01*
X010374Y040564D02*
X010374Y040987D01*
X010926Y041171D02*
X010924Y041228D01*
X010919Y041285D01*
X010911Y041341D01*
X010899Y041397D01*
X010883Y041452D01*
X010865Y041506D01*
X010843Y041559D01*
X010818Y041610D01*
X010790Y041660D01*
X010759Y041708D01*
X010725Y041754D01*
X010688Y041798D01*
X010649Y041839D01*
X009870Y042618D01*
X009621Y042434D02*
X010419Y041636D01*
X010190Y041432D02*
X009463Y042159D01*
X009620Y042434D02*
X009583Y042470D01*
X009543Y042502D01*
X009501Y042532D01*
X009458Y042560D01*
X009412Y042584D01*
X009365Y042605D01*
X009317Y042623D01*
X009268Y042638D01*
X009218Y042650D01*
X009167Y042658D01*
X009115Y042663D01*
X009064Y042665D01*
X007616Y042665D01*
X007708Y042941D02*
X009091Y042941D01*
X008906Y042389D02*
X007524Y042389D01*
X006948Y042942D02*
X005415Y044475D01*
X005644Y044678D02*
X007152Y043171D01*
X006745Y042713D02*
X006790Y042670D01*
X006837Y042630D01*
X006886Y042593D01*
X006938Y042559D01*
X006991Y042528D01*
X007046Y042499D01*
X007102Y042474D01*
X007160Y042452D01*
X007219Y042433D01*
X007279Y042418D01*
X007339Y042406D01*
X007401Y042397D01*
X007462Y042392D01*
X007524Y042390D01*
X006744Y042712D02*
X005185Y044271D01*
X004862Y045051D02*
X004862Y058560D01*
X005138Y058468D02*
X005138Y045143D01*
X005414Y045235D02*
X005414Y058376D01*
X005689Y058284D02*
X005689Y049088D01*
X005966Y048420D02*
X008063Y046322D01*
X005414Y045235D02*
X005416Y045184D01*
X005421Y045132D01*
X005429Y045081D01*
X005441Y045031D01*
X005456Y044982D01*
X005474Y044934D01*
X005495Y044887D01*
X005519Y044841D01*
X005547Y044798D01*
X005577Y044756D01*
X005609Y044716D01*
X005645Y044679D01*
X005186Y044272D02*
X005143Y044317D01*
X005103Y044364D01*
X005066Y044413D01*
X005032Y044465D01*
X005001Y044518D01*
X004972Y044573D01*
X004947Y044629D01*
X004925Y044687D01*
X004906Y044746D01*
X004891Y044806D01*
X004879Y044866D01*
X004870Y044928D01*
X004865Y044989D01*
X004863Y045051D01*
X005138Y045143D02*
X005140Y045086D01*
X005145Y045029D01*
X005153Y044973D01*
X005165Y044917D01*
X005181Y044862D01*
X005199Y044808D01*
X005221Y044755D01*
X005246Y044704D01*
X005274Y044654D01*
X005305Y044606D01*
X005339Y044560D01*
X005376Y044516D01*
X005415Y044475D01*
X006948Y042942D02*
X006989Y042903D01*
X007033Y042866D01*
X007079Y042832D01*
X007127Y042801D01*
X007177Y042773D01*
X007228Y042748D01*
X007281Y042726D01*
X007335Y042708D01*
X007390Y042692D01*
X007446Y042680D01*
X007502Y042672D01*
X007559Y042667D01*
X007616Y042665D01*
X007708Y042941D02*
X007657Y042943D01*
X007605Y042948D01*
X007554Y042956D01*
X007504Y042968D01*
X007455Y042983D01*
X007407Y043001D01*
X007360Y043022D01*
X007314Y043046D01*
X007271Y043074D01*
X007229Y043104D01*
X007189Y043136D01*
X007152Y043172D01*
X008906Y042389D02*
X008957Y042387D01*
X009009Y042382D01*
X009060Y042374D01*
X009110Y042362D01*
X009159Y042347D01*
X009207Y042329D01*
X009254Y042308D01*
X009300Y042284D01*
X009343Y042256D01*
X009385Y042226D01*
X009425Y042194D01*
X009462Y042158D01*
X009870Y042617D02*
X009825Y042660D01*
X009778Y042700D01*
X009729Y042737D01*
X009677Y042771D01*
X009624Y042802D01*
X009569Y042831D01*
X009513Y042856D01*
X009455Y042878D01*
X009396Y042897D01*
X009336Y042912D01*
X009276Y042924D01*
X009214Y042933D01*
X009153Y042938D01*
X009091Y042940D01*
X010418Y041635D02*
X010454Y041598D01*
X010486Y041558D01*
X010516Y041516D01*
X010544Y041473D01*
X010568Y041427D01*
X010589Y041380D01*
X010607Y041332D01*
X010622Y041283D01*
X010634Y041233D01*
X010642Y041182D01*
X010647Y041130D01*
X010649Y041079D01*
X010374Y040987D02*
X010372Y041036D01*
X010366Y041086D01*
X010357Y041134D01*
X010343Y041182D01*
X010326Y041228D01*
X010305Y041273D01*
X010281Y041316D01*
X010254Y041357D01*
X010223Y041396D01*
X010189Y041432D01*
X010374Y040564D02*
X010372Y040515D01*
X010366Y040465D01*
X010357Y040417D01*
X010343Y040369D01*
X010326Y040323D01*
X010305Y040278D01*
X010281Y040235D01*
X010254Y040194D01*
X010223Y040155D01*
X010189Y040119D01*
X010190Y040118D02*
X009542Y039470D01*
X009746Y039241D02*
X010419Y039915D01*
X010418Y039915D02*
X010454Y039952D01*
X010486Y039992D01*
X010516Y040034D01*
X010544Y040077D01*
X010568Y040123D01*
X010589Y040170D01*
X010607Y040218D01*
X010622Y040267D01*
X010634Y040317D01*
X010642Y040368D01*
X010647Y040420D01*
X010649Y040471D01*
X009745Y039241D02*
X009704Y039202D01*
X009660Y039165D01*
X009614Y039131D01*
X009566Y039100D01*
X009516Y039072D01*
X009465Y039047D01*
X009412Y039025D01*
X009358Y039007D01*
X009303Y038991D01*
X009247Y038979D01*
X009191Y038971D01*
X009134Y038966D01*
X009077Y038964D01*
X007393Y038964D01*
X007301Y039240D02*
X008985Y039240D01*
X009036Y039242D01*
X009088Y039247D01*
X009139Y039255D01*
X009189Y039267D01*
X009238Y039282D01*
X009286Y039300D01*
X009333Y039321D01*
X009379Y039345D01*
X009422Y039373D01*
X009464Y039403D01*
X009504Y039435D01*
X009541Y039471D01*
X010926Y038576D02*
X010924Y038519D01*
X010919Y038462D01*
X010911Y038406D01*
X010899Y038350D01*
X010883Y038295D01*
X010865Y038241D01*
X010843Y038188D01*
X010818Y038137D01*
X010790Y038087D01*
X010759Y038039D01*
X010725Y037993D01*
X010688Y037949D01*
X010649Y037908D01*
X012265Y037312D02*
X013916Y038963D01*
X014120Y038734D02*
X012495Y037108D01*
X012265Y037312D02*
X012226Y037271D01*
X012189Y037227D01*
X012155Y037181D01*
X012124Y037133D01*
X012096Y037083D01*
X012071Y037032D01*
X012049Y036979D01*
X012031Y036925D01*
X012015Y036870D01*
X012003Y036814D01*
X011995Y036758D01*
X011990Y036701D01*
X011988Y036644D01*
X012264Y036551D02*
X012266Y036602D01*
X012271Y036654D01*
X012279Y036705D01*
X012291Y036755D01*
X012306Y036804D01*
X012324Y036852D01*
X012345Y036899D01*
X012369Y036945D01*
X012397Y036988D01*
X012427Y037030D01*
X012459Y037070D01*
X012495Y037107D01*
X013917Y038963D02*
X013958Y039002D01*
X014002Y039039D01*
X014048Y039073D01*
X014096Y039104D01*
X014146Y039132D01*
X014197Y039157D01*
X014250Y039179D01*
X014304Y039197D01*
X014359Y039213D01*
X014415Y039225D01*
X014471Y039233D01*
X014528Y039238D01*
X014585Y039240D01*
X016150Y039240D01*
X016282Y038964D02*
X014677Y038964D01*
X014626Y038962D01*
X014574Y038957D01*
X014523Y038949D01*
X014473Y038937D01*
X014424Y038922D01*
X014376Y038904D01*
X014329Y038883D01*
X014283Y038859D01*
X014240Y038831D01*
X014198Y038801D01*
X014158Y038769D01*
X014121Y038733D01*
X016150Y039240D02*
X016201Y039242D01*
X016253Y039247D01*
X016304Y039255D01*
X016354Y039267D01*
X016403Y039282D01*
X016451Y039300D01*
X016498Y039321D01*
X016544Y039345D01*
X016587Y039373D01*
X016629Y039403D01*
X016669Y039435D01*
X016706Y039471D01*
X016707Y039470D02*
X017395Y040158D01*
X017663Y039954D02*
X016950Y039241D01*
X018170Y038619D02*
X018168Y038562D01*
X018163Y038505D01*
X018155Y038449D01*
X018143Y038393D01*
X018127Y038338D01*
X018109Y038284D01*
X018087Y038231D01*
X018062Y038180D01*
X018034Y038130D01*
X018003Y038082D01*
X017969Y038036D01*
X017932Y037992D01*
X017893Y037951D01*
X015264Y035322D01*
X018170Y038619D02*
X018170Y041092D01*
X017894Y041000D02*
X017894Y040511D01*
X017579Y040603D02*
X017579Y040947D01*
X018170Y041092D02*
X018168Y041149D01*
X018163Y041206D01*
X018155Y041262D01*
X018143Y041318D01*
X018127Y041373D01*
X018109Y041427D01*
X018087Y041480D01*
X018062Y041531D01*
X018034Y041581D01*
X018003Y041629D01*
X017969Y041675D01*
X017932Y041719D01*
X017893Y041760D01*
X017893Y041761D02*
X017036Y042618D01*
X016832Y042388D02*
X017663Y041557D01*
X017395Y041393D02*
X016629Y042159D01*
X017035Y042617D02*
X016990Y042660D01*
X016943Y042700D01*
X016894Y042737D01*
X016842Y042771D01*
X016789Y042802D01*
X016734Y042831D01*
X016678Y042856D01*
X016620Y042878D01*
X016561Y042897D01*
X016501Y042912D01*
X016441Y042924D01*
X016379Y042933D01*
X016318Y042938D01*
X016256Y042940D01*
X016256Y042941D02*
X014874Y042941D01*
X014821Y042665D02*
X016164Y042665D01*
X016072Y042389D02*
X014768Y042389D01*
X014153Y042942D02*
X012541Y044554D01*
X012770Y044718D02*
X014317Y043171D01*
X013989Y042713D02*
X014034Y042670D01*
X014081Y042630D01*
X014130Y042593D01*
X014182Y042559D01*
X014235Y042528D01*
X014290Y042499D01*
X014346Y042474D01*
X014404Y042452D01*
X014463Y042433D01*
X014523Y042418D01*
X014583Y042406D01*
X014645Y042397D01*
X014706Y042392D01*
X014768Y042390D01*
X013988Y042712D02*
X012311Y044389D01*
X012264Y045222D02*
X012264Y058429D01*
X011988Y058560D02*
X011988Y045169D01*
X012540Y045275D02*
X012540Y058297D01*
X012815Y058166D02*
X012815Y049163D01*
X013092Y048495D02*
X015264Y046322D01*
X012540Y045275D02*
X012542Y045224D01*
X012547Y045172D01*
X012555Y045121D01*
X012567Y045071D01*
X012582Y045022D01*
X012600Y044974D01*
X012621Y044927D01*
X012645Y044881D01*
X012673Y044838D01*
X012703Y044796D01*
X012735Y044756D01*
X012771Y044719D01*
X012312Y044390D02*
X012269Y044435D01*
X012229Y044482D01*
X012192Y044531D01*
X012158Y044583D01*
X012127Y044636D01*
X012098Y044691D01*
X012073Y044747D01*
X012051Y044805D01*
X012032Y044864D01*
X012017Y044924D01*
X012005Y044984D01*
X011996Y045046D01*
X011991Y045107D01*
X011989Y045169D01*
X012264Y045222D02*
X012266Y045165D01*
X012271Y045108D01*
X012279Y045052D01*
X012291Y044996D01*
X012307Y044941D01*
X012325Y044887D01*
X012347Y044834D01*
X012372Y044783D01*
X012400Y044733D01*
X012431Y044685D01*
X012465Y044639D01*
X012502Y044595D01*
X012541Y044554D01*
X014153Y042942D02*
X014194Y042903D01*
X014238Y042866D01*
X014284Y042832D01*
X014332Y042801D01*
X014382Y042773D01*
X014433Y042748D01*
X014486Y042726D01*
X014540Y042708D01*
X014595Y042692D01*
X014651Y042680D01*
X014707Y042672D01*
X014764Y042667D01*
X014821Y042665D01*
X014874Y042941D02*
X014823Y042943D01*
X014771Y042948D01*
X014720Y042956D01*
X014670Y042968D01*
X014621Y042983D01*
X014573Y043001D01*
X014526Y043022D01*
X014480Y043046D01*
X014437Y043074D01*
X014395Y043104D01*
X014355Y043136D01*
X014318Y043172D01*
X016072Y042389D02*
X016123Y042387D01*
X016175Y042382D01*
X016226Y042374D01*
X016276Y042362D01*
X016325Y042347D01*
X016373Y042329D01*
X016420Y042308D01*
X016466Y042284D01*
X016509Y042256D01*
X016551Y042226D01*
X016591Y042194D01*
X016628Y042158D01*
X016832Y042388D02*
X016791Y042427D01*
X016747Y042464D01*
X016701Y042498D01*
X016653Y042529D01*
X016603Y042557D01*
X016552Y042582D01*
X016499Y042604D01*
X016445Y042622D01*
X016390Y042638D01*
X016334Y042650D01*
X016278Y042658D01*
X016221Y042663D01*
X016164Y042665D01*
X017394Y041392D02*
X017428Y041356D01*
X017459Y041317D01*
X017486Y041276D01*
X017510Y041233D01*
X017531Y041188D01*
X017548Y041142D01*
X017562Y041094D01*
X017571Y041046D01*
X017577Y040996D01*
X017579Y040947D01*
X017894Y041000D02*
X017892Y041051D01*
X017887Y041103D01*
X017879Y041154D01*
X017867Y041204D01*
X017852Y041253D01*
X017834Y041301D01*
X017813Y041348D01*
X017789Y041394D01*
X017761Y041437D01*
X017731Y041479D01*
X017699Y041519D01*
X017663Y041556D01*
X017894Y040511D02*
X017892Y040460D01*
X017887Y040408D01*
X017879Y040357D01*
X017867Y040307D01*
X017852Y040258D01*
X017834Y040210D01*
X017813Y040163D01*
X017789Y040117D01*
X017761Y040074D01*
X017731Y040032D01*
X017699Y039992D01*
X017663Y039955D01*
X017394Y040158D02*
X017428Y040194D01*
X017459Y040233D01*
X017486Y040274D01*
X017510Y040317D01*
X017531Y040362D01*
X017548Y040408D01*
X017562Y040456D01*
X017571Y040504D01*
X017577Y040554D01*
X017579Y040603D01*
X016950Y039241D02*
X016909Y039202D01*
X016865Y039165D01*
X016819Y039131D01*
X016771Y039100D01*
X016721Y039072D01*
X016670Y039047D01*
X016617Y039025D01*
X016563Y039007D01*
X016508Y038991D01*
X016452Y038979D01*
X016396Y038971D01*
X016339Y038966D01*
X016282Y038964D01*
X019470Y037391D02*
X021042Y038963D01*
X021246Y038734D02*
X019699Y037187D01*
X019470Y037390D02*
X019431Y037349D01*
X019394Y037305D01*
X019360Y037259D01*
X019329Y037211D01*
X019301Y037161D01*
X019276Y037110D01*
X019254Y037057D01*
X019236Y037003D01*
X019220Y036948D01*
X019208Y036892D01*
X019200Y036836D01*
X019195Y036779D01*
X019193Y036722D01*
X019469Y036630D02*
X019471Y036681D01*
X019476Y036733D01*
X019484Y036784D01*
X019496Y036834D01*
X019511Y036883D01*
X019529Y036931D01*
X019550Y036978D01*
X019574Y037024D01*
X019602Y037067D01*
X019632Y037109D01*
X019664Y037149D01*
X019700Y037186D01*
X021043Y038963D02*
X021084Y039002D01*
X021128Y039039D01*
X021174Y039073D01*
X021222Y039104D01*
X021272Y039132D01*
X021323Y039157D01*
X021376Y039179D01*
X021430Y039197D01*
X021485Y039213D01*
X021541Y039225D01*
X021597Y039233D01*
X021654Y039238D01*
X021711Y039240D01*
X023276Y039240D01*
X023408Y038964D02*
X021803Y038964D01*
X021752Y038962D01*
X021700Y038957D01*
X021649Y038949D01*
X021599Y038937D01*
X021550Y038922D01*
X021502Y038904D01*
X021455Y038883D01*
X021409Y038859D01*
X021366Y038831D01*
X021324Y038801D01*
X021284Y038769D01*
X021247Y038733D01*
X023276Y039240D02*
X023327Y039242D01*
X023379Y039247D01*
X023430Y039255D01*
X023480Y039267D01*
X023529Y039282D01*
X023577Y039300D01*
X023624Y039321D01*
X023670Y039345D01*
X023713Y039373D01*
X023755Y039403D01*
X023795Y039435D01*
X023832Y039471D01*
X023833Y039470D02*
X024599Y040236D01*
X024829Y039993D02*
X024076Y039241D01*
X025335Y038584D02*
X025333Y038527D01*
X025328Y038470D01*
X025320Y038414D01*
X025308Y038358D01*
X025292Y038303D01*
X025274Y038249D01*
X025252Y038196D01*
X025227Y038145D01*
X025199Y038095D01*
X025168Y038047D01*
X025134Y038001D01*
X025097Y037957D01*
X025058Y037916D01*
X022465Y035322D01*
X025335Y038584D02*
X025335Y041053D01*
X025059Y040961D02*
X025059Y040550D01*
X024784Y040682D02*
X024784Y040869D01*
X025335Y041053D02*
X025333Y041110D01*
X025328Y041167D01*
X025320Y041223D01*
X025308Y041279D01*
X025292Y041334D01*
X025274Y041388D01*
X025252Y041441D01*
X025227Y041492D01*
X025199Y041542D01*
X025168Y041590D01*
X025134Y041636D01*
X025097Y041680D01*
X025058Y041721D01*
X024162Y042618D01*
X023958Y042388D02*
X024829Y041518D01*
X024599Y041314D02*
X023755Y042159D01*
X024161Y042617D02*
X024116Y042660D01*
X024069Y042700D01*
X024020Y042737D01*
X023968Y042771D01*
X023915Y042802D01*
X023860Y042831D01*
X023804Y042856D01*
X023746Y042878D01*
X023687Y042897D01*
X023627Y042912D01*
X023567Y042924D01*
X023505Y042933D01*
X023444Y042938D01*
X023382Y042940D01*
X023382Y042941D02*
X022039Y042941D01*
X021947Y042665D02*
X023290Y042665D01*
X023198Y042389D02*
X021855Y042389D01*
X021279Y042942D02*
X019824Y044396D01*
X019595Y044192D02*
X021075Y042712D01*
X021482Y043171D02*
X020054Y044600D01*
X019595Y044193D02*
X019552Y044238D01*
X019512Y044285D01*
X019475Y044334D01*
X019441Y044386D01*
X019410Y044439D01*
X019381Y044494D01*
X019356Y044550D01*
X019334Y044608D01*
X019315Y044667D01*
X019300Y044727D01*
X019288Y044787D01*
X019279Y044849D01*
X019274Y044910D01*
X019272Y044972D01*
X019272Y058639D01*
X019548Y058508D02*
X019548Y045064D01*
X019823Y045156D02*
X019823Y058376D01*
X020099Y058244D02*
X020099Y049080D01*
X020375Y048412D02*
X022465Y046322D01*
X019823Y045156D02*
X019825Y045105D01*
X019830Y045053D01*
X019838Y045002D01*
X019850Y044952D01*
X019865Y044903D01*
X019883Y044855D01*
X019904Y044808D01*
X019928Y044762D01*
X019956Y044719D01*
X019986Y044677D01*
X020018Y044637D01*
X020054Y044600D01*
X019824Y044396D02*
X019785Y044437D01*
X019748Y044481D01*
X019714Y044527D01*
X019683Y044575D01*
X019655Y044625D01*
X019630Y044676D01*
X019608Y044729D01*
X019590Y044783D01*
X019574Y044838D01*
X019562Y044894D01*
X019554Y044950D01*
X019549Y045007D01*
X019547Y045064D01*
X021076Y042713D02*
X021121Y042670D01*
X021168Y042630D01*
X021217Y042593D01*
X021269Y042559D01*
X021322Y042528D01*
X021377Y042499D01*
X021433Y042474D01*
X021491Y042452D01*
X021550Y042433D01*
X021610Y042418D01*
X021670Y042406D01*
X021732Y042397D01*
X021793Y042392D01*
X021855Y042390D01*
X021947Y042665D02*
X021890Y042667D01*
X021833Y042672D01*
X021777Y042680D01*
X021721Y042692D01*
X021666Y042708D01*
X021612Y042726D01*
X021559Y042748D01*
X021508Y042773D01*
X021458Y042801D01*
X021410Y042832D01*
X021364Y042866D01*
X021320Y042903D01*
X021279Y042942D01*
X021483Y043172D02*
X021520Y043136D01*
X021560Y043104D01*
X021602Y043074D01*
X021645Y043046D01*
X021691Y043022D01*
X021738Y043001D01*
X021786Y042983D01*
X021835Y042968D01*
X021885Y042956D01*
X021936Y042948D01*
X021988Y042943D01*
X022039Y042941D01*
X023290Y042665D02*
X023347Y042663D01*
X023404Y042658D01*
X023460Y042650D01*
X023516Y042638D01*
X023571Y042622D01*
X023625Y042604D01*
X023678Y042582D01*
X023729Y042557D01*
X023779Y042529D01*
X023827Y042498D01*
X023873Y042464D01*
X023917Y042427D01*
X023958Y042388D01*
X023754Y042158D02*
X023717Y042194D01*
X023677Y042226D01*
X023635Y042256D01*
X023592Y042284D01*
X023546Y042308D01*
X023499Y042329D01*
X023451Y042347D01*
X023402Y042362D01*
X023352Y042374D01*
X023301Y042382D01*
X023249Y042387D01*
X023198Y042389D01*
X024828Y041517D02*
X024864Y041480D01*
X024896Y041440D01*
X024926Y041398D01*
X024954Y041355D01*
X024978Y041309D01*
X024999Y041262D01*
X025017Y041214D01*
X025032Y041165D01*
X025044Y041115D01*
X025052Y041064D01*
X025057Y041012D01*
X025059Y040961D01*
X025059Y040550D02*
X025057Y040499D01*
X025052Y040447D01*
X025044Y040396D01*
X025032Y040346D01*
X025017Y040297D01*
X024999Y040249D01*
X024978Y040202D01*
X024954Y040156D01*
X024926Y040113D01*
X024896Y040071D01*
X024864Y040031D01*
X024828Y039994D01*
X024599Y040237D02*
X024633Y040273D01*
X024664Y040312D01*
X024691Y040353D01*
X024715Y040396D01*
X024736Y040441D01*
X024753Y040487D01*
X024767Y040535D01*
X024776Y040583D01*
X024782Y040633D01*
X024784Y040682D01*
X024784Y040869D02*
X024782Y040918D01*
X024776Y040968D01*
X024767Y041016D01*
X024753Y041064D01*
X024736Y041110D01*
X024715Y041155D01*
X024691Y041198D01*
X024664Y041239D01*
X024633Y041278D01*
X024599Y041314D01*
X024076Y039241D02*
X024035Y039202D01*
X023991Y039165D01*
X023945Y039131D01*
X023897Y039100D01*
X023847Y039072D01*
X023796Y039047D01*
X023743Y039025D01*
X023689Y039007D01*
X023634Y038991D01*
X023578Y038979D01*
X023522Y038971D01*
X023465Y038966D01*
X023408Y038964D01*
X026675Y037391D02*
X028247Y038963D01*
X028490Y038734D02*
X026904Y037148D01*
X026675Y037390D02*
X026636Y037349D01*
X026599Y037305D01*
X026565Y037259D01*
X026534Y037211D01*
X026506Y037161D01*
X026481Y037110D01*
X026459Y037057D01*
X026441Y037003D01*
X026425Y036948D01*
X026413Y036892D01*
X026405Y036836D01*
X026400Y036779D01*
X026398Y036722D01*
X026674Y036591D02*
X026676Y036642D01*
X026681Y036694D01*
X026689Y036745D01*
X026701Y036795D01*
X026716Y036844D01*
X026734Y036892D01*
X026755Y036939D01*
X026779Y036985D01*
X026807Y037028D01*
X026837Y037070D01*
X026869Y037110D01*
X026905Y037147D01*
X028247Y038963D02*
X028288Y039002D01*
X028332Y039039D01*
X028378Y039073D01*
X028426Y039104D01*
X028476Y039132D01*
X028527Y039157D01*
X028580Y039179D01*
X028634Y039197D01*
X028689Y039213D01*
X028745Y039225D01*
X028801Y039233D01*
X028858Y039238D01*
X028915Y039240D01*
X030363Y039240D01*
X030495Y038964D02*
X029047Y038964D01*
X028996Y038962D01*
X028944Y038957D01*
X028893Y038949D01*
X028843Y038937D01*
X028794Y038922D01*
X028746Y038904D01*
X028699Y038883D01*
X028653Y038859D01*
X028610Y038831D01*
X028568Y038801D01*
X028528Y038769D01*
X028491Y038733D01*
X030363Y039240D02*
X030414Y039242D01*
X030466Y039247D01*
X030517Y039255D01*
X030567Y039267D01*
X030616Y039282D01*
X030664Y039300D01*
X030711Y039321D01*
X030757Y039345D01*
X030800Y039373D01*
X030842Y039403D01*
X030882Y039435D01*
X030919Y039471D01*
X030920Y039470D02*
X031765Y040315D01*
X031994Y040072D02*
X031163Y039241D01*
X032500Y038548D02*
X032498Y038491D01*
X032493Y038434D01*
X032485Y038378D01*
X032473Y038322D01*
X032457Y038267D01*
X032439Y038213D01*
X032417Y038160D01*
X032392Y038109D01*
X032364Y038059D01*
X032333Y038011D01*
X032299Y037965D01*
X032262Y037921D01*
X032223Y037880D01*
X032224Y037880D02*
X029666Y035322D01*
X032500Y038548D02*
X032500Y041014D01*
X032225Y040921D02*
X032225Y040629D01*
X031949Y040761D02*
X031949Y040829D01*
X032500Y041014D02*
X032498Y041071D01*
X032493Y041128D01*
X032485Y041184D01*
X032473Y041240D01*
X032457Y041295D01*
X032439Y041349D01*
X032417Y041402D01*
X032392Y041453D01*
X032364Y041503D01*
X032333Y041551D01*
X032299Y041597D01*
X032262Y041641D01*
X032223Y041682D01*
X032224Y041682D02*
X031288Y042618D01*
X031084Y042388D02*
X031994Y041478D01*
X031765Y041275D02*
X030880Y042159D01*
X031287Y042617D02*
X031242Y042660D01*
X031195Y042700D01*
X031146Y042737D01*
X031094Y042771D01*
X031041Y042802D01*
X030986Y042831D01*
X030930Y042856D01*
X030872Y042878D01*
X030813Y042897D01*
X030753Y042912D01*
X030693Y042924D01*
X030631Y042933D01*
X030570Y042938D01*
X030508Y042940D01*
X030508Y042941D02*
X029362Y042941D01*
X029230Y042665D02*
X030416Y042665D01*
X030324Y042389D02*
X029099Y042389D01*
X028562Y042942D02*
X026950Y044554D01*
X027180Y044797D02*
X028805Y043171D01*
X028320Y042713D02*
X028365Y042670D01*
X028412Y042630D01*
X028461Y042593D01*
X028513Y042559D01*
X028566Y042528D01*
X028621Y042499D01*
X028677Y042474D01*
X028735Y042452D01*
X028794Y042433D01*
X028854Y042418D01*
X028914Y042406D01*
X028976Y042397D01*
X029037Y042392D01*
X029099Y042390D01*
X028319Y042712D02*
X026721Y044311D01*
X026398Y045090D02*
X026398Y058560D01*
X026673Y058429D02*
X026673Y045222D01*
X026949Y045353D02*
X026949Y058297D01*
X027225Y058166D02*
X027225Y049155D01*
X027501Y048487D02*
X029666Y046322D01*
X026949Y045353D02*
X026951Y045302D01*
X026956Y045250D01*
X026964Y045199D01*
X026976Y045149D01*
X026991Y045100D01*
X027009Y045052D01*
X027030Y045005D01*
X027054Y044959D01*
X027082Y044916D01*
X027112Y044874D01*
X027144Y044834D01*
X027180Y044797D01*
X026721Y044311D02*
X026678Y044356D01*
X026638Y044403D01*
X026601Y044452D01*
X026567Y044504D01*
X026536Y044557D01*
X026507Y044612D01*
X026482Y044668D01*
X026460Y044726D01*
X026441Y044785D01*
X026426Y044845D01*
X026414Y044905D01*
X026405Y044967D01*
X026400Y045028D01*
X026398Y045090D01*
X026673Y045222D02*
X026675Y045165D01*
X026680Y045108D01*
X026688Y045052D01*
X026700Y044996D01*
X026716Y044941D01*
X026734Y044887D01*
X026756Y044834D01*
X026781Y044783D01*
X026809Y044733D01*
X026840Y044685D01*
X026874Y044639D01*
X026911Y044595D01*
X026950Y044554D01*
X028562Y042942D02*
X028603Y042903D01*
X028647Y042866D01*
X028693Y042832D01*
X028741Y042801D01*
X028791Y042773D01*
X028842Y042748D01*
X028895Y042726D01*
X028949Y042708D01*
X029004Y042692D01*
X029060Y042680D01*
X029116Y042672D01*
X029173Y042667D01*
X029230Y042665D01*
X029362Y042941D02*
X029311Y042943D01*
X029259Y042948D01*
X029208Y042956D01*
X029158Y042968D01*
X029109Y042983D01*
X029061Y043001D01*
X029014Y043022D01*
X028968Y043046D01*
X028925Y043074D01*
X028883Y043104D01*
X028843Y043136D01*
X028806Y043172D01*
X030416Y042665D02*
X030473Y042663D01*
X030530Y042658D01*
X030586Y042650D01*
X030642Y042638D01*
X030697Y042622D01*
X030751Y042604D01*
X030804Y042582D01*
X030855Y042557D01*
X030905Y042529D01*
X030953Y042498D01*
X030999Y042464D01*
X031043Y042427D01*
X031084Y042388D01*
X030880Y042158D02*
X030843Y042194D01*
X030803Y042226D01*
X030761Y042256D01*
X030718Y042284D01*
X030672Y042308D01*
X030625Y042329D01*
X030577Y042347D01*
X030528Y042362D01*
X030478Y042374D01*
X030427Y042382D01*
X030375Y042387D01*
X030324Y042389D01*
X031993Y041477D02*
X032029Y041440D01*
X032061Y041400D01*
X032091Y041358D01*
X032119Y041315D01*
X032143Y041269D01*
X032164Y041222D01*
X032182Y041174D01*
X032197Y041125D01*
X032209Y041075D01*
X032217Y041024D01*
X032222Y040972D01*
X032224Y040921D01*
X032224Y040629D02*
X032222Y040578D01*
X032217Y040526D01*
X032209Y040475D01*
X032197Y040425D01*
X032182Y040376D01*
X032164Y040328D01*
X032143Y040281D01*
X032119Y040235D01*
X032091Y040192D01*
X032061Y040150D01*
X032029Y040110D01*
X031993Y040073D01*
X031764Y040316D02*
X031798Y040352D01*
X031829Y040391D01*
X031856Y040432D01*
X031880Y040475D01*
X031901Y040520D01*
X031918Y040566D01*
X031932Y040614D01*
X031941Y040662D01*
X031947Y040712D01*
X031949Y040761D01*
X031949Y040829D02*
X031947Y040878D01*
X031941Y040928D01*
X031932Y040976D01*
X031918Y041024D01*
X031901Y041070D01*
X031880Y041115D01*
X031856Y041158D01*
X031829Y041199D01*
X031798Y041238D01*
X031764Y041274D01*
X031163Y039241D02*
X031122Y039202D01*
X031078Y039165D01*
X031032Y039131D01*
X030984Y039100D01*
X030934Y039072D01*
X030883Y039047D01*
X030830Y039025D01*
X030776Y039007D01*
X030721Y038991D01*
X030665Y038979D01*
X030609Y038971D01*
X030552Y038966D01*
X030495Y038964D01*
X033879Y037351D02*
X035491Y038963D01*
X035734Y038734D02*
X034109Y037108D01*
X033880Y037351D02*
X033841Y037310D01*
X033804Y037266D01*
X033770Y037220D01*
X033739Y037172D01*
X033711Y037122D01*
X033686Y037071D01*
X033664Y037018D01*
X033646Y036964D01*
X033630Y036909D01*
X033618Y036853D01*
X033610Y036797D01*
X033605Y036740D01*
X033603Y036683D01*
X033879Y036551D02*
X033881Y036602D01*
X033886Y036654D01*
X033894Y036705D01*
X033906Y036755D01*
X033921Y036804D01*
X033939Y036852D01*
X033960Y036899D01*
X033984Y036945D01*
X034012Y036988D01*
X034042Y037030D01*
X034074Y037070D01*
X034110Y037107D01*
X035491Y038963D02*
X035532Y039002D01*
X035576Y039039D01*
X035622Y039073D01*
X035670Y039104D01*
X035720Y039132D01*
X035771Y039157D01*
X035824Y039179D01*
X035878Y039197D01*
X035933Y039213D01*
X035989Y039225D01*
X036045Y039233D01*
X036102Y039238D01*
X036159Y039240D01*
X037568Y039240D01*
X037621Y038964D02*
X036291Y038964D01*
X036240Y038962D01*
X036188Y038957D01*
X036137Y038949D01*
X036087Y038937D01*
X036038Y038922D01*
X035990Y038904D01*
X035943Y038883D01*
X035897Y038859D01*
X035854Y038831D01*
X035812Y038801D01*
X035772Y038769D01*
X035735Y038733D01*
X037621Y038964D02*
X037678Y038966D01*
X037735Y038971D01*
X037791Y038979D01*
X037847Y038991D01*
X037902Y039007D01*
X037956Y039025D01*
X038009Y039047D01*
X038060Y039072D01*
X038110Y039100D01*
X038158Y039131D01*
X038204Y039165D01*
X038248Y039202D01*
X038289Y039241D01*
X039278Y040230D01*
X039009Y040354D02*
X038125Y039470D01*
X038124Y039471D02*
X038087Y039435D01*
X038047Y039403D01*
X038005Y039373D01*
X037962Y039345D01*
X037916Y039321D01*
X037869Y039300D01*
X037821Y039282D01*
X037772Y039267D01*
X037722Y039255D01*
X037671Y039247D01*
X037619Y039242D01*
X037568Y039240D01*
X039784Y038631D02*
X039782Y038574D01*
X039777Y038517D01*
X039769Y038461D01*
X039757Y038405D01*
X039741Y038350D01*
X039723Y038296D01*
X039701Y038243D01*
X039676Y038192D01*
X039648Y038142D01*
X039617Y038094D01*
X039583Y038048D01*
X039546Y038004D01*
X039507Y037963D01*
X036866Y035322D01*
X039784Y038631D02*
X039784Y040974D01*
X039508Y040882D02*
X039508Y040786D01*
X039193Y040800D02*
X039193Y040829D01*
X039784Y040974D02*
X039782Y041031D01*
X039777Y041088D01*
X039769Y041144D01*
X039757Y041200D01*
X039741Y041255D01*
X039723Y041309D01*
X039701Y041362D01*
X039676Y041413D01*
X039648Y041463D01*
X039617Y041511D01*
X039583Y041557D01*
X039546Y041601D01*
X039507Y041642D01*
X038486Y042664D01*
X038328Y042388D02*
X039278Y041439D01*
X039009Y041275D02*
X038125Y042159D01*
X038486Y042664D02*
X038445Y042703D01*
X038401Y042740D01*
X038355Y042774D01*
X038307Y042805D01*
X038257Y042833D01*
X038206Y042858D01*
X038153Y042880D01*
X038099Y042898D01*
X038044Y042914D01*
X037988Y042926D01*
X037932Y042934D01*
X037875Y042939D01*
X037818Y042941D01*
X036409Y042941D01*
X036317Y042665D02*
X037660Y042665D01*
X037568Y042389D02*
X036225Y042389D01*
X035649Y042942D02*
X034155Y044435D01*
X033925Y044232D02*
X035445Y042712D01*
X035852Y043171D02*
X034384Y044639D01*
X033926Y044232D02*
X033883Y044277D01*
X033843Y044324D01*
X033806Y044373D01*
X033772Y044425D01*
X033741Y044478D01*
X033712Y044533D01*
X033687Y044589D01*
X033665Y044647D01*
X033646Y044706D01*
X033631Y044766D01*
X033619Y044826D01*
X033610Y044888D01*
X033605Y044949D01*
X033603Y045011D01*
X033603Y058600D01*
X033878Y058468D02*
X033878Y045104D01*
X034154Y045196D02*
X034154Y058337D01*
X034429Y058205D02*
X034429Y049151D01*
X034706Y048483D02*
X036866Y046322D01*
X034154Y045196D02*
X034156Y045145D01*
X034161Y045093D01*
X034169Y045042D01*
X034181Y044992D01*
X034196Y044943D01*
X034214Y044895D01*
X034235Y044848D01*
X034259Y044802D01*
X034287Y044759D01*
X034317Y044717D01*
X034349Y044677D01*
X034385Y044640D01*
X034155Y044436D02*
X034116Y044477D01*
X034079Y044521D01*
X034045Y044567D01*
X034014Y044615D01*
X033986Y044665D01*
X033961Y044716D01*
X033939Y044769D01*
X033921Y044823D01*
X033905Y044878D01*
X033893Y044934D01*
X033885Y044990D01*
X033880Y045047D01*
X033878Y045104D01*
X035446Y042713D02*
X035491Y042670D01*
X035538Y042630D01*
X035587Y042593D01*
X035639Y042559D01*
X035692Y042528D01*
X035747Y042499D01*
X035803Y042474D01*
X035861Y042452D01*
X035920Y042433D01*
X035980Y042418D01*
X036040Y042406D01*
X036102Y042397D01*
X036163Y042392D01*
X036225Y042390D01*
X036317Y042665D02*
X036260Y042667D01*
X036203Y042672D01*
X036147Y042680D01*
X036091Y042692D01*
X036036Y042708D01*
X035982Y042726D01*
X035929Y042748D01*
X035878Y042773D01*
X035828Y042801D01*
X035780Y042832D01*
X035734Y042866D01*
X035690Y042903D01*
X035649Y042942D01*
X035853Y043172D02*
X035890Y043136D01*
X035930Y043104D01*
X035972Y043074D01*
X036015Y043046D01*
X036061Y043022D01*
X036108Y043001D01*
X036156Y042983D01*
X036205Y042968D01*
X036255Y042956D01*
X036306Y042948D01*
X036358Y042943D01*
X036409Y042941D01*
X037660Y042665D02*
X037717Y042663D01*
X037774Y042658D01*
X037830Y042650D01*
X037886Y042638D01*
X037941Y042622D01*
X037995Y042604D01*
X038048Y042582D01*
X038099Y042557D01*
X038149Y042529D01*
X038197Y042498D01*
X038243Y042464D01*
X038287Y042427D01*
X038328Y042388D01*
X038124Y042158D02*
X038087Y042194D01*
X038047Y042226D01*
X038005Y042256D01*
X037962Y042284D01*
X037916Y042308D01*
X037869Y042329D01*
X037821Y042347D01*
X037772Y042362D01*
X037722Y042374D01*
X037671Y042382D01*
X037619Y042387D01*
X037568Y042389D01*
X039008Y041274D02*
X039042Y041238D01*
X039073Y041199D01*
X039100Y041158D01*
X039124Y041115D01*
X039145Y041070D01*
X039162Y041024D01*
X039176Y040976D01*
X039185Y040928D01*
X039191Y040878D01*
X039193Y040829D01*
X039508Y040786D02*
X039506Y040735D01*
X039501Y040683D01*
X039493Y040632D01*
X039481Y040582D01*
X039466Y040533D01*
X039448Y040485D01*
X039427Y040438D01*
X039403Y040392D01*
X039375Y040349D01*
X039345Y040307D01*
X039313Y040267D01*
X039277Y040230D01*
X039508Y040882D02*
X039506Y040933D01*
X039501Y040985D01*
X039493Y041036D01*
X039481Y041086D01*
X039466Y041135D01*
X039448Y041183D01*
X039427Y041230D01*
X039403Y041276D01*
X039375Y041319D01*
X039345Y041361D01*
X039313Y041401D01*
X039277Y041438D01*
X039193Y040800D02*
X039191Y040751D01*
X039185Y040701D01*
X039176Y040653D01*
X039162Y040605D01*
X039145Y040559D01*
X039124Y040514D01*
X039100Y040471D01*
X039073Y040430D01*
X039042Y040391D01*
X039008Y040355D01*
X040807Y037074D02*
X042696Y038963D01*
X043364Y039240D02*
X045138Y039240D01*
X046174Y040276D01*
X046359Y040721D02*
X046359Y040829D01*
X046174Y041275D02*
X045290Y042159D01*
X045697Y042617D02*
X045652Y042660D01*
X045605Y042700D01*
X045556Y042737D01*
X045504Y042771D01*
X045451Y042802D01*
X045396Y042831D01*
X045340Y042856D01*
X045282Y042878D01*
X045223Y042897D01*
X045163Y042912D01*
X045103Y042924D01*
X045041Y042933D01*
X044980Y042938D01*
X044918Y042940D01*
X044918Y042941D02*
X043850Y042941D01*
X043718Y042665D02*
X044825Y042665D01*
X044733Y042389D02*
X043626Y042389D01*
X043050Y042942D02*
X041399Y044593D01*
X041170Y044389D02*
X042847Y042712D01*
X043293Y043171D02*
X041629Y044836D01*
X041170Y044390D02*
X041127Y044435D01*
X041087Y044482D01*
X041050Y044531D01*
X041016Y044583D01*
X040985Y044636D01*
X040956Y044691D01*
X040931Y044747D01*
X040909Y044805D01*
X040890Y044864D01*
X040875Y044924D01*
X040863Y044984D01*
X040854Y045046D01*
X040849Y045107D01*
X040847Y045169D01*
X040847Y058521D01*
X041122Y058429D02*
X041122Y045261D01*
X041398Y045393D02*
X041398Y058337D01*
X041673Y058244D02*
X041673Y049108D01*
X041950Y048439D02*
X044067Y046322D01*
X041398Y045393D02*
X041400Y045342D01*
X041405Y045290D01*
X041413Y045239D01*
X041425Y045189D01*
X041440Y045140D01*
X041458Y045092D01*
X041479Y045045D01*
X041503Y044999D01*
X041531Y044956D01*
X041561Y044914D01*
X041593Y044874D01*
X041629Y044837D01*
X041399Y044593D02*
X041360Y044634D01*
X041323Y044678D01*
X041289Y044724D01*
X041258Y044772D01*
X041230Y044822D01*
X041205Y044873D01*
X041183Y044926D01*
X041165Y044980D01*
X041149Y045035D01*
X041137Y045091D01*
X041129Y045147D01*
X041124Y045204D01*
X041122Y045261D01*
X042847Y042713D02*
X042892Y042670D01*
X042939Y042630D01*
X042988Y042593D01*
X043040Y042559D01*
X043093Y042528D01*
X043148Y042499D01*
X043204Y042474D01*
X043262Y042452D01*
X043321Y042433D01*
X043381Y042418D01*
X043441Y042406D01*
X043503Y042397D01*
X043564Y042392D01*
X043626Y042390D01*
X043718Y042665D02*
X043661Y042667D01*
X043604Y042672D01*
X043548Y042680D01*
X043492Y042692D01*
X043437Y042708D01*
X043383Y042726D01*
X043330Y042748D01*
X043279Y042773D01*
X043229Y042801D01*
X043181Y042832D01*
X043135Y042866D01*
X043091Y042903D01*
X043050Y042942D01*
X043294Y043172D02*
X043331Y043136D01*
X043371Y043104D01*
X043413Y043074D01*
X043456Y043046D01*
X043502Y043022D01*
X043549Y043001D01*
X043597Y042983D01*
X043646Y042968D01*
X043696Y042956D01*
X043747Y042948D01*
X043799Y042943D01*
X043850Y042941D01*
X044825Y042665D02*
X044882Y042663D01*
X044939Y042658D01*
X044995Y042650D01*
X045051Y042638D01*
X045106Y042622D01*
X045160Y042604D01*
X045213Y042582D01*
X045264Y042557D01*
X045314Y042529D01*
X045362Y042498D01*
X045408Y042464D01*
X045452Y042427D01*
X045493Y042388D01*
X045289Y042158D02*
X045252Y042194D01*
X045212Y042226D01*
X045170Y042256D01*
X045127Y042284D01*
X045081Y042308D01*
X045034Y042329D01*
X044986Y042347D01*
X044937Y042362D01*
X044887Y042374D01*
X044836Y042382D01*
X044784Y042387D01*
X044733Y042389D01*
X046174Y041274D02*
X046208Y041238D01*
X046239Y041199D01*
X046266Y041158D01*
X046290Y041115D01*
X046311Y041070D01*
X046328Y041024D01*
X046342Y040976D01*
X046351Y040928D01*
X046357Y040878D01*
X046359Y040829D01*
X046359Y040721D02*
X046357Y040672D01*
X046351Y040622D01*
X046342Y040574D01*
X046328Y040526D01*
X046311Y040480D01*
X046290Y040435D01*
X046266Y040392D01*
X046239Y040351D01*
X046208Y040312D01*
X046174Y040276D01*
X046910Y038556D02*
X046908Y038499D01*
X046903Y038442D01*
X046895Y038386D01*
X046883Y038330D01*
X046867Y038275D01*
X046849Y038221D01*
X046827Y038168D01*
X046802Y038117D01*
X046774Y038067D01*
X046743Y038019D01*
X046709Y037973D01*
X046672Y037929D01*
X046633Y037888D01*
X044067Y035322D01*
X041083Y036591D02*
X041085Y036642D01*
X041090Y036694D01*
X041098Y036745D01*
X041110Y036795D01*
X041125Y036844D01*
X041143Y036892D01*
X041164Y036939D01*
X041188Y036985D01*
X041216Y037028D01*
X041246Y037070D01*
X041278Y037110D01*
X041314Y037147D01*
X041083Y036591D02*
X041083Y027698D01*
X041360Y027030D02*
X044067Y024322D01*
X041360Y027030D02*
X041321Y027071D01*
X041284Y027115D01*
X041250Y027161D01*
X041219Y027209D01*
X041191Y027259D01*
X041166Y027310D01*
X041144Y027363D01*
X041126Y027417D01*
X041110Y027472D01*
X041098Y027528D01*
X041090Y027584D01*
X041085Y027641D01*
X041083Y027698D01*
X034155Y027034D02*
X034116Y027075D01*
X034079Y027119D01*
X034045Y027165D01*
X034014Y027213D01*
X033986Y027263D01*
X033961Y027314D01*
X033939Y027367D01*
X033921Y027421D01*
X033905Y027476D01*
X033893Y027532D01*
X033885Y027588D01*
X033880Y027645D01*
X033878Y027702D01*
X026950Y027038D02*
X026911Y027079D01*
X026874Y027123D01*
X026840Y027169D01*
X026809Y027217D01*
X026781Y027267D01*
X026756Y027318D01*
X026734Y027371D01*
X026716Y027425D01*
X026700Y027480D01*
X026688Y027536D01*
X026680Y027592D01*
X026675Y027649D01*
X026673Y027706D01*
X019746Y027042D02*
X019707Y027083D01*
X019670Y027127D01*
X019636Y027173D01*
X019605Y027221D01*
X019577Y027271D01*
X019552Y027322D01*
X019530Y027375D01*
X019512Y027429D01*
X019496Y027484D01*
X019484Y027540D01*
X019476Y027596D01*
X019471Y027653D01*
X019469Y027710D01*
X012541Y027046D02*
X012502Y027087D01*
X012465Y027131D01*
X012431Y027177D01*
X012400Y027225D01*
X012372Y027275D01*
X012347Y027326D01*
X012325Y027379D01*
X012307Y027433D01*
X012291Y027488D01*
X012279Y027544D01*
X012271Y027600D01*
X012266Y027657D01*
X012264Y027714D01*
X005138Y036709D02*
X005140Y036760D01*
X005145Y036812D01*
X005153Y036863D01*
X005165Y036913D01*
X005180Y036962D01*
X005198Y037010D01*
X005219Y037057D01*
X005243Y037103D01*
X005271Y037146D01*
X005301Y037188D01*
X005333Y037228D01*
X005369Y037265D01*
X005369Y037266D02*
X006837Y038734D01*
X006633Y038963D02*
X005139Y037469D01*
X005100Y037428D01*
X005063Y037384D01*
X005029Y037338D01*
X004998Y037290D01*
X004970Y037240D01*
X004945Y037189D01*
X004923Y037136D01*
X004905Y037082D01*
X004889Y037027D01*
X004877Y036971D01*
X004869Y036915D01*
X004864Y036858D01*
X004862Y036801D01*
X006633Y038963D02*
X006674Y039002D01*
X006718Y039039D01*
X006764Y039073D01*
X006812Y039104D01*
X006862Y039132D01*
X006913Y039157D01*
X006966Y039179D01*
X007020Y039197D01*
X007075Y039213D01*
X007131Y039225D01*
X007187Y039233D01*
X007244Y039238D01*
X007301Y039240D01*
X007393Y038964D02*
X007342Y038962D01*
X007290Y038957D01*
X007239Y038949D01*
X007189Y038937D01*
X007140Y038922D01*
X007092Y038904D01*
X007045Y038883D01*
X006999Y038859D01*
X006956Y038831D01*
X006914Y038801D01*
X006874Y038769D01*
X006837Y038733D01*
X005966Y048420D02*
X005927Y048461D01*
X005890Y048505D01*
X005856Y048551D01*
X005825Y048599D01*
X005797Y048649D01*
X005772Y048700D01*
X005750Y048753D01*
X005732Y048807D01*
X005716Y048862D01*
X005704Y048918D01*
X005696Y048974D01*
X005691Y049031D01*
X005689Y049088D01*
X008063Y057322D02*
X008063Y058346D01*
X011108Y061390D01*
X010878Y061594D02*
X010113Y060829D01*
X009910Y061059D02*
X010649Y061798D01*
X010419Y062001D02*
X009706Y061288D01*
X009503Y061518D02*
X010190Y062205D01*
X011108Y061390D02*
X011153Y061438D01*
X011196Y061488D01*
X011236Y061540D01*
X011274Y061595D01*
X011308Y061651D01*
X011340Y061709D01*
X011368Y061769D01*
X011393Y061829D01*
X011415Y061892D01*
X011434Y061955D01*
X011449Y062019D01*
X011461Y062084D01*
X011470Y062149D01*
X011475Y062215D01*
X011477Y062281D01*
X011477Y063559D01*
X011201Y063402D02*
X011201Y062374D01*
X010925Y062466D02*
X010925Y063140D01*
X010650Y063047D02*
X010650Y062558D01*
X010374Y062650D02*
X010374Y062916D01*
X010926Y063140D02*
X010924Y063197D01*
X010919Y063254D01*
X010911Y063310D01*
X010899Y063366D01*
X010883Y063421D01*
X010865Y063475D01*
X010843Y063528D01*
X010818Y063579D01*
X010790Y063629D01*
X010759Y063677D01*
X010725Y063723D01*
X010688Y063767D01*
X010649Y063808D01*
X009982Y064475D01*
X009705Y065143D02*
X009705Y068275D01*
X010099Y068275D02*
X010099Y068728D01*
X010097Y068767D01*
X010091Y068805D01*
X010082Y068842D01*
X010069Y068879D01*
X010052Y068914D01*
X010033Y068947D01*
X010010Y068978D01*
X009984Y069007D01*
X009955Y069033D01*
X009924Y069056D01*
X009891Y069075D01*
X009856Y069092D01*
X009819Y069105D01*
X009782Y069114D01*
X009744Y069120D01*
X009705Y069122D01*
X007736Y069122D01*
X007736Y068275D01*
X008130Y068275D02*
X008130Y065812D01*
X008407Y065144D02*
X010190Y063361D01*
X010970Y063958D02*
X011006Y063921D01*
X011038Y063881D01*
X011068Y063839D01*
X011096Y063796D01*
X011120Y063750D01*
X011141Y063703D01*
X011159Y063655D01*
X011174Y063606D01*
X011186Y063556D01*
X011194Y063505D01*
X011199Y063453D01*
X011201Y063402D01*
X011476Y063559D02*
X011474Y063610D01*
X011469Y063662D01*
X011461Y063713D01*
X011449Y063763D01*
X011434Y063812D01*
X011416Y063860D01*
X011395Y063907D01*
X011371Y063953D01*
X011343Y063996D01*
X011313Y064038D01*
X011281Y064078D01*
X011245Y064115D01*
X010970Y063958D02*
X010949Y063982D01*
X010930Y064009D01*
X010915Y064037D01*
X010902Y064067D01*
X010893Y064098D01*
X010888Y064130D01*
X010886Y064162D01*
X010886Y068275D01*
X011673Y068275D02*
X011673Y067190D01*
X012461Y066206D02*
X012461Y068275D01*
X012067Y068275D02*
X012067Y068728D01*
X012069Y068767D01*
X012075Y068805D01*
X012084Y068842D01*
X012097Y068879D01*
X012114Y068914D01*
X012133Y068947D01*
X012156Y068978D01*
X012182Y069007D01*
X012211Y069033D01*
X012242Y069056D01*
X012275Y069075D01*
X012310Y069092D01*
X012347Y069105D01*
X012384Y069114D01*
X012422Y069120D01*
X012461Y069122D01*
X014429Y069122D01*
X014429Y068275D01*
X014036Y068275D02*
X014036Y065655D01*
X013525Y065223D02*
X013486Y065264D01*
X013449Y065308D01*
X013415Y065354D01*
X013384Y065402D01*
X013356Y065452D01*
X013331Y065503D01*
X013309Y065556D01*
X013291Y065610D01*
X013275Y065665D01*
X013263Y065721D01*
X013255Y065777D01*
X013250Y065834D01*
X013248Y065891D01*
X013248Y068275D01*
X014429Y069122D02*
X016077Y069122D01*
X016356Y069006D02*
X017658Y067704D01*
X017658Y067193D01*
X016004Y066127D02*
X016006Y066070D01*
X016011Y066013D01*
X016019Y065957D01*
X016031Y065901D01*
X016047Y065846D01*
X016065Y065792D01*
X016087Y065739D01*
X016112Y065688D01*
X016140Y065638D01*
X016171Y065590D01*
X016205Y065544D01*
X016242Y065500D01*
X016281Y065459D01*
X016475Y065265D01*
X016043Y064950D02*
X016084Y064911D01*
X016128Y064874D01*
X016174Y064840D01*
X016222Y064809D01*
X016272Y064781D01*
X016323Y064756D01*
X016376Y064734D01*
X016430Y064716D01*
X016485Y064700D01*
X016541Y064688D01*
X016597Y064680D01*
X016654Y064675D01*
X016711Y064673D01*
X016900Y064673D01*
X016807Y064397D02*
X015293Y064397D01*
X015083Y064122D02*
X016715Y064122D01*
X016623Y063846D02*
X014951Y063846D01*
X014303Y064445D02*
X013525Y065223D01*
X012738Y065538D02*
X014060Y064215D01*
X014625Y064674D02*
X014312Y064987D01*
X014060Y064215D02*
X014108Y064170D01*
X014158Y064127D01*
X014210Y064087D01*
X014265Y064049D01*
X014321Y064015D01*
X014379Y063983D01*
X014439Y063955D01*
X014499Y063930D01*
X014562Y063908D01*
X014625Y063889D01*
X014689Y063874D01*
X014754Y063862D01*
X014819Y063853D01*
X014885Y063848D01*
X014951Y063846D01*
X016042Y064950D02*
X015494Y065498D01*
X015293Y064397D02*
X015236Y064399D01*
X015179Y064404D01*
X015123Y064412D01*
X015067Y064424D01*
X015012Y064440D01*
X014958Y064458D01*
X014905Y064480D01*
X014854Y064505D01*
X014804Y064533D01*
X014756Y064564D01*
X014710Y064598D01*
X014666Y064635D01*
X014625Y064674D01*
X014304Y064445D02*
X014349Y064402D01*
X014396Y064362D01*
X014445Y064325D01*
X014497Y064291D01*
X014550Y064260D01*
X014605Y064231D01*
X014661Y064206D01*
X014719Y064184D01*
X014778Y064165D01*
X014838Y064150D01*
X014898Y064138D01*
X014960Y064129D01*
X015021Y064124D01*
X015083Y064122D01*
X014313Y064987D02*
X014274Y065028D01*
X014237Y065072D01*
X014203Y065118D01*
X014172Y065166D01*
X014144Y065216D01*
X014119Y065267D01*
X014097Y065320D01*
X014079Y065374D01*
X014063Y065429D01*
X014051Y065485D01*
X014043Y065541D01*
X014038Y065598D01*
X014036Y065655D01*
X012738Y065538D02*
X012699Y065579D01*
X012662Y065623D01*
X012628Y065669D01*
X012597Y065717D01*
X012569Y065767D01*
X012544Y065818D01*
X012522Y065871D01*
X012504Y065925D01*
X012488Y065980D01*
X012476Y066036D01*
X012468Y066092D01*
X012463Y066149D01*
X012461Y066206D01*
X011396Y066523D02*
X011360Y066484D01*
X011327Y066444D01*
X011296Y066401D01*
X011269Y066356D01*
X011244Y066310D01*
X011222Y066262D01*
X011204Y066213D01*
X011188Y066163D01*
X011176Y066112D01*
X011168Y066060D01*
X011163Y066008D01*
X011161Y065955D01*
X011162Y065955D02*
X011162Y064320D01*
X011164Y064288D01*
X011169Y064256D01*
X011178Y064225D01*
X011191Y064195D01*
X011206Y064167D01*
X011225Y064140D01*
X011246Y064116D01*
X010419Y063604D02*
X009194Y064829D01*
X008918Y065497D02*
X008918Y068275D01*
X007663Y069122D02*
X007624Y069120D01*
X007586Y069114D01*
X007549Y069105D01*
X007512Y069092D01*
X007477Y069075D01*
X007444Y069056D01*
X007413Y069033D01*
X007384Y069007D01*
X007385Y069006D02*
X006122Y067744D01*
X006122Y067193D01*
X007663Y069122D02*
X007736Y069122D01*
X008130Y065812D02*
X008132Y065755D01*
X008137Y065698D01*
X008145Y065642D01*
X008157Y065586D01*
X008173Y065531D01*
X008191Y065477D01*
X008213Y065424D01*
X008238Y065373D01*
X008266Y065323D01*
X008297Y065275D01*
X008331Y065229D01*
X008368Y065185D01*
X008407Y065144D01*
X008917Y065497D02*
X008919Y065440D01*
X008924Y065383D01*
X008932Y065327D01*
X008944Y065271D01*
X008960Y065216D01*
X008978Y065162D01*
X009000Y065109D01*
X009025Y065058D01*
X009053Y065008D01*
X009084Y064960D01*
X009118Y064914D01*
X009155Y064870D01*
X009194Y064829D01*
X009705Y065143D02*
X009707Y065086D01*
X009712Y065029D01*
X009720Y064973D01*
X009732Y064917D01*
X009748Y064862D01*
X009766Y064808D01*
X009788Y064755D01*
X009813Y064704D01*
X009841Y064654D01*
X009872Y064606D01*
X009906Y064560D01*
X009943Y064516D01*
X009982Y064475D01*
X010418Y063603D02*
X010454Y063566D01*
X010486Y063526D01*
X010516Y063484D01*
X010544Y063441D01*
X010568Y063395D01*
X010589Y063348D01*
X010607Y063300D01*
X010622Y063251D01*
X010634Y063201D01*
X010642Y063150D01*
X010647Y063098D01*
X010649Y063047D01*
X011201Y062374D02*
X011199Y062312D01*
X011194Y062251D01*
X011185Y062189D01*
X011173Y062129D01*
X011158Y062069D01*
X011139Y062010D01*
X011117Y061952D01*
X011092Y061896D01*
X011063Y061841D01*
X011032Y061788D01*
X010998Y061736D01*
X010961Y061687D01*
X010921Y061640D01*
X010878Y061595D01*
X010649Y061798D02*
X010688Y061839D01*
X010725Y061883D01*
X010759Y061929D01*
X010790Y061977D01*
X010818Y062027D01*
X010843Y062078D01*
X010865Y062131D01*
X010883Y062185D01*
X010899Y062240D01*
X010911Y062296D01*
X010919Y062352D01*
X010924Y062409D01*
X010926Y062466D01*
X010649Y062558D02*
X010647Y062507D01*
X010642Y062455D01*
X010634Y062404D01*
X010622Y062354D01*
X010607Y062305D01*
X010589Y062257D01*
X010568Y062210D01*
X010544Y062164D01*
X010516Y062121D01*
X010486Y062079D01*
X010454Y062039D01*
X010418Y062002D01*
X010189Y062205D02*
X010223Y062241D01*
X010254Y062280D01*
X010281Y062321D01*
X010305Y062364D01*
X010326Y062409D01*
X010343Y062455D01*
X010357Y062503D01*
X010366Y062551D01*
X010372Y062601D01*
X010374Y062650D01*
X010374Y062916D02*
X010372Y062965D01*
X010366Y063015D01*
X010357Y063063D01*
X010343Y063111D01*
X010326Y063157D01*
X010305Y063202D01*
X010281Y063245D01*
X010254Y063286D01*
X010223Y063325D01*
X010189Y063361D01*
X009502Y061518D02*
X009465Y061482D01*
X009425Y061450D01*
X009383Y061420D01*
X009340Y061392D01*
X009294Y061368D01*
X009247Y061347D01*
X009199Y061329D01*
X009150Y061314D01*
X009100Y061302D01*
X009049Y061294D01*
X008997Y061289D01*
X008946Y061287D01*
X007589Y061287D01*
X007681Y061011D02*
X009038Y061011D01*
X009130Y060736D02*
X007774Y060736D01*
X007866Y060460D02*
X009223Y060460D01*
X009289Y060462D01*
X009355Y060467D01*
X009420Y060476D01*
X009485Y060488D01*
X009549Y060503D01*
X009612Y060522D01*
X009675Y060544D01*
X009735Y060569D01*
X009795Y060597D01*
X009853Y060629D01*
X009909Y060663D01*
X009964Y060701D01*
X010016Y060741D01*
X010066Y060784D01*
X010114Y060829D01*
X009909Y061059D02*
X009864Y061016D01*
X009817Y060976D01*
X009768Y060939D01*
X009716Y060905D01*
X009663Y060874D01*
X009608Y060845D01*
X009552Y060820D01*
X009494Y060798D01*
X009435Y060779D01*
X009375Y060764D01*
X009315Y060752D01*
X009253Y060743D01*
X009192Y060738D01*
X009130Y060736D01*
X009038Y061011D02*
X009095Y061013D01*
X009152Y061018D01*
X009208Y061026D01*
X009264Y061038D01*
X009319Y061054D01*
X009373Y061072D01*
X009426Y061094D01*
X009477Y061119D01*
X009527Y061147D01*
X009575Y061178D01*
X009621Y061212D01*
X009665Y061249D01*
X009706Y061288D01*
X007774Y060736D02*
X007717Y060734D01*
X007660Y060729D01*
X007604Y060721D01*
X007548Y060709D01*
X007493Y060693D01*
X007439Y060675D01*
X007386Y060653D01*
X007335Y060628D01*
X007285Y060600D01*
X007237Y060569D01*
X007191Y060535D01*
X007147Y060498D01*
X007106Y060459D01*
X007105Y060459D02*
X005690Y059044D01*
X005461Y059248D02*
X006902Y060689D01*
X006698Y060918D02*
X005231Y059451D01*
X005920Y058840D02*
X007309Y060230D01*
X006698Y060918D02*
X006746Y060963D01*
X006796Y061006D01*
X006848Y061046D01*
X006903Y061084D01*
X006959Y061118D01*
X007017Y061150D01*
X007077Y061178D01*
X007137Y061203D01*
X007200Y061225D01*
X007263Y061244D01*
X007327Y061259D01*
X007392Y061271D01*
X007457Y061280D01*
X007523Y061285D01*
X007589Y061287D01*
X007681Y061011D02*
X007619Y061009D01*
X007558Y061004D01*
X007496Y060995D01*
X007436Y060983D01*
X007376Y060968D01*
X007317Y060949D01*
X007259Y060927D01*
X007203Y060902D01*
X007148Y060873D01*
X007095Y060842D01*
X007043Y060808D01*
X006994Y060771D01*
X006947Y060731D01*
X006902Y060688D01*
X007310Y060229D02*
X007347Y060265D01*
X007387Y060297D01*
X007429Y060327D01*
X007472Y060355D01*
X007518Y060379D01*
X007565Y060400D01*
X007613Y060418D01*
X007662Y060433D01*
X007712Y060445D01*
X007763Y060453D01*
X007815Y060458D01*
X007866Y060460D01*
X005921Y058840D02*
X005885Y058803D01*
X005853Y058763D01*
X005823Y058721D01*
X005795Y058678D01*
X005771Y058632D01*
X005750Y058585D01*
X005732Y058537D01*
X005717Y058488D01*
X005705Y058438D01*
X005697Y058387D01*
X005692Y058335D01*
X005690Y058284D01*
X004862Y058560D02*
X004864Y058626D01*
X004869Y058692D01*
X004878Y058757D01*
X004890Y058822D01*
X004905Y058886D01*
X004924Y058949D01*
X004946Y059012D01*
X004971Y059072D01*
X004999Y059132D01*
X005031Y059190D01*
X005065Y059246D01*
X005103Y059301D01*
X005143Y059353D01*
X005186Y059403D01*
X005231Y059451D01*
X005461Y059247D02*
X005418Y059202D01*
X005378Y059155D01*
X005341Y059106D01*
X005307Y059054D01*
X005276Y059001D01*
X005247Y058946D01*
X005222Y058890D01*
X005200Y058832D01*
X005181Y058773D01*
X005166Y058713D01*
X005154Y058653D01*
X005145Y058591D01*
X005140Y058530D01*
X005138Y058468D01*
X005414Y058376D02*
X005416Y058433D01*
X005421Y058490D01*
X005429Y058546D01*
X005441Y058602D01*
X005457Y058657D01*
X005475Y058711D01*
X005497Y058764D01*
X005522Y058815D01*
X005550Y058865D01*
X005581Y058913D01*
X005615Y058959D01*
X005652Y059003D01*
X005691Y059044D01*
X011397Y066522D02*
X011436Y066563D01*
X011473Y066607D01*
X011507Y066653D01*
X011538Y066701D01*
X011566Y066751D01*
X011591Y066802D01*
X011613Y066855D01*
X011631Y066909D01*
X011647Y066964D01*
X011659Y067020D01*
X011667Y067076D01*
X011672Y067133D01*
X011674Y067190D01*
X015217Y066167D02*
X015217Y068275D01*
X016004Y068275D02*
X016004Y066127D01*
X015217Y066167D02*
X015219Y066110D01*
X015224Y066053D01*
X015232Y065997D01*
X015244Y065941D01*
X015260Y065886D01*
X015278Y065832D01*
X015300Y065779D01*
X015325Y065728D01*
X015353Y065678D01*
X015384Y065630D01*
X015418Y065584D01*
X015455Y065540D01*
X015494Y065499D01*
X016476Y065265D02*
X016517Y065226D01*
X016561Y065189D01*
X016607Y065155D01*
X016655Y065124D01*
X016705Y065096D01*
X016756Y065071D01*
X016809Y065049D01*
X016863Y065031D01*
X016918Y065015D01*
X016974Y065003D01*
X017030Y064995D01*
X017087Y064990D01*
X017144Y064988D01*
X017820Y064708D02*
X018312Y064215D01*
X018083Y064011D02*
X017791Y064304D01*
X017587Y064074D02*
X017853Y063808D01*
X017624Y063604D02*
X017383Y063845D01*
X017820Y064708D02*
X017778Y064748D01*
X017734Y064785D01*
X017687Y064819D01*
X017639Y064850D01*
X017588Y064878D01*
X017536Y064904D01*
X017483Y064926D01*
X017428Y064945D01*
X017373Y064960D01*
X017316Y064972D01*
X017259Y064981D01*
X017202Y064986D01*
X017144Y064988D01*
X017180Y063615D02*
X017395Y063401D01*
X018313Y064215D02*
X018358Y064167D01*
X018401Y064117D01*
X018441Y064065D01*
X018479Y064010D01*
X018513Y063954D01*
X018545Y063896D01*
X018573Y063836D01*
X018598Y063776D01*
X018620Y063713D01*
X018639Y063650D01*
X018654Y063586D01*
X018666Y063521D01*
X018675Y063456D01*
X018680Y063390D01*
X018682Y063324D01*
X018681Y063324D02*
X018681Y062281D01*
X018406Y062374D02*
X018406Y063232D01*
X018130Y063140D02*
X018130Y062466D01*
X017855Y062558D02*
X017855Y063047D01*
X017579Y062955D02*
X017579Y062650D01*
X018405Y062374D02*
X018403Y062312D01*
X018398Y062251D01*
X018389Y062189D01*
X018377Y062129D01*
X018362Y062069D01*
X018343Y062010D01*
X018321Y061952D01*
X018296Y061896D01*
X018267Y061841D01*
X018236Y061788D01*
X018202Y061736D01*
X018165Y061687D01*
X018125Y061640D01*
X018082Y061595D01*
X018083Y061594D02*
X017279Y060790D01*
X017075Y061019D02*
X017853Y061798D01*
X017624Y062001D02*
X016871Y061249D01*
X016668Y061478D02*
X017395Y062205D01*
X018313Y061390D02*
X018358Y061438D01*
X018401Y061488D01*
X018441Y061540D01*
X018479Y061595D01*
X018513Y061651D01*
X018545Y061709D01*
X018573Y061769D01*
X018598Y061829D01*
X018620Y061892D01*
X018639Y061955D01*
X018654Y062019D01*
X018666Y062084D01*
X018675Y062149D01*
X018680Y062215D01*
X018682Y062281D01*
X018312Y061390D02*
X015264Y058342D01*
X015264Y057322D01*
X012816Y058166D02*
X012818Y058217D01*
X012823Y058269D01*
X012831Y058320D01*
X012843Y058370D01*
X012858Y058419D01*
X012876Y058467D01*
X012897Y058514D01*
X012921Y058560D01*
X012949Y058603D01*
X012979Y058645D01*
X013011Y058685D01*
X013047Y058722D01*
X013046Y058722D02*
X014514Y060190D01*
X013785Y060879D02*
X013833Y060924D01*
X013883Y060967D01*
X013935Y061007D01*
X013990Y061045D01*
X014046Y061079D01*
X014104Y061111D01*
X014164Y061139D01*
X014224Y061164D01*
X014287Y061186D01*
X014350Y061205D01*
X014414Y061220D01*
X014479Y061232D01*
X014544Y061241D01*
X014610Y061246D01*
X014676Y061248D01*
X016111Y061248D01*
X016203Y060972D02*
X014807Y060972D01*
X014939Y060696D02*
X016296Y060696D01*
X016388Y060421D02*
X015071Y060421D01*
X014807Y060972D02*
X014745Y060970D01*
X014684Y060965D01*
X014622Y060956D01*
X014562Y060944D01*
X014502Y060929D01*
X014443Y060910D01*
X014385Y060888D01*
X014329Y060863D01*
X014274Y060834D01*
X014221Y060803D01*
X014169Y060769D01*
X014120Y060732D01*
X014073Y060692D01*
X014028Y060649D01*
X012587Y059208D01*
X012816Y058965D02*
X014271Y060420D01*
X013785Y060879D02*
X012357Y059451D01*
X012312Y059403D01*
X012269Y059353D01*
X012229Y059301D01*
X012191Y059246D01*
X012157Y059190D01*
X012125Y059132D01*
X012097Y059072D01*
X012072Y059012D01*
X012050Y058949D01*
X012031Y058886D01*
X012016Y058822D01*
X012004Y058757D01*
X011995Y058692D01*
X011990Y058626D01*
X011988Y058560D01*
X012264Y058429D02*
X012266Y058491D01*
X012271Y058552D01*
X012280Y058614D01*
X012292Y058674D01*
X012307Y058734D01*
X012326Y058793D01*
X012348Y058851D01*
X012373Y058907D01*
X012402Y058962D01*
X012433Y059015D01*
X012467Y059067D01*
X012504Y059116D01*
X012544Y059163D01*
X012587Y059208D01*
X012817Y058965D02*
X012778Y058924D01*
X012741Y058880D01*
X012707Y058834D01*
X012676Y058786D01*
X012648Y058736D01*
X012623Y058685D01*
X012601Y058632D01*
X012583Y058578D01*
X012567Y058523D01*
X012555Y058467D01*
X012547Y058411D01*
X012542Y058354D01*
X012540Y058297D01*
X014271Y060420D02*
X014312Y060459D01*
X014356Y060496D01*
X014402Y060530D01*
X014450Y060561D01*
X014500Y060589D01*
X014551Y060614D01*
X014604Y060636D01*
X014658Y060654D01*
X014713Y060670D01*
X014769Y060682D01*
X014825Y060690D01*
X014882Y060695D01*
X014939Y060697D01*
X015071Y060420D02*
X015020Y060418D01*
X014968Y060413D01*
X014917Y060405D01*
X014867Y060393D01*
X014818Y060378D01*
X014770Y060360D01*
X014723Y060339D01*
X014677Y060315D01*
X014634Y060287D01*
X014592Y060257D01*
X014552Y060225D01*
X014515Y060189D01*
X016388Y060421D02*
X016454Y060423D01*
X016520Y060428D01*
X016585Y060437D01*
X016650Y060449D01*
X016714Y060464D01*
X016777Y060483D01*
X016840Y060505D01*
X016900Y060530D01*
X016960Y060558D01*
X017018Y060590D01*
X017074Y060624D01*
X017129Y060662D01*
X017181Y060702D01*
X017231Y060745D01*
X017279Y060790D01*
X017075Y061020D02*
X017030Y060977D01*
X016983Y060937D01*
X016934Y060900D01*
X016882Y060866D01*
X016829Y060835D01*
X016774Y060806D01*
X016718Y060781D01*
X016660Y060759D01*
X016601Y060740D01*
X016541Y060725D01*
X016481Y060713D01*
X016419Y060704D01*
X016358Y060699D01*
X016296Y060697D01*
X016203Y060972D02*
X016260Y060974D01*
X016317Y060979D01*
X016373Y060987D01*
X016429Y060999D01*
X016484Y061015D01*
X016538Y061033D01*
X016591Y061055D01*
X016642Y061080D01*
X016692Y061108D01*
X016740Y061139D01*
X016786Y061173D01*
X016830Y061210D01*
X016871Y061249D01*
X016667Y061479D02*
X016630Y061443D01*
X016590Y061411D01*
X016548Y061381D01*
X016505Y061353D01*
X016459Y061329D01*
X016412Y061308D01*
X016364Y061290D01*
X016315Y061275D01*
X016265Y061263D01*
X016214Y061255D01*
X016162Y061250D01*
X016111Y061248D01*
X017623Y062002D02*
X017659Y062039D01*
X017691Y062079D01*
X017721Y062121D01*
X017749Y062164D01*
X017773Y062210D01*
X017794Y062257D01*
X017812Y062305D01*
X017827Y062354D01*
X017839Y062404D01*
X017847Y062455D01*
X017852Y062507D01*
X017854Y062558D01*
X018130Y062466D02*
X018128Y062409D01*
X018123Y062352D01*
X018115Y062296D01*
X018103Y062240D01*
X018087Y062185D01*
X018069Y062131D01*
X018047Y062078D01*
X018022Y062027D01*
X017994Y061977D01*
X017963Y061929D01*
X017929Y061883D01*
X017892Y061839D01*
X017853Y061798D01*
X017394Y062205D02*
X017428Y062241D01*
X017459Y062280D01*
X017486Y062321D01*
X017510Y062364D01*
X017531Y062409D01*
X017548Y062455D01*
X017562Y062503D01*
X017571Y062551D01*
X017577Y062601D01*
X017579Y062650D01*
X018130Y063140D02*
X018128Y063197D01*
X018123Y063254D01*
X018115Y063310D01*
X018103Y063366D01*
X018087Y063421D01*
X018069Y063475D01*
X018047Y063528D01*
X018022Y063579D01*
X017994Y063629D01*
X017963Y063677D01*
X017929Y063723D01*
X017892Y063767D01*
X017853Y063808D01*
X018082Y064011D02*
X018125Y063966D01*
X018165Y063919D01*
X018202Y063870D01*
X018236Y063818D01*
X018267Y063765D01*
X018296Y063710D01*
X018321Y063654D01*
X018343Y063596D01*
X018362Y063537D01*
X018377Y063477D01*
X018389Y063417D01*
X018398Y063355D01*
X018403Y063294D01*
X018405Y063232D01*
X017854Y063047D02*
X017852Y063098D01*
X017847Y063150D01*
X017839Y063201D01*
X017827Y063251D01*
X017812Y063300D01*
X017794Y063348D01*
X017773Y063395D01*
X017749Y063441D01*
X017721Y063484D01*
X017691Y063526D01*
X017659Y063566D01*
X017623Y063603D01*
X017791Y064304D02*
X017743Y064349D01*
X017693Y064392D01*
X017641Y064432D01*
X017586Y064470D01*
X017530Y064504D01*
X017472Y064536D01*
X017412Y064564D01*
X017352Y064589D01*
X017289Y064611D01*
X017226Y064630D01*
X017162Y064645D01*
X017097Y064657D01*
X017032Y064666D01*
X016966Y064671D01*
X016900Y064673D01*
X016807Y064397D02*
X016869Y064395D01*
X016930Y064390D01*
X016992Y064381D01*
X017052Y064369D01*
X017112Y064354D01*
X017171Y064335D01*
X017229Y064313D01*
X017285Y064288D01*
X017340Y064259D01*
X017393Y064228D01*
X017445Y064194D01*
X017494Y064157D01*
X017541Y064117D01*
X017586Y064074D01*
X017394Y063400D02*
X017428Y063364D01*
X017459Y063325D01*
X017486Y063284D01*
X017510Y063241D01*
X017531Y063196D01*
X017548Y063150D01*
X017562Y063102D01*
X017571Y063054D01*
X017577Y063004D01*
X017579Y062955D01*
X017383Y063845D02*
X017342Y063884D01*
X017298Y063921D01*
X017252Y063955D01*
X017204Y063986D01*
X017154Y064014D01*
X017103Y064039D01*
X017050Y064061D01*
X016996Y064079D01*
X016941Y064095D01*
X016885Y064107D01*
X016829Y064115D01*
X016772Y064120D01*
X016715Y064122D01*
X016623Y063846D02*
X016674Y063844D01*
X016726Y063839D01*
X016777Y063831D01*
X016827Y063819D01*
X016876Y063804D01*
X016924Y063786D01*
X016971Y063765D01*
X017017Y063741D01*
X017060Y063713D01*
X017102Y063683D01*
X017142Y063651D01*
X017179Y063615D01*
X020414Y067232D02*
X020414Y067581D01*
X020529Y067859D02*
X021676Y069006D01*
X021955Y069122D02*
X022028Y069122D01*
X022028Y068275D01*
X022422Y068275D02*
X022422Y065970D01*
X022698Y065302D02*
X024560Y063440D01*
X025019Y063926D02*
X025058Y063885D01*
X025095Y063841D01*
X025129Y063795D01*
X025160Y063747D01*
X025188Y063697D01*
X025213Y063646D01*
X025235Y063593D01*
X025253Y063539D01*
X025269Y063484D01*
X025281Y063428D01*
X025289Y063372D01*
X025294Y063315D01*
X025296Y063258D01*
X025296Y062387D01*
X025571Y062255D02*
X025571Y063615D01*
X025847Y063773D02*
X025847Y062124D01*
X025248Y061476D02*
X024562Y060790D01*
X024319Y061019D02*
X025019Y061719D01*
X024789Y061962D02*
X024076Y061249D01*
X023833Y061478D02*
X024560Y062205D01*
X025847Y062124D02*
X025845Y062058D01*
X025840Y061992D01*
X025831Y061927D01*
X025819Y061862D01*
X025804Y061798D01*
X025785Y061735D01*
X025763Y061672D01*
X025738Y061612D01*
X025710Y061552D01*
X025678Y061494D01*
X025644Y061438D01*
X025606Y061383D01*
X025566Y061331D01*
X025523Y061281D01*
X025478Y061233D01*
X022465Y058220D01*
X022465Y057322D01*
X020099Y058244D02*
X020101Y058295D01*
X020106Y058347D01*
X020114Y058398D01*
X020126Y058448D01*
X020141Y058497D01*
X020159Y058545D01*
X020180Y058592D01*
X020204Y058638D01*
X020232Y058681D01*
X020262Y058723D01*
X020294Y058763D01*
X020330Y058800D01*
X020329Y058801D02*
X021718Y060190D01*
X020989Y060879D02*
X021037Y060924D01*
X021087Y060967D01*
X021139Y061007D01*
X021194Y061045D01*
X021250Y061079D01*
X021308Y061111D01*
X021368Y061139D01*
X021428Y061164D01*
X021491Y061186D01*
X021554Y061205D01*
X021618Y061220D01*
X021683Y061232D01*
X021748Y061241D01*
X021814Y061246D01*
X021880Y061248D01*
X023276Y061248D01*
X023408Y060972D02*
X022012Y060972D01*
X022144Y060696D02*
X023540Y060696D01*
X023671Y060421D02*
X022275Y060421D01*
X022012Y060972D02*
X021950Y060970D01*
X021889Y060965D01*
X021827Y060956D01*
X021767Y060944D01*
X021707Y060929D01*
X021648Y060910D01*
X021590Y060888D01*
X021534Y060863D01*
X021479Y060834D01*
X021426Y060803D01*
X021374Y060769D01*
X021325Y060732D01*
X021278Y060692D01*
X021233Y060649D01*
X019870Y059287D01*
X019641Y059530D02*
X020990Y060879D01*
X021475Y060420D02*
X020100Y059044D01*
X019641Y059530D02*
X019596Y059482D01*
X019553Y059432D01*
X019513Y059380D01*
X019475Y059325D01*
X019441Y059269D01*
X019409Y059211D01*
X019381Y059151D01*
X019356Y059091D01*
X019334Y059028D01*
X019315Y058965D01*
X019300Y058901D01*
X019288Y058836D01*
X019279Y058771D01*
X019274Y058705D01*
X019272Y058639D01*
X019548Y058508D02*
X019550Y058570D01*
X019555Y058631D01*
X019564Y058693D01*
X019576Y058753D01*
X019591Y058813D01*
X019610Y058872D01*
X019632Y058930D01*
X019657Y058986D01*
X019686Y059041D01*
X019717Y059094D01*
X019751Y059146D01*
X019788Y059195D01*
X019828Y059242D01*
X019871Y059287D01*
X020100Y059044D02*
X020061Y059003D01*
X020024Y058959D01*
X019990Y058913D01*
X019959Y058865D01*
X019931Y058815D01*
X019906Y058764D01*
X019884Y058711D01*
X019866Y058657D01*
X019850Y058602D01*
X019838Y058546D01*
X019830Y058490D01*
X019825Y058433D01*
X019823Y058376D01*
X021476Y060420D02*
X021517Y060459D01*
X021561Y060496D01*
X021607Y060530D01*
X021655Y060561D01*
X021705Y060589D01*
X021756Y060614D01*
X021809Y060636D01*
X021863Y060654D01*
X021918Y060670D01*
X021974Y060682D01*
X022030Y060690D01*
X022087Y060695D01*
X022144Y060697D01*
X022275Y060420D02*
X022224Y060418D01*
X022172Y060413D01*
X022121Y060405D01*
X022071Y060393D01*
X022022Y060378D01*
X021974Y060360D01*
X021927Y060339D01*
X021881Y060315D01*
X021838Y060287D01*
X021796Y060257D01*
X021756Y060225D01*
X021719Y060189D01*
X023276Y061248D02*
X023327Y061250D01*
X023379Y061255D01*
X023430Y061263D01*
X023480Y061275D01*
X023529Y061290D01*
X023577Y061308D01*
X023624Y061329D01*
X023670Y061353D01*
X023713Y061381D01*
X023755Y061411D01*
X023795Y061443D01*
X023832Y061479D01*
X024562Y060790D02*
X024514Y060745D01*
X024464Y060702D01*
X024412Y060662D01*
X024357Y060624D01*
X024301Y060590D01*
X024243Y060558D01*
X024183Y060530D01*
X024123Y060505D01*
X024060Y060483D01*
X023997Y060464D01*
X023933Y060449D01*
X023868Y060437D01*
X023803Y060428D01*
X023737Y060423D01*
X023671Y060421D01*
X023540Y060697D02*
X023602Y060699D01*
X023663Y060704D01*
X023725Y060713D01*
X023785Y060725D01*
X023845Y060740D01*
X023904Y060759D01*
X023962Y060781D01*
X024018Y060806D01*
X024073Y060835D01*
X024126Y060866D01*
X024178Y060900D01*
X024227Y060937D01*
X024274Y060977D01*
X024319Y061020D01*
X024076Y061249D02*
X024035Y061210D01*
X023991Y061173D01*
X023945Y061139D01*
X023897Y061108D01*
X023847Y061080D01*
X023796Y061055D01*
X023743Y061033D01*
X023689Y061015D01*
X023634Y060999D01*
X023578Y060987D01*
X023522Y060979D01*
X023465Y060974D01*
X023408Y060972D01*
X025248Y061476D02*
X025291Y061521D01*
X025331Y061568D01*
X025368Y061617D01*
X025402Y061669D01*
X025433Y061722D01*
X025462Y061777D01*
X025487Y061833D01*
X025509Y061891D01*
X025528Y061950D01*
X025543Y062010D01*
X025555Y062070D01*
X025564Y062132D01*
X025569Y062193D01*
X025571Y062255D01*
X025020Y062519D02*
X025020Y063126D01*
X024744Y062995D02*
X024744Y062650D01*
X025296Y062387D02*
X025294Y062330D01*
X025289Y062273D01*
X025281Y062217D01*
X025269Y062161D01*
X025253Y062106D01*
X025235Y062052D01*
X025213Y061999D01*
X025188Y061948D01*
X025160Y061898D01*
X025129Y061850D01*
X025095Y061804D01*
X025058Y061760D01*
X025019Y061719D01*
X024789Y061963D02*
X024825Y062000D01*
X024857Y062040D01*
X024887Y062082D01*
X024915Y062125D01*
X024939Y062171D01*
X024960Y062218D01*
X024978Y062266D01*
X024993Y062315D01*
X025005Y062365D01*
X025013Y062416D01*
X025018Y062468D01*
X025020Y062519D01*
X024744Y062650D02*
X024742Y062601D01*
X024736Y062551D01*
X024727Y062503D01*
X024713Y062455D01*
X024696Y062409D01*
X024675Y062364D01*
X024651Y062321D01*
X024624Y062280D01*
X024593Y062241D01*
X024559Y062205D01*
X024744Y062995D02*
X024742Y063044D01*
X024736Y063094D01*
X024727Y063142D01*
X024713Y063190D01*
X024696Y063236D01*
X024675Y063281D01*
X024651Y063324D01*
X024624Y063365D01*
X024593Y063404D01*
X024559Y063440D01*
X024789Y063683D02*
X023486Y064987D01*
X023996Y065340D02*
X023996Y068275D01*
X024390Y068275D02*
X024390Y068728D01*
X024388Y068767D01*
X024382Y068805D01*
X024373Y068842D01*
X024360Y068879D01*
X024343Y068914D01*
X024324Y068947D01*
X024301Y068978D01*
X024275Y069007D01*
X024246Y069033D01*
X024215Y069056D01*
X024182Y069075D01*
X024147Y069092D01*
X024110Y069105D01*
X024073Y069114D01*
X024035Y069120D01*
X023996Y069122D01*
X022028Y069122D01*
X021955Y069122D02*
X021916Y069120D01*
X021878Y069114D01*
X021841Y069105D01*
X021804Y069092D01*
X021769Y069075D01*
X021736Y069056D01*
X021705Y069033D01*
X021676Y069007D01*
X020528Y067860D02*
X020502Y067831D01*
X020479Y067800D01*
X020460Y067767D01*
X020443Y067732D01*
X020430Y067695D01*
X020421Y067658D01*
X020415Y067620D01*
X020413Y067581D01*
X023209Y068275D02*
X023209Y065655D01*
X022698Y065302D02*
X022659Y065343D01*
X022622Y065387D01*
X022588Y065433D01*
X022557Y065481D01*
X022529Y065531D01*
X022504Y065582D01*
X022482Y065635D01*
X022464Y065689D01*
X022448Y065744D01*
X022436Y065800D01*
X022428Y065856D01*
X022423Y065913D01*
X022421Y065970D01*
X023209Y065655D02*
X023211Y065598D01*
X023216Y065541D01*
X023224Y065485D01*
X023236Y065429D01*
X023252Y065374D01*
X023270Y065320D01*
X023292Y065267D01*
X023317Y065216D01*
X023345Y065166D01*
X023376Y065118D01*
X023410Y065072D01*
X023447Y065028D01*
X023486Y064987D01*
X024273Y064672D02*
X025019Y063926D01*
X025408Y064009D02*
X025438Y063977D01*
X025465Y063942D01*
X025489Y063906D01*
X025510Y063868D01*
X025529Y063828D01*
X025544Y063787D01*
X025556Y063745D01*
X025564Y063702D01*
X025569Y063659D01*
X025571Y063615D01*
X025847Y063773D02*
X025845Y063817D01*
X025840Y063860D01*
X025832Y063903D01*
X025820Y063945D01*
X025805Y063986D01*
X025786Y064026D01*
X025765Y064064D01*
X025741Y064100D01*
X025714Y064135D01*
X025684Y064167D01*
X025409Y064010D02*
X025373Y064047D01*
X025341Y064087D01*
X025311Y064129D01*
X025283Y064172D01*
X025259Y064218D01*
X025238Y064265D01*
X025220Y064313D01*
X025205Y064362D01*
X025193Y064412D01*
X025185Y064463D01*
X025180Y064515D01*
X025178Y064566D01*
X025177Y064566D02*
X025177Y068275D01*
X025965Y068275D02*
X025965Y067190D01*
X025688Y066523D02*
X025652Y066484D01*
X025619Y066444D01*
X025588Y066401D01*
X025561Y066356D01*
X025536Y066310D01*
X025514Y066262D01*
X025496Y066213D01*
X025480Y066163D01*
X025468Y066112D01*
X025460Y066060D01*
X025455Y066008D01*
X025453Y065955D01*
X025453Y064723D01*
X025455Y064672D01*
X025460Y064620D01*
X025468Y064569D01*
X025480Y064519D01*
X025495Y064470D01*
X025513Y064422D01*
X025534Y064375D01*
X025558Y064329D01*
X025586Y064286D01*
X025616Y064244D01*
X025648Y064204D01*
X025684Y064167D01*
X024273Y064672D02*
X024234Y064713D01*
X024197Y064757D01*
X024163Y064803D01*
X024132Y064851D01*
X024104Y064901D01*
X024079Y064952D01*
X024057Y065005D01*
X024039Y065059D01*
X024023Y065114D01*
X024011Y065170D01*
X024003Y065226D01*
X023998Y065283D01*
X023996Y065340D01*
X025688Y066522D02*
X025727Y066563D01*
X025764Y066607D01*
X025798Y066653D01*
X025829Y066701D01*
X025857Y066751D01*
X025882Y066802D01*
X025904Y066855D01*
X025922Y066909D01*
X025938Y066964D01*
X025950Y067020D01*
X025958Y067076D01*
X025963Y067133D01*
X025965Y067190D01*
X026752Y066190D02*
X026752Y068275D01*
X026359Y068275D02*
X026359Y068728D01*
X026358Y068728D02*
X026360Y068767D01*
X026366Y068805D01*
X026375Y068842D01*
X026388Y068879D01*
X026405Y068914D01*
X026424Y068947D01*
X026447Y068978D01*
X026473Y069007D01*
X026502Y069033D01*
X026533Y069056D01*
X026566Y069075D01*
X026601Y069092D01*
X026638Y069105D01*
X026675Y069114D01*
X026713Y069120D01*
X026752Y069122D01*
X028721Y069122D01*
X028721Y068275D01*
X028327Y068275D02*
X028327Y065390D01*
X027817Y065114D02*
X027778Y065155D01*
X027741Y065199D01*
X027707Y065245D01*
X027676Y065293D01*
X027648Y065343D01*
X027623Y065394D01*
X027601Y065447D01*
X027583Y065501D01*
X027567Y065556D01*
X027555Y065612D01*
X027547Y065668D01*
X027542Y065725D01*
X027540Y065782D01*
X027540Y068275D01*
X028721Y069122D02*
X030369Y069122D01*
X030647Y069006D02*
X031910Y067744D01*
X031910Y067193D01*
X030295Y066127D02*
X030297Y066070D01*
X030302Y066013D01*
X030310Y065957D01*
X030322Y065901D01*
X030338Y065846D01*
X030356Y065792D01*
X030378Y065739D01*
X030403Y065688D01*
X030431Y065638D01*
X030462Y065590D01*
X030496Y065544D01*
X030533Y065500D01*
X030572Y065459D01*
X030806Y065225D01*
X030963Y064673D02*
X030906Y064675D01*
X030849Y064680D01*
X030793Y064688D01*
X030737Y064700D01*
X030682Y064716D01*
X030628Y064734D01*
X030575Y064756D01*
X030524Y064781D01*
X030474Y064809D01*
X030426Y064840D01*
X030380Y064874D01*
X030336Y064911D01*
X030295Y064950D01*
X030294Y064950D02*
X029785Y065459D01*
X028604Y064722D02*
X028565Y064763D01*
X028528Y064807D01*
X028494Y064853D01*
X028463Y064901D01*
X028435Y064951D01*
X028410Y065002D01*
X028388Y065055D01*
X028370Y065109D01*
X028354Y065164D01*
X028342Y065220D01*
X028334Y065276D01*
X028329Y065333D01*
X028327Y065390D01*
X027816Y065114D02*
X028532Y064398D01*
X028382Y064169D02*
X027029Y065522D01*
X026990Y065563D01*
X026953Y065607D01*
X026919Y065653D01*
X026888Y065701D01*
X026860Y065751D01*
X026835Y065802D01*
X026813Y065855D01*
X026795Y065909D01*
X026779Y065964D01*
X026767Y066020D01*
X026759Y066076D01*
X026754Y066133D01*
X026752Y066190D01*
X028604Y064722D02*
X028698Y064628D01*
X028383Y064169D02*
X028428Y064126D01*
X028475Y064086D01*
X028524Y064049D01*
X028576Y064015D01*
X028629Y063984D01*
X028684Y063955D01*
X028740Y063930D01*
X028798Y063908D01*
X028857Y063889D01*
X028917Y063874D01*
X028977Y063862D01*
X029039Y063853D01*
X029100Y063848D01*
X029162Y063846D01*
X031137Y063846D01*
X031269Y064122D02*
X029200Y064122D01*
X029255Y064397D02*
X031400Y064397D01*
X031532Y064673D02*
X030963Y064673D01*
X031474Y064948D02*
X031663Y064948D01*
X032311Y064350D02*
X032492Y064169D01*
X032263Y063926D02*
X032068Y064120D01*
X031825Y063891D02*
X032033Y063683D01*
X032722Y064412D02*
X032767Y064364D01*
X032810Y064314D01*
X032850Y064262D01*
X032888Y064207D01*
X032922Y064151D01*
X032954Y064093D01*
X032982Y064033D01*
X033007Y063973D01*
X033029Y063910D01*
X033048Y063847D01*
X033063Y063783D01*
X033075Y063718D01*
X033084Y063653D01*
X033089Y063587D01*
X033091Y063521D01*
X033091Y062084D01*
X032815Y062216D02*
X032815Y063389D01*
X032540Y063258D02*
X032540Y062348D01*
X032264Y062479D02*
X032264Y063126D01*
X031988Y062995D02*
X031988Y062611D01*
X032540Y062348D02*
X032538Y062291D01*
X032533Y062234D01*
X032525Y062178D01*
X032513Y062122D01*
X032497Y062067D01*
X032479Y062013D01*
X032457Y061960D01*
X032432Y061909D01*
X032404Y061859D01*
X032373Y061811D01*
X032339Y061765D01*
X032302Y061721D01*
X032263Y061680D01*
X031603Y061019D01*
X031846Y060790D02*
X032492Y061437D01*
X032722Y061194D02*
X029666Y058137D01*
X029666Y057322D01*
X027225Y058166D02*
X027227Y058217D01*
X027232Y058269D01*
X027240Y058320D01*
X027252Y058370D01*
X027267Y058419D01*
X027285Y058467D01*
X027306Y058514D01*
X027330Y058560D01*
X027358Y058603D01*
X027388Y058645D01*
X027420Y058685D01*
X027456Y058722D01*
X027455Y058722D02*
X028923Y060190D01*
X028194Y060879D02*
X028242Y060924D01*
X028292Y060967D01*
X028344Y061007D01*
X028399Y061045D01*
X028455Y061079D01*
X028513Y061111D01*
X028573Y061139D01*
X028633Y061164D01*
X028696Y061186D01*
X028759Y061205D01*
X028823Y061220D01*
X028888Y061232D01*
X028953Y061241D01*
X029019Y061246D01*
X029085Y061248D01*
X030560Y061248D01*
X030692Y060972D02*
X029217Y060972D01*
X029348Y060696D02*
X030823Y060696D01*
X030955Y060421D02*
X029480Y060421D01*
X029217Y060972D02*
X029155Y060970D01*
X029094Y060965D01*
X029032Y060956D01*
X028972Y060944D01*
X028912Y060929D01*
X028853Y060910D01*
X028795Y060888D01*
X028739Y060863D01*
X028684Y060834D01*
X028631Y060803D01*
X028579Y060769D01*
X028530Y060732D01*
X028483Y060692D01*
X028438Y060649D01*
X028437Y060649D02*
X026996Y059208D01*
X026767Y059451D02*
X028194Y060879D01*
X028680Y060420D02*
X027226Y058965D01*
X026767Y059451D02*
X026722Y059403D01*
X026679Y059353D01*
X026639Y059301D01*
X026601Y059246D01*
X026567Y059190D01*
X026535Y059132D01*
X026507Y059072D01*
X026482Y059012D01*
X026460Y058949D01*
X026441Y058886D01*
X026426Y058822D01*
X026414Y058757D01*
X026405Y058692D01*
X026400Y058626D01*
X026398Y058560D01*
X026674Y058429D02*
X026676Y058491D01*
X026681Y058552D01*
X026690Y058614D01*
X026702Y058674D01*
X026717Y058734D01*
X026736Y058793D01*
X026758Y058851D01*
X026783Y058907D01*
X026812Y058962D01*
X026843Y059015D01*
X026877Y059067D01*
X026914Y059116D01*
X026954Y059163D01*
X026997Y059208D01*
X027226Y058965D02*
X027187Y058924D01*
X027150Y058880D01*
X027116Y058834D01*
X027085Y058786D01*
X027057Y058736D01*
X027032Y058685D01*
X027010Y058632D01*
X026992Y058578D01*
X026976Y058523D01*
X026964Y058467D01*
X026956Y058411D01*
X026951Y058354D01*
X026949Y058297D01*
X028680Y060420D02*
X028721Y060459D01*
X028765Y060496D01*
X028811Y060530D01*
X028859Y060561D01*
X028909Y060589D01*
X028960Y060614D01*
X029013Y060636D01*
X029067Y060654D01*
X029122Y060670D01*
X029178Y060682D01*
X029234Y060690D01*
X029291Y060695D01*
X029348Y060697D01*
X029480Y060420D02*
X029429Y060418D01*
X029377Y060413D01*
X029326Y060405D01*
X029276Y060393D01*
X029227Y060378D01*
X029179Y060360D01*
X029132Y060339D01*
X029086Y060315D01*
X029043Y060287D01*
X029001Y060257D01*
X028961Y060225D01*
X028924Y060189D01*
X030560Y061248D02*
X030611Y061250D01*
X030663Y061255D01*
X030714Y061263D01*
X030764Y061275D01*
X030813Y061290D01*
X030861Y061308D01*
X030908Y061329D01*
X030954Y061353D01*
X030997Y061381D01*
X031039Y061411D01*
X031079Y061443D01*
X031116Y061479D01*
X031117Y061478D02*
X031804Y062166D01*
X033091Y062084D02*
X033089Y062018D01*
X033084Y061952D01*
X033075Y061887D01*
X033063Y061822D01*
X033048Y061758D01*
X033029Y061695D01*
X033007Y061632D01*
X032982Y061572D01*
X032954Y061512D01*
X032922Y061454D01*
X032888Y061398D01*
X032850Y061343D01*
X032810Y061291D01*
X032767Y061241D01*
X032722Y061193D01*
X032033Y061923D02*
X031360Y061249D01*
X031846Y060790D02*
X031798Y060745D01*
X031748Y060702D01*
X031696Y060662D01*
X031641Y060624D01*
X031585Y060590D01*
X031527Y060558D01*
X031467Y060530D01*
X031407Y060505D01*
X031344Y060483D01*
X031281Y060464D01*
X031217Y060449D01*
X031152Y060437D01*
X031087Y060428D01*
X031021Y060423D01*
X030955Y060421D01*
X030823Y060697D02*
X030885Y060699D01*
X030946Y060704D01*
X031008Y060713D01*
X031068Y060725D01*
X031128Y060740D01*
X031187Y060759D01*
X031245Y060781D01*
X031301Y060806D01*
X031356Y060835D01*
X031409Y060866D01*
X031461Y060900D01*
X031510Y060937D01*
X031557Y060977D01*
X031602Y061020D01*
X032492Y061437D02*
X032535Y061482D01*
X032575Y061529D01*
X032612Y061578D01*
X032646Y061630D01*
X032677Y061683D01*
X032706Y061738D01*
X032731Y061794D01*
X032753Y061852D01*
X032772Y061911D01*
X032787Y061971D01*
X032799Y062031D01*
X032808Y062093D01*
X032813Y062154D01*
X032815Y062216D01*
X031804Y063440D02*
X031582Y063662D01*
X031663Y064949D02*
X031729Y064947D01*
X031795Y064942D01*
X031860Y064933D01*
X031925Y064921D01*
X031989Y064906D01*
X032052Y064887D01*
X032115Y064865D01*
X032175Y064840D01*
X032235Y064812D01*
X032293Y064780D01*
X032349Y064746D01*
X032404Y064708D01*
X032456Y064668D01*
X032506Y064625D01*
X032554Y064580D01*
X032554Y064579D02*
X032722Y064412D01*
X032492Y064168D02*
X032535Y064123D01*
X032575Y064076D01*
X032612Y064027D01*
X032646Y063975D01*
X032677Y063922D01*
X032706Y063867D01*
X032731Y063811D01*
X032753Y063753D01*
X032772Y063694D01*
X032787Y063634D01*
X032799Y063574D01*
X032808Y063512D01*
X032813Y063451D01*
X032815Y063389D01*
X032540Y063258D02*
X032538Y063315D01*
X032533Y063372D01*
X032525Y063428D01*
X032513Y063484D01*
X032497Y063539D01*
X032479Y063593D01*
X032457Y063646D01*
X032432Y063697D01*
X032404Y063747D01*
X032373Y063795D01*
X032339Y063841D01*
X032302Y063885D01*
X032263Y063926D01*
X032311Y064349D02*
X032266Y064392D01*
X032219Y064432D01*
X032170Y064469D01*
X032118Y064503D01*
X032065Y064534D01*
X032010Y064563D01*
X031954Y064588D01*
X031896Y064610D01*
X031837Y064629D01*
X031777Y064644D01*
X031717Y064656D01*
X031655Y064665D01*
X031594Y064670D01*
X031532Y064672D01*
X031474Y064948D02*
X031417Y064950D01*
X031360Y064955D01*
X031304Y064963D01*
X031248Y064975D01*
X031193Y064991D01*
X031139Y065009D01*
X031086Y065031D01*
X031035Y065056D01*
X030985Y065084D01*
X030937Y065115D01*
X030891Y065149D01*
X030847Y065186D01*
X030806Y065225D01*
X029785Y065459D02*
X029746Y065500D01*
X029709Y065544D01*
X029675Y065590D01*
X029644Y065638D01*
X029616Y065688D01*
X029591Y065739D01*
X029569Y065792D01*
X029551Y065846D01*
X029535Y065901D01*
X029523Y065957D01*
X029515Y066013D01*
X029510Y066070D01*
X029508Y066127D01*
X029508Y068275D01*
X030296Y068275D02*
X030296Y066127D01*
X029255Y064398D02*
X029204Y064400D01*
X029152Y064405D01*
X029101Y064413D01*
X029051Y064425D01*
X029002Y064440D01*
X028954Y064458D01*
X028907Y064479D01*
X028861Y064503D01*
X028818Y064531D01*
X028776Y064561D01*
X028736Y064593D01*
X028699Y064629D01*
X028532Y064399D02*
X028573Y064360D01*
X028617Y064323D01*
X028663Y064289D01*
X028711Y064258D01*
X028761Y064230D01*
X028812Y064205D01*
X028865Y064183D01*
X028919Y064165D01*
X028974Y064149D01*
X029030Y064137D01*
X029086Y064129D01*
X029143Y064124D01*
X029200Y064122D01*
X031137Y063846D02*
X031186Y063844D01*
X031236Y063838D01*
X031284Y063829D01*
X031332Y063815D01*
X031378Y063798D01*
X031423Y063777D01*
X031466Y063753D01*
X031507Y063726D01*
X031546Y063695D01*
X031582Y063661D01*
X032068Y064120D02*
X032027Y064159D01*
X031983Y064196D01*
X031937Y064230D01*
X031889Y064261D01*
X031839Y064289D01*
X031788Y064314D01*
X031735Y064336D01*
X031681Y064354D01*
X031626Y064370D01*
X031570Y064382D01*
X031514Y064390D01*
X031457Y064395D01*
X031400Y064397D01*
X031269Y064121D02*
X031320Y064119D01*
X031372Y064114D01*
X031423Y064106D01*
X031473Y064094D01*
X031522Y064079D01*
X031570Y064061D01*
X031617Y064040D01*
X031663Y064016D01*
X031706Y063988D01*
X031748Y063958D01*
X031788Y063926D01*
X031825Y063890D01*
X032033Y063682D02*
X032069Y063645D01*
X032101Y063605D01*
X032131Y063563D01*
X032159Y063520D01*
X032183Y063474D01*
X032204Y063427D01*
X032222Y063379D01*
X032237Y063330D01*
X032249Y063280D01*
X032257Y063229D01*
X032262Y063177D01*
X032264Y063126D01*
X031989Y062995D02*
X031987Y063044D01*
X031981Y063094D01*
X031972Y063142D01*
X031958Y063190D01*
X031941Y063236D01*
X031920Y063281D01*
X031896Y063324D01*
X031869Y063365D01*
X031838Y063404D01*
X031804Y063440D01*
X031989Y062611D02*
X031987Y062562D01*
X031981Y062512D01*
X031972Y062464D01*
X031958Y062416D01*
X031941Y062370D01*
X031920Y062325D01*
X031896Y062282D01*
X031869Y062241D01*
X031838Y062202D01*
X031804Y062166D01*
X032033Y061923D02*
X032069Y061960D01*
X032101Y062000D01*
X032131Y062042D01*
X032159Y062085D01*
X032183Y062131D01*
X032204Y062178D01*
X032222Y062226D01*
X032237Y062275D01*
X032249Y062325D01*
X032257Y062376D01*
X032262Y062428D01*
X032264Y062479D01*
X031360Y061249D02*
X031319Y061210D01*
X031275Y061173D01*
X031229Y061139D01*
X031181Y061108D01*
X031131Y061080D01*
X031080Y061055D01*
X031027Y061033D01*
X030973Y061015D01*
X030918Y060999D01*
X030862Y060987D01*
X030806Y060979D01*
X030749Y060974D01*
X030692Y060972D01*
X033972Y059491D02*
X035360Y060879D01*
X035603Y060649D02*
X034201Y059248D01*
X034431Y059005D02*
X035846Y060420D01*
X036089Y060190D02*
X034660Y058762D01*
X033971Y059491D02*
X033926Y059443D01*
X033883Y059393D01*
X033843Y059341D01*
X033805Y059286D01*
X033771Y059230D01*
X033739Y059172D01*
X033711Y059112D01*
X033686Y059052D01*
X033664Y058989D01*
X033645Y058926D01*
X033630Y058862D01*
X033618Y058797D01*
X033609Y058732D01*
X033604Y058666D01*
X033602Y058600D01*
X033879Y058468D02*
X033881Y058530D01*
X033886Y058591D01*
X033895Y058653D01*
X033907Y058713D01*
X033922Y058773D01*
X033941Y058832D01*
X033963Y058890D01*
X033988Y058946D01*
X034017Y059001D01*
X034048Y059054D01*
X034082Y059106D01*
X034119Y059155D01*
X034159Y059202D01*
X034202Y059247D01*
X034431Y059005D02*
X034392Y058964D01*
X034355Y058920D01*
X034321Y058874D01*
X034290Y058826D01*
X034262Y058776D01*
X034237Y058725D01*
X034215Y058672D01*
X034197Y058618D01*
X034181Y058563D01*
X034169Y058507D01*
X034161Y058451D01*
X034156Y058394D01*
X034154Y058337D01*
X034430Y058205D02*
X034432Y058256D01*
X034437Y058308D01*
X034445Y058359D01*
X034457Y058409D01*
X034472Y058458D01*
X034490Y058506D01*
X034511Y058553D01*
X034535Y058599D01*
X034563Y058642D01*
X034593Y058684D01*
X034625Y058724D01*
X034661Y058761D01*
X035359Y060879D02*
X035407Y060924D01*
X035457Y060967D01*
X035509Y061007D01*
X035564Y061045D01*
X035620Y061079D01*
X035678Y061111D01*
X035738Y061139D01*
X035798Y061164D01*
X035861Y061186D01*
X035924Y061205D01*
X035988Y061220D01*
X036053Y061232D01*
X036118Y061241D01*
X036184Y061246D01*
X036250Y061248D01*
X037725Y061248D01*
X037818Y060972D02*
X036382Y060972D01*
X036514Y060696D02*
X037910Y060696D01*
X038002Y060421D02*
X036645Y060421D01*
X036382Y060972D02*
X036320Y060970D01*
X036259Y060965D01*
X036197Y060956D01*
X036137Y060944D01*
X036077Y060929D01*
X036018Y060910D01*
X035960Y060888D01*
X035904Y060863D01*
X035849Y060834D01*
X035796Y060803D01*
X035744Y060769D01*
X035695Y060732D01*
X035648Y060692D01*
X035603Y060649D01*
X035846Y060420D02*
X035887Y060459D01*
X035931Y060496D01*
X035977Y060530D01*
X036025Y060561D01*
X036075Y060589D01*
X036126Y060614D01*
X036179Y060636D01*
X036233Y060654D01*
X036288Y060670D01*
X036344Y060682D01*
X036400Y060690D01*
X036457Y060695D01*
X036514Y060697D01*
X036645Y060420D02*
X036594Y060418D01*
X036542Y060413D01*
X036491Y060405D01*
X036441Y060393D01*
X036392Y060378D01*
X036344Y060360D01*
X036297Y060339D01*
X036251Y060315D01*
X036208Y060287D01*
X036166Y060257D01*
X036126Y060225D01*
X036089Y060189D01*
X036988Y058413D02*
X036988Y057617D01*
X036989Y057617D02*
X036987Y057581D01*
X036983Y057545D01*
X036975Y057509D01*
X036964Y057474D01*
X036950Y057441D01*
X036933Y057409D01*
X036914Y057378D01*
X036891Y057349D01*
X036867Y057322D01*
X036988Y058413D02*
X040005Y061430D01*
X039736Y061633D02*
X038893Y060790D01*
X038689Y061019D02*
X039507Y061837D01*
X039278Y062041D02*
X038486Y061249D01*
X038282Y061478D02*
X039009Y062205D01*
X040005Y061430D02*
X040050Y061478D01*
X040093Y061528D01*
X040133Y061580D01*
X040171Y061635D01*
X040205Y061691D01*
X040237Y061749D01*
X040265Y061809D01*
X040290Y061869D01*
X040312Y061932D01*
X040331Y061995D01*
X040346Y062059D01*
X040358Y062124D01*
X040367Y062189D01*
X040372Y062255D01*
X040374Y062321D01*
X040374Y063285D01*
X040059Y063193D02*
X040059Y062413D01*
X039784Y062505D02*
X039784Y063100D01*
X039508Y062969D02*
X039508Y062597D01*
X039193Y062650D02*
X039193Y062876D01*
X040059Y063193D02*
X040057Y063255D01*
X040052Y063316D01*
X040043Y063378D01*
X040031Y063438D01*
X040016Y063498D01*
X039997Y063557D01*
X039975Y063615D01*
X039950Y063671D01*
X039921Y063726D01*
X039890Y063779D01*
X039856Y063831D01*
X039819Y063880D01*
X039779Y063927D01*
X039736Y063972D01*
X039507Y063768D02*
X038564Y064711D01*
X038288Y065379D02*
X038288Y068275D01*
X038681Y068275D02*
X038681Y068728D01*
X038682Y068728D02*
X038680Y068767D01*
X038674Y068805D01*
X038665Y068842D01*
X038652Y068879D01*
X038635Y068914D01*
X038616Y068947D01*
X038593Y068978D01*
X038567Y069007D01*
X038538Y069033D01*
X038507Y069056D01*
X038474Y069075D01*
X038439Y069092D01*
X038402Y069105D01*
X038365Y069114D01*
X038327Y069120D01*
X038288Y069122D01*
X036319Y069122D01*
X036319Y068275D01*
X036713Y068275D02*
X036713Y066009D01*
X036990Y065341D02*
X039009Y063322D01*
X040005Y064176D02*
X040050Y064128D01*
X040093Y064078D01*
X040133Y064026D01*
X040171Y063971D01*
X040205Y063915D01*
X040237Y063857D01*
X040265Y063797D01*
X040290Y063737D01*
X040312Y063674D01*
X040331Y063611D01*
X040346Y063547D01*
X040358Y063482D01*
X040367Y063417D01*
X040372Y063351D01*
X040374Y063285D01*
X040005Y064176D02*
X039975Y064206D01*
X039737Y063972D02*
X039696Y064015D01*
X039658Y064062D01*
X039623Y064110D01*
X039591Y064161D01*
X039563Y064214D01*
X039539Y064268D01*
X039518Y064324D01*
X039500Y064381D01*
X039487Y064440D01*
X039477Y064499D01*
X039471Y064558D01*
X039469Y064618D01*
X039469Y068275D01*
X040256Y068275D02*
X040256Y067190D01*
X041044Y067190D02*
X041044Y068275D01*
X040650Y068275D02*
X040650Y068728D01*
X040652Y068767D01*
X040658Y068805D01*
X040667Y068842D01*
X040680Y068879D01*
X040697Y068914D01*
X040716Y068947D01*
X040739Y068978D01*
X040765Y069007D01*
X040794Y069033D01*
X040825Y069056D01*
X040858Y069075D01*
X040893Y069092D01*
X040930Y069105D01*
X040967Y069114D01*
X041005Y069120D01*
X041044Y069122D01*
X043012Y069122D01*
X043012Y068275D01*
X042618Y068275D02*
X042618Y066482D01*
X042108Y066168D02*
X042069Y066209D01*
X042032Y066253D01*
X041998Y066299D01*
X041967Y066347D01*
X041939Y066397D01*
X041914Y066448D01*
X041892Y066501D01*
X041874Y066555D01*
X041858Y066610D01*
X041846Y066666D01*
X041838Y066722D01*
X041833Y066779D01*
X041831Y066836D01*
X041831Y068275D01*
X041043Y067190D02*
X041045Y067133D01*
X041050Y067076D01*
X041058Y067020D01*
X041070Y066964D01*
X041086Y066909D01*
X041104Y066855D01*
X041126Y066802D01*
X041151Y066751D01*
X041179Y066701D01*
X041210Y066653D01*
X041244Y066607D01*
X041281Y066563D01*
X041320Y066522D01*
X043627Y064215D01*
X043831Y064445D02*
X042108Y066168D01*
X042895Y065813D02*
X044035Y064674D01*
X044238Y064903D02*
X044076Y065065D01*
X043627Y064215D02*
X043675Y064170D01*
X043725Y064127D01*
X043777Y064087D01*
X043832Y064049D01*
X043888Y064015D01*
X043946Y063983D01*
X044006Y063955D01*
X044066Y063930D01*
X044129Y063908D01*
X044192Y063889D01*
X044256Y063874D01*
X044321Y063862D01*
X044386Y063853D01*
X044452Y063848D01*
X044518Y063846D01*
X045284Y063846D01*
X045377Y064122D02*
X044610Y064122D01*
X044703Y064397D02*
X045469Y064397D01*
X045561Y064673D02*
X044795Y064673D01*
X044610Y064122D02*
X044548Y064124D01*
X044487Y064129D01*
X044425Y064138D01*
X044365Y064150D01*
X044305Y064165D01*
X044246Y064184D01*
X044188Y064206D01*
X044132Y064231D01*
X044077Y064260D01*
X044024Y064291D01*
X043972Y064325D01*
X043923Y064362D01*
X043876Y064402D01*
X043831Y064445D01*
X043799Y065734D02*
X043799Y068275D01*
X043012Y069122D02*
X044660Y069122D01*
X044938Y069006D02*
X046201Y067744D01*
X046201Y067232D01*
X044864Y066325D02*
X044825Y066366D01*
X044788Y066410D01*
X044754Y066456D01*
X044723Y066504D01*
X044695Y066554D01*
X044670Y066605D01*
X044648Y066658D01*
X044630Y066712D01*
X044614Y066767D01*
X044602Y066823D01*
X044594Y066879D01*
X044589Y066936D01*
X044587Y066993D01*
X044587Y068275D01*
X044939Y069007D02*
X044910Y069033D01*
X044879Y069056D01*
X044846Y069075D01*
X044811Y069092D01*
X044774Y069105D01*
X044737Y069114D01*
X044699Y069120D01*
X044660Y069122D01*
X044864Y066325D02*
X047092Y064097D01*
X046862Y063893D02*
X046452Y064304D01*
X046248Y064074D02*
X046633Y063690D01*
X046403Y063486D02*
X046045Y063845D01*
X045841Y063615D02*
X046174Y063283D01*
X047092Y064097D02*
X047137Y064049D01*
X047180Y063999D01*
X047220Y063947D01*
X047258Y063892D01*
X047292Y063836D01*
X047324Y063778D01*
X047352Y063718D01*
X047377Y063658D01*
X047399Y063595D01*
X047418Y063532D01*
X047433Y063468D01*
X047445Y063403D01*
X047454Y063338D01*
X047459Y063272D01*
X047461Y063206D01*
X047461Y061238D01*
X046862Y061594D02*
X046058Y060790D01*
X045815Y061019D02*
X046633Y061837D01*
X046403Y062080D02*
X045572Y061249D01*
X045329Y061478D02*
X046174Y062323D01*
X046862Y061595D02*
X046905Y061640D01*
X046945Y061687D01*
X046982Y061736D01*
X047016Y061788D01*
X047047Y061841D01*
X047076Y061896D01*
X047101Y061952D01*
X047123Y062010D01*
X047142Y062069D01*
X047157Y062129D01*
X047169Y062189D01*
X047178Y062251D01*
X047183Y062312D01*
X047185Y062374D01*
X047185Y063114D01*
X046910Y063022D02*
X046910Y062505D01*
X046634Y062637D02*
X046634Y062929D01*
X046359Y062837D02*
X046359Y062768D01*
X047185Y063114D02*
X047183Y063176D01*
X047178Y063237D01*
X047169Y063299D01*
X047157Y063359D01*
X047142Y063419D01*
X047123Y063478D01*
X047101Y063536D01*
X047076Y063592D01*
X047047Y063647D01*
X047016Y063700D01*
X046982Y063752D01*
X046945Y063801D01*
X046905Y063848D01*
X046862Y063893D01*
X046633Y063690D02*
X046672Y063649D01*
X046709Y063605D01*
X046743Y063559D01*
X046774Y063511D01*
X046802Y063461D01*
X046827Y063410D01*
X046849Y063357D01*
X046867Y063303D01*
X046883Y063248D01*
X046895Y063192D01*
X046903Y063136D01*
X046908Y063079D01*
X046910Y063022D01*
X046634Y062929D02*
X046632Y062980D01*
X046627Y063032D01*
X046619Y063083D01*
X046607Y063133D01*
X046592Y063182D01*
X046574Y063230D01*
X046553Y063277D01*
X046529Y063323D01*
X046501Y063366D01*
X046471Y063408D01*
X046439Y063448D01*
X046403Y063485D01*
X046452Y064304D02*
X046404Y064349D01*
X046354Y064392D01*
X046302Y064432D01*
X046247Y064470D01*
X046191Y064504D01*
X046133Y064536D01*
X046073Y064564D01*
X046013Y064589D01*
X045950Y064611D01*
X045887Y064630D01*
X045823Y064645D01*
X045758Y064657D01*
X045693Y064666D01*
X045627Y064671D01*
X045561Y064673D01*
X044703Y064397D02*
X044646Y064399D01*
X044589Y064404D01*
X044533Y064412D01*
X044477Y064424D01*
X044422Y064440D01*
X044368Y064458D01*
X044315Y064480D01*
X044264Y064505D01*
X044214Y064533D01*
X044166Y064564D01*
X044120Y064598D01*
X044076Y064635D01*
X044035Y064674D01*
X044239Y064904D02*
X044276Y064868D01*
X044316Y064836D01*
X044358Y064806D01*
X044401Y064778D01*
X044447Y064754D01*
X044494Y064733D01*
X044542Y064715D01*
X044591Y064700D01*
X044641Y064688D01*
X044692Y064680D01*
X044744Y064675D01*
X044795Y064673D01*
X044076Y065066D02*
X044037Y065107D01*
X044000Y065151D01*
X043966Y065197D01*
X043935Y065245D01*
X043907Y065295D01*
X043882Y065346D01*
X043860Y065399D01*
X043842Y065453D01*
X043826Y065508D01*
X043814Y065564D01*
X043806Y065620D01*
X043801Y065677D01*
X043799Y065734D01*
X042895Y065814D02*
X042856Y065855D01*
X042819Y065899D01*
X042785Y065945D01*
X042754Y065993D01*
X042726Y066043D01*
X042701Y066094D01*
X042679Y066147D01*
X042661Y066201D01*
X042645Y066256D01*
X042633Y066312D01*
X042625Y066368D01*
X042620Y066425D01*
X042618Y066482D01*
X039979Y066523D02*
X039943Y066484D01*
X039910Y066444D01*
X039879Y066401D01*
X039852Y066356D01*
X039827Y066310D01*
X039805Y066262D01*
X039787Y066213D01*
X039771Y066163D01*
X039759Y066112D01*
X039751Y066060D01*
X039746Y066008D01*
X039744Y065955D01*
X039744Y064763D01*
X039745Y064763D02*
X039747Y064712D01*
X039752Y064660D01*
X039760Y064609D01*
X039772Y064559D01*
X039787Y064510D01*
X039805Y064462D01*
X039826Y064415D01*
X039850Y064369D01*
X039878Y064326D01*
X039908Y064284D01*
X039940Y064244D01*
X039976Y064207D01*
X039278Y063526D02*
X037777Y065026D01*
X037500Y065694D02*
X037500Y068275D01*
X036246Y069122D02*
X036207Y069120D01*
X036169Y069114D01*
X036132Y069105D01*
X036095Y069092D01*
X036060Y069075D01*
X036027Y069056D01*
X035996Y069033D01*
X035967Y069007D01*
X035968Y069006D02*
X034705Y067744D01*
X034705Y067271D01*
X036246Y069122D02*
X036319Y069122D01*
X036713Y066009D02*
X036715Y065952D01*
X036720Y065895D01*
X036728Y065839D01*
X036740Y065783D01*
X036756Y065728D01*
X036774Y065674D01*
X036796Y065621D01*
X036821Y065570D01*
X036849Y065520D01*
X036880Y065472D01*
X036914Y065426D01*
X036951Y065382D01*
X036990Y065341D01*
X037500Y065694D02*
X037502Y065637D01*
X037507Y065580D01*
X037515Y065524D01*
X037527Y065468D01*
X037543Y065413D01*
X037561Y065359D01*
X037583Y065306D01*
X037608Y065255D01*
X037636Y065205D01*
X037667Y065157D01*
X037701Y065111D01*
X037738Y065067D01*
X037777Y065026D01*
X038288Y065379D02*
X038290Y065322D01*
X038295Y065265D01*
X038303Y065209D01*
X038315Y065153D01*
X038331Y065098D01*
X038349Y065044D01*
X038371Y064991D01*
X038396Y064940D01*
X038424Y064890D01*
X038455Y064842D01*
X038489Y064796D01*
X038526Y064752D01*
X038565Y064711D01*
X039507Y063768D02*
X039546Y063727D01*
X039583Y063683D01*
X039617Y063637D01*
X039648Y063589D01*
X039676Y063539D01*
X039701Y063488D01*
X039723Y063435D01*
X039741Y063381D01*
X039757Y063326D01*
X039769Y063270D01*
X039777Y063214D01*
X039782Y063157D01*
X039784Y063100D01*
X039508Y062969D02*
X039506Y063020D01*
X039501Y063072D01*
X039493Y063123D01*
X039481Y063173D01*
X039466Y063222D01*
X039448Y063270D01*
X039427Y063317D01*
X039403Y063363D01*
X039375Y063406D01*
X039345Y063448D01*
X039313Y063488D01*
X039277Y063525D01*
X039008Y063321D02*
X039042Y063285D01*
X039073Y063246D01*
X039100Y063205D01*
X039124Y063162D01*
X039145Y063117D01*
X039162Y063071D01*
X039176Y063023D01*
X039185Y062975D01*
X039191Y062925D01*
X039193Y062876D01*
X039784Y062505D02*
X039782Y062448D01*
X039777Y062391D01*
X039769Y062335D01*
X039757Y062279D01*
X039741Y062224D01*
X039723Y062170D01*
X039701Y062117D01*
X039676Y062066D01*
X039648Y062016D01*
X039617Y061968D01*
X039583Y061922D01*
X039546Y061878D01*
X039507Y061837D01*
X039736Y061634D02*
X039779Y061679D01*
X039819Y061726D01*
X039856Y061775D01*
X039890Y061827D01*
X039921Y061880D01*
X039950Y061935D01*
X039975Y061991D01*
X039997Y062049D01*
X040016Y062108D01*
X040031Y062168D01*
X040043Y062228D01*
X040052Y062290D01*
X040057Y062351D01*
X040059Y062413D01*
X039508Y062597D02*
X039506Y062546D01*
X039501Y062494D01*
X039493Y062443D01*
X039481Y062393D01*
X039466Y062344D01*
X039448Y062296D01*
X039427Y062249D01*
X039403Y062203D01*
X039375Y062160D01*
X039345Y062118D01*
X039313Y062078D01*
X039277Y062041D01*
X039008Y062205D02*
X039042Y062241D01*
X039073Y062280D01*
X039100Y062321D01*
X039124Y062364D01*
X039145Y062409D01*
X039162Y062455D01*
X039176Y062503D01*
X039185Y062551D01*
X039191Y062601D01*
X039193Y062650D01*
X038893Y060790D02*
X038845Y060745D01*
X038795Y060702D01*
X038743Y060662D01*
X038688Y060624D01*
X038632Y060590D01*
X038574Y060558D01*
X038514Y060530D01*
X038454Y060505D01*
X038391Y060483D01*
X038328Y060464D01*
X038264Y060449D01*
X038199Y060437D01*
X038134Y060428D01*
X038068Y060423D01*
X038002Y060421D01*
X037910Y060697D02*
X037972Y060699D01*
X038033Y060704D01*
X038095Y060713D01*
X038155Y060725D01*
X038215Y060740D01*
X038274Y060759D01*
X038332Y060781D01*
X038388Y060806D01*
X038443Y060835D01*
X038496Y060866D01*
X038548Y060900D01*
X038597Y060937D01*
X038644Y060977D01*
X038689Y061020D01*
X038486Y061249D02*
X038445Y061210D01*
X038401Y061173D01*
X038355Y061139D01*
X038307Y061108D01*
X038257Y061080D01*
X038206Y061055D01*
X038153Y061033D01*
X038099Y061015D01*
X038044Y060999D01*
X037988Y060987D01*
X037932Y060979D01*
X037875Y060974D01*
X037818Y060972D01*
X037725Y061248D02*
X037776Y061250D01*
X037828Y061255D01*
X037879Y061263D01*
X037929Y061275D01*
X037978Y061290D01*
X038026Y061308D01*
X038073Y061329D01*
X038119Y061353D01*
X038162Y061381D01*
X038204Y061411D01*
X038244Y061443D01*
X038281Y061479D01*
X041216Y059412D02*
X042682Y060879D01*
X042886Y060649D02*
X041445Y059208D01*
X041675Y059005D02*
X043090Y060420D01*
X043293Y060190D02*
X041904Y058801D01*
X041216Y059412D02*
X041171Y059364D01*
X041128Y059314D01*
X041088Y059262D01*
X041050Y059207D01*
X041016Y059151D01*
X040984Y059093D01*
X040956Y059033D01*
X040931Y058973D01*
X040909Y058910D01*
X040890Y058847D01*
X040875Y058783D01*
X040863Y058718D01*
X040854Y058653D01*
X040849Y058587D01*
X040847Y058521D01*
X041123Y058429D02*
X041125Y058491D01*
X041130Y058552D01*
X041139Y058614D01*
X041151Y058674D01*
X041166Y058734D01*
X041185Y058793D01*
X041207Y058851D01*
X041232Y058907D01*
X041261Y058962D01*
X041292Y059015D01*
X041326Y059067D01*
X041363Y059116D01*
X041403Y059163D01*
X041446Y059208D01*
X041675Y059005D02*
X041636Y058964D01*
X041599Y058920D01*
X041565Y058874D01*
X041534Y058826D01*
X041506Y058776D01*
X041481Y058725D01*
X041459Y058672D01*
X041441Y058618D01*
X041425Y058563D01*
X041413Y058507D01*
X041405Y058451D01*
X041400Y058394D01*
X041398Y058337D01*
X041674Y058244D02*
X041676Y058295D01*
X041681Y058347D01*
X041689Y058398D01*
X041701Y058448D01*
X041716Y058497D01*
X041734Y058545D01*
X041755Y058592D01*
X041779Y058638D01*
X041807Y058681D01*
X041837Y058723D01*
X041869Y058763D01*
X041905Y058800D01*
X042682Y060879D02*
X042730Y060924D01*
X042780Y060967D01*
X042832Y061007D01*
X042887Y061045D01*
X042943Y061079D01*
X043001Y061111D01*
X043061Y061139D01*
X043121Y061164D01*
X043184Y061186D01*
X043247Y061205D01*
X043311Y061220D01*
X043376Y061232D01*
X043441Y061241D01*
X043507Y061246D01*
X043573Y061248D01*
X044773Y061248D01*
X044904Y060972D02*
X043666Y060972D01*
X043758Y060696D02*
X045036Y060696D01*
X045167Y060421D02*
X043850Y060421D01*
X043666Y060972D02*
X043604Y060970D01*
X043543Y060965D01*
X043481Y060956D01*
X043421Y060944D01*
X043361Y060929D01*
X043302Y060910D01*
X043244Y060888D01*
X043188Y060863D01*
X043133Y060834D01*
X043080Y060803D01*
X043028Y060769D01*
X042979Y060732D01*
X042932Y060692D01*
X042887Y060649D01*
X043090Y060420D02*
X043131Y060459D01*
X043175Y060496D01*
X043221Y060530D01*
X043269Y060561D01*
X043319Y060589D01*
X043370Y060614D01*
X043423Y060636D01*
X043477Y060654D01*
X043532Y060670D01*
X043588Y060682D01*
X043644Y060690D01*
X043701Y060695D01*
X043758Y060697D01*
X043850Y060420D02*
X043799Y060418D01*
X043747Y060413D01*
X043696Y060405D01*
X043646Y060393D01*
X043597Y060378D01*
X043549Y060360D01*
X043502Y060339D01*
X043456Y060315D01*
X043413Y060287D01*
X043371Y060257D01*
X043331Y060225D01*
X043294Y060189D01*
X044904Y060972D02*
X044961Y060974D01*
X045018Y060979D01*
X045074Y060987D01*
X045130Y060999D01*
X045185Y061015D01*
X045239Y061033D01*
X045292Y061055D01*
X045343Y061080D01*
X045393Y061108D01*
X045441Y061139D01*
X045487Y061173D01*
X045531Y061210D01*
X045572Y061249D01*
X046058Y060790D02*
X046010Y060745D01*
X045960Y060702D01*
X045908Y060662D01*
X045853Y060624D01*
X045797Y060590D01*
X045739Y060558D01*
X045679Y060530D01*
X045619Y060505D01*
X045556Y060483D01*
X045493Y060464D01*
X045429Y060449D01*
X045364Y060437D01*
X045299Y060428D01*
X045233Y060423D01*
X045167Y060421D01*
X047092Y060347D02*
X047137Y060395D01*
X047180Y060445D01*
X047220Y060497D01*
X047258Y060552D01*
X047292Y060608D01*
X047324Y060666D01*
X047352Y060726D01*
X047377Y060786D01*
X047399Y060849D01*
X047418Y060912D01*
X047433Y060976D01*
X047445Y061041D01*
X047454Y061106D01*
X047459Y061172D01*
X047461Y061238D01*
X047092Y060347D02*
X044067Y057322D01*
X045036Y060697D02*
X045098Y060699D01*
X045159Y060704D01*
X045221Y060713D01*
X045281Y060725D01*
X045341Y060740D01*
X045400Y060759D01*
X045458Y060781D01*
X045514Y060806D01*
X045569Y060835D01*
X045622Y060866D01*
X045674Y060900D01*
X045723Y060937D01*
X045770Y060977D01*
X045815Y061020D01*
X045329Y061479D02*
X045292Y061443D01*
X045252Y061411D01*
X045210Y061381D01*
X045167Y061353D01*
X045121Y061329D01*
X045074Y061308D01*
X045026Y061290D01*
X044977Y061275D01*
X044927Y061263D01*
X044876Y061255D01*
X044824Y061250D01*
X044773Y061248D01*
X046633Y061837D02*
X046672Y061878D01*
X046709Y061922D01*
X046743Y061968D01*
X046774Y062016D01*
X046802Y062066D01*
X046827Y062117D01*
X046849Y062170D01*
X046867Y062224D01*
X046883Y062279D01*
X046895Y062335D01*
X046903Y062391D01*
X046908Y062448D01*
X046910Y062505D01*
X046634Y062637D02*
X046632Y062586D01*
X046627Y062534D01*
X046619Y062483D01*
X046607Y062433D01*
X046592Y062384D01*
X046574Y062336D01*
X046553Y062289D01*
X046529Y062243D01*
X046501Y062200D01*
X046471Y062158D01*
X046439Y062118D01*
X046403Y062081D01*
X046174Y062323D02*
X046208Y062359D01*
X046239Y062398D01*
X046266Y062439D01*
X046290Y062482D01*
X046311Y062527D01*
X046328Y062573D01*
X046342Y062621D01*
X046351Y062669D01*
X046357Y062719D01*
X046359Y062768D01*
X046359Y062837D02*
X046357Y062886D01*
X046351Y062936D01*
X046342Y062984D01*
X046328Y063032D01*
X046311Y063078D01*
X046290Y063123D01*
X046266Y063166D01*
X046239Y063207D01*
X046208Y063246D01*
X046174Y063282D01*
X046248Y064074D02*
X046203Y064117D01*
X046156Y064157D01*
X046107Y064194D01*
X046055Y064228D01*
X046002Y064259D01*
X045947Y064288D01*
X045891Y064313D01*
X045833Y064335D01*
X045774Y064354D01*
X045714Y064369D01*
X045654Y064381D01*
X045592Y064390D01*
X045531Y064395D01*
X045469Y064397D01*
X045377Y064122D02*
X045434Y064120D01*
X045491Y064115D01*
X045547Y064107D01*
X045603Y064095D01*
X045658Y064079D01*
X045712Y064061D01*
X045765Y064039D01*
X045816Y064014D01*
X045866Y063986D01*
X045914Y063955D01*
X045960Y063921D01*
X046004Y063884D01*
X046045Y063845D01*
X045840Y063615D02*
X045803Y063651D01*
X045763Y063683D01*
X045721Y063713D01*
X045678Y063741D01*
X045632Y063765D01*
X045585Y063786D01*
X045537Y063804D01*
X045488Y063819D01*
X045438Y063831D01*
X045387Y063839D01*
X045335Y063844D01*
X045284Y063846D01*
X048996Y067232D02*
X048996Y067744D01*
X050259Y069006D01*
X050537Y069122D02*
X050610Y069122D01*
X050610Y068275D01*
X051004Y068275D02*
X051004Y066048D01*
X051281Y065380D02*
X053379Y063283D01*
X054297Y064176D02*
X054342Y064128D01*
X054385Y064078D01*
X054425Y064026D01*
X054463Y063971D01*
X054497Y063915D01*
X054529Y063857D01*
X054557Y063797D01*
X054582Y063737D01*
X054604Y063674D01*
X054623Y063611D01*
X054638Y063547D01*
X054650Y063482D01*
X054659Y063417D01*
X054664Y063351D01*
X054666Y063285D01*
X054666Y062439D01*
X054390Y062570D02*
X054390Y063153D01*
X054114Y063022D02*
X054114Y062689D01*
X053839Y062781D02*
X053839Y062929D01*
X053563Y062837D02*
X053563Y062733D01*
X054390Y062570D02*
X054388Y062508D01*
X054383Y062447D01*
X054374Y062385D01*
X054362Y062325D01*
X054347Y062265D01*
X054328Y062206D01*
X054306Y062148D01*
X054281Y062092D01*
X054252Y062037D01*
X054221Y061984D01*
X054187Y061932D01*
X054150Y061883D01*
X054110Y061836D01*
X054067Y061791D01*
X053066Y060790D01*
X052902Y061019D02*
X053792Y061909D01*
X053562Y062113D02*
X052698Y061249D01*
X052495Y061478D02*
X053432Y062416D01*
X054297Y061548D02*
X054342Y061596D01*
X054385Y061646D01*
X054425Y061698D01*
X054463Y061753D01*
X054497Y061809D01*
X054529Y061867D01*
X054557Y061927D01*
X054582Y061987D01*
X054604Y062050D01*
X054623Y062113D01*
X054638Y062177D01*
X054650Y062242D01*
X054659Y062307D01*
X054664Y062373D01*
X054666Y062439D01*
X054297Y061548D02*
X051268Y058519D01*
X051268Y057322D01*
X048879Y058205D02*
X048881Y058256D01*
X048886Y058308D01*
X048894Y058359D01*
X048906Y058409D01*
X048921Y058458D01*
X048939Y058506D01*
X048960Y058553D01*
X048984Y058599D01*
X049012Y058642D01*
X049042Y058684D01*
X049074Y058724D01*
X049110Y058761D01*
X049109Y058762D02*
X050537Y060190D01*
X050334Y060420D02*
X048879Y058965D01*
X048650Y059169D02*
X050130Y060649D01*
X049927Y060879D02*
X048420Y059373D01*
X048375Y059325D01*
X048332Y059275D01*
X048292Y059223D01*
X048254Y059168D01*
X048220Y059112D01*
X048188Y059054D01*
X048160Y058994D01*
X048135Y058934D01*
X048113Y058871D01*
X048094Y058808D01*
X048079Y058744D01*
X048067Y058679D01*
X048058Y058614D01*
X048053Y058548D01*
X048051Y058482D01*
X048327Y058389D02*
X048329Y058451D01*
X048334Y058512D01*
X048343Y058574D01*
X048355Y058634D01*
X048370Y058694D01*
X048389Y058753D01*
X048411Y058811D01*
X048436Y058867D01*
X048465Y058922D01*
X048496Y058975D01*
X048530Y059027D01*
X048567Y059076D01*
X048607Y059123D01*
X048650Y059168D01*
X048880Y058965D02*
X048841Y058924D01*
X048804Y058880D01*
X048770Y058834D01*
X048739Y058786D01*
X048711Y058736D01*
X048686Y058685D01*
X048664Y058632D01*
X048646Y058578D01*
X048630Y058523D01*
X048618Y058467D01*
X048610Y058411D01*
X048605Y058354D01*
X048603Y058297D01*
X049926Y060879D02*
X049974Y060924D01*
X050024Y060967D01*
X050076Y061007D01*
X050131Y061045D01*
X050187Y061079D01*
X050245Y061111D01*
X050305Y061139D01*
X050365Y061164D01*
X050428Y061186D01*
X050491Y061205D01*
X050555Y061220D01*
X050620Y061232D01*
X050685Y061241D01*
X050751Y061246D01*
X050817Y061248D01*
X051938Y061248D01*
X052030Y060972D02*
X050910Y060972D01*
X051002Y060696D02*
X052122Y060696D01*
X052175Y060421D02*
X051094Y060421D01*
X050910Y060972D02*
X050848Y060970D01*
X050787Y060965D01*
X050725Y060956D01*
X050665Y060944D01*
X050605Y060929D01*
X050546Y060910D01*
X050488Y060888D01*
X050432Y060863D01*
X050377Y060834D01*
X050324Y060803D01*
X050272Y060769D01*
X050223Y060732D01*
X050176Y060692D01*
X050131Y060649D01*
X050334Y060420D02*
X050375Y060459D01*
X050419Y060496D01*
X050465Y060530D01*
X050513Y060561D01*
X050563Y060589D01*
X050614Y060614D01*
X050667Y060636D01*
X050721Y060654D01*
X050776Y060670D01*
X050832Y060682D01*
X050888Y060690D01*
X050945Y060695D01*
X051002Y060697D01*
X052175Y060421D02*
X052241Y060423D01*
X052307Y060428D01*
X052372Y060437D01*
X052437Y060449D01*
X052501Y060464D01*
X052564Y060483D01*
X052627Y060505D01*
X052687Y060530D01*
X052747Y060558D01*
X052805Y060590D01*
X052861Y060624D01*
X052916Y060662D01*
X052968Y060702D01*
X053018Y060745D01*
X053066Y060790D01*
X052901Y061020D02*
X052856Y060977D01*
X052809Y060937D01*
X052760Y060900D01*
X052708Y060866D01*
X052655Y060835D01*
X052600Y060806D01*
X052544Y060781D01*
X052486Y060759D01*
X052427Y060740D01*
X052367Y060725D01*
X052307Y060713D01*
X052245Y060704D01*
X052184Y060699D01*
X052122Y060697D01*
X052030Y060972D02*
X052087Y060974D01*
X052144Y060979D01*
X052200Y060987D01*
X052256Y060999D01*
X052311Y061015D01*
X052365Y061033D01*
X052418Y061055D01*
X052469Y061080D01*
X052519Y061108D01*
X052567Y061139D01*
X052613Y061173D01*
X052657Y061210D01*
X052698Y061249D01*
X052494Y061479D02*
X052457Y061443D01*
X052417Y061411D01*
X052375Y061381D01*
X052332Y061353D01*
X052286Y061329D01*
X052239Y061308D01*
X052191Y061290D01*
X052142Y061275D01*
X052092Y061263D01*
X052041Y061255D01*
X051989Y061250D01*
X051938Y061248D01*
X053791Y061910D02*
X053834Y061955D01*
X053874Y062002D01*
X053911Y062051D01*
X053945Y062103D01*
X053976Y062156D01*
X054005Y062211D01*
X054030Y062267D01*
X054052Y062325D01*
X054071Y062384D01*
X054086Y062444D01*
X054098Y062504D01*
X054107Y062566D01*
X054112Y062627D01*
X054114Y062689D01*
X053608Y063486D02*
X052068Y065026D01*
X052579Y065340D02*
X052579Y068275D01*
X052973Y068275D02*
X052973Y068728D01*
X052971Y068767D01*
X052965Y068805D01*
X052956Y068842D01*
X052943Y068879D01*
X052926Y068914D01*
X052907Y068947D01*
X052884Y068978D01*
X052858Y069007D01*
X052829Y069033D01*
X052798Y069056D01*
X052765Y069075D01*
X052730Y069092D01*
X052693Y069105D01*
X052656Y069114D01*
X052618Y069120D01*
X052579Y069122D01*
X050610Y069122D01*
X050537Y069122D02*
X050498Y069120D01*
X050460Y069114D01*
X050423Y069105D01*
X050386Y069092D01*
X050351Y069075D01*
X050318Y069056D01*
X050287Y069033D01*
X050258Y069007D01*
X051792Y068275D02*
X051792Y065694D01*
X051281Y065380D02*
X051242Y065421D01*
X051205Y065465D01*
X051171Y065511D01*
X051140Y065559D01*
X051112Y065609D01*
X051087Y065660D01*
X051065Y065713D01*
X051047Y065767D01*
X051031Y065822D01*
X051019Y065878D01*
X051011Y065934D01*
X051006Y065991D01*
X051004Y066048D01*
X051791Y065694D02*
X051793Y065637D01*
X051798Y065580D01*
X051806Y065524D01*
X051818Y065468D01*
X051834Y065413D01*
X051852Y065359D01*
X051874Y065306D01*
X051899Y065255D01*
X051927Y065205D01*
X051958Y065157D01*
X051992Y065111D01*
X052029Y065067D01*
X052068Y065026D01*
X052856Y064672D02*
X053838Y063690D01*
X054067Y063933D02*
X054037Y063963D01*
X054266Y064206D02*
X054297Y064176D01*
X054037Y063963D02*
X053998Y064004D01*
X053961Y064048D01*
X053927Y064094D01*
X053896Y064142D01*
X053868Y064192D01*
X053843Y064243D01*
X053821Y064296D01*
X053803Y064350D01*
X053787Y064405D01*
X053775Y064461D01*
X053767Y064517D01*
X053762Y064574D01*
X053760Y064631D01*
X053760Y068275D01*
X054548Y068275D02*
X054548Y067190D01*
X055335Y067387D02*
X055335Y068275D01*
X054941Y068275D02*
X054941Y068728D01*
X054943Y068767D01*
X054949Y068805D01*
X054958Y068842D01*
X054971Y068879D01*
X054988Y068914D01*
X055007Y068947D01*
X055030Y068978D01*
X055056Y069007D01*
X055085Y069033D01*
X055116Y069056D01*
X055149Y069075D01*
X055184Y069092D01*
X055221Y069105D01*
X055258Y069114D01*
X055296Y069120D01*
X055335Y069122D01*
X057303Y069122D01*
X058091Y068275D02*
X058091Y067190D01*
X056910Y066678D02*
X056912Y066621D01*
X056917Y066564D01*
X056925Y066508D01*
X056937Y066452D01*
X056953Y066397D01*
X056971Y066343D01*
X056993Y066290D01*
X057018Y066239D01*
X057046Y066189D01*
X057077Y066141D01*
X057111Y066095D01*
X057148Y066051D01*
X057187Y066010D01*
X058368Y066522D02*
X058601Y066288D01*
X059270Y066011D02*
X059694Y066011D01*
X059722Y066287D02*
X059786Y066287D01*
X060251Y065781D02*
X061279Y064753D01*
X061508Y064956D02*
X060454Y066010D01*
X060413Y066049D01*
X060369Y066086D01*
X060323Y066120D01*
X060275Y066151D01*
X060225Y066179D01*
X060174Y066204D01*
X060121Y066226D01*
X060067Y066244D01*
X060012Y066260D01*
X059956Y066272D01*
X059900Y066280D01*
X059843Y066285D01*
X059786Y066287D01*
X059722Y066287D02*
X059669Y066289D01*
X059617Y066294D01*
X059565Y066302D01*
X059514Y066314D01*
X059464Y066330D01*
X059415Y066348D01*
X059367Y066370D01*
X059321Y066395D01*
X059276Y066422D01*
X059233Y066453D01*
X059193Y066486D01*
X059154Y066522D01*
X059270Y066011D02*
X059213Y066013D01*
X059156Y066018D01*
X059100Y066026D01*
X059044Y066038D01*
X058989Y066054D01*
X058935Y066072D01*
X058882Y066094D01*
X058831Y066119D01*
X058781Y066147D01*
X058733Y066178D01*
X058687Y066212D01*
X058643Y066249D01*
X058602Y066288D01*
X058368Y066522D02*
X058329Y066563D01*
X058292Y066607D01*
X058258Y066653D01*
X058227Y066701D01*
X058199Y066751D01*
X058174Y066802D01*
X058152Y066855D01*
X058134Y066909D01*
X058118Y066964D01*
X058106Y067020D01*
X058098Y067076D01*
X058093Y067133D01*
X058091Y067190D01*
X059694Y066011D02*
X059745Y066009D01*
X059797Y066004D01*
X059848Y065996D01*
X059898Y065984D01*
X059947Y065969D01*
X059995Y065951D01*
X060042Y065930D01*
X060088Y065906D01*
X060131Y065878D01*
X060173Y065848D01*
X060213Y065816D01*
X060250Y065780D01*
X059519Y064004D02*
X059468Y064006D01*
X059416Y064011D01*
X059365Y064019D01*
X059315Y064031D01*
X059266Y064046D01*
X059218Y064064D01*
X059171Y064085D01*
X059125Y064109D01*
X059082Y064137D01*
X059040Y064167D01*
X059000Y064199D01*
X058963Y064235D01*
X058759Y064005D02*
X058800Y063966D01*
X058844Y063929D01*
X058890Y063895D01*
X058938Y063864D01*
X058988Y063836D01*
X059039Y063811D01*
X059092Y063789D01*
X059146Y063771D01*
X059201Y063755D01*
X059257Y063743D01*
X059313Y063735D01*
X059370Y063730D01*
X059427Y063728D01*
X060219Y064004D02*
X060276Y064002D01*
X060333Y063997D01*
X060389Y063989D01*
X060445Y063977D01*
X060500Y063961D01*
X060554Y063943D01*
X060607Y063921D01*
X060658Y063896D01*
X060708Y063868D01*
X060756Y063837D01*
X060802Y063803D01*
X060846Y063766D01*
X060887Y063727D01*
X061003Y063611D01*
X060774Y063407D02*
X060684Y063497D01*
X060480Y063268D02*
X060544Y063204D01*
X061003Y063611D02*
X061042Y063570D01*
X061079Y063526D01*
X061113Y063480D01*
X061144Y063432D01*
X061172Y063382D01*
X061197Y063331D01*
X061219Y063278D01*
X061237Y063224D01*
X061253Y063169D01*
X061265Y063113D01*
X061273Y063057D01*
X061278Y063000D01*
X061280Y062943D01*
X061831Y064177D02*
X061831Y061141D01*
X061232Y061910D02*
X061275Y061955D01*
X061315Y062002D01*
X061352Y062051D01*
X061386Y062103D01*
X061417Y062156D01*
X061446Y062211D01*
X061471Y062267D01*
X061493Y062325D01*
X061512Y062384D01*
X061527Y062444D01*
X061539Y062504D01*
X061548Y062566D01*
X061553Y062627D01*
X061555Y062689D01*
X061280Y062741D02*
X061278Y062684D01*
X061273Y062627D01*
X061265Y062571D01*
X061253Y062515D01*
X061237Y062460D01*
X061219Y062406D01*
X061197Y062353D01*
X061172Y062302D01*
X061144Y062252D01*
X061113Y062204D01*
X061079Y062158D01*
X061042Y062114D01*
X061003Y062073D01*
X060607Y062464D02*
X060632Y062491D01*
X060654Y062519D01*
X060673Y062550D01*
X060690Y062582D01*
X060704Y062616D01*
X060715Y062650D01*
X060723Y062686D01*
X060727Y062722D01*
X060729Y062758D01*
X061004Y062794D02*
X061002Y062743D01*
X060997Y062691D01*
X060989Y062640D01*
X060977Y062590D01*
X060962Y062541D01*
X060944Y062493D01*
X060923Y062446D01*
X060899Y062400D01*
X060871Y062357D01*
X060841Y062315D01*
X060809Y062275D01*
X060773Y062238D01*
X061004Y062851D02*
X061002Y062902D01*
X060997Y062954D01*
X060989Y063005D01*
X060977Y063055D01*
X060962Y063104D01*
X060944Y063152D01*
X060923Y063199D01*
X060899Y063245D01*
X060871Y063288D01*
X060841Y063330D01*
X060809Y063370D01*
X060773Y063407D01*
X061831Y064177D02*
X061829Y064239D01*
X061824Y064300D01*
X061815Y064362D01*
X061803Y064422D01*
X061788Y064482D01*
X061769Y064541D01*
X061747Y064599D01*
X061722Y064655D01*
X061693Y064710D01*
X061662Y064763D01*
X061628Y064815D01*
X061591Y064864D01*
X061551Y064911D01*
X061508Y064956D01*
X060683Y063497D02*
X060646Y063533D01*
X060606Y063565D01*
X060564Y063595D01*
X060521Y063623D01*
X060475Y063647D01*
X060428Y063668D01*
X060380Y063686D01*
X060331Y063701D01*
X060281Y063713D01*
X060230Y063721D01*
X060178Y063726D01*
X060127Y063728D01*
X060035Y063452D02*
X060084Y063450D01*
X060134Y063444D01*
X060182Y063435D01*
X060230Y063421D01*
X060276Y063404D01*
X060321Y063383D01*
X060364Y063359D01*
X060405Y063332D01*
X060444Y063301D01*
X060480Y063267D01*
X060544Y063203D02*
X060578Y063167D01*
X060609Y063128D01*
X060636Y063087D01*
X060660Y063044D01*
X060681Y062999D01*
X060698Y062953D01*
X060712Y062905D01*
X060721Y062857D01*
X060727Y062807D01*
X060729Y062758D01*
X059620Y061479D02*
X059583Y061443D01*
X059543Y061411D01*
X059501Y061381D01*
X059458Y061353D01*
X059412Y061329D01*
X059365Y061308D01*
X059317Y061290D01*
X059268Y061275D01*
X059218Y061263D01*
X059167Y061255D01*
X059115Y061250D01*
X059064Y061248D01*
X058022Y061248D01*
X058075Y060972D02*
X059117Y060972D01*
X059170Y060696D02*
X058128Y060696D01*
X058181Y060421D02*
X059223Y060421D01*
X058075Y060972D02*
X058013Y060970D01*
X057952Y060965D01*
X057890Y060956D01*
X057830Y060944D01*
X057770Y060929D01*
X057711Y060910D01*
X057653Y060888D01*
X057597Y060863D01*
X057542Y060834D01*
X057489Y060803D01*
X057437Y060769D01*
X057388Y060732D01*
X057341Y060692D01*
X057296Y060649D01*
X057131Y060879D02*
X057179Y060924D01*
X057229Y060967D01*
X057281Y061007D01*
X057336Y061045D01*
X057392Y061079D01*
X057450Y061111D01*
X057510Y061139D01*
X057570Y061164D01*
X057633Y061186D01*
X057696Y061205D01*
X057760Y061220D01*
X057825Y061232D01*
X057890Y061241D01*
X057956Y061246D01*
X058022Y061248D01*
X059170Y060697D02*
X059232Y060699D01*
X059293Y060704D01*
X059355Y060713D01*
X059415Y060725D01*
X059475Y060740D01*
X059534Y060759D01*
X059592Y060781D01*
X059648Y060806D01*
X059703Y060835D01*
X059756Y060866D01*
X059808Y060900D01*
X059857Y060937D01*
X059904Y060977D01*
X059949Y061020D01*
X060114Y060790D02*
X060066Y060745D01*
X060016Y060702D01*
X059964Y060662D01*
X059909Y060624D01*
X059853Y060590D01*
X059795Y060558D01*
X059735Y060530D01*
X059675Y060505D01*
X059612Y060483D01*
X059549Y060464D01*
X059485Y060449D01*
X059420Y060437D01*
X059355Y060428D01*
X059289Y060423D01*
X059223Y060421D01*
X058128Y060697D02*
X058071Y060695D01*
X058014Y060690D01*
X057958Y060682D01*
X057902Y060670D01*
X057847Y060654D01*
X057793Y060636D01*
X057740Y060614D01*
X057689Y060589D01*
X057639Y060561D01*
X057591Y060530D01*
X057545Y060496D01*
X057501Y060459D01*
X057460Y060420D01*
X057625Y060189D02*
X057662Y060225D01*
X057702Y060257D01*
X057744Y060287D01*
X057787Y060315D01*
X057833Y060339D01*
X057880Y060360D01*
X057928Y060378D01*
X057977Y060393D01*
X058027Y060405D01*
X058078Y060413D01*
X058130Y060418D01*
X058181Y060420D01*
X059117Y060972D02*
X059174Y060974D01*
X059231Y060979D01*
X059287Y060987D01*
X059343Y060999D01*
X059398Y061015D01*
X059452Y061033D01*
X059505Y061055D01*
X059556Y061080D01*
X059606Y061108D01*
X059654Y061139D01*
X059700Y061173D01*
X059744Y061210D01*
X059785Y061249D01*
X056084Y059044D02*
X056045Y059003D01*
X056008Y058959D01*
X055974Y058913D01*
X055943Y058865D01*
X055915Y058815D01*
X055890Y058764D01*
X055868Y058711D01*
X055850Y058657D01*
X055834Y058602D01*
X055822Y058546D01*
X055814Y058490D01*
X055809Y058433D01*
X055807Y058376D01*
X055256Y058482D02*
X055256Y045129D01*
X055257Y045129D02*
X055259Y045067D01*
X055264Y045006D01*
X055273Y044944D01*
X055285Y044884D01*
X055300Y044824D01*
X055319Y044765D01*
X055341Y044707D01*
X055366Y044651D01*
X055395Y044596D01*
X055426Y044543D01*
X055460Y044491D01*
X055497Y044442D01*
X055537Y044395D01*
X055580Y044350D01*
X055809Y044514D02*
X055770Y044555D01*
X055733Y044599D01*
X055699Y044645D01*
X055668Y044693D01*
X055640Y044743D01*
X055615Y044794D01*
X055593Y044847D01*
X055575Y044901D01*
X055559Y044956D01*
X055547Y045012D01*
X055539Y045068D01*
X055534Y045125D01*
X055532Y045182D01*
X057217Y042713D02*
X057262Y042670D01*
X057309Y042630D01*
X057358Y042593D01*
X057410Y042559D01*
X057463Y042528D01*
X057518Y042499D01*
X057574Y042474D01*
X057632Y042452D01*
X057691Y042433D01*
X057751Y042418D01*
X057811Y042406D01*
X057873Y042397D01*
X057934Y042392D01*
X057996Y042390D01*
X058049Y042665D02*
X057992Y042667D01*
X057935Y042672D01*
X057879Y042680D01*
X057823Y042692D01*
X057768Y042708D01*
X057714Y042726D01*
X057661Y042748D01*
X057610Y042773D01*
X057560Y042801D01*
X057512Y042832D01*
X057466Y042866D01*
X057422Y042903D01*
X057381Y042942D01*
X057546Y043172D02*
X057583Y043136D01*
X057623Y043104D01*
X057665Y043074D01*
X057708Y043046D01*
X057754Y043022D01*
X057801Y043001D01*
X057849Y042983D01*
X057898Y042968D01*
X057948Y042956D01*
X057999Y042948D01*
X058051Y042943D01*
X058102Y042941D01*
X059353Y042665D02*
X059410Y042663D01*
X059467Y042658D01*
X059523Y042650D01*
X059579Y042638D01*
X059634Y042622D01*
X059688Y042604D01*
X059741Y042582D01*
X059792Y042557D01*
X059842Y042529D01*
X059890Y042498D01*
X059936Y042464D01*
X059980Y042427D01*
X060021Y042388D01*
X059817Y042158D02*
X059780Y042194D01*
X059740Y042226D01*
X059698Y042256D01*
X059655Y042284D01*
X059609Y042308D01*
X059562Y042329D01*
X059514Y042347D01*
X059465Y042362D01*
X059415Y042374D01*
X059364Y042382D01*
X059312Y042387D01*
X059261Y042389D01*
X060996Y041846D02*
X061039Y041801D01*
X061079Y041754D01*
X061116Y041705D01*
X061150Y041653D01*
X061181Y041600D01*
X061210Y041545D01*
X061235Y041489D01*
X061257Y041431D01*
X061276Y041372D01*
X061291Y041312D01*
X061303Y041252D01*
X061312Y041190D01*
X061317Y041129D01*
X061319Y041067D01*
X060813Y039993D02*
X060060Y039241D01*
X059857Y039470D02*
X060583Y040197D01*
X060812Y039994D02*
X060848Y040031D01*
X060880Y040071D01*
X060910Y040113D01*
X060938Y040156D01*
X060962Y040202D01*
X060983Y040249D01*
X061001Y040297D01*
X061016Y040346D01*
X061028Y040396D01*
X061036Y040447D01*
X061041Y040499D01*
X061043Y040550D01*
X060768Y040642D02*
X060766Y040593D01*
X060760Y040543D01*
X060751Y040495D01*
X060737Y040447D01*
X060720Y040401D01*
X060699Y040356D01*
X060675Y040313D01*
X060648Y040272D01*
X060617Y040233D01*
X060583Y040197D01*
X060768Y040947D02*
X060766Y040996D01*
X060760Y041046D01*
X060751Y041094D01*
X060737Y041142D01*
X060720Y041188D01*
X060699Y041233D01*
X060675Y041276D01*
X060648Y041317D01*
X060617Y041356D01*
X060583Y041392D01*
X059856Y039471D02*
X059819Y039435D01*
X059779Y039403D01*
X059737Y039373D01*
X059694Y039345D01*
X059648Y039321D01*
X059601Y039300D01*
X059553Y039282D01*
X059504Y039267D01*
X059454Y039255D01*
X059403Y039247D01*
X059351Y039242D01*
X059300Y039240D01*
X058403Y039240D01*
X058496Y038964D02*
X059392Y038964D01*
X060996Y037850D02*
X061039Y037895D01*
X061079Y037942D01*
X061116Y037991D01*
X061150Y038043D01*
X061181Y038096D01*
X061210Y038151D01*
X061235Y038207D01*
X061257Y038265D01*
X061276Y038324D01*
X061291Y038384D01*
X061303Y038444D01*
X061312Y038506D01*
X061317Y038567D01*
X061319Y038629D01*
X060060Y039241D02*
X060019Y039202D01*
X059975Y039165D01*
X059929Y039131D01*
X059881Y039100D01*
X059831Y039072D01*
X059780Y039047D01*
X059727Y039025D01*
X059673Y039007D01*
X059618Y038991D01*
X059562Y038979D01*
X059506Y038971D01*
X059449Y038966D01*
X059392Y038964D01*
X058496Y038964D02*
X058445Y038962D01*
X058393Y038957D01*
X058342Y038949D01*
X058292Y038937D01*
X058243Y038922D01*
X058195Y038904D01*
X058148Y038883D01*
X058102Y038859D01*
X058059Y038831D01*
X058017Y038801D01*
X057977Y038769D01*
X057940Y038733D01*
X057735Y038963D02*
X057776Y039002D01*
X057820Y039039D01*
X057866Y039073D01*
X057914Y039104D01*
X057964Y039132D01*
X058015Y039157D01*
X058068Y039179D01*
X058122Y039197D01*
X058177Y039213D01*
X058233Y039225D01*
X058289Y039233D01*
X058346Y039238D01*
X058403Y039240D01*
X056452Y048339D02*
X056407Y048387D01*
X056364Y048437D01*
X056324Y048489D01*
X056286Y048544D01*
X056252Y048600D01*
X056220Y048658D01*
X056192Y048718D01*
X056167Y048778D01*
X056145Y048841D01*
X056126Y048904D01*
X056111Y048968D01*
X056099Y049033D01*
X056090Y049098D01*
X056085Y049164D01*
X056083Y049230D01*
X049155Y048436D02*
X049116Y048477D01*
X049079Y048521D01*
X049045Y048567D01*
X049014Y048615D01*
X048986Y048665D01*
X048961Y048716D01*
X048939Y048769D01*
X048921Y048823D01*
X048905Y048878D01*
X048893Y048934D01*
X048885Y048990D01*
X048880Y049047D01*
X048878Y049104D01*
X041950Y048440D02*
X041911Y048481D01*
X041874Y048525D01*
X041840Y048571D01*
X041809Y048619D01*
X041781Y048669D01*
X041756Y048720D01*
X041734Y048773D01*
X041716Y048827D01*
X041700Y048882D01*
X041688Y048938D01*
X041680Y048994D01*
X041675Y049051D01*
X041673Y049108D01*
X034706Y048483D02*
X034667Y048524D01*
X034630Y048568D01*
X034596Y048614D01*
X034565Y048662D01*
X034537Y048712D01*
X034512Y048763D01*
X034490Y048816D01*
X034472Y048870D01*
X034456Y048925D01*
X034444Y048981D01*
X034436Y049037D01*
X034431Y049094D01*
X034429Y049151D01*
X027502Y048487D02*
X027463Y048528D01*
X027426Y048572D01*
X027392Y048618D01*
X027361Y048666D01*
X027333Y048716D01*
X027308Y048767D01*
X027286Y048820D01*
X027268Y048874D01*
X027252Y048929D01*
X027240Y048985D01*
X027232Y049041D01*
X027227Y049098D01*
X027225Y049155D01*
X020376Y048412D02*
X020337Y048453D01*
X020300Y048497D01*
X020266Y048543D01*
X020235Y048591D01*
X020207Y048641D01*
X020182Y048692D01*
X020160Y048745D01*
X020142Y048799D01*
X020126Y048854D01*
X020114Y048910D01*
X020106Y048966D01*
X020101Y049023D01*
X020099Y049080D01*
X013092Y048495D02*
X013053Y048536D01*
X013016Y048580D01*
X012982Y048626D01*
X012951Y048674D01*
X012923Y048724D01*
X012898Y048775D01*
X012876Y048828D01*
X012858Y048882D01*
X012842Y048937D01*
X012830Y048993D01*
X012822Y049049D01*
X012817Y049106D01*
X012815Y049163D01*
X025020Y063126D02*
X025018Y063177D01*
X025013Y063229D01*
X025005Y063280D01*
X024993Y063330D01*
X024978Y063379D01*
X024960Y063427D01*
X024939Y063474D01*
X024915Y063520D01*
X024887Y063563D01*
X024857Y063605D01*
X024825Y063645D01*
X024789Y063682D01*
X030369Y069122D02*
X030408Y069120D01*
X030446Y069114D01*
X030483Y069105D01*
X030520Y069092D01*
X030555Y069075D01*
X030588Y069056D01*
X030619Y069033D01*
X030648Y069007D01*
X039979Y066522D02*
X040018Y066563D01*
X040055Y066607D01*
X040089Y066653D01*
X040120Y066701D01*
X040148Y066751D01*
X040173Y066802D01*
X040195Y066855D01*
X040213Y066909D01*
X040229Y066964D01*
X040241Y067020D01*
X040249Y067076D01*
X040254Y067133D01*
X040256Y067190D01*
X050538Y060189D02*
X050575Y060225D01*
X050615Y060257D01*
X050657Y060287D01*
X050700Y060315D01*
X050746Y060339D01*
X050793Y060360D01*
X050841Y060378D01*
X050890Y060393D01*
X050940Y060405D01*
X050991Y060413D01*
X051043Y060418D01*
X051094Y060420D01*
X053432Y062416D02*
X053458Y062445D01*
X053482Y062476D01*
X053503Y062509D01*
X053521Y062544D01*
X053536Y062580D01*
X053548Y062617D01*
X053556Y062655D01*
X053561Y062694D01*
X053563Y062733D01*
X054115Y063022D02*
X054113Y063079D01*
X054108Y063136D01*
X054100Y063192D01*
X054088Y063248D01*
X054072Y063303D01*
X054054Y063357D01*
X054032Y063410D01*
X054007Y063461D01*
X053979Y063511D01*
X053948Y063559D01*
X053914Y063605D01*
X053877Y063649D01*
X053838Y063690D01*
X054067Y063932D02*
X054110Y063887D01*
X054150Y063840D01*
X054187Y063791D01*
X054221Y063739D01*
X054252Y063686D01*
X054281Y063631D01*
X054306Y063575D01*
X054328Y063517D01*
X054347Y063458D01*
X054362Y063398D01*
X054374Y063338D01*
X054383Y063276D01*
X054388Y063215D01*
X054390Y063153D01*
X053838Y062929D02*
X053836Y062980D01*
X053831Y063032D01*
X053823Y063083D01*
X053811Y063133D01*
X053796Y063182D01*
X053778Y063230D01*
X053757Y063277D01*
X053733Y063323D01*
X053705Y063366D01*
X053675Y063408D01*
X053643Y063448D01*
X053607Y063485D01*
X053378Y063282D02*
X053412Y063246D01*
X053443Y063207D01*
X053470Y063166D01*
X053494Y063123D01*
X053515Y063078D01*
X053532Y063032D01*
X053546Y062984D01*
X053555Y062936D01*
X053561Y062886D01*
X053563Y062837D01*
X053839Y062781D02*
X053837Y062724D01*
X053832Y062667D01*
X053824Y062611D01*
X053812Y062555D01*
X053796Y062500D01*
X053778Y062446D01*
X053756Y062393D01*
X053731Y062342D01*
X053703Y062292D01*
X053672Y062244D01*
X053638Y062198D01*
X053601Y062154D01*
X053562Y062113D01*
X054036Y064763D02*
X054036Y065955D01*
X052579Y065340D02*
X052581Y065283D01*
X052586Y065226D01*
X052594Y065170D01*
X052606Y065114D01*
X052622Y065059D01*
X052640Y065005D01*
X052662Y064952D01*
X052687Y064901D01*
X052715Y064851D01*
X052746Y064803D01*
X052780Y064757D01*
X052817Y064713D01*
X052856Y064672D01*
X054271Y066522D02*
X054310Y066563D01*
X054347Y066607D01*
X054381Y066653D01*
X054412Y066701D01*
X054440Y066751D01*
X054465Y066802D01*
X054487Y066855D01*
X054505Y066909D01*
X054521Y066964D01*
X054533Y067020D01*
X054541Y067076D01*
X054546Y067133D01*
X054548Y067190D01*
X054270Y066523D02*
X054234Y066484D01*
X054201Y066444D01*
X054170Y066401D01*
X054143Y066356D01*
X054118Y066310D01*
X054096Y066262D01*
X054078Y066213D01*
X054062Y066163D01*
X054050Y066112D01*
X054042Y066060D01*
X054037Y066008D01*
X054035Y065955D01*
X054036Y064763D02*
X054038Y064712D01*
X054043Y064660D01*
X054051Y064609D01*
X054063Y064559D01*
X054078Y064510D01*
X054096Y064462D01*
X054117Y064415D01*
X054141Y064369D01*
X054169Y064326D01*
X054199Y064284D01*
X054231Y064244D01*
X054267Y064207D01*
X055625Y059373D02*
X055580Y059325D01*
X055537Y059275D01*
X055497Y059223D01*
X055459Y059168D01*
X055425Y059112D01*
X055393Y059054D01*
X055365Y058994D01*
X055340Y058934D01*
X055318Y058871D01*
X055299Y058808D01*
X055284Y058744D01*
X055272Y058679D01*
X055263Y058614D01*
X055258Y058548D01*
X055256Y058482D01*
X055532Y058429D02*
X055534Y058491D01*
X055539Y058552D01*
X055548Y058614D01*
X055560Y058674D01*
X055575Y058734D01*
X055594Y058793D01*
X055616Y058851D01*
X055641Y058907D01*
X055670Y058962D01*
X055701Y059015D01*
X055735Y059067D01*
X055772Y059116D01*
X055812Y059163D01*
X055855Y059208D01*
X043364Y039240D02*
X043307Y039238D01*
X043250Y039233D01*
X043194Y039225D01*
X043138Y039213D01*
X043083Y039197D01*
X043029Y039179D01*
X042976Y039157D01*
X042925Y039132D01*
X042875Y039104D01*
X042827Y039073D01*
X042781Y039039D01*
X042737Y039002D01*
X042696Y038963D01*
X048957Y027090D02*
X048959Y027028D01*
X048964Y026967D01*
X048973Y026905D01*
X048985Y026845D01*
X049000Y026785D01*
X049019Y026726D01*
X049041Y026668D01*
X049066Y026612D01*
X049095Y026557D01*
X049126Y026504D01*
X049160Y026452D01*
X049197Y026403D01*
X049237Y026356D01*
X049280Y026311D01*
X056083Y027165D02*
X056085Y027103D01*
X056090Y027042D01*
X056099Y026980D01*
X056111Y026920D01*
X056126Y026860D01*
X056145Y026801D01*
X056167Y026743D01*
X056192Y026687D01*
X056221Y026632D01*
X056252Y026579D01*
X056286Y026527D01*
X056323Y026478D01*
X056363Y026431D01*
X056406Y026386D01*
X031005Y020105D02*
X030964Y020144D01*
X030920Y020181D01*
X030874Y020215D01*
X030826Y020246D01*
X030776Y020274D01*
X030725Y020299D01*
X030672Y020321D01*
X030618Y020339D01*
X030563Y020355D01*
X030507Y020367D01*
X030451Y020375D01*
X030394Y020380D01*
X030337Y020382D01*
X016356Y069007D02*
X016327Y069033D01*
X016296Y069056D01*
X016263Y069075D01*
X016228Y069092D01*
X016191Y069105D01*
X016154Y069114D01*
X016116Y069120D01*
X016077Y069122D01*
D14*
X017239Y067645D02*
X017323Y067704D01*
X017416Y067747D01*
X017516Y067774D01*
X017618Y067783D01*
X017721Y067774D01*
X017820Y067747D01*
X017914Y067704D01*
X017998Y067645D01*
X018071Y067572D01*
X018130Y067488D01*
X018173Y067395D01*
X018200Y067295D01*
X018209Y067193D01*
X018200Y067090D01*
X018173Y066991D01*
X018130Y066897D01*
X018071Y066813D01*
X017998Y066740D01*
X017914Y066681D01*
X017820Y066638D01*
X017721Y066611D01*
X017618Y066602D01*
X017516Y066611D01*
X017416Y066638D01*
X017323Y066681D01*
X017239Y066740D01*
X017166Y066813D01*
X017107Y066897D01*
X017063Y066991D01*
X017037Y067090D01*
X017028Y067193D01*
X017037Y067295D01*
X017063Y067395D01*
X017107Y067488D01*
X017166Y067572D01*
X017239Y067645D01*
X017213Y067619D02*
X018024Y067619D01*
X018078Y067561D02*
X017158Y067561D01*
X017118Y067504D02*
X018119Y067504D01*
X018149Y067446D02*
X017087Y067446D01*
X017062Y067388D02*
X018175Y067388D01*
X018190Y067331D02*
X017046Y067331D01*
X017035Y067273D02*
X018202Y067273D01*
X018207Y067216D02*
X017030Y067216D01*
X017031Y067158D02*
X018206Y067158D01*
X018201Y067101D02*
X017036Y067101D01*
X017049Y067043D02*
X018187Y067043D01*
X018171Y066986D02*
X017066Y066986D01*
X017093Y066928D02*
X018144Y066928D01*
X018111Y066870D02*
X017126Y066870D01*
X017166Y066813D02*
X018071Y066813D01*
X018013Y066755D02*
X017224Y066755D01*
X017299Y066698D02*
X017937Y066698D01*
X017826Y066640D02*
X017411Y066640D01*
X017283Y067676D02*
X017953Y067676D01*
X017850Y067734D02*
X017387Y067734D01*
X019832Y067295D02*
X019823Y067193D01*
X019832Y067090D01*
X019859Y066991D01*
X019902Y066897D01*
X019961Y066813D01*
X020034Y066740D01*
X020118Y066681D01*
X020212Y066638D01*
X020311Y066611D01*
X020414Y066602D01*
X020516Y066611D01*
X020616Y066638D01*
X020709Y066681D01*
X020793Y066740D01*
X020866Y066813D01*
X020925Y066897D01*
X020969Y066991D01*
X020995Y067090D01*
X021004Y067193D01*
X020995Y067295D01*
X020969Y067395D01*
X020925Y067488D01*
X020866Y067572D01*
X020793Y067645D01*
X020709Y067704D01*
X020616Y067747D01*
X020516Y067774D01*
X020414Y067783D01*
X020311Y067774D01*
X020212Y067747D01*
X020118Y067704D01*
X020034Y067645D01*
X019961Y067572D01*
X019902Y067488D01*
X019859Y067395D01*
X019832Y067295D01*
X019830Y067273D02*
X020997Y067273D01*
X021002Y067216D02*
X019825Y067216D01*
X019826Y067158D02*
X021001Y067158D01*
X020996Y067101D02*
X019831Y067101D01*
X019845Y067043D02*
X020983Y067043D01*
X020966Y066986D02*
X019861Y066986D01*
X019888Y066928D02*
X020939Y066928D01*
X020906Y066870D02*
X019921Y066870D01*
X019961Y066813D02*
X020866Y066813D01*
X020808Y066755D02*
X020019Y066755D01*
X020095Y066698D02*
X020733Y066698D01*
X020621Y066640D02*
X020206Y066640D01*
X019842Y067331D02*
X020986Y067331D01*
X020970Y067388D02*
X019857Y067388D01*
X019883Y067446D02*
X020945Y067446D01*
X020914Y067504D02*
X019913Y067504D01*
X019954Y067561D02*
X020874Y067561D01*
X020820Y067619D02*
X020008Y067619D01*
X020079Y067676D02*
X020749Y067676D01*
X020645Y067734D02*
X020182Y067734D01*
X031319Y067193D02*
X031328Y067295D01*
X031355Y067395D01*
X031398Y067488D01*
X031457Y067572D01*
X031530Y067645D01*
X031614Y067704D01*
X031708Y067747D01*
X031807Y067774D01*
X031910Y067783D01*
X032012Y067774D01*
X032112Y067747D01*
X032205Y067704D01*
X032289Y067645D01*
X032362Y067572D01*
X032421Y067488D01*
X032465Y067395D01*
X032491Y067295D01*
X032500Y067193D01*
X032491Y067090D01*
X032465Y066991D01*
X032421Y066897D01*
X032362Y066813D01*
X032289Y066740D01*
X032205Y066681D01*
X032112Y066638D01*
X032012Y066611D01*
X031910Y066602D01*
X031807Y066611D01*
X031708Y066638D01*
X031614Y066681D01*
X031530Y066740D01*
X031457Y066813D01*
X031398Y066897D01*
X031355Y066991D01*
X031328Y067090D01*
X031319Y067193D01*
X031321Y067216D02*
X032498Y067216D01*
X032493Y067273D02*
X031326Y067273D01*
X031338Y067331D02*
X032482Y067331D01*
X032466Y067388D02*
X031353Y067388D01*
X031379Y067446D02*
X032441Y067446D01*
X032410Y067504D02*
X031409Y067504D01*
X031450Y067561D02*
X032370Y067561D01*
X032316Y067619D02*
X031504Y067619D01*
X031575Y067676D02*
X032245Y067676D01*
X032141Y067734D02*
X031678Y067734D01*
X031322Y067158D02*
X032497Y067158D01*
X032492Y067101D02*
X031327Y067101D01*
X031341Y067043D02*
X032479Y067043D01*
X032462Y066986D02*
X031357Y066986D01*
X031384Y066928D02*
X032435Y066928D01*
X032402Y066870D02*
X031417Y066870D01*
X031457Y066813D02*
X032362Y066813D01*
X032304Y066755D02*
X031515Y066755D01*
X031591Y066698D02*
X032229Y066698D01*
X032117Y066640D02*
X031702Y066640D01*
X034123Y067090D02*
X034114Y067193D01*
X034123Y067295D01*
X034150Y067395D01*
X034194Y067488D01*
X034253Y067572D01*
X034325Y067645D01*
X034410Y067704D01*
X034503Y067747D01*
X034602Y067774D01*
X034705Y067783D01*
X034808Y067774D01*
X034907Y067747D01*
X035000Y067704D01*
X035085Y067645D01*
X035157Y067572D01*
X035216Y067488D01*
X035260Y067395D01*
X035287Y067295D01*
X035296Y067193D01*
X035287Y067090D01*
X035260Y066991D01*
X035216Y066897D01*
X035157Y066813D01*
X034253Y066813D01*
X034194Y066897D01*
X034150Y066991D01*
X034123Y067090D01*
X034122Y067101D02*
X035288Y067101D01*
X035293Y067158D02*
X034117Y067158D01*
X034116Y067216D02*
X035294Y067216D01*
X035288Y067273D02*
X034122Y067273D01*
X034133Y067331D02*
X035277Y067331D01*
X035262Y067388D02*
X034148Y067388D01*
X034174Y067446D02*
X035236Y067446D01*
X035205Y067504D02*
X034205Y067504D01*
X034245Y067561D02*
X035165Y067561D01*
X035111Y067619D02*
X034299Y067619D01*
X034370Y067676D02*
X035040Y067676D01*
X034936Y067734D02*
X034474Y067734D01*
X034136Y067043D02*
X035274Y067043D01*
X035258Y066986D02*
X034152Y066986D01*
X034179Y066928D02*
X035231Y066928D01*
X035198Y066870D02*
X034212Y066870D01*
X034253Y066813D02*
X034325Y066740D01*
X034410Y066681D01*
X034503Y066638D01*
X034602Y066611D01*
X034705Y066602D01*
X034808Y066611D01*
X034907Y066638D01*
X035000Y066681D01*
X035085Y066740D01*
X035157Y066813D01*
X035100Y066755D02*
X034310Y066755D01*
X034386Y066698D02*
X035024Y066698D01*
X034913Y066640D02*
X034497Y066640D01*
X045610Y067193D02*
X045619Y067295D01*
X045646Y067395D01*
X045690Y067488D01*
X045749Y067572D01*
X045821Y067645D01*
X045906Y067704D01*
X045999Y067747D01*
X046099Y067774D01*
X046201Y067783D01*
X046304Y067774D01*
X046403Y067747D01*
X046496Y067704D01*
X046581Y067645D01*
X046653Y067572D01*
X046712Y067488D01*
X046756Y067395D01*
X046783Y067295D01*
X046792Y067193D01*
X046783Y067090D01*
X046756Y066991D01*
X046712Y066897D01*
X046653Y066813D01*
X045749Y066813D01*
X045690Y066897D01*
X045646Y066991D01*
X045619Y067090D01*
X045610Y067193D01*
X045613Y067216D02*
X046790Y067216D01*
X046785Y067273D02*
X045618Y067273D01*
X045629Y067331D02*
X046773Y067331D01*
X046758Y067388D02*
X045644Y067388D01*
X045670Y067446D02*
X046732Y067446D01*
X046701Y067504D02*
X045701Y067504D01*
X045741Y067561D02*
X046661Y067561D01*
X046607Y067619D02*
X045795Y067619D01*
X045866Y067676D02*
X046536Y067676D01*
X046432Y067734D02*
X045970Y067734D01*
X045614Y067158D02*
X046789Y067158D01*
X046784Y067101D02*
X045619Y067101D01*
X045632Y067043D02*
X046770Y067043D01*
X046754Y066986D02*
X045648Y066986D01*
X045675Y066928D02*
X046727Y066928D01*
X046694Y066870D02*
X045708Y066870D01*
X045749Y066813D02*
X045821Y066740D01*
X045906Y066681D01*
X045999Y066638D01*
X046099Y066611D01*
X046201Y066602D01*
X046304Y066611D01*
X046403Y066638D01*
X046496Y066681D01*
X046581Y066740D01*
X046653Y066813D01*
X046596Y066755D02*
X045806Y066755D01*
X045882Y066698D02*
X046520Y066698D01*
X046409Y066640D02*
X045993Y066640D01*
X048415Y067090D02*
X048406Y067193D01*
X048415Y067295D01*
X048441Y067395D01*
X048485Y067488D01*
X048544Y067572D01*
X048617Y067645D01*
X048701Y067704D01*
X048794Y067747D01*
X048894Y067774D01*
X048996Y067783D01*
X049099Y067774D01*
X049198Y067747D01*
X049292Y067704D01*
X049376Y067645D01*
X049449Y067572D01*
X049508Y067488D01*
X049551Y067395D01*
X049578Y067295D01*
X049587Y067193D01*
X049578Y067090D01*
X049551Y066991D01*
X049508Y066897D01*
X049449Y066813D01*
X049376Y066740D01*
X049292Y066681D01*
X049198Y066638D01*
X049099Y066611D01*
X048996Y066602D01*
X048894Y066611D01*
X048794Y066638D01*
X048701Y066681D01*
X048617Y066740D01*
X048544Y066813D01*
X048485Y066897D01*
X048441Y066991D01*
X048415Y067090D01*
X048414Y067101D02*
X049579Y067101D01*
X049584Y067158D02*
X048409Y067158D01*
X048408Y067216D02*
X049585Y067216D01*
X049580Y067273D02*
X048413Y067273D01*
X048424Y067331D02*
X049568Y067331D01*
X049553Y067388D02*
X048440Y067388D01*
X048465Y067446D02*
X049527Y067446D01*
X049497Y067504D02*
X048496Y067504D01*
X048536Y067561D02*
X049456Y067561D01*
X049402Y067619D02*
X048590Y067619D01*
X048661Y067676D02*
X049331Y067676D01*
X049228Y067734D02*
X048765Y067734D01*
X048427Y067043D02*
X049565Y067043D01*
X049549Y066986D02*
X048444Y066986D01*
X048471Y066928D02*
X049522Y066928D01*
X049489Y066870D02*
X048504Y066870D01*
X048544Y066813D02*
X049449Y066813D01*
X049391Y066755D02*
X048602Y066755D01*
X048677Y066698D02*
X049315Y066698D01*
X049204Y066640D02*
X048789Y066640D01*
X059902Y067193D02*
X059911Y067295D01*
X059937Y067395D01*
X059981Y067488D01*
X060040Y067572D01*
X060113Y067645D01*
X060197Y067704D01*
X060290Y067747D01*
X060390Y067774D01*
X060492Y067783D01*
X060595Y067774D01*
X060694Y067747D01*
X060788Y067704D01*
X060872Y067645D01*
X060945Y067572D01*
X061004Y067488D01*
X061047Y067395D01*
X061074Y067295D01*
X061083Y067193D01*
X061074Y067090D01*
X061047Y066991D01*
X061004Y066897D01*
X060945Y066813D01*
X060872Y066740D01*
X060788Y066681D01*
X060694Y066638D01*
X060595Y066611D01*
X060492Y066602D01*
X060390Y066611D01*
X060290Y066638D01*
X060197Y066681D01*
X060113Y066740D01*
X060040Y066813D01*
X059981Y066897D01*
X059937Y066991D01*
X059911Y067090D01*
X059902Y067193D01*
X059904Y067216D02*
X061081Y067216D01*
X061076Y067273D02*
X059909Y067273D01*
X059920Y067331D02*
X061064Y067331D01*
X061049Y067388D02*
X059936Y067388D01*
X059961Y067446D02*
X061023Y067446D01*
X060993Y067504D02*
X059992Y067504D01*
X060032Y067561D02*
X060952Y067561D01*
X060898Y067619D02*
X060087Y067619D01*
X060157Y067676D02*
X060827Y067676D01*
X060724Y067734D02*
X060261Y067734D01*
X059905Y067158D02*
X061080Y067158D01*
X061075Y067101D02*
X059910Y067101D01*
X059923Y067043D02*
X061061Y067043D01*
X061045Y066986D02*
X059940Y066986D01*
X059967Y066928D02*
X061018Y066928D01*
X060985Y066870D02*
X060000Y066870D01*
X060040Y066813D02*
X060945Y066813D01*
X060887Y066755D02*
X060098Y066755D01*
X060173Y066698D02*
X060811Y066698D01*
X060700Y066640D02*
X060285Y066640D01*
X006713Y067193D02*
X006704Y067090D01*
X006677Y066991D01*
X006634Y066897D01*
X006575Y066813D01*
X006502Y066740D01*
X006418Y066681D01*
X006324Y066638D01*
X006225Y066611D01*
X006122Y066602D01*
X006020Y066611D01*
X005920Y066638D01*
X005827Y066681D01*
X005743Y066740D01*
X005670Y066813D01*
X005611Y066897D01*
X005567Y066991D01*
X005541Y067090D01*
X005532Y067193D01*
X005541Y067295D01*
X005567Y067395D01*
X005611Y067488D01*
X005670Y067572D01*
X005743Y067645D01*
X005827Y067704D01*
X005920Y067747D01*
X006020Y067774D01*
X006122Y067783D01*
X006225Y067774D01*
X006324Y067747D01*
X006418Y067704D01*
X006502Y067645D01*
X006575Y067572D01*
X006634Y067488D01*
X006677Y067395D01*
X006704Y067295D01*
X006713Y067193D01*
X006711Y067216D02*
X005534Y067216D01*
X005539Y067273D02*
X006706Y067273D01*
X006694Y067331D02*
X005550Y067331D01*
X005566Y067388D02*
X006679Y067388D01*
X006653Y067446D02*
X005591Y067446D01*
X005622Y067504D02*
X006623Y067504D01*
X006582Y067561D02*
X005662Y067561D01*
X005716Y067619D02*
X006528Y067619D01*
X006457Y067676D02*
X005787Y067676D01*
X005891Y067734D02*
X006354Y067734D01*
X006710Y067158D02*
X005535Y067158D01*
X005540Y067101D02*
X006705Y067101D01*
X006691Y067043D02*
X005553Y067043D01*
X005570Y066986D02*
X006675Y066986D01*
X006648Y066928D02*
X005597Y066928D01*
X005630Y066870D02*
X006615Y066870D01*
X006575Y066813D02*
X005670Y066813D01*
X005728Y066755D02*
X006517Y066755D01*
X006441Y066698D02*
X005803Y066698D01*
X005915Y066640D02*
X006330Y066640D01*
M02*
