G75*
%MOIN*%
%OFA0B0*%
%FSLAX24Y24*%
%IPPOS*%
%LPD*%
%AMOC8*
5,1,8,0,0,1.08239X$1,22.5*
%
%ADD10C,0.0012*%
%ADD11C,0.0000*%
D10*
X004587Y003452D02*
X062067Y003452D01*
X062067Y007822D01*
X056441Y007822D01*
X056443Y007849D01*
X056449Y007876D01*
X056458Y007902D01*
X056471Y007926D01*
X056487Y007949D01*
X056506Y007968D01*
X056528Y007985D01*
X056552Y007999D01*
X056577Y008009D01*
X056604Y008016D01*
X056631Y008019D01*
X056659Y008018D01*
X056686Y008013D01*
X056712Y008005D01*
X056736Y007993D01*
X056759Y007977D01*
X056780Y007959D01*
X056797Y007938D01*
X056812Y007914D01*
X056823Y007889D01*
X056831Y007863D01*
X056835Y007836D01*
X056835Y007808D01*
X056831Y007781D01*
X056823Y007755D01*
X056812Y007730D01*
X056797Y007706D01*
X056780Y007685D01*
X056759Y007667D01*
X056737Y007651D01*
X056712Y007639D01*
X056686Y007631D01*
X056659Y007626D01*
X056631Y007625D01*
X056604Y007628D01*
X056577Y007635D01*
X056552Y007645D01*
X056528Y007659D01*
X056506Y007676D01*
X056487Y007695D01*
X056471Y007718D01*
X056458Y007742D01*
X056449Y007768D01*
X056443Y007795D01*
X056441Y007822D01*
X054866Y010185D02*
X054866Y018822D01*
X054866Y029822D01*
X049240Y029822D01*
X049242Y029849D01*
X049248Y029876D01*
X049257Y029902D01*
X049270Y029926D01*
X049286Y029949D01*
X049305Y029968D01*
X049327Y029985D01*
X049351Y029999D01*
X049376Y030009D01*
X049403Y030016D01*
X049430Y030019D01*
X049458Y030018D01*
X049485Y030013D01*
X049511Y030005D01*
X049535Y029993D01*
X049558Y029977D01*
X049579Y029959D01*
X049596Y029938D01*
X049611Y029914D01*
X049622Y029889D01*
X049630Y029863D01*
X049634Y029836D01*
X049634Y029808D01*
X049630Y029781D01*
X049622Y029755D01*
X049611Y029730D01*
X049596Y029706D01*
X049579Y029685D01*
X049558Y029667D01*
X049536Y029651D01*
X049511Y029639D01*
X049485Y029631D01*
X049458Y029626D01*
X049430Y029625D01*
X049403Y029628D01*
X049376Y029635D01*
X049351Y029645D01*
X049327Y029659D01*
X049305Y029676D01*
X049286Y029695D01*
X049270Y029718D01*
X049257Y029742D01*
X049248Y029768D01*
X049242Y029795D01*
X049240Y029822D01*
X047666Y029822D02*
X042040Y029822D01*
X042039Y029822D02*
X042041Y029849D01*
X042047Y029876D01*
X042056Y029902D01*
X042069Y029926D01*
X042085Y029949D01*
X042104Y029968D01*
X042126Y029985D01*
X042150Y029999D01*
X042175Y030009D01*
X042202Y030016D01*
X042229Y030019D01*
X042257Y030018D01*
X042284Y030013D01*
X042310Y030005D01*
X042334Y029993D01*
X042357Y029977D01*
X042378Y029959D01*
X042395Y029938D01*
X042410Y029914D01*
X042421Y029889D01*
X042429Y029863D01*
X042433Y029836D01*
X042433Y029808D01*
X042429Y029781D01*
X042421Y029755D01*
X042410Y029730D01*
X042395Y029706D01*
X042378Y029685D01*
X042357Y029667D01*
X042335Y029651D01*
X042310Y029639D01*
X042284Y029631D01*
X042257Y029626D01*
X042229Y029625D01*
X042202Y029628D01*
X042175Y029635D01*
X042150Y029645D01*
X042126Y029659D01*
X042104Y029676D01*
X042085Y029695D01*
X042069Y029718D01*
X042056Y029742D01*
X042047Y029768D01*
X042041Y029795D01*
X042039Y029822D01*
X040465Y029822D02*
X034839Y029822D01*
X034841Y029849D01*
X034847Y029876D01*
X034856Y029902D01*
X034869Y029926D01*
X034885Y029949D01*
X034904Y029968D01*
X034926Y029985D01*
X034950Y029999D01*
X034975Y030009D01*
X035002Y030016D01*
X035029Y030019D01*
X035057Y030018D01*
X035084Y030013D01*
X035110Y030005D01*
X035134Y029993D01*
X035157Y029977D01*
X035178Y029959D01*
X035195Y029938D01*
X035210Y029914D01*
X035221Y029889D01*
X035229Y029863D01*
X035233Y029836D01*
X035233Y029808D01*
X035229Y029781D01*
X035221Y029755D01*
X035210Y029730D01*
X035195Y029706D01*
X035178Y029685D01*
X035157Y029667D01*
X035135Y029651D01*
X035110Y029639D01*
X035084Y029631D01*
X035057Y029626D01*
X035029Y029625D01*
X035002Y029628D01*
X034975Y029635D01*
X034950Y029645D01*
X034926Y029659D01*
X034904Y029676D01*
X034885Y029695D01*
X034869Y029718D01*
X034856Y029742D01*
X034847Y029768D01*
X034841Y029795D01*
X034839Y029822D01*
X033264Y029822D02*
X027638Y029822D01*
X027640Y029849D01*
X027646Y029876D01*
X027655Y029902D01*
X027668Y029926D01*
X027684Y029949D01*
X027703Y029968D01*
X027725Y029985D01*
X027749Y029999D01*
X027774Y030009D01*
X027801Y030016D01*
X027828Y030019D01*
X027856Y030018D01*
X027883Y030013D01*
X027909Y030005D01*
X027933Y029993D01*
X027956Y029977D01*
X027977Y029959D01*
X027994Y029938D01*
X028009Y029914D01*
X028020Y029889D01*
X028028Y029863D01*
X028032Y029836D01*
X028032Y029808D01*
X028028Y029781D01*
X028020Y029755D01*
X028009Y029730D01*
X027994Y029706D01*
X027977Y029685D01*
X027956Y029667D01*
X027934Y029651D01*
X027909Y029639D01*
X027883Y029631D01*
X027856Y029626D01*
X027828Y029625D01*
X027801Y029628D01*
X027774Y029635D01*
X027749Y029645D01*
X027725Y029659D01*
X027703Y029676D01*
X027684Y029695D01*
X027668Y029718D01*
X027655Y029742D01*
X027646Y029768D01*
X027640Y029795D01*
X027638Y029822D01*
X026063Y029822D02*
X020437Y029822D01*
X020439Y029849D01*
X020445Y029876D01*
X020454Y029902D01*
X020467Y029926D01*
X020483Y029949D01*
X020502Y029968D01*
X020524Y029985D01*
X020548Y029999D01*
X020573Y030009D01*
X020600Y030016D01*
X020627Y030019D01*
X020655Y030018D01*
X020682Y030013D01*
X020708Y030005D01*
X020732Y029993D01*
X020755Y029977D01*
X020776Y029959D01*
X020793Y029938D01*
X020808Y029914D01*
X020819Y029889D01*
X020827Y029863D01*
X020831Y029836D01*
X020831Y029808D01*
X020827Y029781D01*
X020819Y029755D01*
X020808Y029730D01*
X020793Y029706D01*
X020776Y029685D01*
X020755Y029667D01*
X020733Y029651D01*
X020708Y029639D01*
X020682Y029631D01*
X020655Y029626D01*
X020627Y029625D01*
X020600Y029628D01*
X020573Y029635D01*
X020548Y029645D01*
X020524Y029659D01*
X020502Y029676D01*
X020483Y029695D01*
X020467Y029718D01*
X020454Y029742D01*
X020445Y029768D01*
X020439Y029795D01*
X020437Y029822D01*
X018862Y029822D02*
X013236Y029822D01*
X013238Y029849D01*
X013244Y029876D01*
X013253Y029902D01*
X013266Y029926D01*
X013282Y029949D01*
X013301Y029968D01*
X013323Y029985D01*
X013347Y029999D01*
X013372Y030009D01*
X013399Y030016D01*
X013426Y030019D01*
X013454Y030018D01*
X013481Y030013D01*
X013507Y030005D01*
X013531Y029993D01*
X013554Y029977D01*
X013575Y029959D01*
X013592Y029938D01*
X013607Y029914D01*
X013618Y029889D01*
X013626Y029863D01*
X013630Y029836D01*
X013630Y029808D01*
X013626Y029781D01*
X013618Y029755D01*
X013607Y029730D01*
X013592Y029706D01*
X013575Y029685D01*
X013554Y029667D01*
X013532Y029651D01*
X013507Y029639D01*
X013481Y029631D01*
X013454Y029626D01*
X013426Y029625D01*
X013399Y029628D01*
X013372Y029635D01*
X013347Y029645D01*
X013323Y029659D01*
X013301Y029676D01*
X013282Y029695D01*
X013266Y029718D01*
X013253Y029742D01*
X013244Y029768D01*
X013238Y029795D01*
X013236Y029822D01*
X011662Y029822D02*
X006036Y029822D01*
X006038Y029849D01*
X006044Y029876D01*
X006053Y029902D01*
X006066Y029926D01*
X006082Y029949D01*
X006101Y029968D01*
X006123Y029985D01*
X006147Y029999D01*
X006172Y030009D01*
X006199Y030016D01*
X006226Y030019D01*
X006254Y030018D01*
X006281Y030013D01*
X006307Y030005D01*
X006331Y029993D01*
X006354Y029977D01*
X006375Y029959D01*
X006392Y029938D01*
X006407Y029914D01*
X006418Y029889D01*
X006426Y029863D01*
X006430Y029836D01*
X006430Y029808D01*
X006426Y029781D01*
X006418Y029755D01*
X006407Y029730D01*
X006392Y029706D01*
X006375Y029685D01*
X006354Y029667D01*
X006332Y029651D01*
X006307Y029639D01*
X006281Y029631D01*
X006254Y029626D01*
X006226Y029625D01*
X006199Y029628D01*
X006172Y029635D01*
X006147Y029645D01*
X006123Y029659D01*
X006101Y029676D01*
X006082Y029695D01*
X006066Y029718D01*
X006053Y029742D01*
X006044Y029768D01*
X006038Y029795D01*
X006036Y029822D01*
X011662Y029822D02*
X011662Y018822D01*
X017288Y018822D01*
X016894Y018822D02*
X016896Y018849D01*
X016902Y018876D01*
X016911Y018902D01*
X016924Y018926D01*
X016940Y018949D01*
X016959Y018968D01*
X016981Y018985D01*
X017005Y018999D01*
X017030Y019009D01*
X017057Y019016D01*
X017084Y019019D01*
X017112Y019018D01*
X017139Y019013D01*
X017165Y019005D01*
X017189Y018993D01*
X017212Y018977D01*
X017233Y018959D01*
X017250Y018938D01*
X017265Y018914D01*
X017276Y018889D01*
X017284Y018863D01*
X017288Y018836D01*
X017288Y018808D01*
X017284Y018781D01*
X017276Y018755D01*
X017265Y018730D01*
X017250Y018706D01*
X017233Y018685D01*
X017212Y018667D01*
X017190Y018651D01*
X017165Y018639D01*
X017139Y018631D01*
X017112Y018626D01*
X017084Y018625D01*
X017057Y018628D01*
X017030Y018635D01*
X017005Y018645D01*
X016981Y018659D01*
X016959Y018676D01*
X016940Y018695D01*
X016924Y018718D01*
X016911Y018742D01*
X016902Y018768D01*
X016896Y018795D01*
X016894Y018822D01*
X018862Y018822D02*
X024488Y018822D01*
X024095Y018822D02*
X024097Y018849D01*
X024103Y018876D01*
X024112Y018902D01*
X024125Y018926D01*
X024141Y018949D01*
X024160Y018968D01*
X024182Y018985D01*
X024206Y018999D01*
X024231Y019009D01*
X024258Y019016D01*
X024285Y019019D01*
X024313Y019018D01*
X024340Y019013D01*
X024366Y019005D01*
X024390Y018993D01*
X024413Y018977D01*
X024434Y018959D01*
X024451Y018938D01*
X024466Y018914D01*
X024477Y018889D01*
X024485Y018863D01*
X024489Y018836D01*
X024489Y018808D01*
X024485Y018781D01*
X024477Y018755D01*
X024466Y018730D01*
X024451Y018706D01*
X024434Y018685D01*
X024413Y018667D01*
X024391Y018651D01*
X024366Y018639D01*
X024340Y018631D01*
X024313Y018626D01*
X024285Y018625D01*
X024258Y018628D01*
X024231Y018635D01*
X024206Y018645D01*
X024182Y018659D01*
X024160Y018676D01*
X024141Y018695D01*
X024125Y018718D01*
X024112Y018742D01*
X024103Y018768D01*
X024097Y018795D01*
X024095Y018822D01*
X026063Y018822D02*
X031689Y018822D01*
X031295Y018822D02*
X031297Y018849D01*
X031303Y018876D01*
X031312Y018902D01*
X031325Y018926D01*
X031341Y018949D01*
X031360Y018968D01*
X031382Y018985D01*
X031406Y018999D01*
X031431Y019009D01*
X031458Y019016D01*
X031485Y019019D01*
X031513Y019018D01*
X031540Y019013D01*
X031566Y019005D01*
X031590Y018993D01*
X031613Y018977D01*
X031634Y018959D01*
X031651Y018938D01*
X031666Y018914D01*
X031677Y018889D01*
X031685Y018863D01*
X031689Y018836D01*
X031689Y018808D01*
X031685Y018781D01*
X031677Y018755D01*
X031666Y018730D01*
X031651Y018706D01*
X031634Y018685D01*
X031613Y018667D01*
X031591Y018651D01*
X031566Y018639D01*
X031540Y018631D01*
X031513Y018626D01*
X031485Y018625D01*
X031458Y018628D01*
X031431Y018635D01*
X031406Y018645D01*
X031382Y018659D01*
X031360Y018676D01*
X031341Y018695D01*
X031325Y018718D01*
X031312Y018742D01*
X031303Y018768D01*
X031297Y018795D01*
X031295Y018822D01*
X033264Y018822D02*
X038890Y018822D01*
X038496Y018822D02*
X038498Y018849D01*
X038504Y018876D01*
X038513Y018902D01*
X038526Y018926D01*
X038542Y018949D01*
X038561Y018968D01*
X038583Y018985D01*
X038607Y018999D01*
X038632Y019009D01*
X038659Y019016D01*
X038686Y019019D01*
X038714Y019018D01*
X038741Y019013D01*
X038767Y019005D01*
X038791Y018993D01*
X038814Y018977D01*
X038835Y018959D01*
X038852Y018938D01*
X038867Y018914D01*
X038878Y018889D01*
X038886Y018863D01*
X038890Y018836D01*
X038890Y018808D01*
X038886Y018781D01*
X038878Y018755D01*
X038867Y018730D01*
X038852Y018706D01*
X038835Y018685D01*
X038814Y018667D01*
X038792Y018651D01*
X038767Y018639D01*
X038741Y018631D01*
X038714Y018626D01*
X038686Y018625D01*
X038659Y018628D01*
X038632Y018635D01*
X038607Y018645D01*
X038583Y018659D01*
X038561Y018676D01*
X038542Y018695D01*
X038526Y018718D01*
X038513Y018742D01*
X038504Y018768D01*
X038498Y018795D01*
X038496Y018822D01*
X040465Y018822D02*
X046091Y018822D01*
X045697Y018822D02*
X045699Y018849D01*
X045705Y018876D01*
X045714Y018902D01*
X045727Y018926D01*
X045743Y018949D01*
X045762Y018968D01*
X045784Y018985D01*
X045808Y018999D01*
X045833Y019009D01*
X045860Y019016D01*
X045887Y019019D01*
X045915Y019018D01*
X045942Y019013D01*
X045968Y019005D01*
X045992Y018993D01*
X046015Y018977D01*
X046036Y018959D01*
X046053Y018938D01*
X046068Y018914D01*
X046079Y018889D01*
X046087Y018863D01*
X046091Y018836D01*
X046091Y018808D01*
X046087Y018781D01*
X046079Y018755D01*
X046068Y018730D01*
X046053Y018706D01*
X046036Y018685D01*
X046015Y018667D01*
X045993Y018651D01*
X045968Y018639D01*
X045942Y018631D01*
X045915Y018626D01*
X045887Y018625D01*
X045860Y018628D01*
X045833Y018635D01*
X045808Y018645D01*
X045784Y018659D01*
X045762Y018676D01*
X045743Y018695D01*
X045727Y018718D01*
X045714Y018742D01*
X045705Y018768D01*
X045699Y018795D01*
X045697Y018822D01*
X047666Y018822D02*
X053292Y018822D01*
X052898Y018822D02*
X052900Y018849D01*
X052906Y018876D01*
X052915Y018902D01*
X052928Y018926D01*
X052944Y018949D01*
X052963Y018968D01*
X052985Y018985D01*
X053009Y018999D01*
X053034Y019009D01*
X053061Y019016D01*
X053088Y019019D01*
X053116Y019018D01*
X053143Y019013D01*
X053169Y019005D01*
X053193Y018993D01*
X053216Y018977D01*
X053237Y018959D01*
X053254Y018938D01*
X053269Y018914D01*
X053280Y018889D01*
X053288Y018863D01*
X053292Y018836D01*
X053292Y018808D01*
X053288Y018781D01*
X053280Y018755D01*
X053269Y018730D01*
X053254Y018706D01*
X053237Y018685D01*
X053216Y018667D01*
X053194Y018651D01*
X053169Y018639D01*
X053143Y018631D01*
X053116Y018626D01*
X053088Y018625D01*
X053061Y018628D01*
X053034Y018635D01*
X053009Y018645D01*
X052985Y018659D01*
X052963Y018676D01*
X052944Y018695D01*
X052928Y018718D01*
X052915Y018742D01*
X052906Y018768D01*
X052900Y018795D01*
X052898Y018822D01*
X054866Y018822D02*
X060492Y018822D01*
X060099Y018822D02*
X060101Y018849D01*
X060107Y018876D01*
X060116Y018902D01*
X060129Y018926D01*
X060145Y018949D01*
X060164Y018968D01*
X060186Y018985D01*
X060210Y018999D01*
X060235Y019009D01*
X060262Y019016D01*
X060289Y019019D01*
X060317Y019018D01*
X060344Y019013D01*
X060370Y019005D01*
X060394Y018993D01*
X060417Y018977D01*
X060438Y018959D01*
X060455Y018938D01*
X060470Y018914D01*
X060481Y018889D01*
X060489Y018863D01*
X060493Y018836D01*
X060493Y018808D01*
X060489Y018781D01*
X060481Y018755D01*
X060470Y018730D01*
X060455Y018706D01*
X060438Y018685D01*
X060417Y018667D01*
X060395Y018651D01*
X060370Y018639D01*
X060344Y018631D01*
X060317Y018626D01*
X060289Y018625D01*
X060262Y018628D01*
X060235Y018635D01*
X060210Y018645D01*
X060186Y018659D01*
X060164Y018676D01*
X060145Y018695D01*
X060129Y018718D01*
X060116Y018742D01*
X060107Y018768D01*
X060101Y018795D01*
X060099Y018822D01*
X054866Y010185D02*
X054864Y010090D01*
X054858Y009995D01*
X054849Y009900D01*
X054835Y009806D01*
X054818Y009713D01*
X054797Y009620D01*
X054773Y009528D01*
X054744Y009437D01*
X054713Y009347D01*
X054677Y009259D01*
X054638Y009172D01*
X054595Y009087D01*
X054550Y009004D01*
X054500Y008923D01*
X054448Y008843D01*
X054392Y008766D01*
X054334Y008691D01*
X054272Y008619D01*
X054207Y008549D01*
X054140Y008482D01*
X054070Y008417D01*
X053998Y008355D01*
X053923Y008297D01*
X053846Y008241D01*
X053766Y008189D01*
X053685Y008139D01*
X053602Y008094D01*
X053517Y008051D01*
X053430Y008012D01*
X053342Y007976D01*
X053252Y007945D01*
X053161Y007916D01*
X053069Y007892D01*
X052976Y007871D01*
X052883Y007854D01*
X052789Y007840D01*
X052694Y007831D01*
X052599Y007825D01*
X052504Y007823D01*
X052504Y007822D02*
X049240Y007822D01*
X049242Y007849D01*
X049248Y007876D01*
X049257Y007902D01*
X049270Y007926D01*
X049286Y007949D01*
X049305Y007968D01*
X049327Y007985D01*
X049351Y007999D01*
X049376Y008009D01*
X049403Y008016D01*
X049430Y008019D01*
X049458Y008018D01*
X049485Y008013D01*
X049511Y008005D01*
X049535Y007993D01*
X049558Y007977D01*
X049579Y007959D01*
X049596Y007938D01*
X049611Y007914D01*
X049622Y007889D01*
X049630Y007863D01*
X049634Y007836D01*
X049634Y007808D01*
X049630Y007781D01*
X049622Y007755D01*
X049611Y007730D01*
X049596Y007706D01*
X049579Y007685D01*
X049558Y007667D01*
X049536Y007651D01*
X049511Y007639D01*
X049485Y007631D01*
X049458Y007626D01*
X049430Y007625D01*
X049403Y007628D01*
X049376Y007635D01*
X049351Y007645D01*
X049327Y007659D01*
X049305Y007676D01*
X049286Y007695D01*
X049270Y007718D01*
X049257Y007742D01*
X049248Y007768D01*
X049242Y007795D01*
X049240Y007822D01*
X047666Y010185D02*
X047666Y018822D01*
X047666Y029822D01*
X047666Y040822D01*
X053292Y040822D01*
X052898Y040822D02*
X052900Y040849D01*
X052906Y040876D01*
X052915Y040902D01*
X052928Y040926D01*
X052944Y040949D01*
X052963Y040968D01*
X052985Y040985D01*
X053009Y040999D01*
X053034Y041009D01*
X053061Y041016D01*
X053088Y041019D01*
X053116Y041018D01*
X053143Y041013D01*
X053169Y041005D01*
X053193Y040993D01*
X053216Y040977D01*
X053237Y040959D01*
X053254Y040938D01*
X053269Y040914D01*
X053280Y040889D01*
X053288Y040863D01*
X053292Y040836D01*
X053292Y040808D01*
X053288Y040781D01*
X053280Y040755D01*
X053269Y040730D01*
X053254Y040706D01*
X053237Y040685D01*
X053216Y040667D01*
X053194Y040651D01*
X053169Y040639D01*
X053143Y040631D01*
X053116Y040626D01*
X053088Y040625D01*
X053061Y040628D01*
X053034Y040635D01*
X053009Y040645D01*
X052985Y040659D01*
X052963Y040676D01*
X052944Y040695D01*
X052928Y040718D01*
X052915Y040742D01*
X052906Y040768D01*
X052900Y040795D01*
X052898Y040822D01*
X054866Y040822D02*
X054866Y029822D01*
X056441Y029822D02*
X062067Y029822D01*
X062067Y007822D01*
X045303Y007822D02*
X042040Y007822D01*
X042039Y007822D02*
X042041Y007849D01*
X042047Y007876D01*
X042056Y007902D01*
X042069Y007926D01*
X042085Y007949D01*
X042104Y007968D01*
X042126Y007985D01*
X042150Y007999D01*
X042175Y008009D01*
X042202Y008016D01*
X042229Y008019D01*
X042257Y008018D01*
X042284Y008013D01*
X042310Y008005D01*
X042334Y007993D01*
X042357Y007977D01*
X042378Y007959D01*
X042395Y007938D01*
X042410Y007914D01*
X042421Y007889D01*
X042429Y007863D01*
X042433Y007836D01*
X042433Y007808D01*
X042429Y007781D01*
X042421Y007755D01*
X042410Y007730D01*
X042395Y007706D01*
X042378Y007685D01*
X042357Y007667D01*
X042335Y007651D01*
X042310Y007639D01*
X042284Y007631D01*
X042257Y007626D01*
X042229Y007625D01*
X042202Y007628D01*
X042175Y007635D01*
X042150Y007645D01*
X042126Y007659D01*
X042104Y007676D01*
X042085Y007695D01*
X042069Y007718D01*
X042056Y007742D01*
X042047Y007768D01*
X042041Y007795D01*
X042039Y007822D01*
X040465Y010185D02*
X040465Y018822D01*
X040465Y029822D01*
X040465Y040822D01*
X046091Y040822D01*
X045697Y040822D02*
X045699Y040849D01*
X045705Y040876D01*
X045714Y040902D01*
X045727Y040926D01*
X045743Y040949D01*
X045762Y040968D01*
X045784Y040985D01*
X045808Y040999D01*
X045833Y041009D01*
X045860Y041016D01*
X045887Y041019D01*
X045915Y041018D01*
X045942Y041013D01*
X045968Y041005D01*
X045992Y040993D01*
X046015Y040977D01*
X046036Y040959D01*
X046053Y040938D01*
X046068Y040914D01*
X046079Y040889D01*
X046087Y040863D01*
X046091Y040836D01*
X046091Y040808D01*
X046087Y040781D01*
X046079Y040755D01*
X046068Y040730D01*
X046053Y040706D01*
X046036Y040685D01*
X046015Y040667D01*
X045993Y040651D01*
X045968Y040639D01*
X045942Y040631D01*
X045915Y040626D01*
X045887Y040625D01*
X045860Y040628D01*
X045833Y040635D01*
X045808Y040645D01*
X045784Y040659D01*
X045762Y040676D01*
X045743Y040695D01*
X045727Y040718D01*
X045714Y040742D01*
X045705Y040768D01*
X045699Y040795D01*
X045697Y040822D01*
X047666Y040822D02*
X047666Y051822D01*
X042040Y051822D01*
X042039Y051822D02*
X042041Y051849D01*
X042047Y051876D01*
X042056Y051902D01*
X042069Y051926D01*
X042085Y051949D01*
X042104Y051968D01*
X042126Y051985D01*
X042150Y051999D01*
X042175Y052009D01*
X042202Y052016D01*
X042229Y052019D01*
X042257Y052018D01*
X042284Y052013D01*
X042310Y052005D01*
X042334Y051993D01*
X042357Y051977D01*
X042378Y051959D01*
X042395Y051938D01*
X042410Y051914D01*
X042421Y051889D01*
X042429Y051863D01*
X042433Y051836D01*
X042433Y051808D01*
X042429Y051781D01*
X042421Y051755D01*
X042410Y051730D01*
X042395Y051706D01*
X042378Y051685D01*
X042357Y051667D01*
X042335Y051651D01*
X042310Y051639D01*
X042284Y051631D01*
X042257Y051626D01*
X042229Y051625D01*
X042202Y051628D01*
X042175Y051635D01*
X042150Y051645D01*
X042126Y051659D01*
X042104Y051676D01*
X042085Y051695D01*
X042069Y051718D01*
X042056Y051742D01*
X042047Y051768D01*
X042041Y051795D01*
X042039Y051822D01*
X040465Y051822D02*
X034839Y051822D01*
X034841Y051849D01*
X034847Y051876D01*
X034856Y051902D01*
X034869Y051926D01*
X034885Y051949D01*
X034904Y051968D01*
X034926Y051985D01*
X034950Y051999D01*
X034975Y052009D01*
X035002Y052016D01*
X035029Y052019D01*
X035057Y052018D01*
X035084Y052013D01*
X035110Y052005D01*
X035134Y051993D01*
X035157Y051977D01*
X035178Y051959D01*
X035195Y051938D01*
X035210Y051914D01*
X035221Y051889D01*
X035229Y051863D01*
X035233Y051836D01*
X035233Y051808D01*
X035229Y051781D01*
X035221Y051755D01*
X035210Y051730D01*
X035195Y051706D01*
X035178Y051685D01*
X035157Y051667D01*
X035135Y051651D01*
X035110Y051639D01*
X035084Y051631D01*
X035057Y051626D01*
X035029Y051625D01*
X035002Y051628D01*
X034975Y051635D01*
X034950Y051645D01*
X034926Y051659D01*
X034904Y051676D01*
X034885Y051695D01*
X034869Y051718D01*
X034856Y051742D01*
X034847Y051768D01*
X034841Y051795D01*
X034839Y051822D01*
X033264Y051822D02*
X027638Y051822D01*
X027640Y051849D01*
X027646Y051876D01*
X027655Y051902D01*
X027668Y051926D01*
X027684Y051949D01*
X027703Y051968D01*
X027725Y051985D01*
X027749Y051999D01*
X027774Y052009D01*
X027801Y052016D01*
X027828Y052019D01*
X027856Y052018D01*
X027883Y052013D01*
X027909Y052005D01*
X027933Y051993D01*
X027956Y051977D01*
X027977Y051959D01*
X027994Y051938D01*
X028009Y051914D01*
X028020Y051889D01*
X028028Y051863D01*
X028032Y051836D01*
X028032Y051808D01*
X028028Y051781D01*
X028020Y051755D01*
X028009Y051730D01*
X027994Y051706D01*
X027977Y051685D01*
X027956Y051667D01*
X027934Y051651D01*
X027909Y051639D01*
X027883Y051631D01*
X027856Y051626D01*
X027828Y051625D01*
X027801Y051628D01*
X027774Y051635D01*
X027749Y051645D01*
X027725Y051659D01*
X027703Y051676D01*
X027684Y051695D01*
X027668Y051718D01*
X027655Y051742D01*
X027646Y051768D01*
X027640Y051795D01*
X027638Y051822D01*
X026063Y051822D02*
X020437Y051822D01*
X020439Y051849D01*
X020445Y051876D01*
X020454Y051902D01*
X020467Y051926D01*
X020483Y051949D01*
X020502Y051968D01*
X020524Y051985D01*
X020548Y051999D01*
X020573Y052009D01*
X020600Y052016D01*
X020627Y052019D01*
X020655Y052018D01*
X020682Y052013D01*
X020708Y052005D01*
X020732Y051993D01*
X020755Y051977D01*
X020776Y051959D01*
X020793Y051938D01*
X020808Y051914D01*
X020819Y051889D01*
X020827Y051863D01*
X020831Y051836D01*
X020831Y051808D01*
X020827Y051781D01*
X020819Y051755D01*
X020808Y051730D01*
X020793Y051706D01*
X020776Y051685D01*
X020755Y051667D01*
X020733Y051651D01*
X020708Y051639D01*
X020682Y051631D01*
X020655Y051626D01*
X020627Y051625D01*
X020600Y051628D01*
X020573Y051635D01*
X020548Y051645D01*
X020524Y051659D01*
X020502Y051676D01*
X020483Y051695D01*
X020467Y051718D01*
X020454Y051742D01*
X020445Y051768D01*
X020439Y051795D01*
X020437Y051822D01*
X018862Y051822D02*
X013236Y051822D01*
X013238Y051849D01*
X013244Y051876D01*
X013253Y051902D01*
X013266Y051926D01*
X013282Y051949D01*
X013301Y051968D01*
X013323Y051985D01*
X013347Y051999D01*
X013372Y052009D01*
X013399Y052016D01*
X013426Y052019D01*
X013454Y052018D01*
X013481Y052013D01*
X013507Y052005D01*
X013531Y051993D01*
X013554Y051977D01*
X013575Y051959D01*
X013592Y051938D01*
X013607Y051914D01*
X013618Y051889D01*
X013626Y051863D01*
X013630Y051836D01*
X013630Y051808D01*
X013626Y051781D01*
X013618Y051755D01*
X013607Y051730D01*
X013592Y051706D01*
X013575Y051685D01*
X013554Y051667D01*
X013532Y051651D01*
X013507Y051639D01*
X013481Y051631D01*
X013454Y051626D01*
X013426Y051625D01*
X013399Y051628D01*
X013372Y051635D01*
X013347Y051645D01*
X013323Y051659D01*
X013301Y051676D01*
X013282Y051695D01*
X013266Y051718D01*
X013253Y051742D01*
X013244Y051768D01*
X013238Y051795D01*
X013236Y051822D01*
X011662Y051822D02*
X006036Y051822D01*
X006038Y051849D01*
X006044Y051876D01*
X006053Y051902D01*
X006066Y051926D01*
X006082Y051949D01*
X006101Y051968D01*
X006123Y051985D01*
X006147Y051999D01*
X006172Y052009D01*
X006199Y052016D01*
X006226Y052019D01*
X006254Y052018D01*
X006281Y052013D01*
X006307Y052005D01*
X006331Y051993D01*
X006354Y051977D01*
X006375Y051959D01*
X006392Y051938D01*
X006407Y051914D01*
X006418Y051889D01*
X006426Y051863D01*
X006430Y051836D01*
X006430Y051808D01*
X006426Y051781D01*
X006418Y051755D01*
X006407Y051730D01*
X006392Y051706D01*
X006375Y051685D01*
X006354Y051667D01*
X006332Y051651D01*
X006307Y051639D01*
X006281Y051631D01*
X006254Y051626D01*
X006226Y051625D01*
X006199Y051628D01*
X006172Y051635D01*
X006147Y051645D01*
X006123Y051659D01*
X006101Y051676D01*
X006082Y051695D01*
X006066Y051718D01*
X006053Y051742D01*
X006044Y051768D01*
X006038Y051795D01*
X006036Y051822D01*
X011662Y051822D02*
X011662Y040822D01*
X017288Y040822D01*
X016894Y040822D02*
X016896Y040849D01*
X016902Y040876D01*
X016911Y040902D01*
X016924Y040926D01*
X016940Y040949D01*
X016959Y040968D01*
X016981Y040985D01*
X017005Y040999D01*
X017030Y041009D01*
X017057Y041016D01*
X017084Y041019D01*
X017112Y041018D01*
X017139Y041013D01*
X017165Y041005D01*
X017189Y040993D01*
X017212Y040977D01*
X017233Y040959D01*
X017250Y040938D01*
X017265Y040914D01*
X017276Y040889D01*
X017284Y040863D01*
X017288Y040836D01*
X017288Y040808D01*
X017284Y040781D01*
X017276Y040755D01*
X017265Y040730D01*
X017250Y040706D01*
X017233Y040685D01*
X017212Y040667D01*
X017190Y040651D01*
X017165Y040639D01*
X017139Y040631D01*
X017112Y040626D01*
X017084Y040625D01*
X017057Y040628D01*
X017030Y040635D01*
X017005Y040645D01*
X016981Y040659D01*
X016959Y040676D01*
X016940Y040695D01*
X016924Y040718D01*
X016911Y040742D01*
X016902Y040768D01*
X016896Y040795D01*
X016894Y040822D01*
X018862Y040822D02*
X024488Y040822D01*
X024095Y040822D02*
X024097Y040849D01*
X024103Y040876D01*
X024112Y040902D01*
X024125Y040926D01*
X024141Y040949D01*
X024160Y040968D01*
X024182Y040985D01*
X024206Y040999D01*
X024231Y041009D01*
X024258Y041016D01*
X024285Y041019D01*
X024313Y041018D01*
X024340Y041013D01*
X024366Y041005D01*
X024390Y040993D01*
X024413Y040977D01*
X024434Y040959D01*
X024451Y040938D01*
X024466Y040914D01*
X024477Y040889D01*
X024485Y040863D01*
X024489Y040836D01*
X024489Y040808D01*
X024485Y040781D01*
X024477Y040755D01*
X024466Y040730D01*
X024451Y040706D01*
X024434Y040685D01*
X024413Y040667D01*
X024391Y040651D01*
X024366Y040639D01*
X024340Y040631D01*
X024313Y040626D01*
X024285Y040625D01*
X024258Y040628D01*
X024231Y040635D01*
X024206Y040645D01*
X024182Y040659D01*
X024160Y040676D01*
X024141Y040695D01*
X024125Y040718D01*
X024112Y040742D01*
X024103Y040768D01*
X024097Y040795D01*
X024095Y040822D01*
X026063Y040822D02*
X031689Y040822D01*
X031295Y040822D02*
X031297Y040849D01*
X031303Y040876D01*
X031312Y040902D01*
X031325Y040926D01*
X031341Y040949D01*
X031360Y040968D01*
X031382Y040985D01*
X031406Y040999D01*
X031431Y041009D01*
X031458Y041016D01*
X031485Y041019D01*
X031513Y041018D01*
X031540Y041013D01*
X031566Y041005D01*
X031590Y040993D01*
X031613Y040977D01*
X031634Y040959D01*
X031651Y040938D01*
X031666Y040914D01*
X031677Y040889D01*
X031685Y040863D01*
X031689Y040836D01*
X031689Y040808D01*
X031685Y040781D01*
X031677Y040755D01*
X031666Y040730D01*
X031651Y040706D01*
X031634Y040685D01*
X031613Y040667D01*
X031591Y040651D01*
X031566Y040639D01*
X031540Y040631D01*
X031513Y040626D01*
X031485Y040625D01*
X031458Y040628D01*
X031431Y040635D01*
X031406Y040645D01*
X031382Y040659D01*
X031360Y040676D01*
X031341Y040695D01*
X031325Y040718D01*
X031312Y040742D01*
X031303Y040768D01*
X031297Y040795D01*
X031295Y040822D01*
X033264Y040822D02*
X038890Y040822D01*
X038496Y040822D02*
X038498Y040849D01*
X038504Y040876D01*
X038513Y040902D01*
X038526Y040926D01*
X038542Y040949D01*
X038561Y040968D01*
X038583Y040985D01*
X038607Y040999D01*
X038632Y041009D01*
X038659Y041016D01*
X038686Y041019D01*
X038714Y041018D01*
X038741Y041013D01*
X038767Y041005D01*
X038791Y040993D01*
X038814Y040977D01*
X038835Y040959D01*
X038852Y040938D01*
X038867Y040914D01*
X038878Y040889D01*
X038886Y040863D01*
X038890Y040836D01*
X038890Y040808D01*
X038886Y040781D01*
X038878Y040755D01*
X038867Y040730D01*
X038852Y040706D01*
X038835Y040685D01*
X038814Y040667D01*
X038792Y040651D01*
X038767Y040639D01*
X038741Y040631D01*
X038714Y040626D01*
X038686Y040625D01*
X038659Y040628D01*
X038632Y040635D01*
X038607Y040645D01*
X038583Y040659D01*
X038561Y040676D01*
X038542Y040695D01*
X038526Y040718D01*
X038513Y040742D01*
X038504Y040768D01*
X038498Y040795D01*
X038496Y040822D01*
X040465Y040822D02*
X040465Y051822D01*
X040465Y060460D01*
X040467Y060555D01*
X040473Y060650D01*
X040482Y060745D01*
X040496Y060839D01*
X040513Y060932D01*
X040534Y061025D01*
X040558Y061117D01*
X040587Y061208D01*
X040618Y061298D01*
X040654Y061386D01*
X040693Y061473D01*
X040736Y061558D01*
X040781Y061641D01*
X040831Y061722D01*
X040883Y061802D01*
X040939Y061879D01*
X040997Y061954D01*
X041059Y062026D01*
X041124Y062096D01*
X041191Y062163D01*
X041261Y062228D01*
X041333Y062290D01*
X041408Y062348D01*
X041485Y062404D01*
X041565Y062456D01*
X041646Y062506D01*
X041729Y062551D01*
X041814Y062594D01*
X041901Y062633D01*
X041989Y062669D01*
X042079Y062700D01*
X042170Y062729D01*
X042262Y062753D01*
X042355Y062774D01*
X042448Y062791D01*
X042542Y062805D01*
X042637Y062814D01*
X042732Y062820D01*
X042827Y062822D01*
X046091Y062822D01*
X045697Y062822D02*
X045699Y062849D01*
X045705Y062876D01*
X045714Y062902D01*
X045727Y062926D01*
X045743Y062949D01*
X045762Y062968D01*
X045784Y062985D01*
X045808Y062999D01*
X045833Y063009D01*
X045860Y063016D01*
X045887Y063019D01*
X045915Y063018D01*
X045942Y063013D01*
X045968Y063005D01*
X045992Y062993D01*
X046015Y062977D01*
X046036Y062959D01*
X046053Y062938D01*
X046068Y062914D01*
X046079Y062889D01*
X046087Y062863D01*
X046091Y062836D01*
X046091Y062808D01*
X046087Y062781D01*
X046079Y062755D01*
X046068Y062730D01*
X046053Y062706D01*
X046036Y062685D01*
X046015Y062667D01*
X045993Y062651D01*
X045968Y062639D01*
X045942Y062631D01*
X045915Y062626D01*
X045887Y062625D01*
X045860Y062628D01*
X045833Y062635D01*
X045808Y062645D01*
X045784Y062659D01*
X045762Y062676D01*
X045743Y062695D01*
X045727Y062718D01*
X045714Y062742D01*
X045705Y062768D01*
X045699Y062795D01*
X045697Y062822D01*
X047666Y060460D02*
X047666Y051822D01*
X049240Y051822D02*
X054866Y051822D01*
X054866Y040822D01*
X060492Y040822D01*
X060099Y040822D02*
X060101Y040849D01*
X060107Y040876D01*
X060116Y040902D01*
X060129Y040926D01*
X060145Y040949D01*
X060164Y040968D01*
X060186Y040985D01*
X060210Y040999D01*
X060235Y041009D01*
X060262Y041016D01*
X060289Y041019D01*
X060317Y041018D01*
X060344Y041013D01*
X060370Y041005D01*
X060394Y040993D01*
X060417Y040977D01*
X060438Y040959D01*
X060455Y040938D01*
X060470Y040914D01*
X060481Y040889D01*
X060489Y040863D01*
X060493Y040836D01*
X060493Y040808D01*
X060489Y040781D01*
X060481Y040755D01*
X060470Y040730D01*
X060455Y040706D01*
X060438Y040685D01*
X060417Y040667D01*
X060395Y040651D01*
X060370Y040639D01*
X060344Y040631D01*
X060317Y040626D01*
X060289Y040625D01*
X060262Y040628D01*
X060235Y040635D01*
X060210Y040645D01*
X060186Y040659D01*
X060164Y040676D01*
X060145Y040695D01*
X060129Y040718D01*
X060116Y040742D01*
X060107Y040768D01*
X060101Y040795D01*
X060099Y040822D01*
X062067Y051822D02*
X062067Y029822D01*
X056441Y029822D02*
X056443Y029855D01*
X056449Y029887D01*
X056458Y029918D01*
X056471Y029948D01*
X056488Y029976D01*
X056508Y030002D01*
X056531Y030026D01*
X056556Y030046D01*
X056584Y030064D01*
X056613Y030078D01*
X056644Y030088D01*
X056676Y030095D01*
X056709Y030098D01*
X056742Y030097D01*
X056774Y030092D01*
X056805Y030083D01*
X056836Y030071D01*
X056864Y030055D01*
X056891Y030036D01*
X056915Y030014D01*
X056936Y029989D01*
X056955Y029962D01*
X056970Y029933D01*
X056981Y029903D01*
X056989Y029871D01*
X056993Y029838D01*
X056993Y029806D01*
X056989Y029773D01*
X056981Y029741D01*
X056970Y029711D01*
X056955Y029682D01*
X056936Y029655D01*
X056915Y029630D01*
X056891Y029608D01*
X056864Y029589D01*
X056836Y029573D01*
X056805Y029561D01*
X056774Y029552D01*
X056742Y029547D01*
X056709Y029546D01*
X056676Y029549D01*
X056644Y029556D01*
X056613Y029566D01*
X056584Y029580D01*
X056556Y029598D01*
X056531Y029618D01*
X056508Y029642D01*
X056488Y029668D01*
X056471Y029696D01*
X056458Y029726D01*
X056449Y029757D01*
X056443Y029789D01*
X056441Y029822D01*
X047665Y010185D02*
X047663Y010090D01*
X047657Y009995D01*
X047648Y009900D01*
X047634Y009806D01*
X047617Y009713D01*
X047596Y009620D01*
X047572Y009528D01*
X047543Y009437D01*
X047512Y009347D01*
X047476Y009259D01*
X047437Y009172D01*
X047394Y009087D01*
X047349Y009004D01*
X047299Y008923D01*
X047247Y008843D01*
X047191Y008766D01*
X047133Y008691D01*
X047071Y008619D01*
X047006Y008549D01*
X046939Y008482D01*
X046869Y008417D01*
X046797Y008355D01*
X046722Y008297D01*
X046645Y008241D01*
X046565Y008189D01*
X046484Y008139D01*
X046401Y008094D01*
X046316Y008051D01*
X046229Y008012D01*
X046141Y007976D01*
X046051Y007945D01*
X045960Y007916D01*
X045868Y007892D01*
X045775Y007871D01*
X045682Y007854D01*
X045588Y007840D01*
X045493Y007831D01*
X045398Y007825D01*
X045303Y007823D01*
X038103Y007822D02*
X034839Y007822D01*
X034841Y007849D01*
X034847Y007876D01*
X034856Y007902D01*
X034869Y007926D01*
X034885Y007949D01*
X034904Y007968D01*
X034926Y007985D01*
X034950Y007999D01*
X034975Y008009D01*
X035002Y008016D01*
X035029Y008019D01*
X035057Y008018D01*
X035084Y008013D01*
X035110Y008005D01*
X035134Y007993D01*
X035157Y007977D01*
X035178Y007959D01*
X035195Y007938D01*
X035210Y007914D01*
X035221Y007889D01*
X035229Y007863D01*
X035233Y007836D01*
X035233Y007808D01*
X035229Y007781D01*
X035221Y007755D01*
X035210Y007730D01*
X035195Y007706D01*
X035178Y007685D01*
X035157Y007667D01*
X035135Y007651D01*
X035110Y007639D01*
X035084Y007631D01*
X035057Y007626D01*
X035029Y007625D01*
X035002Y007628D01*
X034975Y007635D01*
X034950Y007645D01*
X034926Y007659D01*
X034904Y007676D01*
X034885Y007695D01*
X034869Y007718D01*
X034856Y007742D01*
X034847Y007768D01*
X034841Y007795D01*
X034839Y007822D01*
X033264Y010185D02*
X033264Y018822D01*
X033264Y029822D01*
X033264Y040822D01*
X033264Y051822D01*
X033264Y060460D01*
X033266Y060555D01*
X033272Y060650D01*
X033281Y060745D01*
X033295Y060839D01*
X033312Y060932D01*
X033333Y061025D01*
X033357Y061117D01*
X033386Y061208D01*
X033417Y061298D01*
X033453Y061386D01*
X033492Y061473D01*
X033535Y061558D01*
X033580Y061641D01*
X033630Y061722D01*
X033682Y061802D01*
X033738Y061879D01*
X033796Y061954D01*
X033858Y062026D01*
X033923Y062096D01*
X033990Y062163D01*
X034060Y062228D01*
X034132Y062290D01*
X034207Y062348D01*
X034284Y062404D01*
X034364Y062456D01*
X034445Y062506D01*
X034528Y062551D01*
X034613Y062594D01*
X034700Y062633D01*
X034788Y062669D01*
X034878Y062700D01*
X034969Y062729D01*
X035061Y062753D01*
X035154Y062774D01*
X035247Y062791D01*
X035341Y062805D01*
X035436Y062814D01*
X035531Y062820D01*
X035626Y062822D01*
X038890Y062822D01*
X038496Y062822D02*
X038498Y062849D01*
X038504Y062876D01*
X038513Y062902D01*
X038526Y062926D01*
X038542Y062949D01*
X038561Y062968D01*
X038583Y062985D01*
X038607Y062999D01*
X038632Y063009D01*
X038659Y063016D01*
X038686Y063019D01*
X038714Y063018D01*
X038741Y063013D01*
X038767Y063005D01*
X038791Y062993D01*
X038814Y062977D01*
X038835Y062959D01*
X038852Y062938D01*
X038867Y062914D01*
X038878Y062889D01*
X038886Y062863D01*
X038890Y062836D01*
X038890Y062808D01*
X038886Y062781D01*
X038878Y062755D01*
X038867Y062730D01*
X038852Y062706D01*
X038835Y062685D01*
X038814Y062667D01*
X038792Y062651D01*
X038767Y062639D01*
X038741Y062631D01*
X038714Y062626D01*
X038686Y062625D01*
X038659Y062628D01*
X038632Y062635D01*
X038607Y062645D01*
X038583Y062659D01*
X038561Y062676D01*
X038542Y062695D01*
X038526Y062718D01*
X038513Y062742D01*
X038504Y062768D01*
X038498Y062795D01*
X038496Y062822D01*
X031689Y062822D02*
X028425Y062822D01*
X028330Y062820D01*
X028235Y062814D01*
X028140Y062805D01*
X028046Y062791D01*
X027953Y062774D01*
X027860Y062753D01*
X027768Y062729D01*
X027677Y062700D01*
X027587Y062669D01*
X027499Y062633D01*
X027412Y062594D01*
X027327Y062551D01*
X027244Y062506D01*
X027163Y062456D01*
X027083Y062404D01*
X027006Y062348D01*
X026931Y062290D01*
X026859Y062228D01*
X026789Y062163D01*
X026722Y062096D01*
X026657Y062026D01*
X026595Y061954D01*
X026537Y061879D01*
X026481Y061802D01*
X026429Y061722D01*
X026379Y061641D01*
X026334Y061558D01*
X026291Y061473D01*
X026252Y061386D01*
X026216Y061298D01*
X026185Y061208D01*
X026156Y061117D01*
X026132Y061025D01*
X026111Y060932D01*
X026094Y060839D01*
X026080Y060745D01*
X026071Y060650D01*
X026065Y060555D01*
X026063Y060460D01*
X026063Y051822D01*
X026063Y040822D01*
X026063Y029822D01*
X026063Y018822D01*
X026063Y010185D01*
X027638Y007822D02*
X030902Y007822D01*
X030902Y007823D02*
X030997Y007825D01*
X031092Y007831D01*
X031187Y007840D01*
X031281Y007854D01*
X031374Y007871D01*
X031467Y007892D01*
X031559Y007916D01*
X031650Y007945D01*
X031740Y007976D01*
X031828Y008012D01*
X031915Y008051D01*
X032000Y008094D01*
X032083Y008139D01*
X032164Y008189D01*
X032244Y008241D01*
X032321Y008297D01*
X032396Y008355D01*
X032468Y008417D01*
X032538Y008482D01*
X032605Y008549D01*
X032670Y008619D01*
X032732Y008691D01*
X032790Y008766D01*
X032846Y008843D01*
X032898Y008923D01*
X032948Y009004D01*
X032993Y009087D01*
X033036Y009172D01*
X033075Y009259D01*
X033111Y009347D01*
X033142Y009437D01*
X033171Y009528D01*
X033195Y009620D01*
X033216Y009713D01*
X033233Y009806D01*
X033247Y009900D01*
X033256Y009995D01*
X033262Y010090D01*
X033264Y010185D01*
X038103Y007823D02*
X038198Y007825D01*
X038293Y007831D01*
X038388Y007840D01*
X038482Y007854D01*
X038575Y007871D01*
X038668Y007892D01*
X038760Y007916D01*
X038851Y007945D01*
X038941Y007976D01*
X039029Y008012D01*
X039116Y008051D01*
X039201Y008094D01*
X039284Y008139D01*
X039365Y008189D01*
X039445Y008241D01*
X039522Y008297D01*
X039597Y008355D01*
X039669Y008417D01*
X039739Y008482D01*
X039806Y008549D01*
X039871Y008619D01*
X039933Y008691D01*
X039991Y008766D01*
X040047Y008843D01*
X040099Y008923D01*
X040149Y009004D01*
X040194Y009087D01*
X040237Y009172D01*
X040276Y009259D01*
X040312Y009347D01*
X040343Y009437D01*
X040372Y009528D01*
X040396Y009620D01*
X040417Y009713D01*
X040434Y009806D01*
X040448Y009900D01*
X040457Y009995D01*
X040463Y010090D01*
X040465Y010185D01*
X027638Y007822D02*
X027640Y007849D01*
X027646Y007876D01*
X027655Y007902D01*
X027668Y007926D01*
X027684Y007949D01*
X027703Y007968D01*
X027725Y007985D01*
X027749Y007999D01*
X027774Y008009D01*
X027801Y008016D01*
X027828Y008019D01*
X027856Y008018D01*
X027883Y008013D01*
X027909Y008005D01*
X027933Y007993D01*
X027956Y007977D01*
X027977Y007959D01*
X027994Y007938D01*
X028009Y007914D01*
X028020Y007889D01*
X028028Y007863D01*
X028032Y007836D01*
X028032Y007808D01*
X028028Y007781D01*
X028020Y007755D01*
X028009Y007730D01*
X027994Y007706D01*
X027977Y007685D01*
X027956Y007667D01*
X027934Y007651D01*
X027909Y007639D01*
X027883Y007631D01*
X027856Y007626D01*
X027828Y007625D01*
X027801Y007628D01*
X027774Y007635D01*
X027749Y007645D01*
X027725Y007659D01*
X027703Y007676D01*
X027684Y007695D01*
X027668Y007718D01*
X027655Y007742D01*
X027646Y007768D01*
X027640Y007795D01*
X027638Y007822D01*
X023701Y007822D02*
X020437Y007822D01*
X020439Y007849D01*
X020445Y007876D01*
X020454Y007902D01*
X020467Y007926D01*
X020483Y007949D01*
X020502Y007968D01*
X020524Y007985D01*
X020548Y007999D01*
X020573Y008009D01*
X020600Y008016D01*
X020627Y008019D01*
X020655Y008018D01*
X020682Y008013D01*
X020708Y008005D01*
X020732Y007993D01*
X020755Y007977D01*
X020776Y007959D01*
X020793Y007938D01*
X020808Y007914D01*
X020819Y007889D01*
X020827Y007863D01*
X020831Y007836D01*
X020831Y007808D01*
X020827Y007781D01*
X020819Y007755D01*
X020808Y007730D01*
X020793Y007706D01*
X020776Y007685D01*
X020755Y007667D01*
X020733Y007651D01*
X020708Y007639D01*
X020682Y007631D01*
X020655Y007626D01*
X020627Y007625D01*
X020600Y007628D01*
X020573Y007635D01*
X020548Y007645D01*
X020524Y007659D01*
X020502Y007676D01*
X020483Y007695D01*
X020467Y007718D01*
X020454Y007742D01*
X020445Y007768D01*
X020439Y007795D01*
X020437Y007822D01*
X018862Y010185D02*
X018862Y018822D01*
X018862Y029822D01*
X018862Y040822D01*
X018862Y051822D01*
X018862Y060460D01*
X018863Y060460D02*
X018865Y060555D01*
X018871Y060650D01*
X018880Y060745D01*
X018894Y060839D01*
X018911Y060932D01*
X018932Y061025D01*
X018956Y061117D01*
X018985Y061208D01*
X019016Y061298D01*
X019052Y061386D01*
X019091Y061473D01*
X019134Y061558D01*
X019179Y061641D01*
X019229Y061722D01*
X019281Y061802D01*
X019337Y061879D01*
X019395Y061954D01*
X019457Y062026D01*
X019522Y062096D01*
X019589Y062163D01*
X019659Y062228D01*
X019731Y062290D01*
X019806Y062348D01*
X019883Y062404D01*
X019963Y062456D01*
X020044Y062506D01*
X020127Y062551D01*
X020212Y062594D01*
X020299Y062633D01*
X020387Y062669D01*
X020477Y062700D01*
X020568Y062729D01*
X020660Y062753D01*
X020753Y062774D01*
X020846Y062791D01*
X020940Y062805D01*
X021035Y062814D01*
X021130Y062820D01*
X021225Y062822D01*
X024488Y062822D01*
X024095Y062822D02*
X024097Y062849D01*
X024103Y062876D01*
X024112Y062902D01*
X024125Y062926D01*
X024141Y062949D01*
X024160Y062968D01*
X024182Y062985D01*
X024206Y062999D01*
X024231Y063009D01*
X024258Y063016D01*
X024285Y063019D01*
X024313Y063018D01*
X024340Y063013D01*
X024366Y063005D01*
X024390Y062993D01*
X024413Y062977D01*
X024434Y062959D01*
X024451Y062938D01*
X024466Y062914D01*
X024477Y062889D01*
X024485Y062863D01*
X024489Y062836D01*
X024489Y062808D01*
X024485Y062781D01*
X024477Y062755D01*
X024466Y062730D01*
X024451Y062706D01*
X024434Y062685D01*
X024413Y062667D01*
X024391Y062651D01*
X024366Y062639D01*
X024340Y062631D01*
X024313Y062626D01*
X024285Y062625D01*
X024258Y062628D01*
X024231Y062635D01*
X024206Y062645D01*
X024182Y062659D01*
X024160Y062676D01*
X024141Y062695D01*
X024125Y062718D01*
X024112Y062742D01*
X024103Y062768D01*
X024097Y062795D01*
X024095Y062822D01*
X017288Y062822D02*
X014024Y062822D01*
X013929Y062820D01*
X013834Y062814D01*
X013739Y062805D01*
X013645Y062791D01*
X013552Y062774D01*
X013459Y062753D01*
X013367Y062729D01*
X013276Y062700D01*
X013186Y062669D01*
X013098Y062633D01*
X013011Y062594D01*
X012926Y062551D01*
X012843Y062506D01*
X012762Y062456D01*
X012682Y062404D01*
X012605Y062348D01*
X012530Y062290D01*
X012458Y062228D01*
X012388Y062163D01*
X012321Y062096D01*
X012256Y062026D01*
X012194Y061954D01*
X012136Y061879D01*
X012080Y061802D01*
X012028Y061722D01*
X011978Y061641D01*
X011933Y061558D01*
X011890Y061473D01*
X011851Y061386D01*
X011815Y061298D01*
X011784Y061208D01*
X011755Y061117D01*
X011731Y061025D01*
X011710Y060932D01*
X011693Y060839D01*
X011679Y060745D01*
X011670Y060650D01*
X011664Y060555D01*
X011662Y060460D01*
X011662Y051822D01*
X011662Y040822D02*
X011662Y029822D01*
X011662Y018822D02*
X011662Y010185D01*
X013236Y007822D02*
X016500Y007822D01*
X016500Y007823D02*
X016595Y007825D01*
X016690Y007831D01*
X016785Y007840D01*
X016879Y007854D01*
X016972Y007871D01*
X017065Y007892D01*
X017157Y007916D01*
X017248Y007945D01*
X017338Y007976D01*
X017426Y008012D01*
X017513Y008051D01*
X017598Y008094D01*
X017681Y008139D01*
X017762Y008189D01*
X017842Y008241D01*
X017919Y008297D01*
X017994Y008355D01*
X018066Y008417D01*
X018136Y008482D01*
X018203Y008549D01*
X018268Y008619D01*
X018330Y008691D01*
X018388Y008766D01*
X018444Y008843D01*
X018496Y008923D01*
X018546Y009004D01*
X018591Y009087D01*
X018634Y009172D01*
X018673Y009259D01*
X018709Y009347D01*
X018740Y009437D01*
X018769Y009528D01*
X018793Y009620D01*
X018814Y009713D01*
X018831Y009806D01*
X018845Y009900D01*
X018854Y009995D01*
X018860Y010090D01*
X018862Y010185D01*
X023701Y007823D02*
X023796Y007825D01*
X023891Y007831D01*
X023986Y007840D01*
X024080Y007854D01*
X024173Y007871D01*
X024266Y007892D01*
X024358Y007916D01*
X024449Y007945D01*
X024539Y007976D01*
X024627Y008012D01*
X024714Y008051D01*
X024799Y008094D01*
X024882Y008139D01*
X024963Y008189D01*
X025043Y008241D01*
X025120Y008297D01*
X025195Y008355D01*
X025267Y008417D01*
X025337Y008482D01*
X025404Y008549D01*
X025469Y008619D01*
X025531Y008691D01*
X025589Y008766D01*
X025645Y008843D01*
X025697Y008923D01*
X025747Y009004D01*
X025792Y009087D01*
X025835Y009172D01*
X025874Y009259D01*
X025910Y009347D01*
X025941Y009437D01*
X025970Y009528D01*
X025994Y009620D01*
X026015Y009713D01*
X026032Y009806D01*
X026046Y009900D01*
X026055Y009995D01*
X026061Y010090D01*
X026063Y010185D01*
X013236Y007822D02*
X013238Y007849D01*
X013244Y007876D01*
X013253Y007902D01*
X013266Y007926D01*
X013282Y007949D01*
X013301Y007968D01*
X013323Y007985D01*
X013347Y007999D01*
X013372Y008009D01*
X013399Y008016D01*
X013426Y008019D01*
X013454Y008018D01*
X013481Y008013D01*
X013507Y008005D01*
X013531Y007993D01*
X013554Y007977D01*
X013575Y007959D01*
X013592Y007938D01*
X013607Y007914D01*
X013618Y007889D01*
X013626Y007863D01*
X013630Y007836D01*
X013630Y007808D01*
X013626Y007781D01*
X013618Y007755D01*
X013607Y007730D01*
X013592Y007706D01*
X013575Y007685D01*
X013554Y007667D01*
X013532Y007651D01*
X013507Y007639D01*
X013481Y007631D01*
X013454Y007626D01*
X013426Y007625D01*
X013399Y007628D01*
X013372Y007635D01*
X013347Y007645D01*
X013323Y007659D01*
X013301Y007676D01*
X013282Y007695D01*
X013266Y007718D01*
X013253Y007742D01*
X013244Y007768D01*
X013238Y007795D01*
X013236Y007822D01*
X009299Y007822D02*
X006036Y007822D01*
X006038Y007849D01*
X006044Y007876D01*
X006053Y007902D01*
X006066Y007926D01*
X006082Y007949D01*
X006101Y007968D01*
X006123Y007985D01*
X006147Y007999D01*
X006172Y008009D01*
X006199Y008016D01*
X006226Y008019D01*
X006254Y008018D01*
X006281Y008013D01*
X006307Y008005D01*
X006331Y007993D01*
X006354Y007977D01*
X006375Y007959D01*
X006392Y007938D01*
X006407Y007914D01*
X006418Y007889D01*
X006426Y007863D01*
X006430Y007836D01*
X006430Y007808D01*
X006426Y007781D01*
X006418Y007755D01*
X006407Y007730D01*
X006392Y007706D01*
X006375Y007685D01*
X006354Y007667D01*
X006332Y007651D01*
X006307Y007639D01*
X006281Y007631D01*
X006254Y007626D01*
X006226Y007625D01*
X006199Y007628D01*
X006172Y007635D01*
X006147Y007645D01*
X006123Y007659D01*
X006101Y007676D01*
X006082Y007695D01*
X006066Y007718D01*
X006053Y007742D01*
X006044Y007768D01*
X006038Y007795D01*
X006036Y007822D01*
X009299Y007823D02*
X009394Y007825D01*
X009489Y007831D01*
X009584Y007840D01*
X009678Y007854D01*
X009771Y007871D01*
X009864Y007892D01*
X009956Y007916D01*
X010047Y007945D01*
X010137Y007976D01*
X010225Y008012D01*
X010312Y008051D01*
X010397Y008094D01*
X010480Y008139D01*
X010561Y008189D01*
X010641Y008241D01*
X010718Y008297D01*
X010793Y008355D01*
X010865Y008417D01*
X010935Y008482D01*
X011002Y008549D01*
X011067Y008619D01*
X011129Y008691D01*
X011187Y008766D01*
X011243Y008843D01*
X011295Y008923D01*
X011345Y009004D01*
X011390Y009087D01*
X011433Y009172D01*
X011472Y009259D01*
X011508Y009347D01*
X011539Y009437D01*
X011568Y009528D01*
X011592Y009620D01*
X011613Y009713D01*
X011630Y009806D01*
X011644Y009900D01*
X011653Y009995D01*
X011659Y010090D01*
X011661Y010185D01*
X004587Y003452D02*
X004587Y018822D01*
X010087Y018822D01*
X009693Y018822D02*
X009695Y018849D01*
X009701Y018876D01*
X009710Y018902D01*
X009723Y018926D01*
X009739Y018949D01*
X009758Y018968D01*
X009780Y018985D01*
X009804Y018999D01*
X009829Y019009D01*
X009856Y019016D01*
X009883Y019019D01*
X009911Y019018D01*
X009938Y019013D01*
X009964Y019005D01*
X009988Y018993D01*
X010011Y018977D01*
X010032Y018959D01*
X010049Y018938D01*
X010064Y018914D01*
X010075Y018889D01*
X010083Y018863D01*
X010087Y018836D01*
X010087Y018808D01*
X010083Y018781D01*
X010075Y018755D01*
X010064Y018730D01*
X010049Y018706D01*
X010032Y018685D01*
X010011Y018667D01*
X009989Y018651D01*
X009964Y018639D01*
X009938Y018631D01*
X009911Y018626D01*
X009883Y018625D01*
X009856Y018628D01*
X009829Y018635D01*
X009804Y018645D01*
X009780Y018659D01*
X009758Y018676D01*
X009739Y018695D01*
X009723Y018718D01*
X009710Y018742D01*
X009701Y018768D01*
X009695Y018795D01*
X009693Y018822D01*
X004587Y018822D02*
X004587Y040822D01*
X010087Y040822D01*
X009693Y040822D02*
X009695Y040849D01*
X009701Y040876D01*
X009710Y040902D01*
X009723Y040926D01*
X009739Y040949D01*
X009758Y040968D01*
X009780Y040985D01*
X009804Y040999D01*
X009829Y041009D01*
X009856Y041016D01*
X009883Y041019D01*
X009911Y041018D01*
X009938Y041013D01*
X009964Y041005D01*
X009988Y040993D01*
X010011Y040977D01*
X010032Y040959D01*
X010049Y040938D01*
X010064Y040914D01*
X010075Y040889D01*
X010083Y040863D01*
X010087Y040836D01*
X010087Y040808D01*
X010083Y040781D01*
X010075Y040755D01*
X010064Y040730D01*
X010049Y040706D01*
X010032Y040685D01*
X010011Y040667D01*
X009989Y040651D01*
X009964Y040639D01*
X009938Y040631D01*
X009911Y040626D01*
X009883Y040625D01*
X009856Y040628D01*
X009829Y040635D01*
X009804Y040645D01*
X009780Y040659D01*
X009758Y040676D01*
X009739Y040695D01*
X009723Y040718D01*
X009710Y040742D01*
X009701Y040768D01*
X009695Y040795D01*
X009693Y040822D01*
X004587Y040822D02*
X004587Y062822D01*
X010087Y062822D01*
X009693Y062822D02*
X009695Y062849D01*
X009701Y062876D01*
X009710Y062902D01*
X009723Y062926D01*
X009739Y062949D01*
X009758Y062968D01*
X009780Y062985D01*
X009804Y062999D01*
X009829Y063009D01*
X009856Y063016D01*
X009883Y063019D01*
X009911Y063018D01*
X009938Y063013D01*
X009964Y063005D01*
X009988Y062993D01*
X010011Y062977D01*
X010032Y062959D01*
X010049Y062938D01*
X010064Y062914D01*
X010075Y062889D01*
X010083Y062863D01*
X010087Y062836D01*
X010087Y062808D01*
X010083Y062781D01*
X010075Y062755D01*
X010064Y062730D01*
X010049Y062706D01*
X010032Y062685D01*
X010011Y062667D01*
X009989Y062651D01*
X009964Y062639D01*
X009938Y062631D01*
X009911Y062626D01*
X009883Y062625D01*
X009856Y062628D01*
X009829Y062635D01*
X009804Y062645D01*
X009780Y062659D01*
X009758Y062676D01*
X009739Y062695D01*
X009723Y062718D01*
X009710Y062742D01*
X009701Y062768D01*
X009695Y062795D01*
X009693Y062822D01*
X004587Y062822D02*
X004587Y071130D01*
X062067Y071130D01*
X062067Y051822D01*
X056441Y051822D01*
X056443Y051849D01*
X056449Y051876D01*
X056458Y051902D01*
X056471Y051926D01*
X056487Y051949D01*
X056506Y051968D01*
X056528Y051985D01*
X056552Y051999D01*
X056577Y052009D01*
X056604Y052016D01*
X056631Y052019D01*
X056659Y052018D01*
X056686Y052013D01*
X056712Y052005D01*
X056736Y051993D01*
X056759Y051977D01*
X056780Y051959D01*
X056797Y051938D01*
X056812Y051914D01*
X056823Y051889D01*
X056831Y051863D01*
X056835Y051836D01*
X056835Y051808D01*
X056831Y051781D01*
X056823Y051755D01*
X056812Y051730D01*
X056797Y051706D01*
X056780Y051685D01*
X056759Y051667D01*
X056737Y051651D01*
X056712Y051639D01*
X056686Y051631D01*
X056659Y051626D01*
X056631Y051625D01*
X056604Y051628D01*
X056577Y051635D01*
X056552Y051645D01*
X056528Y051659D01*
X056506Y051676D01*
X056487Y051695D01*
X056471Y051718D01*
X056458Y051742D01*
X056449Y051768D01*
X056443Y051795D01*
X056441Y051822D01*
X054866Y051822D02*
X054866Y060460D01*
X054867Y060460D02*
X054869Y060555D01*
X054875Y060650D01*
X054884Y060745D01*
X054898Y060839D01*
X054915Y060932D01*
X054936Y061025D01*
X054960Y061117D01*
X054989Y061208D01*
X055020Y061298D01*
X055056Y061386D01*
X055095Y061473D01*
X055138Y061558D01*
X055183Y061641D01*
X055233Y061722D01*
X055285Y061802D01*
X055341Y061879D01*
X055399Y061954D01*
X055461Y062026D01*
X055526Y062096D01*
X055593Y062163D01*
X055663Y062228D01*
X055735Y062290D01*
X055810Y062348D01*
X055887Y062404D01*
X055967Y062456D01*
X056048Y062506D01*
X056131Y062551D01*
X056216Y062594D01*
X056303Y062633D01*
X056391Y062669D01*
X056481Y062700D01*
X056572Y062729D01*
X056664Y062753D01*
X056757Y062774D01*
X056850Y062791D01*
X056944Y062805D01*
X057039Y062814D01*
X057134Y062820D01*
X057229Y062822D01*
X060492Y062822D01*
X060099Y062822D02*
X060101Y062849D01*
X060107Y062876D01*
X060116Y062902D01*
X060129Y062926D01*
X060145Y062949D01*
X060164Y062968D01*
X060186Y062985D01*
X060210Y062999D01*
X060235Y063009D01*
X060262Y063016D01*
X060289Y063019D01*
X060317Y063018D01*
X060344Y063013D01*
X060370Y063005D01*
X060394Y062993D01*
X060417Y062977D01*
X060438Y062959D01*
X060455Y062938D01*
X060470Y062914D01*
X060481Y062889D01*
X060489Y062863D01*
X060493Y062836D01*
X060493Y062808D01*
X060489Y062781D01*
X060481Y062755D01*
X060470Y062730D01*
X060455Y062706D01*
X060438Y062685D01*
X060417Y062667D01*
X060395Y062651D01*
X060370Y062639D01*
X060344Y062631D01*
X060317Y062626D01*
X060289Y062625D01*
X060262Y062628D01*
X060235Y062635D01*
X060210Y062645D01*
X060186Y062659D01*
X060164Y062676D01*
X060145Y062695D01*
X060129Y062718D01*
X060116Y062742D01*
X060107Y062768D01*
X060101Y062795D01*
X060099Y062822D01*
X053292Y062822D02*
X050028Y062822D01*
X049933Y062820D01*
X049838Y062814D01*
X049743Y062805D01*
X049649Y062791D01*
X049556Y062774D01*
X049463Y062753D01*
X049371Y062729D01*
X049280Y062700D01*
X049190Y062669D01*
X049102Y062633D01*
X049015Y062594D01*
X048930Y062551D01*
X048847Y062506D01*
X048766Y062456D01*
X048686Y062404D01*
X048609Y062348D01*
X048534Y062290D01*
X048462Y062228D01*
X048392Y062163D01*
X048325Y062096D01*
X048260Y062026D01*
X048198Y061954D01*
X048140Y061879D01*
X048084Y061802D01*
X048032Y061722D01*
X047982Y061641D01*
X047937Y061558D01*
X047894Y061473D01*
X047855Y061386D01*
X047819Y061298D01*
X047788Y061208D01*
X047759Y061117D01*
X047735Y061025D01*
X047714Y060932D01*
X047697Y060839D01*
X047683Y060745D01*
X047674Y060650D01*
X047668Y060555D01*
X047666Y060460D01*
X052898Y062822D02*
X052900Y062849D01*
X052906Y062876D01*
X052915Y062902D01*
X052928Y062926D01*
X052944Y062949D01*
X052963Y062968D01*
X052985Y062985D01*
X053009Y062999D01*
X053034Y063009D01*
X053061Y063016D01*
X053088Y063019D01*
X053116Y063018D01*
X053143Y063013D01*
X053169Y063005D01*
X053193Y062993D01*
X053216Y062977D01*
X053237Y062959D01*
X053254Y062938D01*
X053269Y062914D01*
X053280Y062889D01*
X053288Y062863D01*
X053292Y062836D01*
X053292Y062808D01*
X053288Y062781D01*
X053280Y062755D01*
X053269Y062730D01*
X053254Y062706D01*
X053237Y062685D01*
X053216Y062667D01*
X053194Y062651D01*
X053169Y062639D01*
X053143Y062631D01*
X053116Y062626D01*
X053088Y062625D01*
X053061Y062628D01*
X053034Y062635D01*
X053009Y062645D01*
X052985Y062659D01*
X052963Y062676D01*
X052944Y062695D01*
X052928Y062718D01*
X052915Y062742D01*
X052906Y062768D01*
X052900Y062795D01*
X052898Y062822D01*
X049240Y051822D02*
X049242Y051849D01*
X049248Y051876D01*
X049257Y051902D01*
X049270Y051926D01*
X049286Y051949D01*
X049305Y051968D01*
X049327Y051985D01*
X049351Y051999D01*
X049376Y052009D01*
X049403Y052016D01*
X049430Y052019D01*
X049458Y052018D01*
X049485Y052013D01*
X049511Y052005D01*
X049535Y051993D01*
X049558Y051977D01*
X049579Y051959D01*
X049596Y051938D01*
X049611Y051914D01*
X049622Y051889D01*
X049630Y051863D01*
X049634Y051836D01*
X049634Y051808D01*
X049630Y051781D01*
X049622Y051755D01*
X049611Y051730D01*
X049596Y051706D01*
X049579Y051685D01*
X049558Y051667D01*
X049536Y051651D01*
X049511Y051639D01*
X049485Y051631D01*
X049458Y051626D01*
X049430Y051625D01*
X049403Y051628D01*
X049376Y051635D01*
X049351Y051645D01*
X049327Y051659D01*
X049305Y051676D01*
X049286Y051695D01*
X049270Y051718D01*
X049257Y051742D01*
X049248Y051768D01*
X049242Y051795D01*
X049240Y051822D01*
X031295Y062822D02*
X031297Y062849D01*
X031303Y062876D01*
X031312Y062902D01*
X031325Y062926D01*
X031341Y062949D01*
X031360Y062968D01*
X031382Y062985D01*
X031406Y062999D01*
X031431Y063009D01*
X031458Y063016D01*
X031485Y063019D01*
X031513Y063018D01*
X031540Y063013D01*
X031566Y063005D01*
X031590Y062993D01*
X031613Y062977D01*
X031634Y062959D01*
X031651Y062938D01*
X031666Y062914D01*
X031677Y062889D01*
X031685Y062863D01*
X031689Y062836D01*
X031689Y062808D01*
X031685Y062781D01*
X031677Y062755D01*
X031666Y062730D01*
X031651Y062706D01*
X031634Y062685D01*
X031613Y062667D01*
X031591Y062651D01*
X031566Y062639D01*
X031540Y062631D01*
X031513Y062626D01*
X031485Y062625D01*
X031458Y062628D01*
X031431Y062635D01*
X031406Y062645D01*
X031382Y062659D01*
X031360Y062676D01*
X031341Y062695D01*
X031325Y062718D01*
X031312Y062742D01*
X031303Y062768D01*
X031297Y062795D01*
X031295Y062822D01*
X016894Y062822D02*
X016896Y062849D01*
X016902Y062876D01*
X016911Y062902D01*
X016924Y062926D01*
X016940Y062949D01*
X016959Y062968D01*
X016981Y062985D01*
X017005Y062999D01*
X017030Y063009D01*
X017057Y063016D01*
X017084Y063019D01*
X017112Y063018D01*
X017139Y063013D01*
X017165Y063005D01*
X017189Y062993D01*
X017212Y062977D01*
X017233Y062959D01*
X017250Y062938D01*
X017265Y062914D01*
X017276Y062889D01*
X017284Y062863D01*
X017288Y062836D01*
X017288Y062808D01*
X017284Y062781D01*
X017276Y062755D01*
X017265Y062730D01*
X017250Y062706D01*
X017233Y062685D01*
X017212Y062667D01*
X017190Y062651D01*
X017165Y062639D01*
X017139Y062631D01*
X017112Y062626D01*
X017084Y062625D01*
X017057Y062628D01*
X017030Y062635D01*
X017005Y062645D01*
X016981Y062659D01*
X016959Y062676D01*
X016940Y062695D01*
X016924Y062718D01*
X016911Y062742D01*
X016902Y062768D01*
X016896Y062795D01*
X016894Y062822D01*
D11*
X006437Y065067D02*
X006439Y065117D01*
X006445Y065167D01*
X006455Y065216D01*
X006469Y065264D01*
X006486Y065311D01*
X006507Y065356D01*
X006532Y065400D01*
X006560Y065441D01*
X006592Y065480D01*
X006626Y065517D01*
X006663Y065551D01*
X006703Y065581D01*
X006745Y065608D01*
X006789Y065632D01*
X006835Y065653D01*
X006882Y065669D01*
X006930Y065682D01*
X006980Y065691D01*
X007029Y065696D01*
X007080Y065697D01*
X007130Y065694D01*
X007179Y065687D01*
X007228Y065676D01*
X007276Y065661D01*
X007322Y065643D01*
X007367Y065621D01*
X007410Y065595D01*
X007451Y065566D01*
X007490Y065534D01*
X007526Y065499D01*
X007558Y065461D01*
X007588Y065421D01*
X007615Y065378D01*
X007638Y065334D01*
X007657Y065288D01*
X007673Y065240D01*
X007685Y065191D01*
X007693Y065142D01*
X007697Y065092D01*
X007697Y065042D01*
X007693Y064992D01*
X007685Y064943D01*
X007673Y064894D01*
X007657Y064846D01*
X007638Y064800D01*
X007615Y064756D01*
X007588Y064713D01*
X007558Y064673D01*
X007526Y064635D01*
X007490Y064600D01*
X007451Y064568D01*
X007410Y064539D01*
X007367Y064513D01*
X007322Y064491D01*
X007276Y064473D01*
X007228Y064458D01*
X007179Y064447D01*
X007130Y064440D01*
X007080Y064437D01*
X007029Y064438D01*
X006980Y064443D01*
X006930Y064452D01*
X006882Y064465D01*
X006835Y064481D01*
X006789Y064502D01*
X006745Y064526D01*
X006703Y064553D01*
X006663Y064583D01*
X006626Y064617D01*
X006592Y064654D01*
X006560Y064693D01*
X006532Y064734D01*
X006507Y064778D01*
X006486Y064823D01*
X006469Y064870D01*
X006455Y064918D01*
X006445Y064967D01*
X006439Y065017D01*
X006437Y065067D01*
X006437Y005578D02*
X006439Y005628D01*
X006445Y005678D01*
X006455Y005727D01*
X006469Y005775D01*
X006486Y005822D01*
X006507Y005867D01*
X006532Y005911D01*
X006560Y005952D01*
X006592Y005991D01*
X006626Y006028D01*
X006663Y006062D01*
X006703Y006092D01*
X006745Y006119D01*
X006789Y006143D01*
X006835Y006164D01*
X006882Y006180D01*
X006930Y006193D01*
X006980Y006202D01*
X007029Y006207D01*
X007080Y006208D01*
X007130Y006205D01*
X007179Y006198D01*
X007228Y006187D01*
X007276Y006172D01*
X007322Y006154D01*
X007367Y006132D01*
X007410Y006106D01*
X007451Y006077D01*
X007490Y006045D01*
X007526Y006010D01*
X007558Y005972D01*
X007588Y005932D01*
X007615Y005889D01*
X007638Y005845D01*
X007657Y005799D01*
X007673Y005751D01*
X007685Y005702D01*
X007693Y005653D01*
X007697Y005603D01*
X007697Y005553D01*
X007693Y005503D01*
X007685Y005454D01*
X007673Y005405D01*
X007657Y005357D01*
X007638Y005311D01*
X007615Y005267D01*
X007588Y005224D01*
X007558Y005184D01*
X007526Y005146D01*
X007490Y005111D01*
X007451Y005079D01*
X007410Y005050D01*
X007367Y005024D01*
X007322Y005002D01*
X007276Y004984D01*
X007228Y004969D01*
X007179Y004958D01*
X007130Y004951D01*
X007080Y004948D01*
X007029Y004949D01*
X006980Y004954D01*
X006930Y004963D01*
X006882Y004976D01*
X006835Y004992D01*
X006789Y005013D01*
X006745Y005037D01*
X006703Y005064D01*
X006663Y005094D01*
X006626Y005128D01*
X006592Y005165D01*
X006560Y005204D01*
X006532Y005245D01*
X006507Y005289D01*
X006486Y005334D01*
X006469Y005381D01*
X006455Y005429D01*
X006445Y005478D01*
X006439Y005528D01*
X006437Y005578D01*
X058937Y005578D02*
X058939Y005628D01*
X058945Y005678D01*
X058955Y005727D01*
X058969Y005775D01*
X058986Y005822D01*
X059007Y005867D01*
X059032Y005911D01*
X059060Y005952D01*
X059092Y005991D01*
X059126Y006028D01*
X059163Y006062D01*
X059203Y006092D01*
X059245Y006119D01*
X059289Y006143D01*
X059335Y006164D01*
X059382Y006180D01*
X059430Y006193D01*
X059480Y006202D01*
X059529Y006207D01*
X059580Y006208D01*
X059630Y006205D01*
X059679Y006198D01*
X059728Y006187D01*
X059776Y006172D01*
X059822Y006154D01*
X059867Y006132D01*
X059910Y006106D01*
X059951Y006077D01*
X059990Y006045D01*
X060026Y006010D01*
X060058Y005972D01*
X060088Y005932D01*
X060115Y005889D01*
X060138Y005845D01*
X060157Y005799D01*
X060173Y005751D01*
X060185Y005702D01*
X060193Y005653D01*
X060197Y005603D01*
X060197Y005553D01*
X060193Y005503D01*
X060185Y005454D01*
X060173Y005405D01*
X060157Y005357D01*
X060138Y005311D01*
X060115Y005267D01*
X060088Y005224D01*
X060058Y005184D01*
X060026Y005146D01*
X059990Y005111D01*
X059951Y005079D01*
X059910Y005050D01*
X059867Y005024D01*
X059822Y005002D01*
X059776Y004984D01*
X059728Y004969D01*
X059679Y004958D01*
X059630Y004951D01*
X059580Y004948D01*
X059529Y004949D01*
X059480Y004954D01*
X059430Y004963D01*
X059382Y004976D01*
X059335Y004992D01*
X059289Y005013D01*
X059245Y005037D01*
X059203Y005064D01*
X059163Y005094D01*
X059126Y005128D01*
X059092Y005165D01*
X059060Y005204D01*
X059032Y005245D01*
X059007Y005289D01*
X058986Y005334D01*
X058969Y005381D01*
X058955Y005429D01*
X058945Y005478D01*
X058939Y005528D01*
X058937Y005578D01*
X058937Y065067D02*
X058939Y065117D01*
X058945Y065167D01*
X058955Y065216D01*
X058969Y065264D01*
X058986Y065311D01*
X059007Y065356D01*
X059032Y065400D01*
X059060Y065441D01*
X059092Y065480D01*
X059126Y065517D01*
X059163Y065551D01*
X059203Y065581D01*
X059245Y065608D01*
X059289Y065632D01*
X059335Y065653D01*
X059382Y065669D01*
X059430Y065682D01*
X059480Y065691D01*
X059529Y065696D01*
X059580Y065697D01*
X059630Y065694D01*
X059679Y065687D01*
X059728Y065676D01*
X059776Y065661D01*
X059822Y065643D01*
X059867Y065621D01*
X059910Y065595D01*
X059951Y065566D01*
X059990Y065534D01*
X060026Y065499D01*
X060058Y065461D01*
X060088Y065421D01*
X060115Y065378D01*
X060138Y065334D01*
X060157Y065288D01*
X060173Y065240D01*
X060185Y065191D01*
X060193Y065142D01*
X060197Y065092D01*
X060197Y065042D01*
X060193Y064992D01*
X060185Y064943D01*
X060173Y064894D01*
X060157Y064846D01*
X060138Y064800D01*
X060115Y064756D01*
X060088Y064713D01*
X060058Y064673D01*
X060026Y064635D01*
X059990Y064600D01*
X059951Y064568D01*
X059910Y064539D01*
X059867Y064513D01*
X059822Y064491D01*
X059776Y064473D01*
X059728Y064458D01*
X059679Y064447D01*
X059630Y064440D01*
X059580Y064437D01*
X059529Y064438D01*
X059480Y064443D01*
X059430Y064452D01*
X059382Y064465D01*
X059335Y064481D01*
X059289Y064502D01*
X059245Y064526D01*
X059203Y064553D01*
X059163Y064583D01*
X059126Y064617D01*
X059092Y064654D01*
X059060Y064693D01*
X059032Y064734D01*
X059007Y064778D01*
X058986Y064823D01*
X058969Y064870D01*
X058955Y064918D01*
X058945Y064967D01*
X058939Y065017D01*
X058937Y065067D01*
M02*
