G75*
%MOIN*%
%OFA0B0*%
%FSLAX24Y24*%
%IPPOS*%
%LPD*%
%AMOC8*
5,1,8,0,0,1.08239X$1,22.5*
%
%ADD10C,0.0039*%
%ADD11C,0.0080*%
D10*
X002000Y003454D02*
X002001Y007091D01*
X005151Y008910D01*
X008301Y007092D01*
X008301Y003455D01*
X005150Y001636D01*
X002000Y003454D01*
X005603Y008966D02*
X005603Y012603D01*
X008753Y014422D01*
X011903Y012604D01*
X011903Y008966D01*
X008753Y007148D01*
X005603Y008966D01*
X005150Y012659D02*
X002000Y014478D01*
X002001Y018115D01*
X005151Y019934D01*
X008301Y018115D01*
X008301Y014478D01*
X005150Y012659D01*
X009244Y014478D02*
X009245Y018115D01*
X012395Y019934D01*
X015545Y018115D01*
X015545Y014478D01*
X012394Y012659D01*
X009244Y014478D01*
X012847Y012603D02*
X015998Y014422D01*
X019148Y012604D01*
X019147Y008966D01*
X015997Y007148D01*
X012847Y008966D01*
X012847Y012603D01*
X012395Y008910D02*
X009245Y007091D01*
X009244Y003454D01*
X012394Y001636D01*
X015545Y003455D01*
X015545Y007092D01*
X012395Y008910D01*
X016489Y007091D02*
X019639Y008910D01*
X022789Y007092D01*
X022789Y003455D01*
X019638Y001636D01*
X016488Y003454D01*
X016489Y007091D01*
X020091Y008966D02*
X020091Y012603D01*
X023242Y014422D01*
X026392Y012604D01*
X026391Y008966D01*
X023241Y007148D01*
X020091Y008966D01*
X023733Y007091D02*
X026883Y008910D01*
X030033Y007092D01*
X030033Y003455D01*
X026883Y001636D01*
X023733Y003454D01*
X023733Y007091D01*
X027335Y008966D02*
X027335Y012603D01*
X030486Y014422D01*
X033636Y012604D01*
X033635Y008966D01*
X030485Y007148D01*
X027335Y008966D01*
X030977Y007091D02*
X034127Y008910D01*
X037277Y007092D01*
X037277Y003455D01*
X034127Y001636D01*
X030977Y003454D01*
X030977Y007091D01*
X034579Y008966D02*
X034579Y012603D01*
X037730Y014422D01*
X040880Y012604D01*
X040879Y008966D01*
X037729Y007148D01*
X034579Y008966D01*
X034127Y012659D02*
X030977Y014478D01*
X030977Y018115D01*
X034127Y019934D01*
X037277Y018115D01*
X037277Y014478D01*
X034127Y012659D01*
X030033Y014478D02*
X026883Y012659D01*
X023733Y014478D01*
X023733Y018115D01*
X026883Y019934D01*
X030033Y018115D01*
X030033Y014478D01*
X030485Y018171D02*
X033635Y019990D01*
X033636Y023627D01*
X030486Y025445D01*
X027335Y023626D01*
X027335Y019989D01*
X030485Y018171D01*
X034579Y019989D02*
X034579Y023626D01*
X037730Y025445D01*
X040880Y023627D01*
X040879Y019990D01*
X037729Y018171D01*
X034579Y019989D01*
X034127Y023683D02*
X030977Y025501D01*
X030977Y029138D01*
X034127Y030957D01*
X037277Y029139D01*
X037277Y025502D01*
X034127Y023683D01*
X030033Y025502D02*
X026883Y023683D01*
X023733Y025501D01*
X023733Y029138D01*
X026883Y030957D01*
X030033Y029139D01*
X030033Y025502D01*
X030485Y029195D02*
X033635Y031014D01*
X033636Y034651D01*
X030486Y036469D01*
X027335Y034650D01*
X027335Y031013D01*
X030485Y029195D01*
X034575Y031013D02*
X034575Y034650D01*
X037726Y036469D01*
X040876Y034651D01*
X040875Y031014D01*
X037725Y029195D01*
X034575Y031013D01*
X034127Y034707D02*
X030977Y036525D01*
X030977Y040162D01*
X034127Y041981D01*
X037277Y040163D01*
X037277Y036525D01*
X034127Y034707D01*
X030033Y036525D02*
X026883Y034707D01*
X023733Y036525D01*
X023733Y040162D01*
X026883Y041981D01*
X030033Y040163D01*
X030033Y036525D01*
X030485Y040218D02*
X033635Y042037D01*
X033636Y045674D01*
X030486Y047493D01*
X027335Y045674D01*
X027335Y042037D01*
X030485Y040218D01*
X034575Y042037D02*
X034575Y045674D01*
X037726Y047493D01*
X040876Y045674D01*
X040875Y042037D01*
X037725Y040218D01*
X034575Y042037D01*
X034127Y045730D02*
X030977Y047548D01*
X030977Y051186D01*
X034127Y053004D01*
X037277Y051186D01*
X037277Y047549D01*
X034127Y045730D01*
X030033Y047549D02*
X026883Y045730D01*
X023733Y047548D01*
X023733Y051186D01*
X026883Y053004D01*
X030033Y051186D01*
X030033Y047549D01*
X026388Y045674D02*
X026387Y042037D01*
X023237Y040218D01*
X020087Y042037D01*
X020087Y045674D01*
X023238Y047493D01*
X026388Y045674D01*
X022789Y047549D02*
X019638Y045730D01*
X016488Y047548D01*
X016489Y051186D01*
X019639Y053004D01*
X022789Y051186D01*
X022789Y047549D01*
X019151Y045674D02*
X019151Y042037D01*
X016001Y040218D01*
X012851Y042037D01*
X012851Y045674D01*
X016001Y047493D01*
X019151Y045674D01*
X015545Y047549D02*
X012394Y045730D01*
X009244Y047548D01*
X009245Y051186D01*
X012395Y053004D01*
X015545Y051186D01*
X015545Y047549D01*
X011903Y045674D02*
X011903Y042037D01*
X008753Y040218D01*
X005603Y042037D01*
X005603Y045674D01*
X008753Y047493D01*
X011903Y045674D01*
X012395Y041981D02*
X009245Y040162D01*
X009244Y036525D01*
X012394Y034707D01*
X015545Y036525D01*
X015545Y040163D01*
X012395Y041981D01*
X016489Y040162D02*
X019639Y041981D01*
X022789Y040163D01*
X022789Y036525D01*
X019638Y034707D01*
X016488Y036525D01*
X016489Y040162D01*
X015998Y036469D02*
X019148Y034651D01*
X019147Y031014D01*
X015997Y029195D01*
X012847Y031013D01*
X012847Y034650D01*
X015998Y036469D01*
X011903Y034651D02*
X011903Y031014D01*
X008753Y029195D01*
X005603Y031013D01*
X005603Y034650D01*
X008753Y036469D01*
X011903Y034651D01*
X012395Y030957D02*
X009245Y029138D01*
X009244Y025501D01*
X012394Y023683D01*
X015545Y025502D01*
X015545Y029139D01*
X012395Y030957D01*
X016489Y029138D02*
X019639Y030957D01*
X022789Y029139D01*
X022789Y025502D01*
X019638Y023683D01*
X016488Y025501D01*
X016489Y029138D01*
X015998Y025445D02*
X019148Y023627D01*
X019147Y019990D01*
X015997Y018171D01*
X012847Y019989D01*
X012847Y023626D01*
X015998Y025445D01*
X011903Y023627D02*
X011903Y019990D01*
X008753Y018171D01*
X005603Y019989D01*
X005603Y023626D01*
X008753Y025445D01*
X011903Y023627D01*
X008301Y025502D02*
X005150Y023683D01*
X002000Y025501D01*
X002001Y029138D01*
X005151Y030957D01*
X008301Y029139D01*
X008301Y025502D01*
X016489Y018115D02*
X019639Y019934D01*
X022789Y018115D01*
X022789Y014478D01*
X019638Y012659D01*
X016488Y014478D01*
X016489Y018115D01*
X020091Y019989D02*
X020091Y023626D01*
X023242Y025445D01*
X026392Y023627D01*
X026391Y019990D01*
X023241Y018171D01*
X020091Y019989D01*
X023241Y029195D02*
X026391Y031014D01*
X026392Y034651D01*
X023242Y036469D01*
X020091Y034650D01*
X020091Y031013D01*
X023241Y029195D01*
X008301Y036525D02*
X005150Y034707D01*
X002000Y036525D01*
X002001Y040162D01*
X005151Y041981D01*
X008301Y040163D01*
X008301Y036525D01*
X005150Y045730D02*
X002000Y047548D01*
X002001Y051186D01*
X005151Y053004D01*
X008301Y051186D01*
X008301Y047549D01*
X005150Y045730D01*
X038221Y047548D02*
X038221Y051186D01*
X041372Y053004D01*
X044522Y051186D01*
X044521Y047549D01*
X041371Y045730D01*
X038221Y047548D01*
X041812Y045682D02*
X044962Y047500D01*
X048112Y045682D01*
X048112Y042045D01*
X044961Y040226D01*
X041811Y042044D01*
X041812Y045682D01*
X041372Y041981D02*
X038221Y040162D01*
X038221Y036525D01*
X041371Y034707D01*
X044521Y036525D01*
X044522Y040163D01*
X041372Y041981D01*
X045465Y040162D02*
X048616Y041981D01*
X051766Y040163D01*
X051765Y036525D01*
X048615Y034707D01*
X045465Y036525D01*
X045465Y040162D01*
X049067Y042037D02*
X049068Y045674D01*
X052218Y047493D01*
X055368Y045674D01*
X055368Y042037D01*
X052217Y040218D01*
X049067Y042037D01*
X048615Y045730D02*
X045465Y047548D01*
X045465Y051186D01*
X048616Y053004D01*
X051766Y051186D01*
X051765Y047549D01*
X048615Y045730D01*
X052709Y047588D02*
X052709Y051225D01*
X055860Y053044D01*
X059010Y051226D01*
X059009Y047588D01*
X055859Y045770D01*
X052709Y047588D01*
X056312Y045713D02*
X059462Y047532D01*
X062612Y045714D01*
X062612Y042077D01*
X059461Y040258D01*
X056311Y042076D01*
X056312Y045713D01*
X055860Y042020D02*
X052709Y040201D01*
X052709Y036564D01*
X055859Y034746D01*
X059009Y036565D01*
X059010Y040202D01*
X055860Y042020D01*
X059462Y036508D02*
X062612Y034690D01*
X062612Y031053D01*
X059461Y029234D01*
X056311Y031052D01*
X056312Y034689D01*
X059462Y036508D01*
X055372Y034651D02*
X055372Y031014D01*
X052221Y029195D01*
X049071Y031013D01*
X049072Y034650D01*
X052222Y036469D01*
X055372Y034651D01*
X055860Y030997D02*
X052709Y029178D01*
X052709Y025541D01*
X055859Y023722D01*
X059009Y025541D01*
X059010Y029178D01*
X055860Y030997D01*
X051766Y029139D02*
X051765Y025502D01*
X048615Y023683D01*
X045465Y025501D01*
X045465Y029138D01*
X048616Y030957D01*
X051766Y029139D01*
X052218Y025449D02*
X055368Y023631D01*
X055368Y019994D01*
X052217Y018175D01*
X049067Y019993D01*
X049068Y023630D01*
X052218Y025449D01*
X048120Y023627D02*
X048120Y019990D01*
X044969Y018171D01*
X041819Y019989D01*
X041820Y023626D01*
X044970Y025445D01*
X048120Y023627D01*
X048616Y019934D02*
X045465Y018115D01*
X045465Y014478D01*
X048615Y012659D01*
X051765Y014478D01*
X051766Y018115D01*
X048616Y019934D01*
X052709Y018154D02*
X055860Y019973D01*
X059010Y018155D01*
X059009Y014518D01*
X055859Y012699D01*
X052709Y014517D01*
X052709Y018154D01*
X052218Y014422D02*
X055368Y012604D01*
X055368Y008966D01*
X052217Y007148D01*
X049067Y008966D01*
X049068Y012603D01*
X052218Y014422D01*
X048124Y012604D02*
X048124Y008966D01*
X044973Y007148D01*
X041823Y008966D01*
X041823Y012603D01*
X044974Y014422D01*
X048124Y012604D01*
X048616Y008910D02*
X045465Y007091D01*
X045465Y003454D01*
X048615Y001636D01*
X051765Y003455D01*
X051766Y007092D01*
X048616Y008910D01*
X052709Y007130D02*
X055860Y008949D01*
X059010Y007131D01*
X059009Y003494D01*
X055859Y001675D01*
X052709Y003493D01*
X052709Y007130D01*
X056311Y009005D02*
X056312Y012642D01*
X059462Y014461D01*
X062612Y012643D01*
X062612Y009006D01*
X059461Y007187D01*
X056311Y009005D01*
X059461Y018211D02*
X062612Y020029D01*
X062612Y023667D01*
X059462Y025485D01*
X056312Y023666D01*
X056311Y020029D01*
X059461Y018211D01*
X048120Y031014D02*
X044969Y029195D01*
X041819Y031013D01*
X041820Y034650D01*
X044970Y036469D01*
X048120Y034651D01*
X048120Y031014D01*
X044522Y029139D02*
X044521Y025502D01*
X041371Y023683D01*
X038221Y025501D01*
X038221Y029138D01*
X041372Y030957D01*
X044522Y029139D01*
X041372Y019934D02*
X038221Y018115D01*
X038221Y014478D01*
X041371Y012659D01*
X044521Y014478D01*
X044522Y018115D01*
X041372Y019934D01*
X041372Y008910D02*
X038221Y007091D01*
X038221Y003454D01*
X041371Y001636D01*
X044521Y003455D01*
X044522Y007092D01*
X041372Y008910D01*
D11*
X044442Y058816D02*
X045111Y058816D01*
X045111Y059210D01*
X045111Y060391D02*
X045111Y060548D01*
X044993Y060548D01*
X035229Y060548D01*
X035229Y060667D01*
X035111Y060667D01*
X035111Y060942D01*
X045111Y060942D01*
X045111Y060667D01*
X044993Y060667D01*
X044993Y060548D01*
X050308Y060548D02*
X050308Y060391D01*
X050308Y060548D02*
X050426Y060548D01*
X060190Y060548D01*
X060308Y060548D01*
X060308Y060391D01*
X060190Y060548D02*
X060190Y060667D01*
X060308Y060667D01*
X060308Y060942D01*
X050308Y060942D01*
X050308Y060667D01*
X050426Y060667D01*
X050426Y060548D01*
X051096Y060667D02*
X051253Y060667D01*
X051174Y060824D01*
X051096Y060667D01*
X051116Y060708D02*
X051232Y060708D01*
X051193Y060786D02*
X051155Y060786D01*
X050308Y059210D02*
X050308Y058816D01*
X050977Y058816D01*
X059639Y058816D02*
X060308Y058816D01*
X060308Y059210D01*
X036056Y060667D02*
X035899Y060667D01*
X035977Y060824D01*
X036056Y060667D01*
X036036Y060708D02*
X035919Y060708D01*
X035959Y060786D02*
X035996Y060786D01*
X035229Y060548D02*
X035111Y060548D01*
X035111Y060391D01*
X035111Y059210D02*
X035111Y058816D01*
X035781Y058816D01*
X029836Y058816D02*
X029166Y058816D01*
X029836Y058816D02*
X029836Y059210D01*
X029836Y060391D02*
X029836Y060548D01*
X029718Y060548D01*
X019954Y060548D01*
X019954Y060667D01*
X019836Y060667D01*
X019836Y060942D01*
X029836Y060942D01*
X029836Y060667D01*
X029718Y060667D01*
X029718Y060548D01*
X020781Y060667D02*
X020623Y060667D01*
X020702Y060824D01*
X020781Y060667D01*
X020760Y060708D02*
X020644Y060708D01*
X020683Y060786D02*
X020721Y060786D01*
X019954Y060548D02*
X019836Y060548D01*
X019836Y060391D01*
X019836Y059210D02*
X019836Y058816D01*
X020505Y058816D01*
X014599Y058816D02*
X013930Y058816D01*
X014599Y058816D02*
X014599Y059210D01*
X014599Y060391D02*
X014599Y060548D01*
X014481Y060548D01*
X004718Y060548D01*
X004718Y060667D01*
X004599Y060667D01*
X004599Y060942D01*
X014599Y060942D01*
X014599Y060667D01*
X014481Y060667D01*
X014481Y060548D01*
X005544Y060667D02*
X005387Y060667D01*
X005466Y060824D01*
X005544Y060667D01*
X005524Y060708D02*
X005408Y060708D01*
X005447Y060786D02*
X005484Y060786D01*
X004718Y060548D02*
X004599Y060548D01*
X004599Y060391D01*
X004599Y059210D02*
X004599Y058816D01*
X005269Y058816D01*
M02*
